<svg width="16" height="16" viewBox="0 0 16 16" fill="none" xmlns="http://www.w3.org/2000/svg">
<path fill-rule="evenodd" clip-rule="evenodd" d="M7.43638 2.2666H8.56323C9.54337 2.26659 10.3197 2.26659 10.9273 2.34827C11.5526 2.43234 12.0587 2.60947 12.4578 3.0086C12.8569 3.40773 13.0341 3.91383 13.1181 4.53912C13.1998 5.1467 13.1998 5.92304 13.1998 6.90318V9.09669C13.1998 10.0768 13.1998 10.8532 13.1181 11.4607C13.0341 12.086 12.8569 12.5921 12.4578 12.9913C12.0587 13.3904 11.5526 13.5675 10.9273 13.6516C10.3197 13.7333 9.54336 13.7333 8.56322 13.7333H7.43639C6.45625 13.7333 5.67991 13.7333 5.07233 13.6516C4.44703 13.5675 3.94093 13.3904 3.5418 12.9913C3.14267 12.5921 2.96555 12.086 2.88148 11.4607C2.79979 10.8532 2.7998 10.0768 2.7998 9.09669V6.90318C2.7998 5.92304 2.79979 5.1467 2.88148 4.53912C2.96555 3.91383 3.14267 3.40773 3.5418 3.0086C3.94093 2.60947 4.44703 2.43234 5.07233 2.34827C5.67991 2.26659 6.45624 2.26659 7.43638 2.2666ZM5.17892 3.14114C4.64234 3.21328 4.3332 3.34857 4.10749 3.57428C3.88177 3.8 3.74648 4.10914 3.67434 4.64572C3.60065 5.19381 3.5998 5.9163 3.5998 6.93327V9.0666C3.5998 10.0836 3.60065 10.8061 3.67434 11.3541C3.74648 11.8907 3.88177 12.1999 4.10749 12.4256C4.3332 12.6513 4.64234 12.7866 5.17892 12.8587C5.72701 12.9324 6.4495 12.9333 7.46647 12.9333H8.53314C9.55011 12.9333 10.2726 12.9324 10.8207 12.8587C11.3573 12.7866 11.6664 12.6513 11.8921 12.4256C12.1178 12.1999 12.2531 11.8907 12.3253 11.3541C12.399 10.8061 12.3998 10.0836 12.3998 9.0666V6.93327C12.3998 5.9163 12.399 5.19381 12.3253 4.64572C12.2531 4.10914 12.1178 3.8 11.8921 3.57428C11.6664 3.34857 11.3573 3.21328 10.8207 3.14114C10.2726 3.06745 9.55011 3.0666 8.53314 3.0666H7.46647C6.4495 3.0666 5.72701 3.06745 5.17892 3.14114ZM5.46647 5.8666C5.46647 5.64569 5.64556 5.4666 5.86647 5.4666H10.1331C10.3541 5.4666 10.5331 5.64569 10.5331 5.8666C10.5331 6.08752 10.3541 6.2666 10.1331 6.2666H5.86647C5.64556 6.2666 5.46647 6.08752 5.46647 5.8666ZM5.46647 7.99994C5.46647 7.77902 5.64556 7.59994 5.86647 7.59994H10.1331C10.3541 7.59994 10.5331 7.77902 10.5331 7.99994C10.5331 8.22085 10.3541 8.39994 10.1331 8.39994H5.86647C5.64556 8.39994 5.46647 8.22085 5.46647 7.99994ZM5.46647 10.1333C5.46647 9.91235 5.64556 9.73327 5.86647 9.73327H8.53314C8.75405 9.73327 8.93314 9.91235 8.93314 10.1333C8.93314 10.3542 8.75405 10.5333 8.53314 10.5333H5.86647C5.64556 10.5333 5.46647 10.3542 5.46647 10.1333Z" fill="#03683C"/>
</svg>
