<svg width="24" height="24" viewBox="0 0 24 24" fill="none" xmlns="http://www.w3.org/2000/svg">
<path d="M16.0004 13.6C16.4422 13.6 16.8004 13.2419 16.8004 12.8C16.8004 12.3582 16.4422 12 16.0004 12C15.5586 12 15.2004 12.3582 15.2004 12.8C15.2004 13.2419 15.5586 13.6 16.0004 13.6Z" fill="#C6A264"/>
<path d="M16.0004 16.8C16.4422 16.8 16.8004 16.4419 16.8004 16C16.8004 15.5582 16.4422 15.2 16.0004 15.2C15.5586 15.2 15.2004 15.5582 15.2004 16C15.2004 16.4419 15.5586 16.8 16.0004 16.8Z" fill="#C6A264"/>
<path d="M12.8004 12.8C12.8004 13.2419 12.4422 13.6 12.0004 13.6C11.5586 13.6 11.2004 13.2419 11.2004 12.8C11.2004 12.3582 11.5586 12 12.0004 12C12.4422 12 12.8004 12.3582 12.8004 12.8Z" fill="#C6A264"/>
<path d="M12.8004 16C12.8004 16.4419 12.4422 16.8 12.0004 16.8C11.5586 16.8 11.2004 16.4419 11.2004 16C11.2004 15.5582 11.5586 15.2 12.0004 15.2C12.4422 15.2 12.8004 15.5582 12.8004 16Z" fill="#C6A264"/>
<path d="M8.00039 13.6C8.44222 13.6 8.80039 13.2419 8.80039 12.8C8.80039 12.3582 8.44222 12 8.00039 12C7.55856 12 7.20039 12.3582 7.20039 12.8C7.20039 13.2419 7.55856 13.6 8.00039 13.6Z" fill="#C6A264"/>
<path d="M8.00039 16.8C8.44222 16.8 8.80039 16.4419 8.80039 16C8.80039 15.5582 8.44222 15.2 8.00039 15.2C7.55856 15.2 7.20039 15.5582 7.20039 16C7.20039 16.4419 7.55856 16.8 8.00039 16.8Z" fill="#C6A264"/>
<path fill-rule="evenodd" clip-rule="evenodd" d="M8.00039 3.80005C8.33176 3.80005 8.60039 4.06868 8.60039 4.40005V5.01022C9.12999 5.00004 9.71345 5.00004 10.3552 5.00005H13.6455C14.2872 5.00004 14.8708 5.00004 15.4004 5.01022V4.40005C15.4004 4.06868 15.669 3.80005 16.0004 3.80005C16.3318 3.80005 16.6004 4.06868 16.6004 4.40005V5.06172C16.8083 5.07757 17.0053 5.0975 17.1916 5.12256C18.1295 5.24866 18.8887 5.51435 19.4874 6.11304C20.0861 6.71173 20.3518 7.47089 20.4779 8.40883C20.6004 9.32019 20.6004 10.4847 20.6004 11.9549V13.6452C20.6004 15.1154 20.6004 16.2799 20.4779 17.1913C20.3518 18.1292 20.0861 18.8884 19.4874 19.4871C18.8887 20.0857 18.1295 20.3514 17.1916 20.4775C16.2802 20.6001 15.1157 20.6001 13.6456 20.6H10.3553C8.88507 20.6001 7.72054 20.6001 6.80917 20.4775C5.87124 20.3514 5.11208 20.0857 4.51339 19.4871C3.91469 18.8884 3.649 18.1292 3.5229 17.1913C3.40037 16.2799 3.40038 15.1154 3.40039 13.6452V11.9549C3.40038 10.4847 3.40037 9.3202 3.5229 8.40883C3.649 7.47089 3.91469 6.71173 4.51339 6.11304C5.11208 5.51435 5.87124 5.24866 6.80917 5.12256C6.99551 5.0975 7.19244 5.07757 7.40039 5.06172V4.40005C7.40039 4.06868 7.66902 3.80005 8.00039 3.80005ZM6.96907 6.31186C6.1642 6.42007 5.70048 6.623 5.36191 6.96157C5.02335 7.30014 4.82041 7.76386 4.7122 8.56873C4.69387 8.70504 4.67855 8.84854 4.66574 9.00005H19.335C19.3222 8.84854 19.3069 8.70504 19.2886 8.56873C19.1804 7.76386 18.9774 7.30014 18.6389 6.96157C18.3003 6.623 17.8366 6.42007 17.0317 6.31186C16.2096 6.20132 15.1258 6.20005 13.6004 6.20005H10.4004C8.87493 6.20005 7.7912 6.20132 6.96907 6.31186ZM4.60039 12C4.60039 11.3168 4.60065 10.7222 4.61086 10.2H19.3899C19.4001 10.7222 19.4004 11.3168 19.4004 12V13.6C19.4004 15.1255 19.3991 16.2092 19.2886 17.0314C19.1804 17.8362 18.9774 18.3 18.6389 18.6385C18.3003 18.9771 17.8366 19.18 17.0317 19.2882C16.2096 19.3988 15.1258 19.4 13.6004 19.4H10.4004C8.87493 19.4 7.7912 19.3988 6.96907 19.2882C6.1642 19.18 5.70048 18.9771 5.36191 18.6385C5.02335 18.3 4.82041 17.8362 4.7122 17.0314C4.60167 16.2092 4.60039 15.1255 4.60039 13.6V12Z" fill="#C6A264"/>
</svg>
