<svg width="24" height="24" viewBox="0 0 24 24" fill="none" xmlns="http://www.w3.org/2000/svg">
<path fill-rule="evenodd" clip-rule="evenodd" d="M12.0004 4.5999C7.91348 4.5999 4.60039 7.913 4.60039 11.9999C4.60039 16.0868 7.91348 19.3999 12.0004 19.3999C16.0873 19.3999 19.4004 16.0868 19.4004 11.9999C19.4004 7.913 16.0873 4.5999 12.0004 4.5999ZM3.40039 11.9999C3.40039 7.25025 7.25074 3.3999 12.0004 3.3999C16.75 3.3999 20.6004 7.25025 20.6004 11.9999C20.6004 16.7496 16.75 20.5999 12.0004 20.5999C7.25074 20.5999 3.40039 16.7496 3.40039 11.9999ZM12.0004 8.1999C12.3318 8.1999 12.6004 8.46853 12.6004 8.7999V11.7514L14.4247 13.5756C14.659 13.81 14.659 14.1899 14.4247 14.4242C14.1903 14.6585 13.8104 14.6585 13.5761 14.4242L11.5761 12.4242C11.4636 12.3116 11.4004 12.159 11.4004 11.9999V8.7999C11.4004 8.46853 11.669 8.1999 12.0004 8.1999Z" fill="#C6A264"/>
</svg>
