<svg width="24" height="24" viewBox="0 0 24 24" fill="none" xmlns="http://www.w3.org/2000/svg">
<path fill-rule="evenodd" clip-rule="evenodd" d="M14.4002 3.3999H11.1551C9.68486 3.39989 8.52035 3.39988 7.60898 3.52241C6.67104 3.64851 5.91188 3.91421 5.31319 4.5129C4.7145 5.11159 4.44881 5.87075 4.3227 6.80868C4.20017 7.72005 4.20018 8.88456 4.2002 10.3548V15.1999C4.2002 16.6977 5.29784 17.9391 6.73261 18.1637C6.84298 18.7749 7.05422 19.2966 7.47888 19.7212C7.96041 20.2028 8.56671 20.4099 9.2868 20.5067C9.98037 20.5999 10.8622 20.5999 11.9563 20.5999H14.4441C15.5382 20.5999 16.42 20.5999 17.1136 20.5067C17.8337 20.4099 18.44 20.2028 18.9215 19.7212C19.4031 19.2397 19.6102 18.6334 19.707 17.9133C19.8002 17.2197 19.8002 16.3379 19.8002 15.2438V11.156C19.8002 10.0619 19.8002 9.18008 19.707 8.4865C19.6102 7.76642 19.4031 7.16012 18.9215 6.67858C18.4969 6.25392 17.9752 6.04269 17.364 5.93231C17.1394 4.49754 15.898 3.3999 14.4002 3.3999ZM16.1037 5.81684C15.8614 5.10889 15.1902 4.5999 14.4002 4.5999H11.2002C9.67474 4.5999 8.59101 4.60118 7.76888 4.71171C6.964 4.81992 6.50029 5.02286 6.16172 5.36143C5.82315 5.69999 5.62022 6.16371 5.512 6.96858C5.40147 7.79071 5.4002 8.87445 5.4002 10.3999V15.1999C5.4002 15.9899 5.90918 16.6611 6.61713 16.9034C6.60018 16.4154 6.60019 15.8637 6.6002 15.2438V11.156C6.60018 10.0619 6.60017 9.18008 6.69341 8.4865C6.79023 7.76642 6.99734 7.16012 7.47888 6.67858C7.96041 6.19705 8.56671 5.98993 9.2868 5.89312C9.98037 5.79987 10.8622 5.79989 11.9563 5.7999H14.4441C15.064 5.79989 15.6157 5.79989 16.1037 5.81684ZM8.3274 7.52711C8.54881 7.3057 8.85967 7.16134 9.44669 7.08242C10.051 7.00118 10.8519 6.9999 12.0002 6.9999H14.4002C15.5485 6.9999 16.3494 7.00118 16.9537 7.08242C17.5407 7.16134 17.8516 7.3057 18.073 7.52711C18.2944 7.74852 18.4388 8.05938 18.5177 8.6464C18.5989 9.25068 18.6002 10.0516 18.6002 11.1999V15.1999C18.6002 16.3482 18.5989 17.1491 18.5177 17.7534C18.4388 18.3404 18.2944 18.6513 18.073 18.8727C17.8516 19.0941 17.5407 19.2385 16.9537 19.3174C16.3494 19.3986 15.5485 19.3999 14.4002 19.3999H12.0002C10.8519 19.3999 10.051 19.3986 9.44669 19.3174C8.85967 19.2385 8.54881 19.0941 8.3274 18.8727C8.10599 18.6513 7.96164 18.3404 7.88271 17.7534C7.80147 17.1491 7.8002 16.3482 7.8002 15.1999V11.1999C7.8002 10.0516 7.80147 9.25068 7.88271 8.6464C7.96164 8.05938 8.10599 7.74852 8.3274 7.52711Z" fill="#C6A264"/>
</svg>
