<svg width="24" height="24" viewBox="0 0 24 24" fill="none" xmlns="http://www.w3.org/2000/svg">
<path fill-rule="evenodd" clip-rule="evenodd" d="M11.1551 3.3999H12.8453C14.3155 3.39989 15.48 3.39988 16.3914 3.52241C17.3294 3.64851 18.0885 3.91421 18.6872 4.5129C19.2859 5.11159 19.5516 5.87075 19.6777 6.80868C19.8002 7.72006 19.8002 8.88456 19.8002 10.3548V13.645C19.8002 15.1152 19.8002 16.2797 19.6777 17.1911C19.5516 18.1291 19.2859 18.8882 18.6872 19.4869C18.0885 20.0856 17.3294 20.3513 16.3914 20.4774C15.48 20.5999 14.3155 20.5999 12.8453 20.5999H11.1551C9.68486 20.5999 8.52035 20.5999 7.60898 20.4774C6.67104 20.3513 5.91188 20.0856 5.31319 19.4869C4.7145 18.8882 4.44881 18.1291 4.3227 17.1911C4.20017 16.2797 4.20018 15.1152 4.2002 13.645V10.3548C4.20018 8.88456 4.20017 7.72006 4.3227 6.80868C4.44881 5.87075 4.7145 5.11159 5.31319 4.5129C5.91188 3.91421 6.67104 3.64851 7.60898 3.52241C8.52035 3.39988 9.68485 3.39989 11.1551 3.3999ZM7.76887 4.71171C6.964 4.81992 6.50029 5.02286 6.16172 5.36143C5.82315 5.69999 5.62022 6.16371 5.512 6.96858C5.40147 7.79071 5.4002 8.87445 5.4002 10.3999V13.5999C5.4002 15.1254 5.40147 16.2091 5.512 17.0312C5.62021 17.8361 5.82315 18.2998 6.16172 18.6384C6.50029 18.9769 6.964 19.1799 7.76887 19.2881C8.59101 19.3986 9.67474 19.3999 11.2002 19.3999H12.8002C14.3257 19.3999 15.4094 19.3986 16.2315 19.2881C17.0364 19.1799 17.5001 18.9769 17.8387 18.6384C18.1772 18.2998 18.3802 17.8361 18.4884 17.0312C18.5989 16.2091 18.6002 15.1254 18.6002 13.5999V10.3999C18.6002 8.87445 18.5989 7.79071 18.4884 6.96858C18.3802 6.16371 18.1772 5.69999 17.8387 5.36143C17.5001 5.02286 17.0364 4.81992 16.2315 4.71171C15.4094 4.60118 14.3257 4.5999 12.8002 4.5999H11.2002C9.67474 4.5999 8.59101 4.60118 7.76887 4.71171ZM8.2002 8.7999C8.2002 8.46853 8.46882 8.1999 8.8002 8.1999H15.2002C15.5316 8.1999 15.8002 8.46853 15.8002 8.7999C15.8002 9.13127 15.5316 9.3999 15.2002 9.3999H8.8002C8.46882 9.3999 8.2002 9.13127 8.2002 8.7999ZM8.2002 11.9999C8.2002 11.6685 8.46882 11.3999 8.8002 11.3999H15.2002C15.5316 11.3999 15.8002 11.6685 15.8002 11.9999C15.8002 12.3313 15.5316 12.5999 15.2002 12.5999H8.8002C8.46882 12.5999 8.2002 12.3313 8.2002 11.9999ZM8.2002 15.1999C8.2002 14.8685 8.46882 14.5999 8.8002 14.5999H12.8002C13.1316 14.5999 13.4002 14.8685 13.4002 15.1999C13.4002 15.5313 13.1316 15.7999 12.8002 15.7999H8.8002C8.46882 15.7999 8.2002 15.5313 8.2002 15.1999Z" fill="#C6A264"/>
</svg>
