<svg width="24" height="24" viewBox="0 0 24 24" fill="none" xmlns="http://www.w3.org/2000/svg">
<path fill-rule="evenodd" clip-rule="evenodd" d="M9.97187 4.65665C11.27 4.04804 12.7307 4.04804 14.0288 4.65666L19.3818 7.16625C20.2236 7.56092 20.6004 8.41797 20.6004 9.20021C20.6004 9.98245 20.2236 10.8395 19.3818 11.2342L18.2004 11.7881V15.7005C18.2004 16.703 17.6978 17.6708 16.7828 18.1775C16.1814 18.5106 15.3911 18.9115 14.5595 19.2306C13.7376 19.5459 12.8275 19.8002 12.0004 19.8002C11.1733 19.8002 10.2632 19.5459 9.44132 19.2306C8.60966 18.9115 7.81936 18.5106 7.21798 18.1775C6.303 17.6708 5.80039 16.703 5.80039 15.7005V11.788L4.61898 11.2341L4.60039 11.2253V13.6002C4.60039 13.9316 4.33176 14.2002 4.00039 14.2002C3.66902 14.2002 3.40039 13.9316 3.40039 13.6002V9.2002C3.40039 8.41795 3.77715 7.56088 4.61898 7.16621L9.97187 4.65665ZM7.00039 12.3506V15.7005C7.00039 16.3109 7.30339 16.8531 7.79934 17.1278C8.37265 17.4453 9.10982 17.8181 9.87115 18.1102C10.6423 18.406 11.3907 18.6002 12.0004 18.6002C12.6101 18.6002 13.3585 18.406 14.1296 18.1102C14.891 17.8181 15.6281 17.4453 16.2014 17.1278C16.6974 16.8531 17.0004 16.3109 17.0004 15.7005V12.3506L14.0289 13.7437C12.7307 14.3523 11.2701 14.3523 9.97194 13.7437L7.00039 12.3506ZM5.12836 10.1476C4.80582 9.99641 4.60039 9.6357 4.60039 9.20018C4.60039 8.76465 4.80582 8.40394 5.12837 8.25273L10.4813 5.74317C11.4567 5.28587 12.544 5.28587 13.5195 5.74318L18.8724 8.25277C19.195 8.40398 19.4004 8.76469 19.4004 9.20021C19.4004 9.63574 19.195 9.99645 18.8724 10.1477L13.5195 12.6572C12.5441 13.1145 11.4568 13.1145 10.4813 12.6572L5.12836 10.1476Z" fill="#777F89"/>
</svg>
