<svg width="24" height="24" viewBox="0 0 24 24" fill="none" xmlns="http://www.w3.org/2000/svg">
<path d="M17.4549 9.01804C17.7763 8.93767 18.1021 9.13313 18.1825 9.4546C18.2628 9.77608 18.0674 10.1018 17.7459 10.1822L14.5459 10.9822C14.2244 11.0626 13.8987 10.8671 13.8183 10.5456C13.7379 10.2242 13.9334 9.89841 14.2549 9.81804L17.4549 9.01804Z" fill="#777F89"/>
<path d="M17.4549 12.218C17.7763 12.1377 18.1021 12.3331 18.1825 12.6546C18.2628 12.9761 18.0674 13.3018 17.7459 13.3822L14.5459 14.1822C14.2244 14.2626 13.8987 14.0671 13.8183 13.7456C13.7379 13.4242 13.9334 13.0984 14.2549 13.018L17.4549 12.218Z" fill="#777F89"/>
<path d="M5.81831 9.4546C5.89867 9.13313 6.22444 8.93767 6.54591 9.01804L9.74591 9.81804C10.0674 9.89841 10.2628 10.2242 10.1825 10.5456C10.1021 10.8671 9.77635 11.0626 9.45487 10.9822L6.25487 10.1822C5.93339 10.1018 5.73794 9.77608 5.81831 9.4546Z" fill="#777F89"/>
<path d="M5.81831 12.6546C5.89867 12.3331 6.22444 12.1377 6.54591 12.218L9.74591 13.018C10.0674 13.0984 10.2628 13.4242 10.1825 13.7456C10.1021 14.0671 9.77635 14.2626 9.45487 14.1822L6.25487 13.3822C5.93339 13.3018 5.73794 12.9761 5.81831 12.6546Z" fill="#777F89"/>
<path fill-rule="evenodd" clip-rule="evenodd" d="M20.6004 6.34668C20.6004 5.17604 19.6681 4.17208 18.4451 4.21469C17.5344 4.24641 16.344 4.34114 15.4283 4.61529C14.6323 4.8536 13.7369 5.31907 13.0389 5.72303C12.3845 6.1018 11.5697 6.12069 10.9067 5.77008C10.1103 5.34897 9.06252 4.84982 8.15348 4.60994C7.38483 4.40711 6.41253 4.30968 5.62312 4.26117C4.37653 4.18455 3.40039 5.19904 3.40039 6.39837V15.315C3.40039 16.544 4.39542 17.5034 5.57482 17.5772C6.34183 17.6252 7.20492 17.7174 7.8473 17.887C8.64135 18.0965 9.62327 18.5624 10.4161 18.985C11.4027 19.5109 12.5981 19.5109 13.5847 18.985C14.3775 18.5624 15.3594 18.0965 16.1535 17.887C16.7959 17.7174 17.659 17.6252 18.426 17.5772C19.6054 17.5034 20.6004 16.544 20.6004 15.315V6.34668ZM18.4869 5.41396C18.9787 5.39683 19.4004 5.80141 19.4004 6.34668V15.315C19.4004 15.8636 18.9457 16.3424 18.3511 16.3795C17.567 16.4286 16.6077 16.526 15.8473 16.7267C14.911 16.9737 13.8266 17.4962 13.0202 17.926C12.8856 17.9978 12.7448 18.0543 12.6004 18.0956V7.15375C12.9622 7.08132 13.3141 6.95027 13.64 6.76163C14.3204 6.36787 15.1163 5.96132 15.7725 5.76488C16.5318 5.53755 17.5918 5.44514 18.4869 5.41396ZM11.4004 7.18011C11.0364 7.1235 10.6796 7.00744 10.3457 6.8309C9.56428 6.41769 8.617 5.97333 7.8473 5.77022C7.19753 5.59876 6.32229 5.5064 5.54951 5.45891C5.04234 5.42774 4.60039 5.84062 4.60039 6.39837V15.315C4.60039 15.8636 5.05504 16.3424 5.64973 16.3795C6.4338 16.4286 7.39313 16.526 8.15348 16.7267C9.08975 16.9737 10.1742 17.4962 10.9806 17.926C11.1152 17.9978 11.256 18.0543 11.4004 18.0956V7.18011Z" fill="#777F89"/>
</svg>
