<svg width="24" height="24" viewBox="0 0 24 24" fill="none" xmlns="http://www.w3.org/2000/svg">
<path fill-rule="evenodd" clip-rule="evenodd" d="M11.6004 4.5999C7.7344 4.5999 4.60039 7.73391 4.60039 11.5999C4.60039 15.4659 7.7344 18.5999 11.6004 18.5999C15.4664 18.5999 18.6004 15.4659 18.6004 11.5999C18.6004 7.73391 15.4664 4.5999 11.6004 4.5999ZM3.40039 11.5999C3.40039 7.07117 7.07166 3.3999 11.6004 3.3999C16.1291 3.3999 19.8004 7.07117 19.8004 11.5999C19.8004 13.6483 19.0493 15.5213 17.8075 16.9585L20.4247 19.5756C20.659 19.81 20.659 20.1899 20.4247 20.4242C20.1903 20.6585 19.8104 20.6585 19.5761 20.4242L16.959 17.807C15.5218 19.0488 13.6488 19.7999 11.6004 19.7999C7.07166 19.7999 3.40039 16.1286 3.40039 11.5999Z" fill="#777F89"/>
</svg>
