<svg width="44" height="44" viewBox="0 0 44 44" fill="none" xmlns="http://www.w3.org/2000/svg">
<path d="M0 12C0 5.37258 5.37258 0 12 0H32C38.6274 0 44 5.37258 44 12V32C44 38.6274 38.6274 44 32 44H12C5.37258 44 0 38.6274 0 32V12Z" fill="#EEF1F0"/>
<path fill-rule="evenodd" clip-rule="evenodd" d="M30.6001 18.0001C30.6001 18.3315 30.3315 18.6001 30.0001 18.6001L14.0001 18.6001C13.6687 18.6001 13.4001 18.3315 13.4001 18.0001C13.4001 17.6687 13.6687 17.4001 14.0001 17.4001L30.0001 17.4001C30.3315 17.4001 30.6001 17.6687 30.6001 18.0001Z" fill="#050C07"/>
<path fill-rule="evenodd" clip-rule="evenodd" d="M28.2002 22.0001C28.2002 22.3315 27.9316 22.6001 27.6002 22.6001H16.4002C16.0688 22.6001 15.8002 22.3315 15.8002 22.0001C15.8002 21.6687 16.0688 21.4001 16.4002 21.4001H27.6002C27.9316 21.4001 28.2002 21.6687 28.2002 22.0001Z" fill="#050C07"/>
<path fill-rule="evenodd" clip-rule="evenodd" d="M25.7998 26.0001C25.7998 26.3315 25.5312 26.6001 25.1998 26.6001H18.7998C18.4684 26.6001 18.1998 26.3315 18.1998 26.0001C18.1998 25.6687 18.4684 25.4001 18.7998 25.4001H25.1998C25.5312 25.4001 25.7998 25.6687 25.7998 26.0001Z" fill="#050C07"/>
</svg>
