<svg width="24" height="24" viewBox="0 0 24 24" fill="none" xmlns="http://www.w3.org/2000/svg">
<path fill-rule="evenodd" clip-rule="evenodd" d="M9.97187 4.65641C11.27 4.0478 12.7307 4.0478 14.0288 4.65641L19.3818 7.166C20.2236 7.56067 20.6004 8.41773 20.6004 9.19997C20.6004 9.98221 20.2236 10.8393 19.3818 11.2339L18.2004 11.7878V15.7003C18.2004 16.7027 17.6978 17.6706 16.7828 18.1773C16.1814 18.5103 15.3911 18.9113 14.5595 19.2303C13.7376 19.5456 12.8275 19.8 12.0004 19.8C11.1733 19.8 10.2632 19.5456 9.44132 19.2303C8.60966 18.9113 7.81936 18.5103 7.21798 18.1773C6.303 17.6706 5.80039 16.7027 5.80039 15.7003V11.7878L4.61898 11.2339L4.60039 11.2251V13.6C4.60039 13.9313 4.33176 14.2 4.00039 14.2C3.66902 14.2 3.40039 13.9313 3.40039 13.6V9.19995C3.40039 8.41771 3.77715 7.56064 4.61898 7.16597L9.97187 4.65641ZM7.00039 12.3504V15.7003C7.00039 16.3107 7.30339 16.8529 7.79934 17.1275C8.37265 17.445 9.10982 17.8179 9.87115 18.1099C10.6423 18.4058 11.3907 18.6 12.0004 18.6C12.6101 18.6 13.3585 18.4058 14.1296 18.1099C14.891 17.8179 15.6281 17.445 16.2014 17.1275C16.6974 16.8529 17.0004 16.3107 17.0004 15.7003V12.3504L14.0289 13.7435C12.7307 14.3521 11.2701 14.3521 9.97194 13.7435L7.00039 12.3504ZM5.12836 10.1474C4.80582 9.99617 4.60039 9.63546 4.60039 9.19993C4.60039 8.76441 4.80582 8.4037 5.12837 8.25249L10.4813 5.74293C11.4567 5.28562 12.544 5.28562 13.5195 5.74293L18.8724 8.25252C19.195 8.40374 19.4004 8.76444 19.4004 9.19997C19.4004 9.63549 19.195 9.9962 18.8724 10.1474L13.5195 12.657C12.5441 13.1143 11.4568 13.1143 10.4813 12.657L5.12836 10.1474Z" fill="#03683C"/>
</svg>
