<svg width="24" height="24" viewBox="0 0 24 24" fill="none" xmlns="http://www.w3.org/2000/svg">
<path fill-rule="evenodd" clip-rule="evenodd" d="M11.9998 3.3999C9.90112 3.3999 8.1998 5.10122 8.1998 7.1999C8.1998 9.29858 9.90112 10.9999 11.9998 10.9999C14.0985 10.9999 15.7998 9.29858 15.7998 7.1999C15.7998 5.10122 14.0985 3.3999 11.9998 3.3999ZM9.3998 7.1999C9.3998 5.76396 10.5639 4.5999 11.9998 4.5999C13.4357 4.5999 14.5998 5.76396 14.5998 7.1999C14.5998 8.63584 13.4357 9.7999 11.9998 9.7999C10.5639 9.7999 9.3998 8.63584 9.3998 7.1999Z" fill="#C6A264"/>
<path fill-rule="evenodd" clip-rule="evenodd" d="M11.9998 12.1999C10.3683 12.1999 8.86182 12.5765 7.74232 13.2162C6.6398 13.8462 5.7998 14.808 5.7998 15.9999C5.7998 17.1918 6.6398 18.1536 7.74232 18.7836C8.86182 19.4233 10.3683 19.7999 11.9998 19.7999C13.6313 19.7999 15.1378 19.4233 16.2573 18.7836C17.3598 18.1536 18.1998 17.1918 18.1998 15.9999C18.1998 14.808 17.3598 13.8462 16.2573 13.2162C15.1378 12.5765 13.6313 12.1999 11.9998 12.1999ZM6.9998 15.9999C6.9998 15.4245 7.41341 14.7863 8.33769 14.2581C9.245 13.7396 10.5385 13.3999 11.9998 13.3999C13.4611 13.3999 14.7546 13.7396 15.6619 14.2581C16.5862 14.7863 16.9998 15.4245 16.9998 15.9999C16.9998 16.5753 16.5862 17.2135 15.6619 17.7417C14.7546 18.2602 13.4611 18.5999 11.9998 18.5999C10.5385 18.5999 9.245 18.2602 8.33769 17.7417C7.41341 17.2135 6.9998 16.5753 6.9998 15.9999Z" fill="#C6A264"/>
</svg>
