<svg width="16" height="16" viewBox="0 0 16 16" fill="none" xmlns="http://www.w3.org/2000/svg">
<path fill-rule="evenodd" clip-rule="evenodd" d="M0.789899 0.0309528C0.475533 -0.0738359 0.135741 0.0960601 0.0309528 0.410426C-0.0738359 0.724792 0.0960601 1.06458 0.410426 1.16937L0.622355 1.24002C1.16348 1.42039 1.52124 1.5406 1.7848 1.66321C2.03437 1.77931 2.14227 1.87275 2.21141 1.96867C2.28054 2.06459 2.33506 2.1965 2.36628 2.46998C2.39926 2.75878 2.40016 3.1362 2.40016 3.70659L2.40016 5.84406C2.40015 6.93813 2.40013 7.81999 2.49338 8.51356C2.59019 9.23365 2.79731 9.83995 3.27884 10.3215C3.76038 10.803 4.36668 11.0101 5.08676 11.1069C5.78033 11.2002 6.66218 11.2002 7.75625 11.2002H14.2002C14.5315 11.2002 14.8002 10.9315 14.8002 10.6002C14.8002 10.2688 14.5315 10.0002 14.2002 10.0002H7.80016C6.65183 10.0002 5.85094 9.99889 5.24666 9.91765C4.65964 9.83872 4.34878 9.69437 4.12737 9.47296C4.05001 9.3956 3.98206 9.30732 3.92302 9.20016H11.8469C12.2056 9.20018 12.5211 9.2002 12.7831 9.17192C13.0666 9.14131 13.3413 9.07331 13.5998 8.90288C13.8582 8.73245 14.029 8.50673 14.1688 8.25819C14.298 8.02858 14.4222 7.73857 14.5635 7.4089L14.9369 6.53749C15.2445 5.81989 15.5019 5.21953 15.6307 4.73124C15.765 4.22185 15.8 3.69 15.483 3.20928C15.166 2.72855 14.6634 2.55121 14.1423 2.47406C13.6427 2.4001 12.9896 2.40013 12.2088 2.40016L3.56557 2.40016C3.56337 2.37777 3.56103 2.35567 3.55854 2.33386C3.51426 1.946 3.41777 1.59011 3.1849 1.26701C2.95202 0.943916 2.6449 0.73984 2.29096 0.575181C1.95797 0.420274 1.53451 0.279136 1.03341 0.112122L0.789899 0.0309528ZM3.60016 3.60016C3.60017 3.62436 3.60016 3.64873 3.60016 3.67328L3.60016 5.80016C3.60016 6.73775 3.60101 7.44371 3.64554 8.00016H11.8176C12.2143 8.00016 12.4644 7.99935 12.6543 7.97886C12.8296 7.95992 12.8971 7.92883 12.9392 7.90107C12.9813 7.8733 13.0364 7.82356 13.1229 7.66982C13.2165 7.50339 13.3158 7.27385 13.4721 6.90922L13.8149 6.10922C14.1465 5.33546 14.3669 4.81721 14.4703 4.42516C14.5708 4.04418 14.5199 3.92856 14.4812 3.86987C14.4425 3.81118 14.3563 3.71882 13.9665 3.66112C13.5654 3.60174 13.0023 3.60016 12.1605 3.60016H3.60016Z" fill="white"/>
<path fill-rule="evenodd" clip-rule="evenodd" d="M3.20016 13.8002C3.20016 14.7943 4.00605 15.6002 5.00016 15.6002C5.99428 15.6002 6.80016 14.7943 6.80016 13.8002C6.80016 12.8061 5.99428 12.0002 5.00016 12.0002C4.00605 12.0002 3.20016 12.8061 3.20016 13.8002ZM5.00016 14.4002C4.66879 14.4002 4.40016 14.1315 4.40016 13.8002C4.40016 13.4688 4.66879 13.2002 5.00016 13.2002C5.33153 13.2002 5.60016 13.4688 5.60016 13.8002C5.60016 14.1315 5.33153 14.4002 5.00016 14.4002Z" fill="white"/>
<path fill-rule="evenodd" clip-rule="evenodd" d="M12.2002 15.6002C11.206 15.6002 10.4002 14.7943 10.4002 13.8002C10.4002 12.8061 11.206 12.0002 12.2002 12.0002C13.1943 12.0002 14.0002 12.8061 14.0002 13.8002C14.0002 14.7943 13.1943 15.6002 12.2002 15.6002ZM11.6002 13.8002C11.6002 14.1316 11.8688 14.4002 12.2002 14.4002C12.5315 14.4002 12.8002 14.1316 12.8002 13.8002C12.8002 13.4689 12.5315 13.2002 12.2002 13.2002C11.8688 13.2002 11.6002 13.4689 11.6002 13.8002Z" fill="white"/>
</svg>
