<svg width="27" height="15" viewBox="0 0 27 15" fill="none" xmlns="http://www.w3.org/2000/svg">
<g clip-path="url(#clip0_12_1421)">
<path d="M20.3103 5.3626L20.4001 5.34742C20.7099 4.93486 21.2627 4.65366 21.7723 4.63584C22.0225 4.62725 22.4541 4.76983 22.6659 4.91341C22.953 5.1078 23.2058 5.51805 23.2272 5.87153C23.2311 5.93622 23.1842 6.05504 23.2184 6.09861C23.2492 6.13788 23.3226 6.11511 23.3701 6.12534C23.8492 6.22732 24.0849 6.67421 24.3756 7.01317C24.4014 7.04353 24.5586 7.20988 24.578 7.21912C24.6113 7.23496 24.6514 7.23661 24.6746 7.20261C24.6882 7.15575 24.6126 7.14189 24.6291 7.07522C24.6313 7.0663 24.7054 6.92505 24.7144 6.91349C24.8599 6.7224 25.243 6.87158 25.1942 7.12637C25.2346 7.19271 25.481 7.05178 25.5301 7.0201C25.7306 6.89138 25.8722 6.695 25.8541 6.44483C25.8512 6.40588 25.7936 6.36198 25.8664 6.33987C25.9449 6.31611 26.0303 6.38773 26.0814 6.44351C26.1712 6.54153 26.2204 6.65705 26.2272 6.79138C26.2311 6.87125 26.1687 6.93198 26.275 6.97224C26.3232 6.99072 26.3859 6.9861 26.4357 7.00624C26.4729 7.02142 26.5747 7.09403 26.6132 7.12208C26.6779 7.16895 27.0051 7.44949 26.9999 7.51385C26.8777 7.67821 26.6035 7.95941 26.405 8.01222C26.3487 8.02707 26.2637 8.00628 26.2252 8.06008C26.1939 8.10397 26.2298 8.15315 26.2272 8.20893C26.2168 8.41521 26.0694 8.68519 25.8386 8.66374C25.8774 8.47231 25.8554 8.3459 25.7487 8.18616C25.642 8.02641 25.4212 7.90364 25.2356 7.85743C25.169 7.8901 25.2055 7.96205 25.1738 8.02641C25.0936 8.1888 24.8185 8.23368 24.707 8.07823C24.6876 8.05117 24.6245 7.92575 24.6287 7.90001C24.6345 7.8637 24.6818 7.84126 24.6746 7.79835C24.6417 7.68283 24.4406 7.91717 24.4079 7.95413C24.0885 8.31355 23.8971 8.73734 23.3856 8.87431C23.339 8.88685 23.2395 8.86407 23.2117 8.91127C23.1881 8.95088 23.2349 9.08092 23.2291 9.14329C23.2081 9.37499 23.0442 9.72946 22.8871 9.90009C22.4975 10.3232 21.8777 10.4358 21.3416 10.2932C20.9792 10.1968 20.6281 9.95092 20.3959 9.65355C20.2362 9.5509 20.3762 9.86742 20.3875 9.91395C20.589 10.7348 20.3542 11.7734 19.8088 12.418C19.2666 13.059 17.9456 13.7125 18.2815 14.7369C18.298 14.7874 18.415 14.9696 18.3866 15.001C18.1337 14.9432 17.845 14.8175 17.6507 14.6383C17.5081 14.5066 17.3196 14.2214 17.2514 14.0392C17.2346 13.9943 17.2045 13.8115 17.1796 13.795C17.1405 13.7689 16.9627 13.8013 16.8916 13.796C15.9905 13.7303 15.1968 13.5491 14.4212 13.0504C12.9087 12.0781 12.1839 10.3041 10.9585 9.04362C10.8502 8.93206 10.6821 8.76605 10.5628 8.67199C10.5227 8.6403 10.4774 8.59938 10.4257 8.5974C10.3959 8.60037 10.1512 8.88652 10.094 8.93635C9.9404 9.07035 9.66041 9.19676 9.46772 9.23769C9.39336 9.2532 9.09785 9.25617 9.06681 9.30733C9.04515 9.3433 9.10205 9.50106 9.10755 9.56377C9.1845 10.4681 8.56924 11.1728 7.72443 11.3526C7.18773 11.4668 6.32094 11.4104 6.01767 11.9867C5.88641 12.2358 5.89902 12.5368 6.0361 12.7817C6.03384 12.9095 5.79685 12.7567 5.73413 12.76C4.31997 12.1735 3.65977 10.817 4.2663 9.34099C4.29313 9.27597 4.46061 9.0423 4.27858 9.106C4.14829 9.15154 3.99051 9.29016 3.82595 9.35353C2.83435 9.73573 1.95883 9.39314 1.29119 8.61489C1.14247 8.44161 0.750292 7.81617 0.529794 7.80627C0.411139 7.80099 0.529794 7.91189 0.5479 7.95446C0.69145 8.29903 0.0710163 8.5304 0.00732411 8.12675C-0.0295333 7.8934 0.0778058 7.84522 0.215213 7.69637C0.223942 7.64587 0.0364221 7.55544 0.0409484 7.50362C0.0474146 7.4287 0.227175 7.37457 0.21392 7.30493C0.20616 7.26466 0.0787758 7.19271 0.0474146 7.14486C-0.0353529 7.01812 -0.00690156 6.74715 0.145054 6.6851C0.377192 6.59071 0.650066 6.82471 0.54305 7.05838C0.524621 7.09832 0.410493 7.19634 0.531087 7.19634C0.751262 7.19634 1.1693 6.52701 1.3232 6.3534C2.02381 5.56426 3.00765 5.22431 3.99375 5.72367C4.07263 5.76361 4.28149 5.9448 4.35521 5.90025C4.37331 5.80816 4.2886 5.72301 4.25433 5.63885C3.66752 4.1906 4.31059 2.87173 5.68013 2.26939C5.72475 2.24992 5.96077 2.1618 5.9876 2.16873C6.00247 2.17269 6.01735 2.18391 6.02866 2.19447C6.05388 2.2354 6.00409 2.27269 5.99148 2.30636C5.86636 2.64037 5.91744 2.95457 6.16478 3.21003C6.55404 3.61236 7.42537 3.54404 7.93975 3.7084C8.68304 3.94571 9.17933 4.65135 9.1069 5.45369C9.09882 5.54215 9.03965 5.62664 9.0736 5.70321C9.11402 5.75635 9.35618 5.74644 9.437 5.76097C9.56374 5.78407 9.77195 5.86361 9.88932 5.92632C10.0924 6.03491 10.2433 6.21379 10.3914 6.38707C10.4503 6.43063 10.5004 6.38245 10.546 6.34515C11.8796 5.25698 12.5938 3.41499 13.9333 2.31098C14.8379 1.56507 15.7626 1.28684 16.9074 1.20499C17.0028 1.19806 17.0859 1.22479 17.1742 1.21324C17.2065 1.19344 17.2281 1.0205 17.2463 0.973298C17.3119 0.803324 17.4962 0.514202 17.6258 0.387134C17.8217 0.194716 18.1066 0.0801899 18.3623 0.000648718C18.4351 0.00625918 18.2964 0.231021 18.2844 0.267327C17.9443 1.30268 19.264 1.9377 19.8085 2.58327C20.3856 3.26779 20.5553 4.21865 20.3872 5.08734L20.3103 5.36326V5.3626ZM3.93458 7.34288C3.98954 7.39965 4.28408 7.16103 4.33096 7.11218C4.42472 7.01515 4.67076 6.64682 4.7241 6.52338C4.77357 6.40885 4.69145 6.33888 4.60513 6.27056C4.54467 6.2227 4.4758 6.20224 4.42052 6.16197C4.37558 6.12897 4.34324 6.07616 4.29572 6.04184C4.23009 5.99464 3.91001 5.82236 3.83856 5.79892C3.67108 5.7438 3.7726 5.93127 3.77422 6.01444C3.77583 6.09762 3.73348 6.18706 3.67658 6.24614C3.44864 6.48212 3.05938 6.28772 2.79362 6.25505C2.007 6.15867 1.48421 6.65342 0.935549 7.11119C0.78327 7.23826 0.544343 7.30955 0.572148 7.54949C0.587667 7.68217 0.848255 7.81716 0.951715 7.90429C1.39077 8.27395 1.82918 8.69344 2.43894 8.74592C2.77325 8.77496 2.99342 8.66274 3.29572 8.64558C3.51395 8.63337 3.77454 8.71918 3.77454 8.98454C3.77454 9.05682 3.6866 9.20864 3.7975 9.20864C3.89223 9.20864 4.16769 9.00203 4.2802 8.97365C4.36297 8.85483 4.49003 8.82249 4.58993 8.74526C4.66171 8.68981 4.76613 8.59475 4.73445 8.49871C4.70859 8.41983 4.47257 8.06701 4.41082 7.9878C4.30251 7.84951 4.11272 7.67359 3.93555 7.65643C3.92423 7.73993 4.01314 7.78977 4.02866 7.86634C4.09171 8.17526 3.74868 8.37692 3.51622 8.15876C3.42601 8.07427 3.45608 7.96304 3.4273 7.91948C3.37299 7.83763 3.17609 8.03796 3.12242 8.07196C2.87735 8.22774 2.45899 8.36834 2.25466 8.07691C2.17642 7.96535 2.15831 7.86304 2.21101 7.73531C2.2414 7.66204 2.33322 7.59669 2.33678 7.5155C2.34098 7.41417 2.24657 7.35411 2.21424 7.27655C2.15702 7.13991 2.17512 7.03099 2.26242 6.91316C2.46449 6.64087 2.89611 6.77718 3.13309 6.93264C3.18191 6.96465 3.37008 7.16598 3.42763 7.07951C3.42763 6.8059 3.74447 6.64516 3.94654 6.83692C4.01023 6.89732 4.04451 7.03198 4.03222 7.11878C4.01993 7.20559 3.93005 7.25773 3.9362 7.34255L3.93458 7.34288ZM4.13115 7.52903C4.14376 7.57326 4.30477 7.65082 4.35488 7.69736C4.49423 7.82706 4.62452 8.01552 4.72378 8.1789C4.75935 8.23764 4.81204 8.4195 4.89384 8.41191C5.01702 8.32907 5.11014 8.20398 5.22879 8.11091C5.44088 7.94456 5.63196 7.87987 5.85375 7.75874C6.04741 7.6528 5.75514 7.57425 5.68078 7.49933C5.68078 7.47589 5.92326 7.38744 5.92326 7.3178C5.92326 7.25443 5.63487 7.15443 5.56892 7.11812C5.43151 7.04254 5.25951 6.91679 5.13924 6.81415C5.07005 6.75507 4.95689 6.58642 4.86474 6.59962C4.80429 6.6082 4.75579 6.7653 4.72313 6.81976C4.61418 7.00228 4.49423 7.1904 4.32967 7.32572C4.25724 7.38546 4.10173 7.42771 4.13083 7.52903L4.13115 7.52903ZM5.73704 9.09214L5.46222 9.09214C5.41534 9.09214 5.2233 9.00302 5.17448 8.97332C5.09074 8.92249 4.91647 8.7271 4.84761 8.72776C4.83241 8.72776 4.82142 8.73073 4.80784 8.73734C4.7448 8.76704 4.44735 9.30403 4.40532 9.39908C4.35391 9.5146 4.31997 9.63903 4.28666 9.75652C4.27115 9.81098 4.22427 9.85389 4.24108 9.92254C4.31447 9.99482 4.36555 9.8925 4.4244 9.86412C4.60868 9.77566 4.87121 9.88062 4.97273 10.0539C5.12469 10.3133 5.07166 10.7529 5.01638 11.046C5.00797 11.0906 4.97273 11.1259 4.97144 11.1622C4.9556 11.686 5.19775 12.2556 5.65653 12.524C5.83371 12.6276 5.7351 12.3992 5.72928 12.3015C5.71667 12.0946 5.73671 11.8649 5.78844 11.6691C5.81722 11.5599 5.95753 11.3134 6.02963 11.2223C6.12598 11.1001 6.26015 11.0137 6.35585 10.8988C6.07393 10.649 5.84987 10.3021 5.78198 9.92122C5.76484 9.82451 5.7296 9.58589 5.72895 9.49545C5.72863 9.4311 5.80784 9.11392 5.73768 9.09181L5.73704 9.09214ZM5.47839 5.90718C5.55986 5.89794 5.65395 5.91378 5.73704 5.90718C5.80202 5.90718 5.7296 5.5537 5.72992 5.50551C5.73542 5.05632 5.90677 4.55662 6.21392 4.23252C6.24366 4.20116 6.35876 4.14175 6.35553 4.10017C6.17997 3.9401 6.01702 3.79289 5.90063 3.57869C5.77325 3.34436 5.72507 3.11036 5.72831 2.84566C5.7296 2.7275 5.75611 2.61297 5.76193 2.49977C5.76581 2.42782 5.70083 2.45587 5.65847 2.47732C5.50361 2.55621 5.21909 2.89021 5.13374 3.04732C5.01508 3.26515 4.964 3.58694 4.97144 3.83745C4.97241 3.87508 5.00894 3.90907 5.0167 3.9533C5.04903 4.13944 5.10011 4.56818 5.06293 4.74046C5.00312 5.0177 4.70632 5.26524 4.42504 5.13487C4.36652 5.1078 4.30477 5.01341 4.24108 5.07711C4.22427 5.14543 4.27147 5.18899 4.28666 5.24312C4.37525 5.55601 4.52204 5.87351 4.71376 6.14382C4.89546 6.39994 4.90419 6.23095 5.09106 6.08936C5.19129 6.01345 5.35456 5.9217 5.47871 5.90751L5.47839 5.90718ZM6.31576 10.4572C6.33452 10.479 6.43409 10.5275 6.46675 10.5424C6.71699 10.6566 7.06681 10.6559 7.31706 10.5404C7.67464 10.3754 7.74965 9.96478 8.18579 9.876C8.39433 9.83342 8.66074 9.943 8.72831 10.1645C8.75029 10.2367 8.72055 10.2932 8.80849 10.3463C8.85472 10.3473 8.93846 10.0262 8.9446 9.97402C8.95624 9.87336 8.95172 9.37763 8.8974 9.31525C8.83047 9.23802 8.7393 9.32152 8.65492 9.2829C8.49649 9.21029 8.4813 8.99213 8.61709 8.89741C8.71246 8.83074 8.83823 8.81556 8.921 8.91193C8.99504 8.9984 8.94751 9.1291 9.08492 9.14197C9.11887 9.14527 9.40467 9.10204 9.45414 9.09181C9.65653 9.04956 9.88802 8.93107 10.0455 8.78783C10.0733 8.76242 10.2724 8.54756 10.2799 8.53139C10.2902 8.50828 10.2935 8.48848 10.2802 8.46571C9.9349 8.22246 9.56762 8.02542 9.17254 7.87987C9.0112 7.82046 8.65298 7.68844 8.49714 7.67689C8.3413 7.66534 8.41761 7.82706 8.40888 7.90826C8.39077 8.07262 8.22136 8.1789 8.10561 8.02839C8.0361 7.93829 8.08298 7.92443 8.07069 7.86667C8.0416 7.72805 7.66882 7.93136 7.59931 7.97394C7.44767 8.06701 7.31156 8.20497 7.20972 8.35184C7.11563 8.48716 7.09947 8.64921 6.90968 8.42412C6.81398 8.31058 6.8392 8.235 6.79265 8.13104C6.73962 8.01321 6.5673 8.06206 6.4564 8.02872C6.41082 8.01519 6.29895 7.95116 6.25175 7.9241C6.16478 7.87426 6.14118 7.79142 6.01961 7.82937C5.75385 7.91288 5.41534 8.13236 5.20454 8.31718C5.13956 8.37395 4.97338 8.50366 4.98534 8.58815C4.99472 8.65515 5.22297 8.8215 5.28796 8.85813C5.448 8.94791 5.66655 9.03273 5.82821 8.90335C5.85311 8.86869 5.78165 8.74856 5.87444 8.65449C6.09559 8.43006 6.42698 8.69212 6.23752 8.92612C6.12663 9.06276 6.06067 8.9918 5.97208 9.03471C5.90451 9.06705 5.91518 9.35551 5.87929 9.43539L5.87832 9.57929C5.90904 9.6453 5.9362 10.005 5.9598 10.0291C6.03157 10.1024 6.10626 9.98326 6.16154 9.97072C6.32999 9.93145 6.5201 10.0331 6.46319 10.2282C6.43506 10.3239 6.24884 10.3787 6.31706 10.4572L6.31576 10.4572ZM6.31576 4.63187C6.33516 4.65399 6.38754 4.66983 6.41664 4.70185C6.56924 4.8705 6.36588 5.11903 6.15605 5.03387C6.09559 5.00945 6.05905 4.91208 5.97855 4.96555C5.91938 5.00483 5.94751 5.06523 5.93717 5.12134C5.878 5.44379 5.86798 5.49891 5.93199 5.82401C5.93975 5.86328 5.90774 5.93424 5.97144 5.96527C6.05517 6.00586 6.11984 5.93754 6.22782 6.06659C6.42472 6.30224 6.11951 6.56166 5.89029 6.36165C5.77001 6.25637 5.86054 6.14019 5.82789 6.09663C5.54855 5.92038 5.19872 6.17155 5.00344 6.37948C4.95689 6.45275 5.00894 6.50159 5.05776 6.55143C5.3329 6.83263 5.61159 6.99072 5.96659 7.14189C6.02123 7.16499 6.03319 7.2178 6.11272 7.18215C6.15378 7.164 6.22362 7.09502 6.27373 7.06564C6.39271 6.99634 6.47451 6.96531 6.61192 6.94881C6.66106 6.94287 6.68789 6.98247 6.75353 6.92834C6.81916 6.87422 6.79879 6.79798 6.82013 6.7323C6.84567 6.65375 6.9792 6.47288 7.06423 6.46826C7.14441 6.46397 7.16833 6.5884 7.20293 6.63889C7.37234 6.88478 7.64004 7.10822 7.93038 7.18347C8.11143 7.23034 8.04483 7.12835 8.06326 7.04617C8.10884 6.84484 8.37881 6.86366 8.40888 7.09172C8.41825 7.16268 8.38172 7.21318 8.40435 7.27721L8.48615 7.32638C8.61903 7.29338 8.75417 7.26433 8.88479 7.22308C9.1887 7.1267 9.5437 6.98742 9.82368 6.82834C9.88188 6.79534 10.2789 6.55044 10.2857 6.52305C10.2925 6.49565 10.276 6.47387 10.2624 6.45275C10.1745 6.31512 9.92068 6.10125 9.77648 6.02501C9.65071 5.95834 9.18579 5.8415 9.06293 5.86856C8.95107 5.89332 8.99795 5.93127 8.97435 5.99398C8.92714 6.11874 8.86798 6.17023 8.7296 6.15372C8.55178 6.13227 8.45834 5.90817 8.58217 5.77483C8.706 5.64149 8.83403 5.77912 8.89902 5.68572C8.95365 5.6075 8.95786 5.15071 8.94654 5.0408C8.94105 4.98833 8.86183 4.68105 8.82401 4.67016C8.71634 4.6761 8.74997 4.77181 8.72863 4.83551C8.68789 4.9573 8.61418 5.02958 8.50199 5.08272C8.3371 5.16061 8.24011 5.15698 8.06972 5.0946C7.76484 4.98271 7.65912 4.66257 7.41114 4.51273C7.1179 4.33549 6.62614 4.31536 6.34486 4.53088C6.30703 4.55992 6.27729 4.58765 6.31641 4.6322L6.31576 4.63187ZM8.44476 7.50791C8.52204 7.54751 8.60771 7.54487 8.68757 7.56567C9.16995 7.69009 9.67884 7.89406 10.1085 8.1614C10.2139 8.22708 10.3442 8.40168 10.4493 8.29177C10.5877 8.14721 10.6927 7.87657 10.8146 7.70759C10.8696 7.63135 10.9317 7.56468 10.9989 7.49966C10.9472 7.44256 10.8874 7.39338 10.8402 7.33166C10.7057 7.15608 10.6006 6.87257 10.4564 6.71678C10.4341 6.69236 10.4128 6.66893 10.3769 6.66794C10.3206 6.66662 10.1098 6.84088 10.0397 6.88346C9.60189 7.15047 9.01411 7.36962 8.52106 7.46203C8.50652 7.46467 8.44573 7.48613 8.44476 7.50758V7.50791ZM14.038 3.9929C14.0112 3.95627 14.1257 3.91798 14.147 3.91435C14.3963 3.8721 14.6763 3.91204 14.89 4.05561C14.9892 4.12261 15.0529 4.29391 15.1535 4.16618C15.3216 3.95231 15.5757 3.59751 15.8269 3.48397C15.9614 3.42324 15.9372 3.57044 15.9802 3.6688C16.2498 4.28928 16.6763 4.16684 17.211 4.27707C17.7943 4.39754 18.3449 4.98271 18.4183 5.58604C18.4254 5.64578 18.4027 5.8778 18.4341 5.89992C18.6727 5.92434 18.9459 6.0524 19.1224 6.22039C19.1784 6.27353 19.3756 6.5379 19.4163 6.54846C19.4596 6.56001 19.5068 6.50555 19.5346 6.47684C19.8379 6.16594 20.0545 5.66756 20.1761 5.26689C20.3529 4.68369 20.2938 3.95957 20.1173 3.38925C20.1092 3.36317 20.0238 3.20046 20.0112 3.20079C19.9482 3.28429 19.9753 3.40179 19.9433 3.5107C19.8324 3.88696 19.3966 4.23582 19.0083 4.22427C18.3258 4.20413 17.8095 3.45757 17.3274 3.05227C16.4066 2.27864 15.2537 1.96839 14.1564 2.5704C13.4218 2.97339 13.1409 3.41334 12.6478 4.05033C12.6058 4.10446 12.4538 4.22988 12.4396 4.285C12.4205 4.35827 12.5511 4.37939 12.589 4.40744C12.7357 4.51702 12.6986 4.73914 12.5301 4.80482C12.3617 4.8705 12.277 4.60514 12.1696 4.68468C12.1489 4.70019 12.0258 4.90185 11.9912 4.94806C11.6989 5.34082 11.3494 5.79298 11.007 6.13821C10.8635 6.2831 10.6918 6.39961 10.5482 6.54483L10.5372 6.59962L11.0148 7.31813C11.1447 7.36665 11.1014 7.22968 11.1363 7.14486C11.2433 6.88412 11.696 7.00525 11.694 7.30163C11.6937 7.37556 11.619 7.46203 11.619 7.49933C11.619 7.52507 11.6727 7.60065 11.683 7.64257C11.7277 7.82574 11.5576 8.0043 11.3788 8.00364C11.3015 8.00364 11.1716 7.94225 11.1373 7.86964C11.0959 7.78218 11.136 7.52672 10.9598 7.7561C10.8085 7.95314 10.7241 8.22675 10.5376 8.39904L10.5327 8.42049C10.5379 8.48188 10.9498 8.8007 11.0241 8.87629C11.3943 9.25353 11.7694 9.7552 12.0891 10.182C12.1308 10.2377 12.1486 10.3338 12.2333 10.3433C12.3323 10.2602 12.4092 10.14 12.5492 10.2074C12.7054 10.2826 12.7302 10.4935 12.5919 10.5939C12.5511 10.6232 12.4244 10.6331 12.4402 10.713C12.7092 11.0292 12.9326 11.3843 13.2133 11.6913C13.8308 12.3669 14.7768 12.8765 15.6953 12.7223C16.3093 12.6194 16.8285 12.3659 17.3112 11.9626C17.8657 11.4992 18.6058 10.4325 19.4322 10.8876C19.6417 11.0031 19.8984 11.287 19.953 11.5276C19.9588 11.5536 19.9718 11.8497 20.0355 11.7979C20.0422 11.7259 20.0979 11.6754 20.1173 11.6091C20.3468 10.8213 20.3368 10.146 20.0603 9.38819C19.963 9.12151 19.7186 8.70334 19.5191 8.50498C19.436 8.42247 19.4208 8.43633 19.3484 8.51389C19.2618 8.60664 19.1948 8.7172 19.0982 8.80301C18.9084 8.972 18.6685 9.06969 18.4212 9.11029C18.4092 9.20765 18.4296 9.31657 18.4179 9.41228C18.3584 9.90141 17.9672 10.4183 17.5246 10.6127C16.9659 10.8579 16.3132 10.6239 16.0018 11.286C15.9785 11.3351 15.9284 11.5229 15.9029 11.5322C15.8777 11.5401 15.8567 11.5338 15.8331 11.5249C15.7981 11.5117 15.6132 11.3625 15.5734 11.3279C15.3908 11.1665 15.2469 10.9668 15.0943 10.7774C15.0468 10.7681 14.9585 10.8919 14.9187 10.9232C14.7063 11.0899 14.4021 11.1328 14.1438 11.0873C14.1063 11.0807 14.0655 11.0572 14.038 11.0305C14.1674 10.9523 14.2947 10.9424 14.4173 10.8404C14.8725 10.4618 14.7988 9.66246 14.9145 9.12019C14.9239 9.07563 14.9527 8.97233 14.9666 8.92579C14.9895 8.84757 15.1014 8.74691 15.0539 8.66505C15.0022 8.63172 14.8234 8.74988 14.7564 8.76077C13.9679 8.88751 13.2954 8.52412 12.7936 7.92806C12.7309 7.85347 12.5602 7.57326 12.4745 7.5594C12.3798 7.54388 12.4393 7.67491 12.4383 7.71452C12.4367 7.81089 12.2472 7.95974 12.1525 7.96865C11.9973 7.98384 11.8647 7.83069 11.8715 7.68118C11.8748 7.60758 11.9339 7.50857 11.9339 7.499C11.9339 7.49009 11.8997 7.47028 11.8916 7.44586C11.8479 7.31549 11.8647 7.18083 11.9769 7.09502C12.1299 6.97818 12.2818 7.04452 12.3885 7.18611C12.4677 7.29173 12.4225 7.32011 12.4215 7.44124C12.4991 7.52078 12.7668 7.10492 12.8098 7.05376C13.3099 6.46067 13.9446 6.14415 14.7251 6.23657C14.8127 6.2468 14.9485 6.3435 15.0025 6.34845C15.0254 6.35043 15.0487 6.33525 15.0652 6.31941C15.0949 6.27089 14.987 6.12864 14.9669 6.0722C14.8816 5.83127 14.8592 5.47845 14.8298 5.222C14.7901 4.87545 14.7399 4.52197 14.5062 4.24869C14.3788 4.09984 14.2226 4.03878 14.038 3.99224V3.9929ZM14.6381 7.45609C14.7493 7.48051 14.7787 7.43959 14.8466 7.36797C14.9967 7.20922 15.0979 6.99534 15.2343 6.82306C15.2721 6.77553 15.3377 6.77817 15.3125 6.69434C15.2977 6.64549 14.9934 6.48212 14.9307 6.45671C14.9071 6.44714 14.8738 6.45374 14.8457 6.4445C14.7548 6.4138 14.684 6.3336 14.5721 6.42898C14.6223 6.56199 14.6501 6.61843 14.5547 6.74022C14.3985 6.94023 14.0022 6.87455 13.7713 6.89765C13.5553 6.9191 13.2818 7.01977 13.0953 7.13165C12.9294 7.23133 12.7678 7.36104 12.6316 7.49999C12.9404 7.81782 13.3293 8.05084 13.7713 8.10199C14.0034 8.12873 14.5427 8.04886 14.6129 8.36504C14.6417 8.49475 14.4677 8.62809 14.7092 8.61489C14.7448 8.61291 14.9139 8.55185 14.9546 8.53469C15.0209 8.50696 15.2524 8.38286 15.2918 8.33435C15.3074 8.3152 15.3183 8.30365 15.3158 8.27626C15.2366 8.16998 15.1518 8.06701 15.0752 7.95908C15.0274 7.89175 14.9954 7.81815 14.9427 7.74785C14.8709 7.65214 14.7681 7.5023 14.6381 7.54322C14.6326 7.74455 14.3785 7.90991 14.2317 7.73102C14.1434 7.62342 14.1968 7.59339 14.1968 7.49966C14.1968 7.41351 14.1473 7.40559 14.2123 7.29833C14.3397 7.08941 14.6349 7.23331 14.6381 7.45642V7.45609ZM16.6242 7.49174C16.3387 7.41351 16.0439 7.28942 15.7949 7.12538C15.7283 7.08149 15.4829 6.86597 15.4364 6.86564C15.3668 6.86498 15.2388 7.11746 15.1851 7.18578C15.1347 7.24981 15.0694 7.29899 15.0241 7.35147C14.9866 7.3947 14.9491 7.45246 14.9162 7.49999C14.9132 7.54751 15.1279 7.74686 15.169 7.79736C15.2356 7.87954 15.3174 8.0548 15.3791 8.11091C15.3989 8.12906 15.4066 8.13731 15.436 8.13698C15.4849 8.13632 15.7121 7.93532 15.7784 7.89076C15.9963 7.74488 16.2595 7.61847 16.511 7.54949L16.6239 7.49174L16.6242 7.49174ZM15.909 8.61753C15.8046 8.5974 15.7118 8.58155 15.6168 8.52809C15.5515 8.49112 15.5152 8.41785 15.4367 8.43171C15.3937 8.4393 15.3213 8.55911 15.2957 8.60235C15.1796 8.80037 15.092 9.0456 15.0549 9.26409C15.0461 9.31525 14.9853 9.441 15.0668 9.46905C15.1431 9.49545 15.2045 9.43473 15.3332 9.51064C15.6549 9.70041 15.4991 10.1014 15.4768 10.3876C15.4519 10.7051 15.5159 10.9219 15.6788 11.1876C15.8486 11.3091 15.7723 11.0444 15.7846 10.9496C15.8072 10.775 15.9155 10.5374 16.0196 10.3975L16.1897 10.2064C16.1997 10.109 16.0704 10.0146 16.0196 9.93244C15.8576 9.66972 15.8023 9.17531 15.868 8.87299C15.8835 8.80169 15.9805 8.72116 15.909 8.61786V8.61753ZM15.0267 5.6471C15.0526 5.86427 15.1813 6.20224 15.2957 6.39697C15.3268 6.44978 15.4056 6.59764 15.4768 6.5775C15.5043 6.56958 15.5751 6.49796 15.6184 6.47321C15.6459 6.4577 15.7367 6.41281 15.7629 6.40621C15.8719 6.37915 15.9595 6.43657 15.9252 6.24944C15.9155 6.19762 15.8761 6.16494 15.8677 6.12666C15.8078 5.85074 15.855 5.39494 15.9792 5.14147C16.0219 5.05466 16.1981 4.8804 16.1884 4.81076C16.1851 4.78733 15.9983 4.5794 15.9643 4.52626C15.8942 4.41602 15.8043 4.19258 15.7871 4.06353C15.7739 3.96254 15.8457 3.68893 15.6785 3.81204C15.5524 4.03482 15.4677 4.21404 15.469 4.48005C15.47 4.68237 15.5385 4.88271 15.5418 5.07381C15.545 5.26491 15.4018 5.53521 15.1919 5.54347C15.116 5.54644 15.006 5.47713 15.0264 5.64743L15.0267 5.6471ZM16.9944 7.60857C16.9356 7.59042 16.8938 7.58778 16.8337 7.59801C16.7736 7.60824 16.7438 7.64356 16.7096 7.6528C16.557 7.6934 16.4548 7.71452 16.3028 7.78218C16.0403 7.89934 15.7797 8.05612 15.5747 8.26108C15.5663 8.31058 15.7587 8.42247 15.8027 8.43765C15.8282 8.44656 15.9798 8.48221 16.0028 8.48287C16.0558 8.48452 16.0843 8.45184 16.1315 8.44788C16.3394 8.43039 16.1137 8.64558 16.0946 8.72446C15.9142 9.4674 16.6355 10.0631 17.2304 9.58688C17.3452 9.49512 17.555 9.23604 17.7002 9.20831C17.8159 9.18653 17.9708 9.2027 18.0636 9.28158C18.1344 9.34165 18.1379 9.4476 18.2388 9.41987C18.2621 9.40502 18.265 9.20699 18.2492 9.17432C18.2236 9.12118 18.0513 9.11953 17.9941 9.07596C17.9171 9.01755 17.921 8.86539 17.9737 8.79443C18.0788 8.65284 18.2327 8.59542 18.3539 8.75351C18.4144 8.83239 18.4076 8.94395 18.5385 8.92645C18.7697 8.89576 19.0688 8.63766 19.2104 8.45614C19.2408 8.41752 19.3116 8.32874 19.2838 8.28319C19.1984 8.23599 19.1321 8.16107 19.0545 8.10463C18.9857 8.0548 18.6326 7.83664 18.5721 7.83862C18.5343 7.83994 18.4237 7.92311 18.3746 7.93301C18.3297 7.94225 18.2838 7.92773 18.2401 7.94423C18.1936 8.11718 18.1237 8.31785 17.9333 8.3591L17.8874 8.32181C17.9197 8.15645 17.8421 7.96106 17.7151 7.85479C17.6675 7.81518 17.3416 7.63564 17.3187 7.73333C17.3652 7.88449 17.2537 8.04688 17.092 7.99539C16.9045 7.93598 17.017 7.63597 16.9941 7.60824L16.9944 7.60857ZM18.2395 5.57878C18.18 5.53752 18.0532 5.76229 17.954 5.7877C17.5243 5.8986 17.3698 5.43125 17.0329 5.30022C16.8314 5.222 16.6908 5.23421 16.4949 5.32134C16.126 5.48538 15.9915 5.88936 16.0946 6.27452C16.1114 6.33789 16.2466 6.48839 16.2133 6.53559C16.1451 6.58675 16.0668 6.51744 16.0038 6.51909C15.9815 6.51975 15.8408 6.55044 15.8159 6.55902C15.7632 6.57651 15.5553 6.69104 15.5747 6.75507C15.5873 6.79765 16.0038 7.07093 16.071 7.10756C16.2947 7.22935 16.4729 7.27853 16.706 7.35048C16.7445 7.36236 16.7681 7.39899 16.8279 7.40757C16.8825 7.4155 16.9433 7.41219 16.9944 7.39074C16.9837 7.26433 16.9385 7.07258 17.0856 7.0135C17.1586 6.98412 17.1955 6.99105 17.2553 7.03759C17.3901 7.14222 17.288 7.21912 17.3219 7.27489C17.3675 7.29635 17.4166 7.30163 17.4658 7.28612C17.5026 7.27456 17.6607 7.18545 17.6966 7.15872C17.7981 7.08314 17.8913 6.91877 17.898 6.79039C17.9003 6.74583 17.8489 6.66398 17.9258 6.64979C18.0794 6.62107 18.2204 6.92769 18.2401 7.05541C18.2831 7.06961 18.3258 7.05904 18.371 7.07027C18.4331 7.08545 18.5146 7.15245 18.5599 7.15938C18.6882 7.17885 19.1687 6.81118 19.2841 6.71645C19.3135 6.66926 19.21 6.55011 19.178 6.51083C19.0358 6.33822 18.772 6.12072 18.5521 6.07682C18.3675 6.03986 18.4134 6.31512 18.2168 6.33789C18.1156 6.34944 17.9973 6.26594 17.9482 6.18112C17.9391 6.1656 17.9317 6.05306 17.9336 6.03359C17.9504 5.86493 18.2168 5.892 18.2488 5.82599C18.2644 5.79364 18.2614 5.59528 18.2391 5.57977L18.2395 5.57878ZM19.4806 6.90227C19.4716 6.89204 19.4047 6.85177 19.393 6.84979C19.3504 6.84286 19.1948 7.00129 19.1451 7.0366C19.0781 7.0838 18.9863 7.13826 18.9145 7.18083C18.8647 7.21021 18.7315 7.24123 18.7315 7.30196C18.7315 7.35114 18.8903 7.44652 18.9197 7.49999C18.8845 7.56864 18.6821 7.66369 18.7506 7.73828C18.8612 7.79307 18.9711 7.85116 19.0739 7.92047C19.1767 7.98978 19.2679 8.07229 19.3656 8.15249C19.48 8.1548 19.511 8.02674 19.5744 7.95347C19.7396 7.76238 19.9362 7.61154 20.1645 7.50791L19.8845 7.34024C19.7671 7.24255 19.6514 7.13693 19.5505 7.02109C19.5198 6.98577 19.5026 6.92736 19.4803 6.9026L19.4806 6.90227ZM20.8476 7.67689C20.8314 7.69108 20.803 7.81452 20.7616 7.86139C20.6614 7.97493 20.4467 7.96535 20.3769 7.82772C20.3403 7.75577 20.3927 7.64554 20.2847 7.64026C20.1942 7.63597 19.8683 7.87162 19.7926 7.94522C19.7577 7.97922 19.534 8.25316 19.534 8.27527C19.5531 8.36174 19.6423 8.39574 19.6885 8.44821C19.9682 8.76605 20.1745 9.15188 20.4399 9.47994C20.5169 9.575 20.6229 9.64728 20.6889 9.75388C20.8402 9.81395 20.7454 9.65949 20.7461 9.58028C20.748 9.35287 20.8925 9.14626 21.1024 9.06804C21.3804 8.96474 21.6775 9.26211 21.8993 9.39281C22.1376 9.53341 22.3183 9.58226 22.5983 9.55552C22.825 9.53374 23.0125 9.20204 23.0264 8.98586C23.0322 8.89675 23.0222 8.82975 23.0002 8.74526C23.0283 8.70466 23.2576 8.74031 23.3335 8.72182C23.8114 8.60433 24.0914 8.02377 24.4322 7.69802C24.4978 7.63531 24.6184 7.59801 24.6116 7.48349C24.6067 7.40427 24.4428 7.32737 24.383 7.26994C24.0306 6.93099 23.7581 6.26033 23.1787 6.27023C23.1156 6.27122 23.0607 6.30687 22.9937 6.27023C23.0982 6.02072 22.9498 5.59396 22.7031 5.48637C22.597 5.44016 22.329 5.4395 22.2129 5.46624C21.7613 5.56987 21.3077 6.30258 20.8599 5.75074C20.78 5.65238 20.7448 5.5504 20.7451 5.42102C20.7451 5.36953 20.8305 5.12431 20.6733 5.26392C20.3284 5.57086 20.0206 6.1633 19.7037 6.53493C19.6423 6.60688 19.4904 6.67454 19.5592 6.78147C19.683 6.97422 19.996 7.26037 20.2084 7.33991C20.4208 7.41946 20.3209 7.23727 20.3908 7.15344C20.5107 7.00954 20.7099 7.03693 20.7985 7.19964C20.8347 7.26598 20.8156 7.34487 20.9165 7.3442C20.9313 7.3442 21.0814 7.28447 21.1063 7.27324C21.2608 7.20261 21.4726 7.04716 21.5686 6.90359C21.631 6.80986 21.6297 6.60919 21.7652 6.74121C21.8285 6.8026 21.9058 6.98214 21.8945 7.06994C21.8893 7.11152 21.8256 7.15278 21.8473 7.20988C22.0254 7.28183 22.221 7.34057 22.3481 7.49999C22.3481 7.5386 22.211 7.63201 22.1742 7.65379C22.1134 7.69009 21.8793 7.77195 21.8605 7.79571C21.8124 7.85677 21.89 7.89208 21.8938 7.94654C21.9003 8.04027 21.7975 8.29441 21.6908 8.30101C21.6203 8.3053 21.6248 8.20332 21.599 8.14853C21.5227 7.9878 21.2527 7.79439 21.092 7.72541C21.0367 7.70165 20.8948 7.63564 20.8473 7.67788L20.8476 7.67689Z" fill="#C6A264"/>
</g>
<defs>
<clipPath id="clip0_12_1421">
<rect width="15" height="27" fill="white" transform="translate(0 15) rotate(-90)"/>
</clipPath>
</defs>
</svg>
