<svg width="292" height="493" viewBox="0 0 292 493" fill="none" xmlns="http://www.w3.org/2000/svg">
<path d="M146.501 1C220.231 1 280.001 60.77 280.001 134.5V492H13.001V134.5C13.001 60.77 72.771 1 146.501 1Z" fill="white"/>
<path d="M146.501 1C220.231 1 280.001 60.77 280.001 134.5V492H13.001V134.5C13.001 60.77 72.771 1 146.501 1Z" stroke="#C6A264" stroke-width="2"/>
<path d="M16.7062 401.107L16.7325 401.267C17.4476 401.818 17.935 402.8 17.9659 403.706C17.9807 404.151 17.7336 404.919 17.4847 405.295C17.1478 405.805 16.4367 406.255 15.824 406.293C15.7119 406.3 15.506 406.216 15.4304 406.277C15.3624 406.332 15.4018 406.462 15.3841 406.547C15.2073 407.399 14.4327 407.818 13.8452 408.334C13.7926 408.38 13.5043 408.66 13.4883 408.694C13.4608 408.753 13.4579 408.825 13.5169 408.866C13.5981 408.89 13.6221 408.756 13.7377 408.785C13.7531 408.789 13.998 408.921 14.018 408.937C14.3492 409.195 14.0907 409.877 13.649 409.79C13.534 409.862 13.7783 410.3 13.8332 410.387C14.0563 410.743 14.3967 410.995 14.8303 410.963C14.8978 410.958 14.9739 410.855 15.0123 410.985C15.0534 411.124 14.9293 411.276 14.8326 411.367C14.6627 411.527 14.4625 411.614 14.2297 411.626C14.0912 411.633 13.986 411.522 13.9162 411.711C13.8841 411.797 13.8921 411.908 13.8572 411.997C13.8309 412.063 13.7051 412.244 13.6565 412.312C13.5752 412.427 13.089 413.009 12.9774 413C12.6925 412.783 12.2051 412.295 12.1136 411.942C12.0878 411.842 12.1239 411.691 12.0306 411.623C11.9545 411.567 11.8693 411.631 11.7726 411.626C11.4151 411.608 10.9471 411.346 10.9843 410.935C11.3161 411.004 11.5352 410.965 11.8121 410.776C12.089 410.586 12.3018 410.193 12.3819 409.863C12.3252 409.745 12.2005 409.81 12.089 409.754C11.8075 409.611 11.7297 409.122 11.9992 408.924C12.0461 408.889 12.2635 408.777 12.3081 408.784C12.371 408.795 12.4099 408.879 12.4843 408.866C12.6845 408.807 12.2783 408.45 12.2143 408.392C11.5913 407.824 10.8567 407.484 10.6193 406.574C10.5976 406.492 10.6371 406.315 10.5553 406.265C10.4866 406.223 10.2612 406.307 10.1531 406.296C9.7515 406.259 9.1371 405.968 8.84134 405.688C8.10795 404.996 7.91287 403.894 8.16 402.941C8.32705 402.296 8.75324 401.672 9.26867 401.26C9.44659 400.976 8.89797 401.224 8.81731 401.245C7.39457 401.603 5.59427 401.185 4.47702 400.216C3.36606 399.252 2.23336 396.903 0.457656 397.5C0.370129 397.53 0.0543466 397.738 0 397.687C0.100112 397.238 0.318071 396.725 0.628705 396.379C0.856961 396.126 1.35123 395.791 1.66701 395.669C1.74481 395.639 2.06174 395.586 2.09034 395.542C2.13554 395.472 2.07947 395.156 2.08863 395.03C2.20247 393.428 2.51654 392.017 3.38093 390.638C5.06625 387.949 8.14113 386.66 10.3259 384.482C10.5192 384.289 10.807 383.99 10.97 383.778C11.0249 383.707 11.0959 383.627 11.0993 383.535C11.0941 383.482 10.5982 383.047 10.5118 382.945C10.2795 382.672 10.0604 382.174 9.98948 381.832C9.96259 381.699 9.95745 381.174 9.86878 381.119C9.80642 381.08 9.53297 381.181 9.42428 381.191C7.85681 381.328 6.63544 380.234 6.32366 378.732C6.12572 377.778 6.22355 376.237 5.22471 375.698C4.7928 375.465 4.27107 375.487 3.8466 375.731C3.62521 375.727 3.89007 375.306 3.88435 375.194C4.90092 372.68 7.25213 371.506 9.81043 372.585C9.92312 372.632 10.3281 372.93 10.2177 372.606C10.1388 372.375 9.89852 372.094 9.78869 371.802C9.12623 370.039 9.72004 368.482 11.069 367.295C11.3693 367.031 12.4534 366.334 12.4706 365.942C12.4797 365.731 12.2875 365.942 12.2137 365.974C11.6164 366.229 11.2154 365.126 11.9151 365.013C12.3195 364.947 12.403 365.138 12.661 365.383C12.7486 365.398 12.9053 365.065 12.9951 365.073C13.125 365.084 13.2188 365.404 13.3395 365.38C13.4093 365.367 13.534 365.14 13.617 365.084C13.8367 364.937 14.3063 364.988 14.4139 365.258C14.5775 365.671 14.1719 366.156 13.7669 365.965C13.6976 365.933 13.5277 365.73 13.5277 365.944C13.5277 366.336 14.6879 367.079 14.9888 367.352C16.3566 368.598 16.9459 370.347 16.0803 372.1C16.0111 372.24 15.697 372.612 15.7743 372.743C15.9339 372.775 16.0815 372.624 16.2273 372.563C18.7376 371.52 21.0236 372.663 22.0676 375.098C22.1013 375.177 22.2541 375.597 22.2421 375.645C22.2352 375.671 22.2158 375.698 22.1975 375.718C22.1265 375.762 22.0619 375.674 22.0035 375.652C21.4246 375.429 20.88 375.52 20.4372 375.96C19.7398 376.652 19.8583 378.201 19.5734 379.115C19.1621 380.437 17.939 381.319 16.5483 381.19C16.3949 381.176 16.2485 381.071 16.1158 381.131C16.0237 381.203 16.0408 381.633 16.0157 381.777C15.9756 382.002 15.8378 382.372 15.7291 382.581C15.5408 382.942 15.2308 383.21 14.9304 383.474C14.8549 383.578 14.9385 383.667 15.0031 383.748C16.8892 386.119 20.0819 387.389 21.9955 389.77C23.2884 391.379 23.7706 393.022 23.9125 395.058C23.9245 395.227 23.8782 395.375 23.8982 395.532C23.9325 395.589 24.2323 395.628 24.3141 395.66C24.6087 395.777 25.1099 396.104 25.3301 396.335C25.6636 396.683 25.8621 397.19 26 397.644C25.9903 397.774 25.6007 397.527 25.5378 397.506C23.7432 396.901 22.6425 399.247 21.5236 400.215C20.3371 401.241 18.6889 401.543 17.1833 401.244L16.705 401.107H16.7062ZM13.2737 371.995C13.1753 372.093 13.5889 372.616 13.6736 372.699C13.8418 372.866 14.4802 373.304 14.6942 373.398C14.8927 373.486 15.014 373.34 15.1324 373.187C15.2153 373.079 15.2508 372.957 15.3206 372.859C15.3778 372.779 15.4693 372.721 15.5288 372.637C15.6106 372.52 15.9093 371.951 15.9499 371.824C16.0454 371.526 15.7205 371.707 15.5763 371.71C15.4322 371.713 15.2771 371.637 15.1747 371.536C14.7657 371.131 15.1026 370.439 15.1593 369.966C15.3263 368.568 14.4688 367.639 13.6753 366.663C13.4551 366.392 13.3315 365.968 12.9156 366.017C12.6856 366.045 12.4517 366.508 12.3006 366.692C11.6599 367.472 10.9328 368.252 10.8419 369.336C10.7915 369.93 10.986 370.322 11.0158 370.859C11.0369 371.247 10.8882 371.71 10.4283 371.71C10.303 371.71 10.0398 371.554 10.0398 371.751C10.0398 371.92 10.3979 372.409 10.4471 372.609C10.6531 372.756 10.7091 372.982 10.843 373.16C10.9391 373.287 11.1039 373.473 11.2703 373.417C11.4071 373.371 12.0186 372.951 12.1559 372.841C12.3956 372.649 12.7005 372.312 12.7303 371.997C12.5855 371.976 12.4992 372.134 12.3664 372.162C11.831 372.274 11.4814 371.664 11.8596 371.251C12.006 371.091 12.1988 371.144 12.2743 371.093C12.4162 370.996 12.069 370.646 12.01 370.551C11.74 370.115 11.4963 369.372 12.0015 369.008C12.1948 368.869 12.3722 368.837 12.5935 368.931C12.7205 368.985 12.8338 369.148 12.9745 369.154C13.1502 369.162 13.2543 368.994 13.3887 368.936C13.6256 368.835 13.8143 368.867 14.0186 369.022C14.4905 369.381 14.2543 370.149 13.9848 370.57C13.9293 370.657 13.5804 370.991 13.7302 371.094C14.2045 371.094 14.4831 371.657 14.1507 372.016C14.046 372.129 13.8126 372.19 13.6622 372.168C13.5117 372.147 13.4213 371.987 13.2743 371.998L13.2737 371.995ZM12.9511 372.344C12.8744 372.367 12.74 372.653 12.6593 372.742C12.4345 372.99 12.1079 373.221 11.8247 373.398C11.7229 373.461 11.4076 373.555 11.4208 373.7C11.5644 373.919 11.7812 374.085 11.9425 374.296C12.2309 374.673 12.343 375.012 12.5529 375.407C12.7366 375.751 12.8727 375.231 13.0026 375.099C13.0432 375.099 13.1965 375.53 13.3172 375.53C13.427 375.53 13.6004 375.018 13.6633 374.9C13.7943 374.656 14.0123 374.35 14.1902 374.136C14.2926 374.013 14.5849 373.812 14.562 373.648C14.5472 373.541 14.2749 373.455 14.1805 373.397C13.8641 373.203 13.538 372.99 13.3035 372.697C13.1999 372.568 13.1267 372.292 12.9511 372.344V372.344ZM10.2418 375.199V374.711C10.2418 374.627 10.3962 374.286 10.4477 374.199C10.5358 374.05 10.8745 373.74 10.8733 373.618C10.8733 373.591 10.8682 373.571 10.8567 373.547C10.8053 373.435 9.8745 372.906 9.70974 372.832C9.50952 372.74 9.29385 372.68 9.09019 372.621C8.9958 372.593 8.92143 372.51 8.80244 372.54C8.67715 372.67 8.8545 372.761 8.90369 372.866C9.05701 373.193 8.87509 373.66 8.57475 373.84C8.12511 374.111 7.36311 374.016 6.85511 373.918C6.77788 373.903 6.71667 373.84 6.65374 373.838C5.74587 373.81 4.75848 374.24 4.29338 375.056C4.11375 375.371 4.50963 375.196 4.67896 375.185C5.03765 375.163 5.43581 375.199 5.77504 375.291C5.9644 375.342 6.39174 375.591 6.54963 375.719C6.76129 375.891 6.91118 376.129 7.11026 376.299C7.54331 375.798 8.14456 375.4 8.80473 375.279C8.97234 375.249 9.38595 375.186 9.5427 375.185C9.65425 375.184 10.204 375.325 10.2423 375.2L10.2418 375.199ZM15.7622 374.739C15.7783 374.884 15.7508 375.051 15.7622 375.199C15.7622 375.315 16.3749 375.186 16.4584 375.187C17.237 375.196 18.1031 375.501 18.6649 376.047C18.7193 376.1 18.8222 376.304 18.8943 376.299C19.1718 375.987 19.4269 375.697 19.7982 375.49C20.2044 375.264 20.61 375.178 21.0688 375.184C21.2736 375.186 21.4721 375.233 21.6683 375.243C21.793 375.25 21.7444 375.135 21.7072 375.06C21.5705 374.784 20.9915 374.278 20.7192 374.127C20.3417 373.916 19.7839 373.825 19.3497 373.838C19.2845 373.84 19.2256 373.905 19.1489 373.919C18.8262 373.976 18.0831 374.067 17.7845 374.001C17.304 373.894 16.8749 373.367 17.1009 372.867C17.1478 372.763 17.3114 372.653 17.201 372.54C17.0826 372.51 17.0071 372.594 16.9132 372.621C16.3709 372.778 15.8206 373.039 15.3521 373.38C14.9081 373.703 15.201 373.719 15.4465 374.051C15.578 374.229 15.7371 374.519 15.7617 374.74L15.7622 374.739ZM7.87568 376.228C7.83793 376.261 7.75383 376.438 7.72809 376.496C7.53015 376.941 7.5313 377.563 7.73152 378.008C8.01756 378.644 8.72921 378.777 8.8831 379.553C8.9569 379.923 8.76697 380.397 8.38311 380.517C8.25783 380.556 8.16 380.503 8.0679 380.66C8.06618 380.742 8.62281 380.891 8.71319 380.902C8.88768 380.922 9.74693 380.914 9.85505 380.818C9.98891 380.699 9.84418 380.537 9.91111 380.387C10.037 380.105 10.4151 380.078 10.5793 380.319C10.6948 380.489 10.7212 380.712 10.5541 380.86C10.4042 380.991 10.1777 380.907 10.1554 381.151C10.1497 381.211 10.2246 381.719 10.2423 381.807C10.3156 382.167 10.5209 382.579 10.7692 382.859C10.8133 382.908 11.1857 383.262 11.2137 383.275C11.2538 383.294 11.2881 383.3 11.3276 383.276C11.7492 382.662 12.0907 382.009 12.343 381.307C12.446 381.02 12.6748 380.383 12.6948 380.106C12.7148 379.829 12.4345 379.965 12.2938 379.949C12.0089 379.917 11.8247 379.616 12.0855 379.41C12.2417 379.286 12.2657 379.37 12.3659 379.348C12.6061 379.296 12.2537 378.633 12.1799 378.51C12.0186 378.24 11.7795 377.998 11.5249 377.817C11.2904 377.65 11.0095 377.621 11.3996 377.284C11.5964 377.114 11.7274 377.159 11.9076 377.076C12.1119 376.982 12.0272 376.675 12.085 376.478C12.1084 376.397 12.2194 376.198 12.2663 376.114C12.3527 375.96 12.4963 375.918 12.4305 375.702C12.2858 375.229 11.9053 374.627 11.585 374.253C11.4866 374.137 11.2618 373.842 11.1153 373.863C10.9992 373.88 10.7109 374.285 10.6474 374.401C10.4918 374.685 10.3447 375.074 10.569 375.361C10.6291 375.406 10.8373 375.279 11.0003 375.443C11.3893 375.837 10.9351 376.426 10.5295 376.089C10.2927 375.892 10.4157 375.775 10.3413 375.617C10.2852 375.497 9.78525 375.516 9.64681 375.452L9.39739 375.45C9.28298 375.505 8.65942 375.553 8.61766 375.595C8.49066 375.723 8.69718 375.856 8.71892 375.954C8.78699 376.253 8.6108 376.591 8.2727 376.49C8.1068 376.44 8.01184 376.109 7.87568 376.23V376.228ZM17.9727 376.228C17.9344 376.263 17.9069 376.356 17.8514 376.407C17.5591 376.679 17.1283 376.317 17.2759 375.944C17.3183 375.837 17.487 375.772 17.3944 375.629C17.3263 375.523 17.2216 375.573 17.1243 375.555C16.5654 375.45 16.4699 375.432 15.9064 375.546C15.8383 375.56 15.7153 375.503 15.6616 375.616C15.5912 375.765 15.7096 375.88 15.4859 376.072C15.0775 376.422 14.6278 375.879 14.9745 375.472C15.157 375.258 15.3584 375.419 15.4339 375.361C15.7394 374.864 15.304 374.242 14.9436 373.895C14.8166 373.812 14.7319 373.905 14.6456 373.992C14.1582 374.481 13.8841 374.976 13.6221 375.607C13.5821 375.704 13.4906 375.726 13.5523 375.867C13.5838 375.94 13.7034 376.064 13.7543 376.153C13.8744 376.365 13.9282 376.51 13.9568 376.755C13.9671 376.842 13.8984 376.89 13.9923 377.006C14.0861 377.123 14.2182 377.087 14.3321 377.125C14.4682 377.17 14.7817 377.407 14.7897 377.559C14.7972 377.701 14.5815 377.744 14.494 377.805C14.0678 378.106 13.6805 378.582 13.55 379.098C13.4688 379.42 13.6456 379.302 13.788 379.335C14.137 379.416 14.1044 379.896 13.7091 379.949C13.5861 379.966 13.4986 379.901 13.3876 379.941L13.3023 380.087C13.3595 380.323 13.4099 380.563 13.4814 380.795C13.6484 381.335 13.8899 381.967 14.1656 382.464C14.2228 382.568 14.6473 383.274 14.6948 383.286C14.7422 383.298 14.78 383.268 14.8166 383.244C15.0552 383.088 15.4259 382.637 15.558 382.38C15.6736 382.157 15.8761 381.33 15.8292 381.112C15.7863 380.913 15.7205 380.996 15.6118 380.954C15.3955 380.871 15.3063 380.765 15.3349 380.519C15.3721 380.203 15.7605 380.037 15.9916 380.257C16.2228 380.477 15.9842 380.705 16.1461 380.821C16.2817 380.918 17.0734 380.925 17.2639 380.905C17.3549 380.895 17.8875 380.754 17.9064 380.687C17.8961 380.496 17.7302 380.556 17.6198 380.518C17.4087 380.445 17.2834 380.314 17.1913 380.115C17.0563 379.822 17.0626 379.649 17.1707 379.346C17.3646 378.804 17.9195 378.616 18.1792 378.175C18.4864 377.654 18.5213 376.78 18.1478 376.28C18.0974 376.213 18.0494 376.16 17.9721 376.229L17.9727 376.228ZM12.9877 380.013C12.9191 380.15 12.9236 380.303 12.8876 380.445C12.6719 381.302 12.3184 382.207 11.855 382.971C11.7412 383.158 11.4385 383.39 11.629 383.577C11.8796 383.823 12.3487 384.009 12.6416 384.226C12.7737 384.324 12.8893 384.434 13.002 384.554C13.101 384.462 13.1862 384.355 13.2932 384.271C13.5975 384.032 14.0889 383.846 14.359 383.589C14.4013 383.55 14.4419 383.512 14.4436 383.448C14.4459 383.348 14.1439 382.973 14.0701 382.848C13.6073 382.07 13.2274 381.025 13.0672 380.149C13.0626 380.123 13.0255 380.015 12.9883 380.013H12.9877ZM19.0802 389.957C19.1437 389.909 19.2101 390.112 19.2164 390.15C19.2896 390.593 19.2204 391.091 18.9716 391.471C18.8554 391.648 18.5585 391.761 18.7799 391.94C19.1506 392.238 19.7656 392.69 19.9624 393.137C20.0676 393.376 19.8125 393.333 19.642 393.409C18.5665 393.889 18.7788 394.647 18.5877 395.597C18.3789 396.634 17.3646 397.613 16.3189 397.744C16.2153 397.756 15.8132 397.716 15.7748 397.772C15.7325 398.196 15.5105 398.682 15.2193 398.995C15.1272 399.095 14.669 399.446 14.6507 399.518C14.6307 399.595 14.7251 399.679 14.7748 399.728C15.3137 400.267 16.1776 400.653 16.8721 400.869C17.8829 401.183 19.138 401.078 20.1266 400.764C20.1718 400.75 20.4538 400.598 20.4532 400.576C20.3085 400.463 20.1048 400.512 19.916 400.455C19.2639 400.258 18.6592 399.483 18.6792 398.793C18.7141 397.579 20.0081 396.661 20.7106 395.804C22.0516 394.167 22.5893 392.118 21.5459 390.167C20.8474 388.861 20.0848 388.362 18.9807 387.485C18.8869 387.41 18.6695 387.14 18.574 387.115C18.447 387.081 18.4104 387.313 18.3617 387.38C18.1718 387.641 17.7868 387.575 17.673 387.276C17.5591 386.976 18.0191 386.826 17.8812 386.635C17.8543 386.598 17.5048 386.379 17.4247 386.318C16.7439 385.798 15.9602 385.177 15.3618 384.568C15.1107 384.313 14.9087 384.008 14.657 383.752L14.562 383.733L13.3166 384.582C13.2325 384.813 13.47 384.736 13.617 384.798C14.0689 384.988 13.859 385.793 13.3452 385.789C13.2171 385.789 13.0672 385.656 13.0026 385.656C12.958 385.656 12.8269 385.751 12.7543 385.77C12.4368 385.849 12.1273 385.547 12.1285 385.229C12.1285 385.092 12.2349 384.861 12.3607 384.8C12.5123 384.726 12.9551 384.797 12.5575 384.484C12.216 384.215 11.7417 384.065 11.4431 383.733L11.4059 383.725C11.2995 383.734 10.7469 384.466 10.6159 384.599C9.96202 385.257 9.09248 385.923 8.35279 386.492C8.25611 386.566 8.08964 386.598 8.07305 386.748C8.21721 386.924 8.42544 387.061 8.30874 387.31C8.17831 387.587 7.81276 387.632 7.63885 387.386C7.58793 387.313 7.57077 387.088 7.43233 387.116C6.88429 387.594 6.26874 387.991 5.73672 388.49C4.56569 389.588 3.68241 391.27 3.94957 392.903C4.12806 393.994 4.56741 394.917 5.26647 395.776C6.06966 396.761 7.91859 398.077 7.12971 399.546C6.92948 399.919 6.4375 400.375 6.02046 400.472C5.97527 400.482 5.46212 400.505 5.55194 400.619C5.67665 400.631 5.76418 400.73 5.87916 400.764C7.24469 401.172 8.41515 401.154 9.72862 400.663C10.1909 400.49 10.9157 400.055 11.2595 399.701C11.4025 399.553 11.3785 399.526 11.244 399.397C11.0833 399.243 10.8916 399.124 10.7429 398.952C10.45 398.615 10.2807 398.188 10.2103 397.749C10.0415 397.728 9.85276 397.764 9.68686 397.743C8.83905 397.637 7.94319 396.942 7.60624 396.155C7.18119 395.162 7.58679 394.001 6.43922 393.448C6.35398 393.406 6.02847 393.317 6.01245 393.272C5.99872 393.227 6.00959 393.19 6.02504 393.148C6.04792 393.086 6.3065 392.757 6.36656 392.686C6.64631 392.361 6.99241 392.106 7.32078 391.834C7.3368 391.75 7.12227 391.593 7.06792 391.522C6.77903 391.145 6.70466 390.604 6.7836 390.145C6.79505 390.078 6.83566 390.005 6.882 389.957C7.01758 390.186 7.03474 390.413 7.21151 390.631C7.86768 391.44 9.25323 391.309 10.1931 391.515C10.2704 391.531 10.4494 391.583 10.5301 391.607C10.6657 391.648 10.8402 391.847 10.982 391.763C11.0398 391.671 10.835 391.353 10.8161 391.234C10.5964 389.832 11.2263 388.636 12.2595 387.744C12.3887 387.633 12.8744 387.329 12.8985 387.177C12.9253 387.009 12.6982 387.114 12.6296 387.113C12.4625 387.11 12.2045 386.773 12.1891 386.604C12.1628 386.329 12.4282 386.093 12.6874 386.105C12.8149 386.111 12.9866 386.216 13.0031 386.216C13.0186 386.216 13.0529 386.155 13.0953 386.141C13.3212 386.063 13.5546 386.093 13.7034 386.292C13.9059 386.564 13.7909 386.834 13.5455 387.024C13.3624 387.165 13.3132 387.084 13.1033 387.083C12.9654 387.221 13.6862 387.697 13.7749 387.773C14.8029 388.662 15.3515 389.79 15.1913 391.178C15.1736 391.334 15.006 391.575 14.9974 391.671C14.9939 391.712 15.0203 391.753 15.0477 391.783C15.1318 391.836 15.3784 391.644 15.4762 391.608C15.8938 391.456 16.5054 391.416 16.9499 391.364C17.5505 391.293 18.1632 391.204 18.6369 390.789C18.8949 390.562 19.0007 390.285 19.0814 389.957H19.0802ZM13.0775 391.023C13.0352 391.221 13.1061 391.273 13.2303 391.394C13.5054 391.661 13.8761 391.841 14.1747 392.083C14.2571 392.15 14.2525 392.267 14.3979 392.222C14.4825 392.196 14.7657 391.655 14.8097 391.544C14.8263 391.502 14.8149 391.442 14.8309 391.392C14.8841 391.231 15.0231 391.105 14.8578 390.906C14.6273 390.995 14.5294 391.045 14.3183 390.875C13.9717 390.597 14.0855 389.893 14.0455 389.482C14.0083 389.098 13.8338 388.612 13.6399 388.281C13.4671 387.986 13.2423 387.698 13.0014 387.456C12.4505 388.005 12.0466 388.697 11.958 389.482C11.9116 389.895 12.0501 390.854 11.502 390.979C11.2772 391.03 11.0461 390.72 11.069 391.15C11.0724 391.213 11.1782 391.514 11.208 391.586C11.256 391.704 11.4711 392.115 11.5552 392.186C11.5884 392.213 11.6084 392.233 11.6559 392.228C11.8401 392.087 12.0186 391.937 12.2057 391.8C12.3224 391.715 12.45 391.658 12.5718 391.565C12.7377 391.437 12.9974 391.254 12.9265 391.023C12.5775 391.014 12.2909 390.562 12.601 390.301C12.7875 390.144 12.8395 390.239 13.002 390.239C13.1513 390.239 13.165 390.151 13.351 390.266C13.7131 390.493 13.4637 391.018 13.0769 391.023H13.0775ZM13.0157 394.554C13.1513 394.047 13.3664 393.522 13.6507 393.08C13.7268 392.961 14.1004 392.525 14.1009 392.442C14.1021 392.319 13.6645 392.091 13.546 391.996C13.4351 391.906 13.3498 391.79 13.2589 391.71C13.1839 391.643 13.0838 391.576 13.0014 391.518C12.9191 391.512 12.5735 391.894 12.486 391.967C12.3435 392.086 12.0398 392.231 11.9425 392.341C11.9111 392.376 11.8968 392.39 11.8973 392.442C11.8985 392.529 12.2469 392.933 12.3241 393.051C12.577 393.438 12.7961 393.906 12.9156 394.353L13.0157 394.554V394.554ZM11.0644 393.283C11.0993 393.097 11.1268 392.932 11.2194 392.763C11.2835 392.647 11.4105 392.583 11.3865 392.443C11.3733 392.367 11.1657 392.238 11.0907 392.192C10.7475 391.986 10.3224 391.83 9.94372 391.764C9.85505 391.749 9.63709 391.641 9.58846 391.785C9.5427 391.921 9.64796 392.03 9.51638 392.259C9.18744 392.831 8.49238 392.554 7.99639 392.514C7.44606 392.47 7.07021 392.584 6.60969 392.874C6.39917 393.175 6.85797 393.04 7.02216 393.061C7.32478 393.102 7.73667 393.294 7.97923 393.479L8.31046 393.782C8.47922 393.8 8.64283 393.57 8.78528 393.479C9.24064 393.191 10.0976 393.093 10.6216 393.21C10.7452 393.237 10.8848 393.41 11.0638 393.283H11.0644ZM16.213 391.714C15.8366 391.76 15.2508 391.989 14.9133 392.192C14.8218 392.248 14.5655 392.388 14.6004 392.514C14.6141 392.563 14.7382 392.689 14.7811 392.766C14.808 392.815 14.8858 392.976 14.8973 393.023C14.9442 393.217 14.8446 393.372 15.169 393.312C15.2588 393.294 15.3155 393.224 15.3818 393.209C15.8601 393.103 16.6501 393.187 17.0894 393.408C17.2399 393.483 17.5419 393.797 17.6627 393.779C17.7033 393.774 18.0637 393.441 18.1558 393.381C18.3469 393.256 18.7341 393.097 18.9578 393.066C19.1329 393.043 19.6071 393.17 19.3937 392.873C19.0076 392.649 18.697 392.498 18.2359 392.501C17.8852 392.502 17.5379 392.624 17.2067 392.63C16.8755 392.636 16.407 392.381 16.3927 392.008C16.3875 391.873 16.5076 391.677 16.2125 391.714L16.213 391.714ZM12.8132 395.212C12.8447 395.108 12.8493 395.034 12.8315 394.927C12.8138 394.82 12.7526 394.767 12.7366 394.706C12.6662 394.435 12.6296 394.253 12.5123 393.983C12.3092 393.516 12.0375 393.053 11.6822 392.688C11.5964 392.674 11.4025 393.016 11.3762 393.094C11.3607 393.139 11.299 393.409 11.2978 393.449C11.2949 393.544 11.3516 393.594 11.3584 393.678C11.3888 394.048 11.0158 393.647 10.8791 393.613C9.59132 393.292 8.55874 394.574 9.38423 395.632C9.54327 395.836 9.99234 396.209 10.0404 396.467C10.0782 396.673 10.0501 396.948 9.9134 397.113C9.80928 397.239 9.62565 397.245 9.6737 397.425C9.69944 397.466 10.0427 397.471 10.0993 397.443C10.1914 397.398 10.1943 397.091 10.2698 396.99C10.3711 396.853 10.6348 396.86 10.7578 396.953C11.0032 397.14 11.1027 397.414 10.8287 397.629C10.692 397.737 10.4986 397.725 10.5289 397.957C10.5821 398.368 11.0295 398.9 11.3441 399.152C11.4111 399.206 11.565 399.332 11.6439 399.282C11.7257 399.131 11.8556 399.013 11.9534 398.875C12.0398 398.752 12.4179 398.125 12.4145 398.017C12.4122 397.95 12.268 397.753 12.2509 397.666C12.2349 397.586 12.26 397.505 12.2314 397.427C11.9317 397.344 11.5838 397.22 11.5123 396.881L11.577 396.8C11.8636 396.857 12.2022 396.719 12.3865 396.493C12.4551 396.409 12.7663 395.83 12.597 395.789C12.335 395.872 12.0535 395.673 12.1428 395.386C12.2457 395.053 12.7657 395.253 12.8138 395.212L12.8132 395.212ZM16.3314 397.426C16.403 397.32 16.0134 397.095 15.9693 396.918C15.7771 396.154 16.5872 395.88 16.8143 395.281C16.9499 394.923 16.9287 394.673 16.7777 394.324C16.4933 393.668 15.7931 393.429 15.1255 393.613C15.0157 393.643 14.7548 393.883 14.673 393.824C14.5843 393.702 14.7045 393.563 14.7016 393.451C14.7005 393.412 14.6473 393.162 14.6324 393.117C14.6021 393.024 14.4036 392.654 14.2926 392.688C14.2188 392.711 13.7451 393.451 13.6816 393.571C13.4705 393.968 13.3853 394.285 13.2606 394.7C13.24 394.768 13.1765 394.81 13.1616 394.916C13.1479 395.013 13.1536 395.121 13.1908 395.212C13.4099 395.193 13.7423 395.113 13.8447 395.374C13.8956 395.504 13.8836 395.57 13.8029 395.676C13.6216 395.916 13.4883 395.734 13.3916 395.795C13.3544 395.876 13.3452 395.963 13.3721 396.05C13.3922 396.116 13.5466 396.397 13.593 396.461C13.724 396.641 14.0088 396.807 14.2314 396.819C14.3086 396.823 14.4505 396.731 14.4751 396.868C14.5249 397.141 13.9934 397.392 13.772 397.427C13.7474 397.503 13.7657 397.579 13.7463 397.66C13.7199 397.77 13.6038 397.915 13.5918 397.995C13.5581 398.224 14.1953 399.078 14.3595 399.283C14.4413 399.335 14.6478 399.151 14.7159 399.094C15.0151 398.841 15.3921 398.372 15.4682 397.982C15.5323 397.653 15.0552 397.735 15.0157 397.386C14.9957 397.206 15.1404 396.995 15.2874 396.908C15.3143 396.892 15.5094 396.879 15.5431 396.882C15.8355 396.912 15.7886 397.386 15.903 397.442C15.959 397.47 16.3028 397.465 16.3297 397.425L16.3314 397.426ZM14.0374 399.632C14.0552 399.616 14.125 399.497 14.1284 399.477C14.1404 399.401 13.8658 399.124 13.8046 399.036C13.7228 398.917 13.6284 398.754 13.5546 398.626C13.5037 398.537 13.4499 398.301 13.3447 398.301C13.2594 398.301 13.0941 398.583 13.0014 398.635C12.8824 398.572 12.7177 398.213 12.5884 398.334C12.4934 398.531 12.3927 398.726 12.2726 398.909C12.1525 399.092 12.0095 399.254 11.8704 399.428C11.8664 399.631 12.0884 399.686 12.2154 399.799C12.5466 400.093 12.8081 400.442 12.9877 400.848L13.2783 400.35C13.4476 400.142 13.6307 399.936 13.8315 399.756C13.8927 399.702 13.994 399.671 14.0369 399.632L14.0374 399.632ZM12.6948 402.062C12.6702 402.034 12.4562 401.983 12.375 401.91C12.1782 401.731 12.1948 401.35 12.4334 401.226C12.5581 401.161 12.7491 401.254 12.7583 401.062C12.7657 400.901 12.3573 400.321 12.2297 400.187C12.1708 400.125 11.696 399.727 11.6576 399.727C11.5078 399.761 11.4488 399.92 11.3579 400.002C10.807 400.499 10.1382 400.866 9.56958 401.338C9.40483 401.474 9.27954 401.663 9.09477 401.78C8.99065 402.049 9.25838 401.881 9.39567 401.882C9.78983 401.885 10.1479 402.142 10.2835 402.515C10.4626 403.01 9.94715 403.538 9.72061 403.932C9.47691 404.356 9.39224 404.677 9.43858 405.175C9.47634 405.578 10.0513 405.911 10.426 405.936C10.5804 405.946 10.6966 405.928 10.843 405.889C10.9134 405.939 10.8516 406.347 10.8836 406.482C11.0873 407.331 12.0936 407.829 12.6582 408.435C12.7669 408.552 12.8315 408.766 13.03 408.754C13.1673 408.745 13.3006 408.454 13.4002 408.348C13.9877 407.721 15.1501 407.237 15.133 406.207C15.1312 406.095 15.0695 405.997 15.133 405.878C15.5654 406.063 16.3051 405.8 16.4916 405.361C16.5717 405.173 16.5729 404.696 16.5265 404.49C16.3469 403.687 15.0769 402.88 16.0334 402.084C16.2039 401.942 16.3806 401.88 16.6049 401.88C16.6941 401.88 17.1192 402.032 16.8772 401.753C16.3452 401.139 15.3183 400.592 14.6742 400.029C14.5495 399.92 14.4322 399.65 14.2468 399.772C13.9127 399.992 13.4168 400.549 13.2789 400.926C13.141 401.304 13.4568 401.126 13.6021 401.25C13.8515 401.464 13.804 401.818 13.522 401.975C13.407 402.039 13.2703 402.006 13.2714 402.185C13.2714 402.211 13.375 402.478 13.3944 402.522C13.5169 402.797 13.7863 403.174 14.0352 403.344C14.1976 403.455 14.5454 403.453 14.3166 403.694C14.2102 403.806 13.899 403.944 13.7468 403.924C13.6748 403.914 13.6032 403.801 13.5043 403.84C13.3796 404.156 13.2777 404.504 13.0014 404.73C12.9345 404.73 12.7726 404.486 12.7348 404.421C12.6719 404.313 12.53 403.897 12.4889 403.863C12.383 403.778 12.3218 403.916 12.2274 403.922C12.065 403.934 11.6245 403.751 11.613 403.562C11.6056 403.436 11.7823 403.444 11.8773 403.398C12.1559 403.263 12.4911 402.783 12.6107 402.497C12.6519 402.399 12.7663 402.146 12.6931 402.062L12.6948 402.062Z" fill="#C6A264"/>
<path d="M283.421 181.107L283.445 181.267C284.105 181.818 284.555 182.8 284.584 183.706C284.598 184.151 284.369 184.919 284.14 185.295C283.829 185.805 283.172 186.255 282.607 186.293C282.503 186.3 282.313 186.216 282.243 186.277C282.181 186.332 282.217 186.462 282.201 186.547C282.038 187.399 281.323 187.818 280.78 188.334C280.732 188.38 280.465 188.66 280.451 188.694C280.425 188.753 280.423 188.825 280.477 188.866C280.552 188.89 280.574 188.756 280.681 188.785C280.695 188.789 280.921 188.921 280.94 188.937C281.245 189.195 281.007 189.877 280.599 189.79C280.493 189.862 280.718 190.3 280.769 190.387C280.975 190.743 281.289 190.995 281.69 190.963C281.752 190.958 281.822 190.855 281.857 190.985C281.895 191.124 281.781 191.276 281.692 191.367C281.535 191.527 281.35 191.614 281.135 191.626C281.007 191.633 280.91 191.522 280.846 191.711C280.816 191.797 280.824 191.908 280.791 191.997C280.767 192.063 280.651 192.244 280.606 192.312C280.531 192.427 280.082 193.009 279.979 193C279.716 192.783 279.266 192.295 279.182 191.942C279.158 191.842 279.191 191.691 279.105 191.623C279.035 191.567 278.956 191.631 278.867 191.626C278.537 191.608 278.105 191.346 278.139 190.935C278.446 191.004 278.648 190.965 278.903 190.776C279.159 190.586 279.355 190.193 279.429 189.863C279.377 189.745 279.262 189.81 279.159 189.754C278.899 189.611 278.827 189.122 279.076 188.924C279.119 188.889 279.32 188.777 279.361 188.784C279.419 188.795 279.455 188.879 279.524 188.866C279.709 188.807 279.334 188.45 279.275 188.392C278.7 187.824 278.022 187.484 277.802 186.574C277.782 186.492 277.819 186.315 277.743 186.265C277.68 186.223 277.472 186.307 277.372 186.296C277.001 186.259 276.434 185.968 276.161 185.688C275.484 184.996 275.304 183.894 275.532 182.941C275.687 182.296 276.08 181.672 276.556 181.26C276.72 180.976 276.214 181.224 276.139 181.245C274.826 181.603 273.164 181.185 272.133 180.216C271.107 179.252 270.062 176.903 268.422 177.5C268.342 177.53 268.05 177.738 268 177.687C268.092 177.238 268.294 176.725 268.58 176.379C268.791 176.126 269.247 175.791 269.539 175.669C269.611 175.639 269.903 175.586 269.93 175.542C269.971 175.472 269.92 175.156 269.928 175.03C270.033 173.428 270.323 172.017 271.121 170.638C272.677 167.949 275.515 166.66 277.532 164.482C277.71 164.289 277.976 163.99 278.126 163.778C278.177 163.707 278.242 163.627 278.246 163.535C278.241 163.482 277.783 163.047 277.703 162.945C277.489 162.672 277.287 162.174 277.221 161.832C277.196 161.699 277.191 161.174 277.11 161.119C277.052 161.08 276.8 161.181 276.699 161.191C275.252 161.328 274.125 160.234 273.837 158.732C273.655 157.778 273.745 156.237 272.823 155.698C272.424 155.465 271.943 155.487 271.551 155.731C271.346 155.727 271.591 155.306 271.586 155.194C272.524 152.68 274.694 151.506 277.056 152.585C277.16 152.632 277.534 152.93 277.432 152.606C277.359 152.375 277.137 152.094 277.036 151.802C276.424 150.039 276.972 148.482 278.218 147.295C278.495 147.031 279.495 146.334 279.511 145.942C279.52 145.731 279.342 145.942 279.274 145.974C278.723 146.229 278.353 145.126 278.999 145.013C279.372 144.947 279.449 145.138 279.687 145.383C279.768 145.398 279.913 145.065 279.996 145.073C280.115 145.084 280.202 145.404 280.313 145.38C280.378 145.367 280.493 145.14 280.57 145.084C280.772 144.937 281.206 144.988 281.305 145.258C281.456 145.671 281.082 146.156 280.708 145.965C280.644 145.933 280.487 145.73 280.487 145.944C280.487 146.336 281.558 147.079 281.836 147.352C283.098 148.598 283.642 150.347 282.843 152.1C282.779 152.24 282.49 152.612 282.561 152.743C282.708 152.775 282.844 152.624 282.979 152.563C285.296 151.52 287.406 152.663 288.37 155.098C288.401 155.177 288.542 155.597 288.531 155.645C288.525 155.671 288.507 155.698 288.49 155.718C288.424 155.762 288.365 155.674 288.311 155.652C287.777 155.429 287.274 155.52 286.865 155.96C286.221 156.652 286.331 158.201 286.068 159.115C285.688 160.437 284.559 161.319 283.275 161.19C283.134 161.176 282.999 161.071 282.876 161.131C282.791 161.203 282.807 161.633 282.784 161.777C282.747 162.002 282.619 162.372 282.519 162.581C282.345 162.942 282.059 163.21 281.782 163.474C281.712 163.578 281.789 163.667 281.849 163.748C283.59 166.119 286.537 167.389 288.304 169.77C289.497 171.379 289.942 173.022 290.073 175.058C290.084 175.227 290.041 175.375 290.06 175.532C290.092 175.589 290.368 175.628 290.444 175.66C290.716 175.777 291.178 176.104 291.382 176.335C291.689 176.683 291.873 177.19 292 177.644C291.991 177.774 291.631 177.527 291.573 177.506C289.917 176.901 288.901 179.247 287.868 180.215C286.773 181.241 285.251 181.543 283.861 181.244L283.42 181.107H283.421ZM280.253 151.995C280.162 152.093 280.544 152.616 280.622 152.699C280.777 152.866 281.366 153.304 281.564 153.398C281.747 153.486 281.859 153.34 281.968 153.187C282.045 153.079 282.078 152.957 282.142 152.859C282.195 152.779 282.279 152.721 282.334 152.637C282.41 152.52 282.685 151.951 282.723 151.824C282.811 151.526 282.511 151.707 282.378 151.71C282.245 151.713 282.102 151.637 282.007 151.536C281.63 151.131 281.941 150.439 281.993 149.966C282.147 148.568 281.356 147.639 280.623 146.663C280.42 146.392 280.306 145.968 279.922 146.017C279.71 146.045 279.494 146.508 279.354 146.692C278.763 147.472 278.092 148.252 278.008 149.336C277.961 149.93 278.141 150.322 278.168 150.859C278.188 151.247 278.051 151.71 277.626 151.71C277.51 151.71 277.268 151.554 277.268 151.751C277.268 151.92 277.598 152.409 277.644 152.609C277.834 152.756 277.885 152.982 278.009 153.16C278.098 153.287 278.25 153.473 278.403 153.417C278.53 153.371 279.094 152.951 279.221 152.841C279.442 152.649 279.724 152.312 279.751 151.997C279.617 151.976 279.538 152.134 279.415 152.162C278.921 152.274 278.598 151.664 278.947 151.251C279.082 151.091 279.26 151.144 279.33 151.093C279.461 150.996 279.141 150.646 279.086 150.551C278.837 150.115 278.612 149.372 279.078 149.008C279.257 148.869 279.42 148.837 279.625 148.931C279.742 148.985 279.847 149.148 279.977 149.154C280.139 149.162 280.235 148.994 280.359 148.936C280.577 148.835 280.752 148.867 280.94 149.022C281.376 149.381 281.158 150.149 280.909 150.57C280.858 150.657 280.536 150.991 280.674 151.094C281.112 151.094 281.369 151.657 281.062 152.016C280.966 152.129 280.75 152.19 280.611 152.168C280.472 152.147 280.389 151.987 280.253 151.998L280.253 151.995ZM279.955 152.344C279.884 152.367 279.76 152.653 279.686 152.742C279.478 152.99 279.176 153.221 278.915 153.398C278.821 153.461 278.53 153.555 278.542 153.7C278.675 153.919 278.875 154.085 279.024 154.296C279.29 154.673 279.394 155.012 279.587 155.407C279.757 155.751 279.883 155.231 280.002 155.099C280.04 155.099 280.181 155.53 280.293 155.53C280.394 155.53 280.554 155.018 280.612 154.9C280.733 154.656 280.934 154.35 281.099 154.136C281.193 154.013 281.463 153.812 281.442 153.648C281.428 153.541 281.177 153.455 281.09 153.397C280.798 153.203 280.497 152.99 280.28 152.697C280.185 152.568 280.117 152.292 279.955 152.344V152.344ZM277.454 155.199V154.711C277.454 154.627 277.597 154.286 277.644 154.199C277.725 154.05 278.038 153.74 278.037 153.618C278.037 153.591 278.032 153.571 278.022 153.547C277.974 153.435 277.115 152.906 276.963 152.832C276.778 152.74 276.579 152.68 276.391 152.621C276.304 152.593 276.235 152.51 276.125 152.54C276.01 152.67 276.173 152.761 276.219 152.866C276.36 153.193 276.192 153.66 275.915 153.84C275.5 154.111 274.797 154.016 274.328 153.918C274.257 153.903 274.2 153.84 274.142 153.838C273.304 153.81 272.392 154.24 271.963 155.056C271.797 155.371 272.163 155.196 272.319 155.185C272.65 155.163 273.018 155.199 273.331 155.291C273.506 155.342 273.9 155.591 274.046 155.719C274.241 155.891 274.38 156.129 274.563 156.299C274.963 155.798 275.518 155.4 276.127 155.279C276.282 155.249 276.664 155.186 276.809 155.185C276.912 155.184 277.419 155.325 277.454 155.2L277.454 155.199ZM282.55 154.739C282.565 154.884 282.539 155.051 282.55 155.199C282.55 155.315 283.115 155.186 283.192 155.187C283.911 155.196 284.711 155.501 285.229 156.047C285.279 156.1 285.374 156.304 285.441 156.299C285.697 155.987 285.933 155.697 286.275 155.49C286.65 155.264 287.025 155.178 287.448 155.184C287.637 155.186 287.82 155.233 288.001 155.243C288.117 155.25 288.072 155.135 288.037 155.06C287.911 154.784 287.377 154.278 287.125 154.127C286.777 153.916 286.262 153.825 285.861 153.838C285.801 153.84 285.747 153.905 285.676 153.919C285.378 153.976 284.692 154.067 284.416 154.001C283.973 153.894 283.577 153.367 283.785 152.867C283.829 152.763 283.98 152.653 283.878 152.54C283.769 152.51 283.699 152.594 283.612 152.621C283.112 152.778 282.604 153.039 282.171 153.38C281.761 153.703 282.032 153.719 282.258 154.051C282.38 154.229 282.527 154.519 282.549 154.74L282.55 154.739ZM275.27 156.228C275.235 156.261 275.157 156.438 275.134 156.496C274.951 156.941 274.952 157.563 275.137 158.008C275.401 158.644 276.058 158.777 276.2 159.553C276.268 159.923 276.093 160.397 275.738 160.517C275.623 160.556 275.532 160.503 275.447 160.66C275.446 160.742 275.96 160.891 276.043 160.902C276.204 160.922 276.997 160.914 277.097 160.818C277.221 160.699 277.087 160.537 277.149 160.387C277.265 160.105 277.614 160.078 277.765 160.319C277.872 160.489 277.896 160.712 277.742 160.86C277.604 160.991 277.395 160.907 277.374 161.151C277.369 161.211 277.438 161.719 277.454 161.807C277.522 162.167 277.712 162.579 277.941 162.859C277.981 162.908 278.325 163.262 278.351 163.275C278.388 163.294 278.42 163.3 278.456 163.276C278.845 162.662 279.161 162.009 279.394 161.307C279.489 161.02 279.7 160.383 279.718 160.106C279.737 159.829 279.478 159.965 279.348 159.949C279.085 159.917 278.915 159.616 279.156 159.41C279.3 159.286 279.322 159.37 279.415 159.348C279.636 159.296 279.311 158.633 279.243 158.51C279.094 158.24 278.873 157.998 278.638 157.817C278.422 157.65 278.163 157.621 278.523 157.284C278.704 157.114 278.825 157.159 278.992 157.076C279.18 156.982 279.102 156.675 279.155 156.478C279.177 156.397 279.279 156.198 279.323 156.114C279.402 155.96 279.535 155.918 279.474 155.702C279.341 155.229 278.99 154.627 278.694 154.253C278.603 154.137 278.395 153.842 278.26 153.863C278.153 153.88 277.887 154.285 277.828 154.401C277.685 154.685 277.549 155.074 277.756 155.361C277.811 155.406 278.004 155.279 278.154 155.443C278.513 155.837 278.094 156.426 277.72 156.089C277.501 155.892 277.614 155.775 277.546 155.617C277.494 155.497 277.033 155.516 276.905 155.452L276.675 155.45C276.569 155.505 275.993 155.553 275.955 155.595C275.838 155.723 276.028 155.856 276.048 155.954C276.111 156.253 275.948 156.591 275.636 156.49C275.483 156.44 275.396 156.109 275.27 156.23V156.228ZM284.59 156.228C284.555 156.263 284.529 156.356 284.478 156.407C284.208 156.679 283.811 156.317 283.947 155.944C283.986 155.837 284.142 155.772 284.056 155.629C283.993 155.523 283.897 155.573 283.807 155.555C283.291 155.45 283.203 155.432 282.683 155.546C282.62 155.56 282.506 155.503 282.457 155.616C282.392 155.765 282.501 155.88 282.295 156.072C281.918 156.422 281.503 155.879 281.823 155.472C281.991 155.258 282.177 155.419 282.247 155.361C282.529 154.864 282.127 154.242 281.794 153.895C281.677 153.812 281.599 153.905 281.519 153.992C281.069 154.481 280.816 154.976 280.574 155.607C280.537 155.704 280.453 155.726 280.51 155.867C280.539 155.94 280.649 156.064 280.696 156.153C280.807 156.365 280.857 156.51 280.883 156.755C280.893 156.842 280.829 156.89 280.916 157.006C281.003 157.123 281.125 157.087 281.23 157.125C281.355 157.17 281.645 157.407 281.652 157.559C281.659 157.701 281.46 157.744 281.379 157.805C280.986 158.106 280.628 158.582 280.508 159.098C280.433 159.42 280.596 159.302 280.727 159.335C281.05 159.416 281.019 159.896 280.655 159.949C280.541 159.966 280.46 159.901 280.358 159.941L280.279 160.087C280.332 160.323 280.378 160.563 280.444 160.795C280.599 161.336 280.821 161.967 281.076 162.464C281.129 162.568 281.521 163.274 281.564 163.286C281.608 163.298 281.643 163.268 281.677 163.244C281.897 163.088 282.239 162.637 282.361 162.38C282.468 162.157 282.655 161.33 282.612 161.112C282.572 160.913 282.511 160.996 282.411 160.954C282.211 160.871 282.129 160.765 282.155 160.519C282.19 160.203 282.548 160.037 282.762 160.257C282.975 160.477 282.755 160.705 282.904 160.821C283.029 160.918 283.76 160.925 283.936 160.905C284.02 160.895 284.512 160.754 284.529 160.687C284.519 160.496 284.366 160.556 284.264 160.518C284.07 160.445 283.954 160.314 283.869 160.115C283.744 159.822 283.75 159.649 283.85 159.346C284.029 158.804 284.541 158.616 284.781 158.175C285.064 157.654 285.097 156.78 284.752 156.28C284.705 156.213 284.661 156.16 284.59 156.229L284.59 156.228ZM279.989 160.013C279.925 160.15 279.93 160.303 279.896 160.445C279.697 161.302 279.371 162.207 278.943 162.971C278.838 163.158 278.559 163.39 278.734 163.577C278.966 163.823 279.399 164.009 279.669 164.226C279.791 164.324 279.898 164.434 280.002 164.554C280.093 164.462 280.172 164.355 280.271 164.271C280.552 164.032 281.005 163.846 281.254 163.589C281.293 163.55 281.331 163.512 281.333 163.448C281.335 163.348 281.056 162.973 280.988 162.848C280.561 162.07 280.21 161.025 280.062 160.149C280.058 160.123 280.023 160.015 279.989 160.013H279.989ZM285.613 169.957C285.671 169.909 285.732 170.112 285.738 170.15C285.806 170.593 285.742 171.091 285.512 171.471C285.405 171.648 285.131 171.761 285.335 171.94C285.677 172.238 286.245 172.69 286.427 173.137C286.524 173.376 286.288 173.333 286.131 173.409C285.138 173.889 285.334 174.647 285.158 175.597C284.965 176.634 284.029 177.613 283.064 177.744C282.968 177.756 282.597 177.716 282.561 177.772C282.522 178.196 282.317 178.682 282.049 178.995C281.964 179.095 281.541 179.446 281.524 179.518C281.505 179.595 281.592 179.679 281.638 179.728C282.136 180.267 282.933 180.653 283.574 180.869C284.507 181.183 285.666 181.078 286.578 180.764C286.62 180.75 286.88 180.598 286.88 180.576C286.746 180.463 286.558 180.512 286.384 180.455C285.782 180.258 285.224 179.483 285.242 178.793C285.275 177.579 286.469 176.661 287.118 175.804C288.355 174.167 288.852 172.118 287.888 170.167C287.244 168.861 286.54 168.362 285.521 167.485C285.434 167.41 285.233 167.14 285.145 167.115C285.028 167.081 284.994 167.313 284.949 167.38C284.774 167.641 284.419 167.575 284.313 167.276C284.208 166.976 284.633 166.826 284.506 166.635C284.481 166.598 284.158 166.379 284.084 166.318C283.456 165.798 282.732 165.177 282.18 164.568C281.948 164.313 281.762 164.008 281.53 163.752L281.442 163.733L280.292 164.582C280.215 164.813 280.434 164.736 280.57 164.798C280.987 164.988 280.793 165.793 280.319 165.789C280.2 165.789 280.062 165.656 280.002 165.656C279.961 165.656 279.84 165.752 279.773 165.77C279.48 165.849 279.194 165.547 279.195 165.229C279.195 165.092 279.294 164.861 279.41 164.8C279.55 164.726 279.959 164.797 279.592 164.484C279.276 164.215 278.839 164.065 278.563 163.733L278.529 163.725C278.43 163.734 277.92 164.466 277.799 164.599C277.196 165.257 276.393 165.923 275.71 166.492C275.621 166.566 275.467 166.598 275.452 166.748C275.585 166.924 275.777 167.061 275.67 167.31C275.549 167.587 275.212 167.632 275.051 167.386C275.004 167.313 274.988 167.088 274.861 167.116C274.355 167.594 273.787 167.991 273.295 168.49C272.214 169.588 271.399 171.27 271.646 172.903C271.811 173.994 272.216 174.917 272.861 175.776C273.603 176.761 275.309 178.077 274.581 179.546C274.396 179.919 273.942 180.375 273.557 180.472C273.516 180.482 273.042 180.505 273.125 180.619C273.24 180.631 273.321 180.73 273.427 180.764C274.687 181.172 275.768 181.154 276.98 180.663C277.407 180.49 278.076 180.055 278.393 179.701C278.525 179.553 278.503 179.526 278.379 179.397C278.231 179.243 278.054 179.124 277.917 178.952C277.646 178.615 277.49 178.188 277.425 177.749C277.269 177.728 277.095 177.764 276.942 177.743C276.159 177.637 275.332 176.942 275.021 176.155C274.629 175.162 275.003 174.001 273.944 173.448C273.865 173.406 273.565 173.317 273.55 173.272C273.537 173.227 273.547 173.19 273.562 173.148C273.583 173.086 273.821 172.757 273.877 172.686C274.135 172.361 274.455 172.106 274.758 171.834C274.772 171.75 274.574 171.593 274.524 171.522C274.258 171.145 274.189 170.604 274.262 170.145C274.272 170.078 274.31 170.005 274.353 169.957C274.478 170.186 274.494 170.413 274.657 170.631C275.262 171.44 276.541 171.309 277.409 171.515C277.48 171.531 277.646 171.583 277.72 171.607C277.845 171.648 278.006 171.847 278.137 171.763C278.191 171.671 278.002 171.353 277.984 171.234C277.781 169.832 278.363 168.636 279.316 167.744C279.436 167.633 279.884 167.329 279.906 167.177C279.931 167.009 279.721 167.114 279.658 167.113C279.504 167.11 279.266 166.773 279.251 166.604C279.227 166.329 279.472 166.093 279.711 166.105C279.829 166.111 279.988 166.216 280.003 166.216C280.017 166.216 280.049 166.155 280.088 166.141C280.297 166.063 280.512 166.093 280.649 166.292C280.836 166.564 280.73 166.834 280.504 167.024C280.335 167.165 280.289 167.084 280.095 167.083C279.968 167.221 280.633 167.697 280.715 167.773C281.664 168.662 282.171 169.79 282.023 171.178C282.006 171.334 281.852 171.575 281.844 171.671C281.841 171.712 281.865 171.753 281.89 171.783C281.968 171.836 282.195 171.644 282.286 171.608C282.671 171.456 283.236 171.416 283.646 171.364C284.2 171.293 284.766 171.204 285.203 170.789C285.441 170.562 285.539 170.285 285.614 169.957H285.613ZM280.072 171.023C280.032 171.221 280.098 171.273 280.213 171.394C280.467 171.661 280.809 171.841 281.084 172.083C281.16 172.15 281.156 172.267 281.29 172.222C281.368 172.196 281.63 171.655 281.671 171.544C281.686 171.502 281.675 171.442 281.69 171.392C281.739 171.231 281.868 171.105 281.715 170.906C281.502 170.995 281.412 171.045 281.217 170.875C280.897 170.597 281.002 169.893 280.965 169.482C280.931 169.098 280.77 168.612 280.591 168.281C280.431 167.986 280.224 167.698 280.001 167.456C279.493 168.005 279.12 168.697 279.038 169.482C278.995 169.895 279.123 170.854 278.617 170.979C278.41 171.03 278.196 170.72 278.218 171.15C278.221 171.213 278.318 171.514 278.346 171.586C278.39 171.704 278.589 172.115 278.666 172.186C278.697 172.213 278.715 172.233 278.759 172.228C278.929 172.087 279.094 171.937 279.267 171.8C279.375 171.715 279.492 171.658 279.605 171.565C279.758 171.437 279.998 171.254 279.932 171.023C279.61 171.014 279.345 170.562 279.632 170.301C279.804 170.144 279.852 170.239 280.002 170.239C280.14 170.239 280.152 170.151 280.324 170.266C280.658 170.493 280.428 171.018 280.071 171.023H280.072ZM280.015 174.554C280.14 174.047 280.338 173.522 280.601 173.08C280.671 172.961 281.016 172.525 281.016 172.442C281.017 172.319 280.613 172.091 280.504 171.996C280.402 171.906 280.323 171.79 280.239 171.71C280.17 171.643 280.077 171.576 280.001 171.518C279.925 171.512 279.606 171.894 279.526 171.967C279.394 172.086 279.114 172.231 279.024 172.341C278.995 172.376 278.982 172.39 278.982 172.442C278.983 172.529 279.305 172.933 279.376 173.051C279.609 173.438 279.812 173.906 279.922 174.353L280.015 174.554V174.554ZM278.213 173.283C278.246 173.097 278.271 172.932 278.356 172.763C278.416 172.647 278.533 172.583 278.511 172.443C278.498 172.367 278.307 172.238 278.238 172.192C277.921 171.986 277.528 171.83 277.179 171.764C277.097 171.749 276.896 171.641 276.851 171.785C276.809 171.921 276.906 172.03 276.784 172.259C276.481 172.831 275.839 172.554 275.381 172.514C274.873 172.47 274.526 172.584 274.101 172.874C273.907 173.175 274.33 173.04 274.482 173.061C274.761 173.102 275.142 173.294 275.365 173.479L275.671 173.782C275.827 173.8 275.978 173.57 276.109 173.479C276.53 173.191 277.321 173.093 277.805 173.21C277.919 173.237 278.047 173.41 278.213 173.283H278.213ZM282.966 171.714C282.618 171.76 282.078 171.989 281.766 172.192C281.682 172.248 281.445 172.388 281.477 172.514C281.49 172.563 281.605 172.689 281.644 172.766C281.669 172.815 281.741 172.976 281.751 173.023C281.795 173.217 281.703 173.372 282.002 173.312C282.085 173.294 282.137 173.224 282.199 173.209C282.64 173.103 283.369 173.187 283.775 173.408C283.914 173.483 284.193 173.797 284.304 173.779C284.341 173.774 284.674 173.441 284.759 173.381C284.936 173.256 285.293 173.097 285.5 173.066C285.661 173.043 286.099 173.17 285.902 172.873C285.545 172.649 285.259 172.498 284.833 172.501C284.509 172.502 284.189 172.624 283.883 172.63C283.577 172.636 283.145 172.381 283.132 172.008C283.127 171.873 283.238 171.677 282.965 171.714L282.966 171.714ZM279.828 175.212C279.857 175.108 279.861 175.034 279.844 174.927C279.828 174.82 279.772 174.767 279.757 174.706C279.692 174.435 279.658 174.253 279.55 173.983C279.362 173.516 279.112 173.053 278.784 172.688C278.704 172.674 278.525 173.016 278.501 173.094C278.487 173.139 278.43 173.409 278.429 173.449C278.426 173.544 278.478 173.594 278.485 173.678C278.513 174.048 278.168 173.647 278.042 173.613C276.854 173.292 275.9 174.574 276.662 175.632C276.809 175.836 277.224 176.209 277.268 176.467C277.303 176.673 277.277 176.948 277.151 177.113C277.055 177.239 276.885 177.245 276.93 177.425C276.953 177.466 277.27 177.471 277.322 177.443C277.407 177.398 277.41 177.091 277.48 176.99C277.573 176.853 277.817 176.86 277.93 176.953C278.157 177.14 278.249 177.414 277.996 177.629C277.87 177.737 277.691 177.725 277.719 177.957C277.768 178.368 278.181 178.9 278.472 179.152C278.533 179.206 278.675 179.332 278.748 179.282C278.824 179.131 278.944 179.013 279.034 178.875C279.114 178.752 279.463 178.125 279.46 178.017C279.457 177.95 279.324 177.753 279.308 177.666C279.294 177.586 279.317 177.505 279.291 177.427C279.014 177.344 278.693 177.22 278.627 176.881L278.686 176.8C278.951 176.857 279.264 176.719 279.434 176.493C279.497 176.409 279.784 175.83 279.628 175.789C279.386 175.872 279.126 175.673 279.209 175.386C279.304 175.053 279.784 175.253 279.828 175.212L279.828 175.212ZM283.075 177.426C283.141 177.32 282.782 177.095 282.741 176.918C282.563 176.154 283.311 175.88 283.521 175.281C283.646 174.923 283.626 174.673 283.487 174.324C283.225 173.668 282.578 173.429 281.962 173.613C281.861 173.643 281.62 173.883 281.544 173.824C281.462 173.702 281.573 173.563 281.571 173.451C281.57 173.412 281.521 173.162 281.507 173.117C281.479 173.024 281.296 172.654 281.193 172.688C281.125 172.711 280.688 173.451 280.629 173.571C280.434 173.968 280.356 174.285 280.241 174.7C280.222 174.768 280.163 174.81 280.149 174.916C280.137 175.013 280.142 175.121 280.176 175.212C280.378 175.193 280.685 175.113 280.78 175.374C280.827 175.504 280.816 175.57 280.741 175.676C280.574 175.916 280.451 175.734 280.361 175.795C280.327 175.876 280.319 175.963 280.344 176.05C280.362 176.116 280.505 176.397 280.547 176.461C280.668 176.641 280.931 176.807 281.137 176.819C281.208 176.823 281.339 176.731 281.362 176.868C281.408 177.141 280.917 177.392 280.713 177.427C280.69 177.503 280.707 177.579 280.689 177.66C280.665 177.77 280.557 177.915 280.546 177.995C280.515 178.224 281.103 179.078 281.255 179.283C281.33 179.335 281.521 179.151 281.584 179.094C281.86 178.841 282.208 178.372 282.278 177.982C282.337 177.653 281.897 177.735 281.861 177.386C281.842 177.206 281.976 176.995 282.111 176.908C282.136 176.892 282.316 176.879 282.348 176.882C282.617 176.912 282.574 177.386 282.68 177.442C282.731 177.47 283.049 177.465 283.074 177.425L283.075 177.426ZM280.958 179.632C280.974 179.616 281.038 179.497 281.042 179.477C281.053 179.401 280.799 179.124 280.743 179.036C280.667 178.917 280.58 178.754 280.512 178.626C280.465 178.537 280.415 178.301 280.318 178.301C280.239 178.301 280.087 178.583 280.001 178.635C279.891 178.572 279.739 178.213 279.62 178.334C279.532 178.531 279.439 178.726 279.329 178.909C279.218 179.092 279.086 179.254 278.957 179.428C278.954 179.631 279.159 179.686 279.276 179.799C279.582 180.093 279.823 180.442 279.989 180.848L280.257 180.35C280.413 180.142 280.582 179.936 280.768 179.756C280.824 179.702 280.918 179.671 280.957 179.632L280.958 179.632ZM279.718 182.062C279.696 182.034 279.498 181.983 279.423 181.91C279.241 181.731 279.257 181.35 279.477 181.226C279.592 181.161 279.768 181.254 279.777 181.062C279.784 180.901 279.407 180.321 279.289 180.187C279.235 180.125 278.796 179.727 278.761 179.727C278.623 179.761 278.568 179.92 278.484 180.002C277.976 180.499 277.358 180.866 276.833 181.338C276.681 181.474 276.566 181.663 276.395 181.78C276.299 182.049 276.546 181.881 276.673 181.882C277.037 181.885 277.367 182.142 277.492 182.515C277.658 183.01 277.182 183.538 276.973 183.932C276.748 184.356 276.67 184.677 276.713 185.175C276.747 185.578 277.278 185.911 277.624 185.936C277.767 185.946 277.874 185.928 278.009 185.889C278.074 185.939 278.017 186.347 278.046 186.482C278.234 187.331 279.163 187.829 279.684 188.435C279.785 188.552 279.844 188.766 280.028 188.754C280.154 188.745 280.277 188.454 280.369 188.348C280.912 187.721 281.985 187.237 281.969 186.207C281.967 186.095 281.91 185.997 281.969 185.878C282.368 186.063 283.051 185.8 283.223 185.361C283.297 185.173 283.298 184.696 283.255 184.49C283.089 183.687 281.917 182.88 282.8 182.084C282.957 181.942 283.121 181.88 283.328 181.88C283.41 181.88 283.802 182.032 283.579 181.753C283.088 181.139 282.14 180.592 281.545 180.029C281.43 179.92 281.322 179.65 281.151 179.772C280.843 179.992 280.385 180.549 280.257 180.926C280.13 181.304 280.422 181.126 280.556 181.25C280.786 181.464 280.742 181.818 280.482 181.975C280.376 182.039 280.25 182.006 280.251 182.185C280.251 182.211 280.346 182.478 280.364 182.522C280.477 182.797 280.726 183.174 280.956 183.344C281.106 183.455 281.427 183.453 281.215 183.694C281.117 183.806 280.83 183.944 280.689 183.924C280.623 183.914 280.557 183.801 280.465 183.84C280.35 184.156 280.256 184.504 280.001 184.73C279.94 184.73 279.79 184.486 279.755 184.421C279.697 184.313 279.566 183.897 279.528 183.863C279.43 183.778 279.374 183.916 279.287 183.922C279.137 183.934 278.73 183.751 278.72 183.562C278.713 183.436 278.876 183.444 278.964 183.398C279.221 183.263 279.53 182.783 279.641 182.497C279.679 182.399 279.784 182.146 279.717 182.062L279.718 182.062Z" fill="#C6A264"/>
</svg>
