<svg width="69" height="38" viewBox="0 0 69 38" fill="none" xmlns="http://www.w3.org/2000/svg">
<g clip-path="url(#clip0_1_357)">
<path d="M51.904 13.5855L52.1337 13.547C52.9252 12.5019 54.3381 11.7895 55.6403 11.7443C56.2798 11.7226 57.3828 12.0838 57.924 12.4475C58.6577 12.94 59.3038 13.9793 59.3583 14.8748C59.3683 15.0386 59.2484 15.3396 59.336 15.45C59.4145 15.5495 59.6021 15.4918 59.7235 15.5177C60.948 15.7761 61.5503 16.9082 62.2931 17.7669C62.3592 17.8438 62.7608 18.2652 62.8104 18.2886C62.8955 18.3288 62.9979 18.333 63.0574 18.2468C63.0921 18.1281 62.8988 18.093 62.9409 17.9241C62.9467 17.9015 63.1359 17.5437 63.159 17.5144C63.5308 17.0303 64.5099 17.4082 64.3852 18.0537C64.4884 18.2218 65.118 17.8647 65.2436 17.7845C65.7559 17.4584 66.1178 16.9609 66.0715 16.3271C66.0641 16.2284 65.917 16.1172 66.1029 16.0612C66.3037 16.001 66.5218 16.1825 66.6524 16.3238C66.8821 16.5721 67.0077 16.8647 67.025 17.205C67.0349 17.4074 66.8755 17.5612 67.1473 17.6632C67.2704 17.71 67.4307 17.6983 67.5579 17.7493C67.6529 17.7878 67.9132 17.9718 68.0115 18.0428C68.1768 18.1616 69.0129 18.8723 68.9997 19.0353C68.6874 19.4517 67.9867 20.1641 67.4794 20.2978C67.3357 20.3355 67.1184 20.2828 67.0201 20.4191C66.9399 20.5303 67.0316 20.6549 67.025 20.7962C66.9986 21.3187 66.6218 22.0027 66.0319 21.9483C66.131 21.4634 66.0748 21.1432 65.8022 20.7385C65.5295 20.3338 64.9652 20.0228 64.4909 19.9057C64.3207 19.9885 64.4141 20.1708 64.3331 20.3338C64.1282 20.7452 63.4251 20.8589 63.14 20.4651C63.0905 20.3965 62.9293 20.0788 62.9401 20.0136C62.955 19.9216 63.0756 19.8647 63.0574 19.756C62.9731 19.4634 62.4592 20.057 62.3758 20.1507C61.5594 21.0612 61.0703 22.1348 59.7632 22.4818C59.6442 22.5136 59.3897 22.4559 59.3187 22.5754C59.2584 22.6758 59.3782 23.0052 59.3633 23.1632C59.3096 23.7502 58.8907 24.6482 58.4891 25.0804C57.4935 26.1524 55.9096 26.4375 54.5397 26.0763C53.6135 25.8321 52.7162 25.2092 52.123 24.4559C51.7148 24.1958 52.0726 24.9977 52.1015 25.1156C52.6162 27.195 52.0164 29.8263 50.6225 31.4592C49.2369 33.083 45.8609 34.7385 46.7194 37.3338C46.7615 37.4617 47.0606 37.9233 46.9879 38.0027C46.3418 37.8564 45.6039 37.5378 45.1074 37.0838C44.743 36.7502 44.2613 36.0278 44.087 35.5662C44.044 35.4525 43.9672 34.9893 43.9035 34.9475C43.8036 34.8815 43.3491 34.9634 43.1674 34.95C40.8646 34.7836 38.8362 34.3246 36.8541 33.0612C32.9889 30.598 31.1365 26.1039 28.0051 22.9107C27.7283 22.6281 27.2986 22.2075 26.9937 21.9692C26.8913 21.889 26.7756 21.7853 26.6434 21.7803C26.5674 21.7878 25.9419 22.5127 25.7957 22.639C25.4032 22.9784 24.6877 23.2987 24.1953 23.4024C24.0052 23.4417 23.2501 23.4492 23.1707 23.5788C23.1154 23.6699 23.2608 24.0696 23.2749 24.2284C23.4715 26.5194 21.8992 28.3045 19.7402 28.7602C18.3686 29.0495 16.1535 28.9065 15.3785 30.3664C15.043 30.9977 15.0753 31.7602 15.4256 32.3806C15.4198 32.7042 14.8142 32.3171 14.6539 32.3254C11.0399 30.8396 9.35273 27.4032 10.9028 23.6641C10.9713 23.4993 11.3993 22.9074 10.9342 23.0687C10.6012 23.1841 10.198 23.5353 9.77742 23.6958C7.24335 24.6641 5.00589 23.7962 3.29971 21.8246C2.91964 21.3856 1.91741 19.8012 1.35392 19.7761C1.05069 19.7627 1.35392 20.0437 1.40019 20.1515C1.76704 21.0244 0.181486 21.6105 0.0187174 20.588C-0.0754738 19.9968 0.198837 19.8748 0.549989 19.4977C0.572297 19.3697 0.0930788 19.1406 0.104646 19.0094C0.121171 18.8196 0.58056 18.6825 0.546684 18.506C0.526854 18.404 0.201316 18.2218 0.121171 18.1005C-0.0903461 17.7794 -0.0176371 17.093 0.370695 16.9358C0.963934 16.6967 1.66128 17.2895 1.38779 17.8815C1.3407 17.9826 1.04904 18.2309 1.35722 18.2309C1.91989 18.2309 2.98822 16.5353 3.38151 16.0955C5.17197 14.0963 7.68621 13.2351 10.2062 14.5002C10.4078 14.6014 10.9416 15.0604 11.13 14.9475C11.1762 14.7142 10.9598 14.4985 10.8722 14.2853C9.37256 10.6164 11.016 7.27526 14.5159 5.74934C14.6299 5.70001 15.2331 5.47677 15.3017 5.49433C15.3397 5.50436 15.3777 5.53279 15.4066 5.55954C15.471 5.66322 15.3438 5.7577 15.3116 5.84299C14.9918 6.68914 15.1224 7.48513 15.7544 8.13229C16.7492 9.15152 18.9759 8.97844 20.2905 9.39483C22.19 9.996 23.4583 11.7836 23.2732 13.8162C23.2525 14.0403 23.1013 14.2544 23.1881 14.4483C23.2914 14.583 23.9102 14.5579 24.1168 14.5947C24.4407 14.6532 24.9728 14.8547 25.2727 15.0136C25.7916 15.2886 26.1774 15.7418 26.5558 16.1808C26.7062 16.2911 26.8343 16.1691 26.9508 16.0746C30.359 13.3179 32.1842 8.65152 35.6073 5.85469C37.9191 3.96506 40.2821 3.26021 43.2079 3.05285C43.4516 3.03529 43.6639 3.10302 43.8895 3.07376C43.9721 3.02359 44.0275 2.58547 44.0737 2.4659C44.2415 2.0353 44.7124 1.30285 45.0438 0.980946C45.5445 0.493489 46.2724 0.203358 46.9259 0.00185069C47.1118 0.0160643 46.7574 0.585461 46.7268 0.677437C45.8576 3.30035 49.2303 4.90904 50.6217 6.54449C52.0965 8.27861 52.5303 10.6875 52.1007 12.8881L51.904 13.5871L51.904 13.5855ZM10.055 18.6022C10.1955 18.746 10.9482 18.1415 11.068 18.0177C11.3076 17.7719 11.9364 16.8388 12.0727 16.5261C12.1991 16.236 11.9893 16.0587 11.7687 15.8856C11.6141 15.7644 11.4382 15.7126 11.2969 15.6105C11.182 15.5269 11.0994 15.3932 10.9779 15.3062C10.8102 15.1866 9.99224 14.7502 9.80964 14.6908C9.38165 14.5512 9.64109 15.0261 9.64522 15.2368C9.64935 15.4475 9.54112 15.6741 9.3957 15.8238C8.8132 16.4216 7.81841 15.9291 7.13924 15.8463C5.129 15.6022 3.79297 16.8555 2.39085 18.0152C2.00169 18.3371 1.3911 18.5177 1.46216 19.1256C1.50182 19.4617 2.16776 19.8037 2.43216 20.0244C3.55419 20.9609 4.67457 22.0236 6.23286 22.1565C7.08719 22.2301 7.64986 21.9458 8.42239 21.9024C8.9801 21.8714 9.64605 22.0888 9.64605 22.7611C9.64605 22.9442 9.42131 23.3288 9.70471 23.3288C9.9468 23.3288 10.6508 22.8054 10.9383 22.7335C11.1498 22.4325 11.4745 22.3505 11.7298 22.1549C11.9132 22.0144 12.1801 21.7736 12.0991 21.5303C12.0331 21.3304 11.4299 20.4366 11.2721 20.236C10.9953 19.8856 10.5103 19.44 10.0575 19.3965C10.0286 19.608 10.2558 19.7343 10.2955 19.9283C10.4566 20.7109 9.57995 21.2218 8.98588 20.6691C8.75536 20.455 8.8322 20.1733 8.75867 20.0629C8.61986 19.8555 8.11668 20.3631 7.97953 20.4492C7.35324 20.8438 6.28408 21.2 5.7619 20.4617C5.56195 20.1791 5.51568 19.9199 5.65036 19.5963C5.72803 19.4107 5.96268 19.2452 5.97177 19.0395C5.98251 18.7828 5.74125 18.6306 5.65862 18.4341C5.51238 18.088 5.55865 17.8121 5.78173 17.5136C6.29813 16.8238 7.40116 17.1691 8.00679 17.5629C8.13155 17.644 8.61242 18.154 8.75949 17.935C8.75949 17.2418 9.56921 16.8346 10.0856 17.3204C10.2484 17.4734 10.336 17.8146 10.3046 18.0345C10.2732 18.2544 10.0435 18.3865 10.0592 18.6014L10.055 18.6022ZM10.5574 19.0738C10.5896 19.1858 11.0011 19.3823 11.1291 19.5002C11.4853 19.8288 11.8182 20.3062 12.0719 20.7201C12.1628 20.8689 12.2974 21.3296 12.5065 21.3104C12.8213 21.1005 13.0592 20.7836 13.3625 20.5478C13.9045 20.1264 14.3928 19.9626 14.9596 19.6557C15.4545 19.3873 14.7076 19.1883 14.5176 18.9985C14.5176 18.9391 15.1372 18.7151 15.1372 18.5386C15.1372 18.3781 14.4002 18.1248 14.2317 18.0328C13.8805 17.8413 13.441 17.5228 13.1336 17.2627C12.9568 17.1131 12.6676 16.6858 12.4321 16.7192C12.2776 16.741 12.1537 17.139 12.0702 17.2769C11.7918 17.7393 11.4853 18.2159 11.0647 18.5587C10.8796 18.71 10.4822 18.8171 10.5566 19.0738L10.5574 19.0738ZM14.6613 23.0336L13.959 23.0336C13.8392 23.0336 13.3484 22.8079 13.2237 22.7326C13.0097 22.6039 12.5643 22.1089 12.3883 22.1105C12.3495 22.1105 12.3214 22.1181 12.2867 22.1348C12.1256 22.21 11.3655 23.5704 11.258 23.8112C11.1267 24.1039 11.0399 24.4191 10.9548 24.7167C10.9151 24.8547 10.7953 24.9634 10.8383 25.1373C11.0259 25.3204 11.1564 25.0612 11.3068 24.9893C11.7777 24.7652 12.4486 25.0311 12.7081 25.4701C13.0964 26.1273 12.9609 27.241 12.8196 27.9835C12.7981 28.0963 12.7081 28.1858 12.7048 28.2778C12.6643 29.6047 13.2832 31.0478 14.4556 31.7276C14.9084 31.9901 14.6564 31.4116 14.6415 31.1641C14.6093 30.6398 14.6605 30.0579 14.7927 29.5621C14.8662 29.2853 15.2248 28.6607 15.4091 28.4299C15.6553 28.1206 15.9982 27.9015 16.2427 27.6105C15.5223 26.9776 14.9497 26.0988 14.7762 25.134C14.7324 24.889 14.6423 24.2845 14.6407 24.0554C14.6398 23.8923 14.8423 23.0888 14.663 23.0328L14.6613 23.0336ZM14.0003 14.9651C14.2085 14.9417 14.449 14.9818 14.6613 14.9651C14.8274 14.9651 14.6423 14.0696 14.6431 13.9475C14.6572 12.8095 15.0951 11.5437 15.88 10.7226C15.956 10.6432 16.2502 10.4927 16.2419 10.3873C15.7933 9.98179 15.3768 9.60888 15.0794 9.06623C14.7539 8.47259 14.6307 7.87978 14.639 7.20921C14.6423 6.90988 14.7101 6.61975 14.7249 6.33295C14.7349 6.15068 14.5688 6.22175 14.4605 6.2761C14.0648 6.47593 13.3377 7.32208 13.1196 7.72008C12.8163 8.27192 12.6858 9.08714 12.7048 9.72175C12.7073 9.81707 12.8006 9.90319 12.8205 10.0152C12.9031 10.4868 13.0336 11.5729 12.9386 12.0094C12.7858 12.7117 12.0273 13.3388 11.3084 13.0085C11.1589 12.94 11.0011 12.7008 10.8383 12.8622C10.7953 13.0353 10.916 13.1457 10.9548 13.2828C11.1812 14.0754 11.5563 14.8798 12.0463 15.5646C12.5106 16.2134 12.5329 15.7853 13.0105 15.4266C13.2666 15.2343 13.6839 15.0019 14.0012 14.9659L14.0003 14.9651ZM16.1403 26.4918C16.1882 26.547 16.4427 26.6699 16.5261 26.7075C17.1656 26.9968 18.0596 26.9952 18.6991 26.7025C19.613 26.2845 19.8046 25.2443 20.9192 25.0194C21.4522 24.9116 22.133 25.1891 22.3057 25.7502C22.3619 25.9333 22.2858 26.0763 22.5106 26.2109C22.6287 26.2134 22.8427 25.3998 22.8584 25.2677C22.8882 25.0127 22.8766 23.7569 22.7378 23.5988C22.5668 23.4032 22.3338 23.6147 22.1181 23.5169C21.7133 23.333 21.6744 22.7803 22.0214 22.5403C22.2652 22.3714 22.5866 22.333 22.7981 22.5771C22.9873 22.7962 22.8659 23.1273 23.217 23.1599C23.3038 23.1682 24.0342 23.0587 24.1606 23.0328C24.6778 22.9258 25.2694 22.6256 25.6718 22.2627C25.7428 22.1983 26.2518 21.654 26.2708 21.6131C26.2972 21.5545 26.3055 21.5044 26.2716 21.4467C25.3892 20.8304 24.4506 20.3313 23.4409 19.9626C23.0286 19.8121 22.1132 19.4776 21.7149 19.4483C21.3167 19.4191 21.5117 19.8288 21.4893 20.0345C21.4431 20.4508 21.0101 20.7201 20.7143 20.3388C20.5367 20.1105 20.6565 20.0754 20.6251 19.9291C20.5507 19.5779 19.5981 20.093 19.4205 20.2008C19.0329 20.4366 18.6851 20.7861 18.4248 21.1582C18.1844 21.501 18.1431 21.9116 17.6581 21.3413C17.4135 21.0537 17.478 20.8622 17.359 20.5988C17.2235 20.3003 16.7831 20.4241 16.4997 20.3396C16.3832 20.3054 16.0973 20.1432 15.9767 20.0746C15.7544 19.9483 15.6941 19.7385 15.3834 19.8346C14.7043 20.0462 13.8392 20.6022 13.3005 21.0704C13.1344 21.2142 12.7097 21.5428 12.7403 21.7569C12.7643 21.9266 13.3476 22.348 13.5137 22.4408C13.9227 22.6682 14.4812 22.8831 14.8943 22.5554C14.9579 22.4676 14.7753 22.1632 15.0125 21.9249C15.5776 21.3564 16.4245 22.0202 15.9403 22.6131C15.6569 22.9592 15.4884 22.7794 15.262 22.8881C15.0893 22.9701 15.1166 23.7008 15.0249 23.9032L15.0224 24.2677C15.1009 24.435 15.1703 25.3463 15.2306 25.4074C15.414 25.593 15.6049 25.2911 15.7462 25.2594C16.1766 25.1599 16.6625 25.4174 16.517 25.9116C16.4452 26.154 15.9693 26.2928 16.1436 26.4918L16.1403 26.4918ZM16.1403 11.7343C16.1899 11.7903 16.3237 11.8304 16.3981 11.9116C16.7881 12.3388 16.2683 12.9684 15.7321 12.7527C15.5776 12.6908 15.4842 12.4442 15.2785 12.5796C15.1273 12.6791 15.1992 12.8321 15.1728 12.9743C15.0216 13.7911 14.9959 13.9308 15.1595 14.7544C15.1794 14.8539 15.0976 15.0336 15.2603 15.1122C15.4743 15.2151 15.6396 15.042 15.9155 15.3689C16.4187 15.9659 15.6388 16.6231 15.053 16.1164C14.7456 15.8497 14.9769 15.5554 14.8935 15.445C14.1796 14.9985 13.2856 15.6348 12.7866 16.1616C12.6676 16.3472 12.8006 16.4709 12.9254 16.5972C13.6285 17.3095 14.3407 17.71 15.2479 18.093C15.3876 18.1515 15.4182 18.2853 15.6214 18.195C15.7263 18.149 15.9048 17.9743 16.0329 17.8998C16.3369 17.7243 16.546 17.6457 16.8971 17.6039C17.0227 17.5888 17.0913 17.6891 17.259 17.552C17.4267 17.4149 17.3747 17.2218 17.4292 17.0554C17.4945 16.8564 17.8357 16.3982 18.053 16.3865C18.2579 16.3756 18.3191 16.6908 18.4075 16.8187C18.8404 17.4417 19.5246 18.0077 20.2665 18.1983C20.7292 18.3171 20.559 18.0587 20.6061 17.8505C20.7226 17.3405 21.4125 17.3881 21.4893 17.9659C21.5133 18.1457 21.4199 18.2736 21.4778 18.4358L21.6868 18.5604C22.0264 18.4768 22.3718 18.4032 22.7056 18.2987C23.4822 18.0545 24.3894 17.7017 25.105 17.2987C25.2537 17.2151 26.2683 16.5947 26.2857 16.5253C26.303 16.4559 26.2609 16.4007 26.2262 16.3472C26.0014 15.9985 25.3528 15.4567 24.9843 15.2636C24.6629 15.0947 23.4748 14.7987 23.1608 14.8672C22.875 14.9299 22.9948 15.0261 22.9344 15.185C22.8138 15.501 22.6626 15.6315 22.309 15.5896C21.8545 15.5353 21.6158 14.9676 21.9322 14.6298C22.2487 14.292 22.5759 14.6406 22.7419 14.404C22.8816 14.2059 22.8923 13.0487 22.8634 12.7702C22.8493 12.6373 22.6469 11.8589 22.5502 11.8313C22.2751 11.8463 22.361 12.0888 22.3065 12.2502C22.2024 12.5587 22.014 12.7418 21.7273 12.8764C21.3059 13.0738 21.0581 13.0646 20.6226 12.9065C19.8435 12.6231 19.5733 11.8121 18.9396 11.4325C18.1902 10.9835 16.9335 10.9325 16.2146 11.4784C16.118 11.552 16.042 11.6223 16.1419 11.7351L16.1403 11.7343ZM21.5811 19.0202C21.7785 19.1206 21.9975 19.1139 22.2016 19.1666C23.4343 19.4818 24.7348 19.9985 25.8329 20.6758C26.1022 20.8422 26.4352 21.2845 26.7037 21.006C27.0574 20.6398 27.3259 19.9542 27.6374 19.5261C27.7778 19.333 27.9365 19.1641 28.1083 18.9993C27.9761 18.8547 27.8233 18.7301 27.7027 18.5738C27.3589 18.1289 27.0904 17.4107 26.7219 17.0161C26.6649 16.9542 26.6104 16.8948 26.5187 16.8923C26.3749 16.889 25.8362 17.3304 25.6569 17.4383C24.5382 18.1147 23.0361 18.6699 21.7761 18.904C21.7389 18.9107 21.5835 18.9651 21.5811 19.0194L21.5811 19.0202ZM35.875 10.1156C35.8064 10.0228 36.0989 9.92576 36.1534 9.91657C36.7905 9.80954 37.506 9.91071 38.0521 10.2744C38.3058 10.4442 38.4686 10.8781 38.7255 10.5545C39.1552 10.0127 39.8046 9.11389 40.4466 8.82627C40.7903 8.67242 40.7283 9.04533 40.8382 9.29449C41.5273 10.8664 42.6171 10.5562 43.9837 10.8355C45.4742 11.1406 46.8813 12.6231 47.0689 14.1515C47.087 14.3029 47.0292 14.8906 47.1093 14.9467C47.7191 15.0085 48.4173 15.333 48.8684 15.7585C49.0114 15.8932 49.5154 16.5629 49.6195 16.5896C49.7302 16.6189 49.8508 16.4809 49.9219 16.4082C50.6969 15.6206 51.2505 14.358 51.5611 13.343C52.0131 11.8656 51.8619 10.0311 51.4107 8.5863C51.3901 8.52025 51.172 8.10804 51.1397 8.10887C50.9786 8.32041 51.048 8.61807 50.9662 8.89399C50.6828 9.84717 49.5691 10.7309 48.5768 10.7017C46.8326 10.6507 45.5131 8.75938 44.2811 7.73262C41.928 5.77276 38.9816 4.9868 36.1774 6.51188C34.3002 7.53279 33.5822 8.64734 32.3222 10.261C32.2148 10.3982 31.8264 10.7159 31.7901 10.8555C31.7413 11.0411 32.0751 11.0947 32.1718 11.1657C32.5469 11.4433 32.4519 12.006 32.0214 12.1724C31.5909 12.3388 31.3745 11.6666 31.1002 11.8681C31.0473 11.9074 30.7325 12.4182 30.6441 12.5353C29.8972 13.5303 29.004 14.6758 28.129 15.5503C27.7622 15.9174 27.3234 16.2126 26.9566 16.5804L26.9285 16.7192L28.1488 18.5395C28.481 18.6624 28.3703 18.3154 28.4595 18.1005C28.733 17.44 29.8897 17.7468 29.8848 18.4977C29.8839 18.685 29.6931 18.904 29.6931 18.9985C29.6931 19.0637 29.8302 19.2552 29.8567 19.3614C29.9707 19.8254 29.5361 20.2778 29.0792 20.2761C28.8817 20.2761 28.5496 20.1206 28.462 19.9366C28.3562 19.7151 28.4587 19.0679 28.0084 19.649C27.6217 20.1482 27.406 20.8413 26.9293 21.2778L26.9169 21.3321C26.9301 21.4876 27.9828 22.2953 28.1728 22.4868C29.1188 23.4425 30.0773 24.7134 30.8944 25.7945C31.001 25.9358 31.0464 26.1791 31.2629 26.2034C31.5158 25.9927 31.7124 25.6883 32.0702 25.8589C32.4692 26.0495 32.5329 26.5838 32.1792 26.838C32.0751 26.9124 31.7512 26.9375 31.7917 27.1398C32.4791 27.9408 33.0501 28.8405 33.7673 29.6181C35.3454 31.3296 37.7629 32.6206 40.1103 32.2301C41.6793 31.9692 43.0063 31.3271 44.2398 30.3054C45.6568 29.1315 47.5481 26.4291 49.6599 27.5821C50.1954 27.8748 50.8514 28.5938 50.991 29.2034C51.0059 29.2694 51.0389 30.0194 51.2017 29.8881C51.2191 29.7059 51.3612 29.5779 51.4107 29.4099C51.9974 27.4141 51.9718 25.7034 51.2653 23.7836C51.0166 23.108 50.392 22.0487 49.8822 21.5462C49.6699 21.3371 49.631 21.3723 49.446 21.5687C49.2245 21.8037 49.0535 22.0838 48.8064 22.3012C48.3214 22.7293 47.7084 22.9768 47.0763 23.0796C47.0457 23.3263 47.0978 23.6022 47.068 23.8447C46.916 25.0838 45.9163 26.3932 44.7851 26.8856C43.3574 27.5069 41.6892 26.9141 40.8936 28.5913C40.8341 28.7159 40.706 29.1917 40.6407 29.2151C40.5763 29.2351 40.5226 29.2192 40.4623 29.1967C40.373 29.1632 39.9004 28.7853 39.7988 28.6975C39.332 28.2886 38.9643 27.7828 38.5743 27.3029C38.4529 27.2794 38.2273 27.593 38.1257 27.6724C37.5828 28.0947 36.8053 28.2034 36.1452 28.088C36.0493 28.0713 35.9452 28.0119 35.875 27.9442C36.2055 27.746 36.531 27.7209 36.8442 27.4626C38.0075 26.5035 37.8191 24.4784 38.1149 23.1047C38.1389 22.9918 38.2124 22.7301 38.2479 22.6122C38.3066 22.4141 38.5925 22.159 38.471 21.9517C38.3388 21.8672 37.8819 22.1666 37.7109 22.1942C35.6957 22.5152 33.9771 21.5947 32.6948 20.0846C32.5345 19.8957 32.0983 19.1858 31.8793 19.1507C31.6372 19.1114 31.7892 19.4433 31.7868 19.5437C31.7826 19.7878 31.2985 20.1649 31.0564 20.1875C30.6598 20.2259 30.321 19.838 30.3384 19.4592C30.3466 19.2728 30.4978 19.0219 30.4978 18.9977C30.4978 18.9751 30.4102 18.9249 30.3896 18.8631C30.278 18.5328 30.321 18.1917 30.6077 17.9743C30.9985 17.6783 31.3869 17.8463 31.6595 18.205C31.8619 18.4726 31.7463 18.5445 31.7438 18.8513C31.9421 19.0529 32.6262 17.9993 32.7361 17.8697C34.0143 16.3672 35.6362 15.5654 37.6307 15.7995C37.8547 15.8254 38.2017 16.0704 38.3397 16.083C38.3983 16.088 38.4578 16.0495 38.4999 16.0094C38.576 15.8865 38.3 15.5261 38.2488 15.3831C38.0306 14.7728 37.9736 13.8789 37.8984 13.2293C37.7968 12.3513 37.6688 11.4559 37.0714 10.7636C36.7458 10.3865 36.3468 10.2318 35.875 10.1139L35.875 10.1156ZM37.4085 18.889C37.6927 18.9508 37.7679 18.8472 37.9414 18.6657C38.3248 18.2636 38.5834 17.7218 38.9321 17.2853C39.0287 17.1649 39.1965 17.1716 39.132 16.9592C39.094 16.8355 38.3165 16.4216 38.1562 16.3572C38.0959 16.333 38.0108 16.3497 37.9389 16.3263C37.7068 16.2485 37.5258 16.0453 37.2399 16.287C37.368 16.6239 37.4391 16.7669 37.1953 17.0754C36.7962 17.5821 35.7833 17.4157 35.1933 17.4743C34.6414 17.5286 33.9424 17.7836 33.4657 18.0671C33.0418 18.3196 32.6287 18.6482 32.2808 19.0002C33.0699 19.8054 34.0639 20.3957 35.1933 20.5253C35.7866 20.593 37.1647 20.3906 37.344 21.1917C37.4176 21.5202 36.9731 21.858 37.5903 21.8246C37.6811 21.8196 38.1133 21.6649 38.2174 21.6214C38.3867 21.5512 38.9783 21.2368 39.0791 21.1139C39.1188 21.0654 39.1469 21.0361 39.1403 20.9667C38.9379 20.6975 38.7214 20.4366 38.5256 20.1632C38.4033 19.9927 38.3215 19.8062 38.1868 19.6281C38.0034 19.3856 37.7406 19.006 37.4085 19.1097C37.3944 19.6197 36.745 20.0386 36.3699 19.5855C36.1443 19.3129 36.2807 19.2368 36.2807 18.9993C36.2807 18.7811 36.1543 18.761 36.3203 18.4893C36.6459 17.96 37.4002 18.3246 37.4085 18.8898L37.4085 18.889ZM42.4841 18.9793C41.7545 18.7811 41.001 18.4667 40.3648 18.0512C40.1946 17.94 39.5674 17.394 39.4485 17.3932C39.2708 17.3915 38.9436 18.0311 38.8065 18.2042C38.6776 18.3664 38.5107 18.491 38.395 18.6239C38.2992 18.7335 38.2033 18.8798 38.119 19.0002C38.1116 19.1206 38.6602 19.6256 38.7652 19.7535C38.9354 19.9617 39.1444 20.4057 39.3022 20.5478C39.3526 20.5938 39.3725 20.6147 39.4476 20.6139C39.5724 20.6122 40.1532 20.103 40.3226 19.9901C40.8795 19.6206 41.5521 19.3003 42.1949 19.1256L42.4832 18.9793L42.4841 18.9793ZM40.6564 21.8313C40.3896 21.7803 40.1524 21.7401 39.9095 21.6047C39.7426 21.511 39.6501 21.3254 39.4493 21.3605C39.3394 21.3798 39.1543 21.6833 39.0891 21.7928C38.7924 22.2945 38.5685 22.9157 38.4735 23.4692C38.4512 23.5988 38.2959 23.9174 38.5041 23.9885C38.6991 24.0554 38.8561 23.9015 39.1849 24.0938C40.007 24.5746 39.6088 25.5905 39.5518 26.3154C39.4881 27.1197 39.6517 27.6691 40.0681 28.3422C40.5019 28.6498 40.3069 27.9793 40.3383 27.7393C40.3962 27.297 40.673 26.695 40.939 26.3405L41.3736 25.8564C41.3992 25.6097 41.0687 25.3706 40.939 25.1624C40.5251 24.4968 40.3838 23.2443 40.5515 22.4784C40.5912 22.2978 40.839 22.0938 40.6564 21.8321L40.6564 21.8313ZM38.4016 14.3062C38.4677 14.8564 38.7966 15.7126 39.0891 16.2059C39.1684 16.3396 39.37 16.7142 39.5518 16.6632C39.622 16.6432 39.8029 16.4617 39.9136 16.399C39.9839 16.3597 40.216 16.246 40.283 16.2293C40.5614 16.1607 40.7853 16.3062 40.6977 15.8321C40.673 15.7008 40.5722 15.6181 40.5507 15.5211C40.3978 14.8221 40.5184 13.6674 40.8357 13.0253C40.9448 12.8054 41.3951 12.3639 41.3703 12.1875C41.362 12.1281 40.8845 11.6013 40.7977 11.4667C40.6184 11.1875 40.3887 10.6214 40.3449 10.2945C40.3111 10.0386 40.4945 9.3455 40.0673 9.65737C39.7451 10.2218 39.5286 10.6758 39.5319 11.3497C39.5344 11.8622 39.7096 12.3697 39.7178 12.8539C39.7261 13.338 39.3601 14.0228 38.8238 14.0437C38.6297 14.0512 38.3487 13.8756 38.4008 14.307L38.4016 14.3062ZM43.4301 19.2753C43.2797 19.2293 43.1731 19.2226 43.0195 19.2485C42.8658 19.2744 42.7898 19.3639 42.7022 19.3873C42.3122 19.4901 42.0511 19.5437 41.6628 19.7151C40.9919 20.0119 40.3259 20.409 39.8021 20.9283C39.7806 21.0537 40.2722 21.3371 40.3846 21.3756C40.4499 21.3982 40.8374 21.4885 40.896 21.4901C41.0315 21.4943 41.1043 21.4116 41.2249 21.4015C41.7562 21.3572 41.1794 21.9024 41.1307 22.1022C40.6696 23.9843 42.513 25.4935 44.0333 24.287C44.3266 24.0545 44.8628 23.3982 45.2338 23.3279C45.5296 23.2728 45.9254 23.3137 46.1625 23.5136C46.3434 23.6657 46.3525 23.9341 46.6103 23.8639C46.6698 23.8263 46.6772 23.3246 46.6367 23.2418C46.5715 23.1072 46.1311 23.103 45.9848 22.9927C45.7882 22.8447 45.7981 22.4592 45.9328 22.2794C46.2013 21.9207 46.5946 21.7753 46.9044 22.1758C47.059 22.3756 47.0416 22.6582 47.3762 22.6139C47.967 22.5361 48.7313 21.8823 49.0932 21.4224C49.1708 21.3246 49.3518 21.0997 49.2807 20.9843C49.0626 20.8647 48.8932 20.6749 48.6949 20.532C48.5189 20.4057 47.6167 19.853 47.4622 19.858C47.3655 19.8614 47.0829 20.0721 46.9573 20.0972C46.8425 20.1206 46.7251 20.0838 46.6136 20.1256C46.4946 20.5637 46.3162 21.0721 45.8295 21.1766L45.7122 21.0821C45.7948 20.6632 45.5965 20.1682 45.2718 19.899C45.1503 19.7987 44.3175 19.3438 44.2588 19.5913C44.3778 19.9743 44.0928 20.3856 43.6796 20.2552C43.2004 20.1047 43.4879 19.3447 43.4293 19.2744L43.4301 19.2753ZM46.612 14.1331C46.4599 14.0286 46.136 14.598 45.8824 14.6624C44.7843 14.9433 44.3894 13.7594 43.5284 13.4274C43.0137 13.2293 42.6543 13.2602 42.1536 13.4809C41.2108 13.8965 40.8671 14.9199 41.1307 15.8957C41.1737 16.0562 41.519 16.4375 41.4339 16.557C41.2596 16.6866 41.0596 16.511 40.8985 16.5152C40.8415 16.5169 40.4821 16.5947 40.4185 16.6164C40.2838 16.6607 39.7525 16.9508 39.8021 17.1131C39.8343 17.2209 40.8985 17.9132 41.0704 18.006C41.6421 18.3146 42.0974 18.4391 42.6931 18.6214C42.7914 18.6515 42.8517 18.7443 43.0046 18.7661C43.1442 18.7861 43.2996 18.7778 43.4301 18.7234C43.4028 18.4032 43.2872 17.9174 43.6631 17.7677C43.8498 17.6933 43.944 17.7109 44.0969 17.8288C44.4414 18.0938 44.1803 18.2886 44.2671 18.4299C44.3836 18.4843 44.5092 18.4977 44.6348 18.4584C44.729 18.4291 45.133 18.2034 45.2247 18.1356C45.4841 17.9442 45.7221 17.5278 45.7394 17.2025C45.7452 17.0896 45.6139 16.8823 45.8105 16.8463C46.203 16.7736 46.5632 17.5503 46.6136 17.8739C46.7235 17.9099 46.8326 17.8831 46.9482 17.9116C47.1069 17.95 47.3151 18.1197 47.4308 18.1373C47.7588 18.1866 48.9866 17.2552 49.2815 17.0152C49.3567 16.8957 49.0923 16.5938 49.0105 16.4943C48.647 16.057 47.9728 15.506 47.4109 15.3948C46.9391 15.3012 47.0565 15.9985 46.5541 16.0562C46.2955 16.0855 45.9931 15.8739 45.8675 15.659C45.8444 15.6197 45.8254 15.3346 45.8303 15.2853C45.8733 14.858 46.5541 14.9266 46.6359 14.7594C46.6756 14.6774 46.6681 14.1749 46.6111 14.1356L46.612 14.1331ZM49.7839 17.486C49.7608 17.46 49.5897 17.358 49.56 17.353C49.4509 17.3355 49.0535 17.7368 48.9262 17.8263C48.7552 17.9458 48.5206 18.0838 48.3371 18.1917C48.2099 18.2661 47.8695 18.3447 47.8695 18.4985C47.8695 18.6231 48.2752 18.8647 48.3504 19.0002C48.2603 19.1741 47.7431 19.4149 47.9182 19.6039C48.2008 19.7427 48.4817 19.8898 48.7445 20.0654C49.0072 20.241 49.2402 20.45 49.4897 20.6532C49.7822 20.659 49.8616 20.3346 50.0235 20.149C50.4457 19.6649 50.9481 19.2828 51.5314 19.0202L50.8159 18.5955C50.5159 18.348 50.2201 18.0804 49.9624 17.787C49.8839 17.6975 49.8401 17.5495 49.7831 17.4868L49.7839 17.486ZM53.2772 19.4483C53.2359 19.4843 53.1632 19.797 53.0574 19.9157C52.8013 20.2034 52.2527 20.1791 52.0742 19.8304C51.9809 19.6482 52.1147 19.3689 51.8387 19.3555C51.6074 19.3447 50.7745 19.9417 50.5812 20.1281C50.492 20.2142 49.9202 20.9082 49.9202 20.9642C49.969 21.1833 50.197 21.2694 50.3152 21.4024C51.0299 22.2075 51.557 23.185 52.2353 24.0161C52.432 24.2569 52.703 24.44 52.8715 24.71C53.2582 24.8622 53.0161 24.4709 53.0178 24.2702C53.0227 23.6942 53.3921 23.1707 53.9283 22.9726C54.6389 22.7109 55.3982 23.4642 55.965 23.7953C56.5739 24.1515 57.0358 24.2753 57.7513 24.2075C58.3305 24.1524 58.8097 23.3121 58.8452 22.7644C58.8601 22.5386 58.8345 22.3689 58.7783 22.1549C58.8502 22.052 59.436 22.1423 59.6302 22.0955C60.8514 21.7978 61.5669 20.3271 62.4377 19.5019C62.6055 19.343 62.9136 19.2485 62.8963 18.9584C62.8839 18.7577 62.465 18.5629 62.3121 18.4174C61.4115 17.5587 60.715 15.8597 59.2344 15.8848C59.0733 15.8873 58.9328 15.9776 58.7618 15.8848C59.0287 15.2527 58.6494 14.1716 58.019 13.899C57.748 13.782 57.063 13.7803 56.7664 13.848C55.6122 14.1105 54.453 15.9667 53.3086 14.5687C53.1045 14.3196 53.0145 14.0612 53.0153 13.7335C53.0153 13.603 53.2334 12.9818 52.8319 13.3355C51.9503 14.1131 51.1637 15.6139 50.354 16.5554C50.197 16.7376 49.8087 16.909 49.9847 17.1799C50.3011 17.6682 51.1009 18.3932 51.6437 18.5947C52.1866 18.7962 51.9313 18.3346 52.1097 18.1223C52.4163 17.7577 52.9252 17.8271 53.1516 18.2393C53.2442 18.4074 53.1954 18.6072 53.4532 18.6055C53.4912 18.6055 53.8746 18.4542 53.9382 18.4258C54.3332 18.2468 54.8743 17.853 55.1197 17.4893C55.2792 17.2519 55.2759 16.7435 55.6221 17.0779C55.784 17.2335 55.9815 17.6883 55.9526 17.9107C55.9394 18.0161 55.7766 18.1206 55.832 18.2652C56.2872 18.4475 56.7871 18.5963 57.1118 19.0002C57.1118 19.098 56.7615 19.3346 56.6673 19.3898C56.5119 19.4818 55.9137 19.6891 55.8658 19.7493C55.7427 19.904 55.941 19.9935 55.9509 20.1315C55.9675 20.3689 55.7047 21.0127 55.4321 21.0294C55.2519 21.0403 55.2635 20.782 55.1974 20.6432C55.0024 20.236 54.3125 19.746 53.9019 19.5712C53.7606 19.511 53.3979 19.3438 53.2764 19.4508L53.2772 19.4483Z" fill="white"/>
</g>
<defs>
<clipPath id="clip0_1_357">
<rect width="38" height="69" fill="white" transform="translate(0 38) rotate(-90)"/>
</clipPath>
</defs>
</svg>
