<svg width="69" height="38" viewBox="0 0 69 38" fill="none" xmlns="http://www.w3.org/2000/svg">
<g clip-path="url(#clip0_1_263)">
<path d="M51.9045 13.5852L52.1342 13.5468C52.9257 12.5016 54.3386 11.7892 55.6408 11.7441C56.2803 11.7223 57.3833 12.0835 57.9245 12.4473C58.6582 12.9397 59.3043 13.979 59.3588 14.8745C59.3687 15.0384 59.2489 15.3394 59.3365 15.4498C59.415 15.5493 59.6026 15.4916 59.724 15.5175C60.9485 15.7759 61.5508 16.908 62.2936 17.7667C62.3597 17.8436 62.7613 18.265 62.8109 18.2884C62.896 18.3285 62.9984 18.3327 63.0579 18.2466C63.0926 18.1279 62.8993 18.0927 62.9414 17.9238C62.9472 17.9013 63.1364 17.5434 63.1595 17.5142C63.5313 17.03 64.5104 17.408 64.3857 18.0534C64.4889 18.2215 65.1185 17.8645 65.2441 17.7842C65.7564 17.4581 66.1183 16.9606 66.072 16.3269C66.0646 16.2282 65.9175 16.117 66.1034 16.061C66.3042 16.0008 66.5223 16.1822 66.6529 16.3235C66.8826 16.5718 67.0081 16.8645 67.0255 17.2048C67.0354 17.4071 66.8759 17.561 67.1478 17.663C67.2709 17.7098 67.4312 17.6981 67.5584 17.7491C67.6534 17.7876 67.9137 17.9715 68.012 18.0426C68.1773 18.1613 69.0134 18.872 69.0002 19.0351C68.6879 19.4514 67.9872 20.1638 67.4799 20.2976C67.3362 20.3352 67.1189 20.2825 67.0205 20.4188C66.9404 20.53 67.0321 20.6546 67.0255 20.7959C66.9991 21.3185 66.6223 22.0024 66.0324 21.9481C66.1315 21.4631 66.0753 21.1429 65.8027 20.7382C65.53 20.3335 64.9657 20.0225 64.4914 19.9055C64.3212 19.9882 64.4146 20.1705 64.3336 20.3335C64.1287 20.7449 63.4256 20.8586 63.1405 20.4648C63.0909 20.3963 62.9298 20.0785 62.9406 20.0133C62.9554 19.9213 63.0761 19.8645 63.0579 19.7558C62.9736 19.4631 62.4597 20.0568 62.3762 20.1504C61.5599 21.061 61.0708 22.1346 59.7637 22.4815C59.6447 22.5133 59.3902 22.4556 59.3192 22.5752C59.2589 22.6755 59.3787 23.005 59.3638 23.163C59.3101 23.7499 58.8912 24.6479 58.4896 25.0802C57.494 26.1521 55.9101 26.4372 54.5402 26.076C53.614 25.8319 52.7167 25.209 52.1235 24.4556C51.7153 24.1956 52.0731 24.9974 52.102 25.1153C52.6167 27.1948 52.0169 29.826 50.623 31.459C49.2374 33.0827 45.8614 34.7382 46.7199 37.3335C46.762 37.4615 47.0611 37.923 46.9884 38.0024C46.3423 37.8561 45.6044 37.5376 45.1079 37.0835C44.7435 36.7499 44.2618 36.0275 44.0875 35.566C44.0445 35.4523 43.9677 34.9891 43.904 34.9473C43.8041 34.8812 43.3496 34.9631 43.1679 34.9498C40.8651 34.7834 38.8367 34.3244 36.8546 33.061C32.9894 30.5978 31.137 26.1036 28.0056 22.9105C27.7288 22.6279 27.2991 22.2073 26.9942 21.969C26.8918 21.8887 26.7761 21.7851 26.6439 21.78C26.5679 21.7876 25.9424 22.5125 25.7962 22.6387C25.4037 22.9782 24.6882 23.2984 24.1958 23.4021C24.0057 23.4414 23.2506 23.4489 23.1712 23.5785C23.1159 23.6697 23.2613 24.0693 23.2753 24.2282C23.472 26.5192 21.8997 28.3043 19.7407 28.76C18.3691 29.0493 16.154 28.9063 15.379 30.3662C15.0435 30.9974 15.0757 31.76 15.4261 32.3804C15.4203 32.704 14.8147 32.3168 14.6544 32.3252C11.0404 30.8394 9.35322 27.4029 10.9032 23.6638C10.9718 23.4991 11.3998 22.9071 10.9346 23.0685C10.6017 23.1839 10.1985 23.5351 9.77791 23.6956C7.24383 24.6638 5.00638 23.7959 3.3002 21.8244C2.92013 21.3854 1.9179 19.8009 1.35441 19.7759C1.05118 19.7625 1.35441 20.0434 1.40068 20.1513C1.76753 21.0242 0.181975 21.6103 0.0192057 20.5877C-0.0749855 19.9966 0.199326 19.8745 0.550477 19.4974C0.572785 19.3695 0.0935671 19.1404 0.105134 19.0091C0.121659 18.8193 0.581048 18.6822 0.547172 18.5058C0.527342 18.4038 0.201804 18.2215 0.121659 18.1003C-0.0898578 17.7792 -0.0171488 17.0927 0.371183 16.9356C0.964422 16.6964 1.66177 17.2892 1.38828 17.8812C1.34119 17.9824 1.04953 18.2307 1.35771 18.2307C1.92038 18.2307 2.98871 16.5351 3.382 16.0953C5.17246 14.0961 7.6867 13.2349 10.2067 14.4999C10.4083 14.6011 10.9421 15.0601 11.1305 14.9473C11.1767 14.714 10.9603 14.4983 10.8727 14.2851C9.37305 10.6162 11.0164 7.27502 14.5164 5.7491C14.6304 5.69977 15.2336 5.47652 15.3021 5.49408C15.3401 5.50412 15.3782 5.53254 15.4071 5.5593C15.4715 5.66298 15.3443 5.75746 15.3121 5.84274C14.9923 6.6889 15.1228 7.48488 15.7549 8.13204C16.7497 9.15127 18.9764 8.9782 20.291 9.39458C22.1905 9.99575 23.4588 11.7834 23.2737 13.816C23.253 14.0401 23.1018 14.2541 23.1886 14.4481C23.2919 14.5827 23.9107 14.5576 24.1173 14.5944C24.4412 14.6529 24.9733 14.8544 25.2732 15.0133C25.7921 15.2884 26.1779 15.7416 26.5563 16.1805C26.7067 16.2909 26.8348 16.1688 26.9513 16.0743C30.3595 13.3177 32.1847 8.65127 35.6078 5.85445C37.9196 3.96482 40.2826 3.25997 43.2083 3.05261C43.4521 3.03505 43.6644 3.10278 43.89 3.07351C43.9726 3.02335 44.028 2.58522 44.0742 2.46565C44.242 2.03505 44.7129 1.30261 45.0442 0.980702C45.5449 0.493245 46.2729 0.203114 46.9264 0.00160655C47.1123 0.0158201 46.7579 0.585217 46.7273 0.677193C45.8581 3.3001 49.2308 4.9088 50.6222 6.54425C52.097 8.27836 52.5308 10.6872 52.1011 12.8879L51.9045 13.5869L51.9045 13.5852ZM10.0555 18.6019C10.196 18.7458 10.9487 18.1412 11.0685 18.0175C11.3081 17.7717 11.9369 16.8386 12.0732 16.5259C12.1996 16.2357 11.9897 16.0585 11.7691 15.8854C11.6146 15.7642 11.4386 15.7123 11.2974 15.6103C11.1825 15.5267 11.0999 15.3929 10.9784 15.306C10.8107 15.1864 9.99273 14.7499 9.81013 14.6906C9.38214 14.5509 9.64158 15.0259 9.64571 15.2366C9.64984 15.4473 9.5416 15.6738 9.39619 15.8235C8.81369 16.4213 7.8189 15.9289 7.13973 15.8461C5.12949 15.6019 3.79346 16.8553 2.39134 18.015C2.00218 18.3369 1.39159 18.5175 1.46264 19.1254C1.5023 19.4615 2.16825 19.8034 2.43265 20.0242C3.55468 20.9606 4.67506 22.0233 6.23335 22.1563C7.08768 22.2299 7.65034 21.9456 8.42288 21.9021C8.98059 21.8712 9.64654 22.0886 9.64654 22.7608C9.64654 22.9439 9.4218 23.3285 9.7052 23.3285C9.94729 23.3285 10.6512 22.8051 10.9388 22.7332C11.1503 22.4322 11.475 22.3503 11.7303 22.1546C11.9137 22.0141 12.1806 21.7733 12.0996 21.53C12.0335 21.3302 11.4304 20.4364 11.2726 20.2357C10.9958 19.8854 10.5108 19.4397 10.058 19.3963C10.0291 19.6078 10.2563 19.734 10.296 19.928C10.4571 20.7106 9.58044 21.2215 8.98637 20.6688C8.75585 20.4548 8.83269 20.173 8.75916 20.0626C8.62035 19.8553 8.11717 20.3628 7.98001 20.4489C7.35372 20.8436 6.28457 21.1998 5.76239 20.4615C5.56244 20.1789 5.51617 19.9197 5.65085 19.5961C5.72851 19.4105 5.96317 19.2449 5.97225 19.0392C5.98299 18.7825 5.74173 18.6304 5.65911 18.4339C5.51287 18.0877 5.55914 17.8118 5.78222 17.5133C6.29862 16.8235 7.40165 17.1688 8.00728 17.5626C8.13204 17.6437 8.61291 18.1538 8.75998 17.9347C8.75998 17.2416 9.5697 16.8344 10.0861 17.3202C10.2489 17.4732 10.3364 17.8143 10.305 18.0342C10.2737 18.2541 10.044 18.3862 10.0597 18.6011L10.0555 18.6019ZM10.5579 19.0735C10.5901 19.1856 11.0016 19.382 11.1296 19.4999C11.4857 19.8285 11.8187 20.306 12.0724 20.7198C12.1633 20.8687 12.2979 21.3294 12.507 21.3101C12.8218 21.1003 13.0597 20.7834 13.363 20.5476C13.905 20.1262 14.3933 19.9623 14.9601 19.6555C15.455 19.3871 14.7081 19.1881 14.518 18.9983C14.518 18.9389 15.1377 18.7148 15.1377 18.5384C15.1377 18.3779 14.4007 18.1245 14.2322 18.0325C13.881 17.8411 13.4415 17.5225 13.1341 17.2625C12.9573 17.1128 12.6681 16.6856 12.4326 16.719C12.2781 16.7407 12.1542 17.1387 12.0707 17.2767C11.7923 17.7391 11.4857 18.2157 11.0652 18.5585C10.8801 18.7098 10.4827 18.8168 10.5571 19.0735L10.5579 19.0735ZM14.6618 23.0334L13.9595 23.0334C13.8397 23.0334 13.3489 22.8076 13.2241 22.7324C13.0102 22.6036 12.5648 22.1086 12.3888 22.1103C12.35 22.1103 12.3219 22.1178 12.2872 22.1346C12.1261 22.2098 11.3659 23.5702 11.2585 23.811C11.1272 24.1036 11.0404 24.4188 10.9553 24.7165C10.9156 24.8545 10.7958 24.9631 10.8388 25.1371C11.0264 25.3202 11.1569 25.061 11.3073 24.9891C11.7782 24.765 12.4491 25.0309 12.7086 25.4698C13.0969 26.127 12.9614 27.2407 12.8201 27.9832C12.7986 28.0961 12.7086 28.1856 12.7053 28.2775C12.6648 29.6045 13.2836 31.0476 14.4561 31.7274C14.9088 31.9899 14.6568 31.4113 14.642 31.1638C14.6098 30.6396 14.661 30.0576 14.7932 29.5618C14.8667 29.2851 15.2253 28.6605 15.4095 28.4297C15.6558 28.1203 15.9987 27.9013 16.2432 27.6103C15.5227 26.9774 14.9502 26.0986 14.7767 25.1337C14.7329 24.8887 14.6428 24.2842 14.6411 24.0551C14.6403 23.8921 14.8427 23.0886 14.6635 23.0325L14.6618 23.0334ZM14.0008 14.9648C14.209 14.9414 14.4495 14.9815 14.6618 14.9648C14.8279 14.9648 14.6428 14.0693 14.6436 13.9473C14.6577 12.8093 15.0956 11.5434 15.8805 10.7223C15.9565 10.6429 16.2507 10.4924 16.2424 10.3871C15.7938 9.98154 15.3773 9.60863 15.0799 9.06599C14.7543 8.47234 14.6312 7.87953 14.6395 7.20896C14.6428 6.90963 14.7106 6.6195 14.7254 6.33271C14.7353 6.15044 14.5693 6.2215 14.461 6.27585C14.0653 6.47569 13.3382 7.32184 13.12 7.71984C12.8168 8.27167 12.6863 9.08689 12.7053 9.72151C12.7078 9.81683 12.8011 9.90294 12.8209 10.015C12.9036 10.4866 13.0341 11.5727 12.9391 12.0091C12.7862 12.7115 12.0278 13.3386 11.3089 13.0083C11.1594 12.9397 11.0016 12.7006 10.8388 12.862C10.7958 13.0351 10.9165 13.1454 10.9553 13.2825C11.1817 14.0752 11.5568 14.8795 12.0468 15.5643C12.5111 16.2131 12.5334 15.7851 13.011 15.4264C13.2671 15.234 13.6844 15.0016 14.0016 14.9657L14.0008 14.9648ZM16.1408 26.4916C16.1887 26.5468 16.4432 26.6697 16.5266 26.7073C17.1661 26.9966 18.0601 26.9949 18.6996 26.7023C19.6135 26.2842 19.8051 25.2441 20.9197 25.0192C21.4527 24.9113 22.1335 25.1889 22.3062 25.7499C22.3623 25.933 22.2863 26.076 22.5111 26.2106C22.6292 26.2131 22.8432 25.3996 22.8589 25.2675C22.8887 25.0125 22.8771 23.7566 22.7383 23.5986C22.5673 23.4029 22.3343 23.6145 22.1186 23.5167C21.7137 23.3327 21.6749 22.78 22.0219 22.5401C22.2657 22.3712 22.5871 22.3327 22.7986 22.5769C22.9878 22.7959 22.8664 23.127 23.2175 23.1596C23.3043 23.168 24.0347 23.0585 24.1611 23.0325C24.6783 22.9255 25.2699 22.6254 25.6723 22.2625C25.7433 22.1981 26.2523 21.6538 26.2713 21.6128C26.2977 21.5543 26.306 21.5041 26.2721 21.4464C25.3897 20.8302 24.4511 20.331 23.4414 19.9623C23.0291 19.8118 22.1136 19.4774 21.7154 19.4481C21.3172 19.4188 21.5121 19.8285 21.4898 20.0342C21.4436 20.4506 21.0106 20.7198 20.7148 20.3386C20.5372 20.1103 20.657 20.0752 20.6256 19.9289C20.5512 19.5777 19.5986 20.0927 19.4209 20.2006C19.0334 20.4364 18.6856 20.7859 18.4253 21.158C18.1849 21.5008 18.1436 21.9113 17.6586 21.3411C17.414 21.0534 17.4785 20.862 17.3595 20.5986C17.224 20.3001 16.7836 20.4238 16.5002 20.3394C16.3837 20.3051 16.0978 20.1429 15.9772 20.0744C15.7549 19.9481 15.6946 19.7382 15.3839 19.8344C14.7048 20.0459 13.8397 20.6019 13.301 21.0702C13.1349 21.214 12.7102 21.5426 12.7408 21.7566C12.7648 21.9264 13.3481 22.3478 13.5142 22.4406C13.9231 22.668 14.4817 22.8829 14.8948 22.5551C14.9584 22.4673 14.7758 22.163 15.013 21.9247C15.5781 21.3561 16.425 22.02 15.9408 22.6128C15.6574 22.959 15.4889 22.7792 15.2625 22.8879C15.0898 22.9698 15.1171 23.7006 15.0253 23.9029L15.0229 24.2675C15.1014 24.4347 15.1708 25.3461 15.2311 25.4071C15.4145 25.5927 15.6054 25.2909 15.7467 25.2591C16.1771 25.1596 16.663 25.4172 16.5175 25.9113C16.4457 26.1538 15.9697 26.2926 16.1441 26.4916L16.1408 26.4916ZM16.1408 11.734C16.1903 11.7901 16.3242 11.8302 16.3986 11.9113C16.7885 12.3386 16.2688 12.9682 15.7326 12.7524C15.5781 12.6906 15.4847 12.4439 15.279 12.5794C15.1278 12.6789 15.1997 12.8319 15.1732 12.974C15.022 13.7909 14.9964 13.9305 15.16 14.7541C15.1799 14.8536 15.0981 15.0334 15.2608 15.112C15.4748 15.2148 15.6401 15.0417 15.916 15.3687C16.4192 15.9657 15.6392 16.6228 15.0534 16.1162C14.7461 15.8494 14.9774 15.5551 14.894 15.4448C14.1801 14.9983 13.2861 15.6346 12.7871 16.1613C12.6681 16.3469 12.8011 16.4707 12.9259 16.5969C13.629 17.3093 14.3412 17.7098 15.2484 18.0927C15.3881 18.1513 15.4186 18.2851 15.6219 18.1948C15.7268 18.1488 15.9053 17.974 16.0334 17.8996C16.3374 17.724 16.5465 17.6454 16.8976 17.6036C17.0232 17.5886 17.0918 17.6889 17.2595 17.5518C17.4272 17.4147 17.3752 17.2215 17.4297 17.0551C17.495 16.8561 17.8362 16.3979 18.0535 16.3862C18.2584 16.3754 18.3196 16.6906 18.408 16.8185C18.8409 17.4414 19.525 18.0075 20.267 18.1981C20.7297 18.3168 20.5595 18.0585 20.6066 17.8503C20.7231 17.3402 21.413 17.3879 21.4898 17.9657C21.5138 18.1454 21.4204 18.2733 21.4783 18.4356L21.6873 18.5601C22.0269 18.4765 22.3723 18.4029 22.7061 18.2984C23.4827 18.0543 24.3899 17.7014 25.1055 17.2984C25.2542 17.2148 26.2688 16.5944 26.2862 16.525C26.3035 16.4556 26.2614 16.4004 26.2267 16.3469C26.0019 15.9983 25.3533 15.4565 24.9848 15.2633C24.6634 15.0944 23.4753 14.7984 23.1613 14.867C22.8754 14.9297 22.9952 15.0259 22.9349 15.1847C22.8143 15.5008 22.6631 15.6312 22.3095 15.5894C21.855 15.5351 21.6163 14.9673 21.9327 14.6295C22.2492 14.2917 22.5763 14.6404 22.7424 14.4038C22.882 14.2056 22.8928 13.0484 22.8639 12.77C22.8498 12.6371 22.6474 11.8586 22.5507 11.831C22.2756 11.8461 22.3615 12.0886 22.307 12.2499C22.2029 12.5585 22.0145 12.7416 21.7278 12.8762C21.3064 13.0735 21.0585 13.0643 20.6231 12.9063C19.844 12.6228 19.5738 11.8118 18.9401 11.4322C18.1907 10.9832 16.934 10.9322 16.2151 11.4782C16.1185 11.5518 16.0424 11.622 16.1424 11.7349L16.1408 11.734ZM21.5816 19.02C21.779 19.1203 21.998 19.1136 22.2021 19.1663C23.4348 19.4815 24.7353 19.9983 25.8334 20.6755C26.1027 20.8419 26.4357 21.2842 26.7042 21.0058C27.0579 20.6396 27.3264 19.9539 27.6379 19.5259C27.7783 19.3327 27.937 19.1638 28.1088 18.9991C27.9766 18.8545 27.8238 18.7299 27.7032 18.5735C27.3594 18.1287 27.0909 17.4105 26.7224 17.0158C26.6654 16.9539 26.6109 16.8946 26.5192 16.8921C26.3754 16.8887 25.8367 17.3302 25.6574 17.4381C24.5387 18.1145 23.0366 18.6697 21.7765 18.9038C21.7394 18.9105 21.584 18.9648 21.5816 19.0192L21.5816 19.02ZM35.8755 10.1153C35.8069 10.0225 36.0994 9.92552 36.1539 9.91632C36.7909 9.8093 37.5065 9.91047 38.0526 10.2742C38.3063 10.4439 38.469 10.8779 38.726 10.5543C39.1556 10.0125 39.8051 9.11365 40.4471 8.82602C40.7908 8.67217 40.7288 9.04508 40.8387 9.29425C41.5278 10.8662 42.6176 10.556 43.9842 10.8352C45.4747 11.1404 46.8818 12.6228 47.0694 14.1513C47.0875 14.3026 47.0297 14.8904 47.1098 14.9464C47.7196 15.0083 48.4178 15.3327 48.8689 15.7583C49.0118 15.8929 49.5158 16.5626 49.6199 16.5894C49.7307 16.6187 49.8513 16.4807 49.9224 16.408C50.6974 15.6203 51.2509 14.3578 51.5616 13.3427C52.0136 11.8653 51.8624 10.0309 51.4112 8.58605C51.3906 8.52 51.1725 8.10779 51.1402 8.10863C50.9791 8.32017 51.0485 8.61783 50.9667 8.89375C50.6833 9.84693 49.5695 10.7307 48.5772 10.7014C46.8331 10.6504 45.5135 8.75913 44.2816 7.73238C41.9285 5.77251 38.9821 4.98656 36.1779 6.51164C34.3007 7.53254 33.5827 8.64709 32.3227 10.2608C32.2152 10.3979 31.8269 10.7157 31.7906 10.8553C31.7418 11.0409 32.0756 11.0944 32.1723 11.1655C32.5474 11.4431 32.4524 12.0058 32.0219 12.1722C31.5914 12.3386 31.375 11.6663 31.1006 11.8678C31.0478 11.9071 30.733 12.418 30.6446 12.5351C29.8976 13.53 29.0045 14.6755 28.1295 15.5501C27.7626 15.9172 27.3239 16.2123 26.9571 16.5802L26.929 16.719L28.1493 18.5392C28.4815 18.6621 28.3708 18.3152 28.46 18.1003C28.7335 17.4397 29.8902 17.7466 29.8852 18.4974C29.8844 18.6847 29.6936 18.9038 29.6936 18.9983C29.6936 19.0635 29.8307 19.255 29.8572 19.3611C29.9712 19.8252 29.5366 20.2775 29.0797 20.2759C28.8822 20.2759 28.55 20.1203 28.4625 19.9364C28.3567 19.7148 28.4592 19.0677 28.0089 19.6488C27.6222 20.1479 27.4065 20.8411 26.9298 21.2775L26.9174 21.3319C26.9306 21.4874 27.9832 22.2951 28.1733 22.4866C29.1193 23.4422 30.0778 24.7131 30.8949 25.7943C31.0015 25.9356 31.0469 26.1789 31.2634 26.2031C31.5162 25.9924 31.7129 25.6881 32.0706 25.8586C32.4697 26.0493 32.5333 26.5835 32.1797 26.8377C32.0756 26.9121 31.7517 26.9372 31.7922 27.1396C32.4796 27.9406 33.0506 28.8402 33.7677 29.6178C35.3459 31.3294 37.7634 32.6203 40.1108 32.2299C41.6798 31.969 43.0067 31.3269 44.2403 30.3051C45.6573 29.1312 47.5486 26.4289 49.6604 27.5819C50.1958 27.8745 50.8519 28.5936 50.9915 29.2031C51.0064 29.2692 51.0394 30.0192 51.2022 29.8879C51.2196 29.7056 51.3617 29.5777 51.4112 29.4096C51.9979 27.4138 51.9723 25.7031 51.2658 23.7834C51.0171 23.1078 50.3925 22.0484 49.8827 21.5459C49.6703 21.3369 49.6315 21.372 49.4464 21.5685C49.225 21.8034 49.054 22.0835 48.8069 22.3009C48.3219 22.729 47.7089 22.9765 47.0768 23.0794C47.0462 23.326 47.0983 23.6019 47.0685 23.8444C46.9165 25.0835 45.9167 26.3929 44.7856 26.8854C43.3579 27.5066 41.6897 26.9138 40.894 28.5911C40.8346 28.7157 40.7065 29.1914 40.6412 29.2148C40.5768 29.2349 40.5231 29.219 40.4627 29.1964C40.3735 29.163 39.9009 28.7851 39.7993 28.6973C39.3325 28.2884 38.9648 27.7825 38.5748 27.3026C38.4533 27.2792 38.2278 27.5927 38.1261 27.6722C37.5833 28.0944 36.8058 28.2031 36.1457 28.0877C36.0498 28.071 35.9457 28.0116 35.8755 27.9439C36.206 27.7458 36.5315 27.7207 36.8447 27.4623C38.008 26.5033 37.8196 24.4782 38.1154 23.1045C38.1394 22.9916 38.2129 22.7299 38.2484 22.612C38.3071 22.4138 38.593 22.1588 38.4715 21.9514C38.3393 21.867 37.8824 22.1663 37.7114 22.1939C35.6962 22.515 33.9776 21.5944 32.6953 20.0844C32.535 19.8954 32.0987 19.1856 31.8798 19.1504C31.6377 19.1111 31.7897 19.4431 31.7872 19.5434C31.7831 19.7876 31.2989 20.1647 31.0569 20.1872C30.6603 20.2257 30.3215 19.8377 30.3389 19.459C30.3471 19.2725 30.4983 19.0217 30.4983 18.9974C30.4983 18.9749 30.4107 18.9247 30.3901 18.8628C30.2785 18.5325 30.3215 18.1914 30.6082 17.974C30.999 17.678 31.3873 17.8461 31.66 18.2048C31.8624 18.4723 31.7468 18.5442 31.7443 18.8511C31.9426 19.0526 32.6267 17.9991 32.7366 17.8695C34.0148 16.367 35.6367 15.5652 37.6312 15.7993C37.8551 15.8252 38.2022 16.0702 38.3401 16.0827C38.3988 16.0877 38.4583 16.0493 38.5004 16.0091C38.5765 15.8862 38.3005 15.5259 38.2493 15.3829C38.0311 14.7725 37.9741 13.8787 37.8989 13.229C37.7973 12.3511 37.6692 11.4556 37.0719 10.7633C36.7463 10.3862 36.3473 10.2315 35.8755 10.1136L35.8755 10.1153ZM37.409 18.8887C37.6932 18.9506 37.7684 18.8469 37.9419 18.6655C38.3253 18.2633 38.5839 17.7215 38.9326 17.2851C39.0292 17.1647 39.197 17.1713 39.1325 16.959C39.0945 16.8352 38.317 16.4213 38.1567 16.357C38.0964 16.3327 38.0113 16.3494 37.9394 16.326C37.7072 16.2483 37.5263 16.0451 37.2404 16.2867C37.3685 16.6237 37.4395 16.7667 37.1958 17.0752C36.7967 17.5819 35.7838 17.4155 35.1938 17.474C34.6419 17.5284 33.9429 17.7834 33.4662 18.0668C33.0423 18.3193 32.6292 18.6479 32.2813 18.9999C33.0704 19.8051 34.0644 20.3954 35.1938 20.525C35.7871 20.5927 37.1652 20.3904 37.3445 21.1914C37.4181 21.52 36.9735 21.8578 37.5907 21.8244C37.6816 21.8193 38.1138 21.6647 38.2179 21.6212C38.3872 21.5509 38.9788 21.2366 39.0796 21.1136C39.1193 21.0652 39.1474 21.0359 39.1408 20.9665C38.9383 20.6973 38.7219 20.4364 38.526 20.163C38.4038 19.9924 38.322 19.806 38.1873 19.6279C38.0039 19.3854 37.7411 19.0058 37.409 19.1095C37.3949 19.6195 36.7455 20.0384 36.3704 19.5852C36.1448 19.3126 36.2812 19.2366 36.2812 18.9991C36.2812 18.7809 36.1547 18.7608 36.3208 18.4891C36.6464 17.9598 37.4007 18.3244 37.409 18.8896L37.409 18.8887ZM42.4846 18.979C41.755 18.7809 41.0015 18.4665 40.3653 18.0509C40.195 17.9397 39.5679 17.3937 39.449 17.3929C39.2713 17.3912 38.9441 18.0309 38.807 18.2039C38.6781 18.3662 38.5112 18.4907 38.3955 18.6237C38.2997 18.7332 38.2038 18.8795 38.1195 18.9999C38.1121 19.1203 38.6607 19.6254 38.7657 19.7533C38.9359 19.9615 39.1449 20.4055 39.3027 20.5476C39.3531 20.5936 39.3729 20.6145 39.4481 20.6136C39.5729 20.612 40.1537 20.1028 40.3231 19.9899C40.88 19.6203 41.5526 19.3001 42.1954 19.1254L42.4837 18.979L42.4846 18.979ZM40.6569 21.831C40.39 21.78 40.1529 21.7399 39.91 21.6045C39.7431 21.5108 39.6506 21.3252 39.4498 21.3603C39.3399 21.3795 39.1548 21.683 39.0895 21.7926C38.7929 22.2943 38.569 22.9155 38.474 23.469C38.4517 23.5986 38.2964 23.9172 38.5046 23.9882C38.6996 24.0551 38.8565 23.9013 39.1854 24.0936C40.0075 24.5744 39.6092 25.5902 39.5522 26.3152C39.4886 27.1195 39.6522 27.6688 40.0686 28.3419C40.5024 28.6496 40.3074 27.979 40.3388 27.7391C40.3967 27.2968 40.6734 26.6948 40.9395 26.3402L41.3741 25.8561C41.3997 25.6095 41.0692 25.3703 40.9395 25.1621C40.5255 24.4966 40.3843 23.2441 40.552 22.4782C40.5916 22.2976 40.8395 22.0936 40.6569 21.8319L40.6569 21.831ZM38.4021 14.306C38.4682 14.8561 38.7971 15.7123 39.0895 16.2056C39.1689 16.3394 39.3705 16.714 39.5522 16.663C39.6225 16.6429 39.8034 16.4615 39.9141 16.3988C39.9844 16.3595 40.2165 16.2458 40.2835 16.229C40.5619 16.1605 40.7858 16.306 40.6982 15.8319C40.6734 15.7006 40.5726 15.6178 40.5512 15.5208C40.3983 14.8218 40.5189 13.6672 40.8362 13.025C40.9453 12.8051 41.3956 12.3636 41.3708 12.1872C41.3625 12.1279 40.885 11.6011 40.7982 11.4665C40.6189 11.1872 40.3892 10.6212 40.3454 10.2943C40.3116 10.0384 40.495 9.34525 40.0678 9.65712C39.7456 10.2215 39.5291 10.6755 39.5324 11.3494C39.5349 11.862 39.71 12.3695 39.7183 12.8536C39.7266 13.3377 39.3606 14.0225 38.8243 14.0434C38.6302 14.0509 38.3492 13.8754 38.4013 14.3068L38.4021 14.306ZM43.4306 19.275C43.2802 19.229 43.1736 19.2223 43.02 19.2483C42.8663 19.2742 42.7903 19.3636 42.7027 19.3871C42.3127 19.4899 42.0516 19.5434 41.6633 19.7148C40.9924 20.0116 40.3264 20.4088 39.8026 20.928C39.7811 21.0534 40.2727 21.3369 40.3851 21.3754C40.4504 21.3979 40.8379 21.4882 40.8965 21.4899C41.032 21.4941 41.1047 21.4113 41.2254 21.4013C41.7566 21.357 41.1799 21.9021 41.1312 22.1019C40.6701 23.9841 42.5135 25.4932 44.0338 24.2867C44.3271 24.0543 44.8633 23.3979 45.2343 23.3277C45.5301 23.2725 45.9258 23.3135 46.163 23.5133C46.3439 23.6655 46.353 23.9339 46.6108 23.8636C46.6703 23.826 46.6777 23.3244 46.6372 23.2416C46.572 23.107 46.1316 23.1028 45.9853 22.9924C45.7887 22.8444 45.7986 22.459 45.9333 22.2792C46.2018 21.9205 46.5951 21.775 46.9049 22.1755C47.0594 22.3754 47.0421 22.658 47.3767 22.6136C47.9675 22.5359 48.7317 21.882 49.0936 21.4222C49.1713 21.3244 49.3523 21.0994 49.2812 20.984C49.0631 20.8645 48.8937 20.6747 48.6954 20.5317C48.5194 20.4055 47.6171 19.8528 47.4626 19.8578C47.366 19.8611 47.0834 20.0718 46.9578 20.0969C46.843 20.1203 46.7256 20.0835 46.6141 20.1254C46.4951 20.5635 46.3167 21.0718 45.83 21.1764L45.7127 21.0819C45.7953 20.663 45.597 20.168 45.2723 19.8988C45.1508 19.7984 44.318 19.3436 44.2593 19.5911C44.3783 19.974 44.0932 20.3854 43.6801 20.255C43.2009 20.1045 43.4884 19.3444 43.4298 19.2742L43.4306 19.275ZM46.6124 14.1329C46.4604 14.0284 46.1365 14.5978 45.8829 14.6621C44.7848 14.9431 44.3899 13.7591 43.5289 13.4272C43.0142 13.229 42.6548 13.26 42.1541 13.4807C41.2113 13.8963 40.8676 14.9197 41.1312 15.8954C41.1741 16.056 41.5195 16.4372 41.4344 16.5568C41.2601 16.6864 41.0601 16.5108 40.899 16.515C40.842 16.5167 40.4826 16.5944 40.419 16.6162C40.2843 16.6605 39.753 16.9506 39.8026 17.1128C39.8348 17.2207 40.899 17.913 41.0709 18.0058C41.6426 18.3143 42.0979 18.4389 42.6936 18.6212C42.7919 18.6513 42.8522 18.7441 43.0051 18.7658C43.1447 18.7859 43.3001 18.7775 43.4306 18.7232C43.4033 18.4029 43.2877 17.9172 43.6636 17.7675C43.8503 17.6931 43.9445 17.7106 44.0974 17.8285C44.4419 18.0936 44.1808 18.2884 44.2676 18.4297C44.3841 18.484 44.5097 18.4974 44.6353 18.4581C44.7294 18.4289 45.1335 18.2031 45.2252 18.1354C45.4846 17.9439 45.7226 17.5275 45.7399 17.2023C45.7457 17.0894 45.6143 16.882 45.811 16.8461C46.2035 16.7733 46.5637 17.5501 46.6141 17.8737C46.724 17.9096 46.833 17.8829 46.9487 17.9113C47.1074 17.9498 47.3156 18.1195 47.4312 18.1371C47.7593 18.1864 48.9871 17.255 49.282 17.015C49.3572 16.8954 49.0928 16.5936 49.011 16.4941C48.6475 16.0568 47.9733 15.5058 47.4114 15.3946C46.9396 15.3009 47.057 15.9983 46.5546 16.056C46.296 16.0852 45.9936 15.8737 45.868 15.6588C45.8449 15.6195 45.8259 15.3344 45.8308 15.2851C45.8738 14.8578 46.5546 14.9264 46.6364 14.7591C46.6761 14.6772 46.6686 14.1747 46.6116 14.1354L46.6124 14.1329ZM49.7844 17.4857C49.7612 17.4598 49.5902 17.3578 49.5605 17.3528C49.4514 17.3352 49.054 17.7366 48.9267 17.826C48.7557 17.9456 48.5211 18.0835 48.3376 18.1914C48.2104 18.2658 47.87 18.3444 47.87 18.4983C47.87 18.6228 48.2757 18.8645 48.3508 18.9999C48.2608 19.1738 47.7436 19.4147 47.9187 19.6036C48.2013 19.7424 48.4822 19.8896 48.745 20.0652C49.0077 20.2407 49.2407 20.4498 49.4902 20.6529C49.7827 20.6588 49.862 20.3344 50.024 20.1488C50.4462 19.6647 50.9485 19.2825 51.5319 19.02L50.8163 18.5953C50.5164 18.3478 50.2206 18.0802 49.9628 17.7867C49.8844 17.6973 49.8406 17.5493 49.7836 17.4866L49.7844 17.4857ZM53.2777 19.4481C53.2364 19.484 53.1637 19.7968 53.0579 19.9155C52.8018 20.2031 52.2532 20.1789 52.0747 19.8302C51.9813 19.6479 52.1152 19.3687 51.8392 19.3553C51.6079 19.3444 50.775 19.9414 50.5817 20.1279C50.4925 20.214 49.9207 20.908 49.9207 20.964C49.9695 21.183 50.1975 21.2692 50.3156 21.4021C51.0303 22.2073 51.5575 23.1847 52.2358 24.0158C52.4325 24.2566 52.7035 24.4397 52.872 24.7098C53.2587 24.862 53.0166 24.4707 53.0183 24.27C53.0232 23.6939 53.3926 23.1705 53.9288 22.9723C54.6394 22.7106 55.3987 23.464 55.9655 23.7951C56.5744 24.1513 57.0363 24.275 57.7518 24.2073C58.331 24.1521 58.8102 23.3118 58.8457 22.7642C58.8606 22.5384 58.835 22.3687 58.7788 22.1546C58.8507 22.0518 59.4365 22.1421 59.6307 22.0953C60.8518 21.7976 61.5674 20.3269 62.4382 19.5016C62.6059 19.3427 62.9141 19.2483 62.8968 18.9581C62.8844 18.7575 62.4655 18.5626 62.3126 18.4172C61.412 17.5585 60.7155 15.8595 59.2349 15.8846C59.0738 15.8871 58.9333 15.9774 58.7623 15.8846C59.0292 15.2524 58.6499 14.1713 58.0195 13.8988C57.7485 13.7817 57.0635 13.78 56.7669 13.8478C55.6127 14.1103 54.4534 15.9665 53.3091 14.5685C53.105 14.3193 53.015 14.061 53.0158 13.7332C53.0158 13.6028 53.2339 12.9815 52.8324 13.3352C51.9508 14.1128 51.1642 15.6136 50.3545 16.5551C50.1975 16.7374 49.8092 16.9088 49.9851 17.1797C50.3016 17.668 51.1014 18.3929 51.6442 18.5944C52.1871 18.7959 51.9318 18.3344 52.1102 18.122C52.4168 17.7575 52.9257 17.8269 53.1521 18.2391C53.2447 18.4071 53.1959 18.607 53.4537 18.6053C53.4917 18.6053 53.8751 18.4539 53.9387 18.4255C54.3336 18.2466 54.8748 17.8528 55.1202 17.4891C55.2797 17.2516 55.2764 16.7432 55.6226 17.0777C55.7845 17.2332 55.982 17.6881 55.9531 17.9105C55.9399 18.0158 55.7771 18.1203 55.8324 18.265C56.2877 18.4473 56.7876 18.5961 57.1123 18.9999C57.1123 19.0978 56.762 19.3344 56.6678 19.3896C56.5124 19.4815 55.9142 19.6889 55.8663 19.7491C55.7432 19.9038 55.9415 19.9932 55.9514 20.1312C55.9679 20.3687 55.7052 21.0125 55.4325 21.0292C55.2524 21.0401 55.264 20.7817 55.1979 20.6429C55.0029 20.2357 54.313 19.7458 53.9023 19.571C53.7611 19.5108 53.3983 19.3436 53.2769 19.4506L53.2777 19.4481Z" fill="#03683C"/>
</g>
<defs>
<clipPath id="clip0_1_263">
<rect width="38" height="69" fill="white" transform="translate(0 38) rotate(-90)"/>
</clipPath>
</defs>
</svg>
