<svg width="170" height="48" viewBox="0 0 170 48" fill="none" xmlns="http://www.w3.org/2000/svg">
<path fill-rule="evenodd" clip-rule="evenodd" d="M76.1777 40.1545C78.4582 41.98 80.5621 42.737 77.9453 45.6721C77.7043 45.9437 76.4221 47.1744 76.1865 47.3147C76.0537 47.3937 75.987 47.4585 75.8076 47.4407C75.6188 47.4227 73.0482 45.4205 72.7803 45.1633C72.6687 45.0572 72.4385 44.9278 72.4727 44.7444L76.1777 40.1545ZM71.957 44.4114H0V43.6565H71.957V44.4114ZM170 44.4114H79.8975V43.6565H170V44.4114ZM146.688 26.6584C146.85 26.653 147.028 26.6157 147.134 26.7825C147.377 27.1655 146.296 30.7422 146.039 31.3616C144.874 34.1545 142.082 37.264 138.714 36.5754C138.241 36.4783 137.626 35.9449 137.088 35.8098C135.892 35.5095 134.47 36.4264 133.58 37.1692C133.301 37.402 132.16 38.8304 131.818 38.4924L131.816 38.4944C131.494 38.1742 132.624 36.3144 132.849 35.9368C133.949 34.0842 136.91 30.3508 139.19 30.1799C140.242 30.101 140.685 30.9262 141.593 31.054C144.168 31.4137 146.37 29.0846 146.688 26.6584ZM105.688 20.5061C106.232 20.4629 105.711 21.8885 105.608 22.1946C102.54 31.4659 88.6374 34.5395 80.1719 36.1887C69.1705 38.3325 53.3928 39.5893 42.4688 37.1741C37.87 36.1561 36.3727 34.9676 36.8008 29.9983C36.8224 29.739 36.9957 28.551 37.2402 28.551C38.7977 29.9735 41.1736 30.4628 43.2021 30.9016C57.6026 34.0184 74.8338 32.6729 89.0977 29.2415C93.7899 28.112 100.911 26.3693 104.089 22.5637C104.465 22.1141 105.258 20.5403 105.688 20.5061ZM135.595 9.41137C135.772 9.54902 135.273 12.0241 135.219 12.4954C134.551 18.3459 133.46 24.8427 126.755 26.5764C126.325 26.6878 125.444 26.6969 125.137 26.8479C125.005 26.9127 123.762 28.41 123.361 28.7248C121.108 30.4945 117.874 30.8779 115.686 28.7991C115.16 31.6783 113.72 35.0502 111.589 37.1077C110.201 38.4456 108.069 38.7752 106.668 37.2415C105.229 35.6642 106.733 34.0052 107.179 32.3254C108.407 27.7143 107.153 22.7867 108.658 18.3176C109.253 16.5534 110.151 14.8948 110.912 13.2043L111.273 13.1877C111.201 14.1176 110.842 15.0048 110.68 15.9329C109.604 22.0979 111.265 27.4932 107.972 33.3723C107.75 33.768 107.11 34.4751 106.989 34.7844C106.869 35.0935 107.429 34.9735 107.542 34.9573C110.027 34.6263 112.302 32.7158 113.48 30.5666C115.471 26.9356 114.759 21.1646 115.32 17.0461C115.655 14.6002 117.081 12.2274 117.575 9.79223C118.064 9.76527 117.975 10.3889 117.957 10.7415C117.77 14.4248 115.626 21.2995 119.297 23.7473C119.599 23.9489 120.808 24.5542 121.013 24.1155C121.257 23.5921 121.396 22.7039 121.637 22.0979C122.102 20.92 122.76 19.7058 123.518 18.6897C124.584 17.2617 126.697 14.8518 128.264 17.179C129.451 18.9432 128.743 21.2089 128.034 23.011C129.547 22.6962 131.456 21.6478 132.05 20.1623C132.791 18.31 132.311 16.1969 132.947 14.26C133.462 12.6917 134.541 11.3803 135.041 9.80297L135.595 9.4143V9.41137ZM20.3271 0.258053C21.0669 -0.417673 24.1542 0.391976 24.9814 0.8811C27.0332 2.09516 24.4061 5.60897 23.2461 6.63598C21.2246 8.42726 15.7891 11.8604 15.2764 14.5383C14.771 17.1839 18.5359 16.5923 19.6348 18.6858C21.8757 22.9554 17.5735 31.2611 14.5557 34.4661C9.76091 39.5612 0.759402 39.7931 0.12793 31.2541C-0.301909 25.4342 1.55798 20.5853 4.21973 15.5784C4.55956 14.9365 6.37322 11.5365 6.87012 11.427C6.9978 11.3946 7.14226 11.5278 7.17285 11.6321C7.3563 12.2598 5.08795 16.1415 4.67969 17.0461C2.92614 20.9383 -0.0334909 29.5286 5.51074 31.6653C9.51958 33.2102 15.2949 30.585 17.4424 27.0276C20.0952 22.6338 14.4211 23.6709 13.083 20.9534C12.2918 19.3473 12.93 16.6664 13.4785 15.01C14.5972 11.6324 16.9062 8.78317 19.4043 6.32641C19.0823 5.94877 17.9799 5.64295 18.041 5.09985C18.0897 4.66992 18.5971 3.53195 18.7949 3.07153C19.0341 2.51939 19.9621 0.592575 20.3271 0.258053ZM32.7021 8.66137C32.9629 8.65418 32.9055 9.76355 32.8965 9.98657C32.7526 13.58 30.5101 20.3751 34.6143 22.4866C36.2886 23.348 37.8898 23.1193 39.4814 22.2327C40.5569 21.6337 41.7275 20.1572 42.9072 20.1086C43.4989 20.0853 43.8679 20.3695 44.2959 20.3713C45.4847 20.3764 47.3545 18.2394 47.8994 17.2288V17.2258C49.2969 17.9111 49.986 17.0758 50.5166 15.8762C50.6803 15.5071 50.9807 14.2542 51.1641 14.1301C51.2825 14.0494 51.374 14.1802 51.3994 14.2737C51.5109 14.6729 51.2122 15.9919 51.1025 16.4631C50.7014 18.1842 49.8348 20.1461 48.1875 20.9788C47.8368 21.1568 47.436 21.204 47.0889 21.3928C45.7904 22.0996 44.3946 24.1499 42.7832 24.1536C41.7581 24.1554 41.3514 23.6102 40.2363 24.2415C39.4252 24.7019 38.9037 25.79 38.3066 26.468C36.3319 28.7036 33.0139 29.9172 30.8125 27.2932C30.6687 27.286 30.1291 29.6966 30.0264 30.0305C29.2422 32.5681 27.059 38.4814 23.6582 37.9622C23.108 37.8776 22.1239 37.3996 21.7461 36.9788C20.372 35.4464 21.7065 33.7736 22.1436 32.1028C23.2568 27.8475 22.6709 23.3852 23.2051 19.0598C23.5343 16.3945 24.9208 14.2707 26.0898 11.9309C26.7762 11.9511 26.2169 12.9705 26.127 13.4182C24.8932 19.6643 26.1754 26.3977 23.5029 32.3254L22.0557 34.72C24.2173 34.7019 26.1776 33.4028 27.4707 31.759C30.7133 27.6386 29.6896 20.0958 30.5312 15.051C30.7794 13.5637 31.8482 10.607 32.4219 9.13403C32.492 8.95611 32.5298 8.77828 32.7021 8.66137ZM154.625 9.15942C154.801 9.17439 154.846 9.72804 154.86 9.86645C155.119 12.6559 154.216 16.8549 153.995 19.7971C153.812 22.2304 153.225 26.3943 154.752 28.3547C155.007 28.6821 155.947 29.7337 156.33 29.4387C156.55 29.2675 157.406 27.4331 157.672 26.9963C158.562 25.5341 160.371 22.749 161.932 22.0618C164.459 20.9485 166.945 23.2023 169.493 23.0081L169.495 23.009C169.513 23.3238 169.417 23.6213 169.331 23.9163C168.997 25.0742 168.437 25.1482 167.734 25.97C165.384 28.7163 164.218 31.8242 161.04 34.1389C158.472 36.0093 154.135 36.7839 152.254 33.6204C150.204 30.1706 151.934 20.8033 152.354 16.6487C152.469 15.512 152.321 14.3461 152.751 13.2688C153.278 11.9488 154.348 10.6503 154.625 9.15942ZM133.466 26.8616C133.734 26.6149 134.881 25.9162 135.073 26.4895C135.231 27.0883 134.886 27.5073 134.699 28.0305C132.859 27.5252 132.909 29.6714 132.172 30.7307C131.531 31.6495 130.081 32.1399 129.498 30.926C129.006 29.9028 129.539 29.0414 129.8 28.0452C130.116 28.2106 129.771 28.7898 129.8 29.1028C129.852 29.6711 130.304 30.0635 130.87 30.0618C132.437 30.0546 132.464 27.777 133.466 26.8616ZM166.09 25.9661C164.755 25.2324 162.837 24.409 161.271 24.675H161.272C159.873 24.9124 158.545 27.1653 157.88 28.3362C157.677 28.6957 157.242 29.3864 157.121 29.7229C157.08 29.838 156.94 29.8869 157.141 29.9983C157.547 30.2231 159.213 30.2301 159.732 30.1887C162.358 29.9801 164.64 28.0271 166.09 25.9661ZM58.3447 7.27075C58.0768 9.17534 57.7968 11.0858 57.5918 13.0012C57.1422 17.2026 57.1439 24.4662 53.8779 27.5452C53.6945 27.7178 53.5972 27.8452 53.3076 27.7913C53.2898 26.7249 53.7158 25.7156 53.8975 24.6672C54.5305 20.9948 54.3906 17.3746 54.8223 13.7561C55.137 11.1142 56.68 9.62148 57.9102 7.39868L58.3447 7.27075ZM143.156 6.81958C142.226 10.5945 142.27 14.5653 141.771 18.4104C141.368 21.5092 140.652 24.9249 138.183 27.0364C138.005 26.9105 137.991 26.8222 137.998 26.6155C138.03 25.7792 138.553 24.3547 138.71 23.4123C139.32 19.74 139.028 15.6522 139.661 12.1506C140.024 10.1418 141.769 8.21179 142.845 6.51587L143.156 6.81958ZM126.958 20.2454C126.402 19.6286 125.521 19.4734 124.727 19.637H124.725C123.527 19.8833 122.119 21.6264 123.37 22.6965C125.142 24.2127 128.978 22.4863 126.958 20.2454ZM114.363 2.86938C116.435 4.74336 118.761 5.109 116.369 8.14282C116.162 8.40519 114.359 10.2314 114.211 10.2756C114.065 10.317 113.93 10.3152 113.799 10.2307L110.664 7.88403H110.662L110.711 7.52661L114.363 2.86938ZM121.417 2.64282C122.25 3.3963 124.548 4.57456 124.5 5.81176C124.444 7.2109 122.261 9.14068 121.171 9.91235L120.808 9.7727L117.711 7.22387L121.417 2.64282ZM148.909 1.8645C149.69 2.53166 151.978 3.84613 151.984 4.93774C151.993 6.40705 149.751 8.34283 148.642 9.15942L145.178 6.45825L148.909 1.86255V1.8645ZM132.141 1.85864C134.139 3.41422 136.539 4.1936 134.334 6.95239C134.053 7.3031 132.212 9.16311 131.9 9.13794L128.729 6.7688L128.536 6.45239L132.141 1.85864ZM164.162 1.61645C164.306 1.57873 164.421 1.61983 164.523 1.72387C165.045 2.44859 166.82 3.27064 167.132 4.02954C167.837 5.75067 165.13 7.91276 163.995 8.89477L160.423 6.20044L164.16 1.61645H164.162Z" fill="white"/>
</svg>
