<svg width="86" height="132" viewBox="0 0 86 132" fill="none" xmlns="http://www.w3.org/2000/svg">
<path d="M86 0V84.5902H52.2216C53.5654 80.2996 54.8339 75.9275 55.3157 71.4355C57.0761 55.0518 48.9493 43.7459 44.9693 28.8859C42.8701 21.0512 44.5301 17.1993 48.687 10.7128C51.0033 7.09943 53.4763 3.57011 55.8616 0L86 0ZM76.5846 9.2719H52.9983C54.0422 19.6659 59.9382 28.6449 62.8504 38.5198C66.5493 51.0628 65.4652 61.1911 59.0335 72.5156C58.6056 73.2681 57.711 74.431 57.4187 75.1317C57.3773 75.2305 57.3459 75.3034 57.366 75.4147H76.5846V9.2719Z" fill="white"/>
<path d="M31.6429 0L31.0619 4.25472L30.959 7.31693C31.2188 18.3448 37.8048 27.6501 40.8162 37.9464C43.3557 46.6326 43.5765 55.0271 40.7396 63.6774C38.2553 71.2526 33.6015 77.8479 29.4597 84.5902H0V0.143348L0.145548 0H31.6429ZM27.7608 9.2719H9.41544V75.4147H32.5651C32.816 74.9092 32.8901 74.211 32.9854 73.6302C35.2753 59.8021 29.9653 48.7013 25.2601 36.2497C22.1609 28.048 19.9865 22.5118 24.6365 14.273C25.5286 12.6925 26.8285 11.1231 27.6428 9.58578C27.6993 9.47951 27.7946 9.41772 27.7595 9.27066L27.7608 9.2719Z" fill="white"/>
<g clip-path="url(#clip0_12_1459)">
<path d="M38.5371 121.395C39.6907 122.295 40.7549 122.668 39.4316 124.116C39.3098 124.25 38.6619 124.857 38.542 124.927C38.4747 124.966 38.4406 124.998 38.3496 124.989C38.254 124.98 36.9539 123.992 36.8184 123.865C36.7619 123.813 36.6461 123.749 36.6631 123.659L38.5371 121.395ZM36.4014 123.495H0V123.122H36.4014V123.495ZM86 123.495H40.4189V123.122H86V123.495ZM74.207 114.736C74.2889 114.734 74.3789 114.715 74.4326 114.798C74.5553 114.987 74.0092 116.751 73.8789 117.057C73.2893 118.435 71.877 119.969 70.1729 119.629C69.9336 119.581 69.6226 119.318 69.3506 119.251C68.7455 119.103 68.0265 119.555 67.5762 119.922C67.4351 120.036 66.8577 120.741 66.6846 120.575H66.6836C66.5215 120.417 67.0924 119.5 67.2061 119.313C67.7631 118.399 69.2606 116.558 70.4141 116.474C70.9462 116.435 71.1705 116.842 71.6299 116.905C72.9326 117.082 74.046 115.933 74.207 114.736ZM53.4658 111.701C53.741 111.68 53.4778 112.383 53.4258 112.534C51.8736 117.108 44.8402 118.625 40.5576 119.438C34.9923 120.496 27.0106 121.116 21.4844 119.925C19.1579 119.423 18.4006 118.835 18.6172 116.384C18.6282 116.255 18.7155 115.671 18.8389 115.67C19.6268 116.372 20.8292 116.614 21.8555 116.83C29.1404 118.368 37.8575 117.704 45.0732 116.011C47.447 115.454 51.0496 114.593 52.6572 112.716C52.8475 112.493 53.2485 111.718 53.4658 111.701ZM68.5947 106.228C68.6848 106.295 68.4328 107.516 68.4053 107.749C68.0677 110.635 67.5149 113.84 64.123 114.695C63.9055 114.75 63.4602 114.756 63.3047 114.83C63.2383 114.862 62.6091 115.601 62.4062 115.756C61.2662 116.629 59.6307 116.818 58.5234 115.792C58.2578 117.212 57.5292 118.877 56.4512 119.892C55.7488 120.552 54.6707 120.714 53.9619 119.957C53.234 119.179 53.9941 118.361 54.2197 117.532C54.8411 115.257 54.2072 112.826 54.9688 110.621C55.2699 109.751 55.7236 108.933 56.1084 108.099L56.292 108.091C56.2556 108.55 56.0731 108.987 55.9912 109.445C55.4473 112.487 56.2869 115.148 54.6211 118.049C54.5091 118.244 54.185 118.593 54.124 118.745C54.0632 118.897 54.3454 118.838 54.4033 118.83C55.6606 118.667 56.8122 117.725 57.4082 116.665C58.4154 114.874 58.055 112.026 58.3389 109.994C58.5081 108.788 59.2293 107.617 59.4795 106.416C59.727 106.403 59.6819 106.711 59.6729 106.885C59.5781 108.702 58.4938 112.092 60.3506 113.3C60.5035 113.399 61.1148 113.699 61.2188 113.482C61.3425 113.224 61.4123 112.785 61.5342 112.486C61.7698 111.905 62.1024 111.306 62.4854 110.805C63.0249 110.1 64.0943 108.912 64.8867 110.06C65.4872 110.93 65.129 112.048 64.7705 112.938C65.5355 112.782 66.5013 112.265 66.8018 111.532C67.1766 110.618 66.9339 109.576 67.2559 108.62C67.5161 107.846 68.0625 107.199 68.3154 106.421L68.5947 106.229V106.228ZM10.2832 101.713C10.6571 101.379 12.2191 101.778 12.6377 102.02C13.6758 102.618 12.3467 104.352 11.7598 104.858C10.7372 105.742 7.98838 107.436 7.72852 108.757C7.47285 110.062 9.37671 109.771 9.93262 110.804C11.066 112.91 8.88993 117.007 7.36328 118.588C4.93774 121.101 0.384036 121.216 0.0644531 117.004C-0.152989 114.133 0.788294 111.741 2.13477 109.271C2.30666 108.954 3.22405 107.277 3.47559 107.223C3.54012 107.207 3.61334 107.272 3.62891 107.323C3.72171 107.633 2.57372 109.548 2.36719 109.994C1.48009 111.914 -0.0168394 116.153 2.78809 117.207C4.81609 117.969 7.73791 116.673 8.82422 114.918C10.1654 112.751 7.29502 113.262 6.61816 111.922C6.21816 111.13 6.54093 109.807 6.81836 108.99C7.38427 107.324 8.55265 105.918 9.81641 104.706C9.65352 104.52 9.09602 104.369 9.12695 104.101C9.15177 103.888 9.40765 103.328 9.50781 103.101C9.62877 102.828 10.0984 101.878 10.2832 101.713ZM16.5439 105.857C16.6757 105.854 16.6461 106.402 16.6416 106.512C16.5688 108.284 15.4349 111.636 17.5107 112.678C18.3578 113.103 19.1675 112.99 19.9727 112.553C20.5167 112.257 21.1092 111.529 21.7061 111.505C22.0052 111.493 22.1918 111.634 22.4082 111.635C23.0094 111.637 23.9555 110.584 24.2314 110.085V110.083C24.9384 110.421 25.2873 110.009 25.5557 109.417C25.6385 109.235 25.7901 108.617 25.8828 108.556C25.9428 108.516 25.9892 108.581 26.002 108.627C26.0584 108.824 25.908 109.475 25.8525 109.707C25.6496 110.556 25.2103 111.524 24.377 111.935C24.1996 112.022 23.9968 112.046 23.8213 112.139C23.1645 112.487 22.4586 113.499 21.6436 113.501C21.1251 113.502 20.9193 113.233 20.3555 113.544C19.9451 113.771 19.681 114.308 19.3789 114.643C18.38 115.745 16.7015 116.344 15.5879 115.05C15.5151 115.046 15.2413 116.236 15.1895 116.4C14.7927 117.653 13.6881 120.57 11.9678 120.313C11.6894 120.272 11.1921 120.036 11.001 119.828C10.3059 119.072 10.9811 118.246 11.2021 117.422C11.7652 115.323 11.4691 113.122 11.7393 110.988C11.9058 109.673 12.6069 108.625 13.1982 107.471C13.5455 107.48 13.2636 107.983 13.2178 108.204C12.5936 111.286 13.2417 114.608 11.8896 117.532L11.1572 118.713C12.2508 118.704 13.2433 118.064 13.8975 117.253C15.5378 115.22 15.0195 111.498 15.4453 109.01C15.571 108.276 16.1112 106.817 16.4014 106.091C16.4368 106.003 16.4566 105.915 16.5439 105.857ZM78.2217 106.104C78.3108 106.111 78.3335 106.384 78.3408 106.452C78.4718 107.828 78.0152 109.9 77.9033 111.352C77.8105 112.552 77.5147 114.606 78.2871 115.573C78.4166 115.735 78.8913 116.254 79.085 116.108C79.1962 116.024 79.6291 115.119 79.7637 114.903C80.2141 114.182 81.1293 112.808 81.9189 112.469C83.197 111.92 84.4542 113.031 85.7432 112.936L85.7441 112.937C85.7532 113.092 85.7058 113.238 85.6621 113.384C85.4929 113.955 85.2092 113.991 84.8535 114.396C83.6644 115.751 83.0753 117.285 81.4678 118.427C80.1685 119.35 77.9741 119.732 77.0225 118.171C75.9856 116.469 76.8613 111.847 77.0732 109.798C77.1314 109.237 77.057 108.662 77.2744 108.131C77.541 107.48 78.0816 106.839 78.2217 106.104ZM67.5176 114.837C67.6531 114.715 68.2337 114.37 68.3311 114.653C68.411 114.949 68.2362 115.155 68.1416 115.413C67.2116 115.164 67.2369 116.222 66.8643 116.745C66.5404 117.199 65.8055 117.441 65.5107 116.842C65.2617 116.337 65.5321 115.912 65.6641 115.421C65.8235 115.503 65.6495 115.788 65.6641 115.942C65.6905 116.223 65.9185 116.416 66.2051 116.415C66.9974 116.411 67.0111 115.289 67.5176 114.837ZM84.0225 114.395C83.3474 114.033 82.3764 113.627 81.584 113.758H81.585C80.8771 113.875 80.2058 114.987 79.8691 115.564C79.7664 115.742 79.5466 116.082 79.4854 116.248C79.4644 116.305 79.3932 116.329 79.4951 116.384C79.7006 116.495 80.5423 116.499 80.8057 116.479C82.134 116.376 83.2891 115.411 84.0225 114.395ZM29.3135 106.583C29.2481 107.054 29.1866 107.526 29.1348 107.999C28.9073 110.072 28.908 113.655 27.2559 115.174C27.1631 115.259 27.1141 115.322 26.9678 115.296C26.9587 114.77 27.1747 114.271 27.2666 113.754C27.5868 111.942 27.5151 110.156 27.7334 108.371C27.8927 107.068 28.6736 106.332 29.2959 105.235L29.5166 105.172L29.3135 106.583ZM72.4199 104.949C71.9496 106.812 71.9727 108.771 71.7197 110.668C71.5159 112.197 71.1534 113.881 69.9043 114.923C69.8143 114.861 69.8069 114.817 69.8105 114.715C69.8271 114.302 70.0918 113.6 70.1709 113.135C70.4793 111.323 70.3321 109.307 70.6523 107.579C70.8361 106.588 71.7186 105.636 72.2627 104.799L72.4199 104.949ZM64.2266 111.572C63.9454 111.268 63.4988 111.192 63.0967 111.272H63.0957C62.4898 111.394 61.778 112.254 62.4111 112.782C63.3074 113.53 65.2482 112.678 64.2266 111.572ZM57.8545 103.001C58.9026 103.925 60.0792 104.106 58.8691 105.603C58.7638 105.733 57.8515 106.633 57.7773 106.654C57.7037 106.675 57.6357 106.674 57.5693 106.632L55.9834 105.475H55.9824L56.0068 105.298L57.8545 103.001ZM61.4229 102.889C61.8441 103.26 63.0068 103.842 62.9824 104.452C62.9542 105.142 61.8502 106.095 61.2988 106.476L61.1143 106.406L59.5479 105.148L61.4229 102.889ZM75.3311 102.505C75.7262 102.834 76.884 103.483 76.8867 104.021C76.8909 104.746 75.7566 105.701 75.1953 106.104L73.4424 104.771L75.3311 102.504V102.505ZM66.8477 102.502C67.8585 103.269 69.0724 103.654 67.957 105.015C67.815 105.188 66.8845 106.105 66.7266 106.093L65.1211 104.925L65.0244 104.769L66.8477 102.502ZM83.0469 102.383C83.1196 102.364 83.1777 102.384 83.2295 102.436C83.4933 102.793 84.3914 103.199 84.5488 103.573C84.9054 104.422 83.536 105.488 82.9619 105.973L81.1553 104.644L83.0459 102.383H83.0469Z" fill="white"/>
</g>
<defs>
<clipPath id="clip0_12_1459">
<rect width="86" height="37" fill="white" transform="translate(0 94.5903)"/>
</clipPath>
</defs>
</svg>
