<svg width="24" height="24" viewBox="0 0 24 24" fill="none" xmlns="http://www.w3.org/2000/svg">
<path fill-rule="evenodd" clip-rule="evenodd" d="M8.75649 5.80005H12.8443C13.9384 5.80003 14.8202 5.80002 15.5138 5.89327C16.2339 5.99008 16.8402 6.1972 17.3217 6.67873C17.7652 7.12226 17.976 7.67165 18.0821 8.31831C18.7289 8.42442 19.2783 8.63518 19.7219 9.07877C20.2034 9.5603 20.4106 10.1666 20.5074 10.8867C20.6006 11.5803 20.6006 12.4621 20.6006 13.5562V13.644C20.6006 14.7381 20.6006 15.6199 20.5074 16.3135C20.4106 17.0336 20.2034 17.6399 19.7219 18.1214C19.2404 18.6029 18.6341 18.8101 17.914 18.9069C17.2204 19.0001 16.3386 19.0001 15.2445 19.0001H11.1567C10.0626 19.0001 9.18077 19.0001 8.48719 18.9069C7.76711 18.8101 7.16081 18.6029 6.67927 18.1214C6.23573 17.6779 6.02497 17.1285 5.91885 16.4818C5.2721 16.3757 4.72265 16.165 4.27907 15.7214C3.79754 15.2398 3.59042 14.6335 3.49361 13.9135C3.40036 13.2199 3.40037 12.338 3.40039 11.2439V11.1561C3.40037 10.0621 3.40036 9.18022 3.49361 8.48665C3.59042 7.76656 3.79754 7.16026 4.27907 6.67873C4.7606 6.1972 5.3669 5.99008 6.08699 5.89327C6.78056 5.80002 7.66242 5.80003 8.75649 5.80005ZM7.16496 16.5854C7.24887 16.9076 7.36839 17.1135 7.5278 17.2729C7.74921 17.4943 8.06007 17.6387 8.64709 17.7176C9.25137 17.7988 10.0523 17.8001 11.2006 17.8001H15.2006C16.3489 17.8001 17.1498 17.7988 17.7541 17.7176C18.3411 17.6387 18.652 17.4943 18.8734 17.2729C19.0948 17.0515 19.2392 16.7406 19.3181 16.1536C19.3993 15.5493 19.4006 14.7484 19.4006 13.6001C19.4006 12.4518 19.3993 11.6509 19.3181 11.0466C19.2392 10.4596 19.0948 10.1487 18.8734 9.9273C18.7139 9.76786 18.5081 9.64832 18.1857 9.56441C18.2004 10.0355 18.2004 10.5648 18.2004 11.1562V11.2439C18.2004 12.338 18.2004 13.2199 18.1072 13.9135C18.0104 14.6335 17.8032 15.2398 17.3217 15.7214C16.8402 16.2029 16.2339 16.41 15.5138 16.5068C14.8202 16.6001 13.9384 16.6001 12.8443 16.6H8.7565C8.16527 16.6001 7.63602 16.6001 7.16496 16.5854ZM6.24689 7.08257C5.65987 7.16149 5.34901 7.30585 5.1276 7.52726C4.90619 7.74867 4.76183 8.05953 4.68291 8.64655C4.60167 9.25083 4.60039 10.0517 4.60039 11.2C4.60039 12.3484 4.60167 13.1493 4.68291 13.7536C4.76183 14.3406 4.90619 14.6514 5.1276 14.8728C5.34901 15.0943 5.65987 15.2386 6.24689 15.3175C6.85117 15.3988 7.65206 15.4001 8.80039 15.4001H12.8004C13.9487 15.4001 14.7496 15.3988 15.3539 15.3175C15.9409 15.2386 16.2518 15.0943 16.4732 14.8728C16.6946 14.6514 16.839 14.3406 16.9179 13.7536C16.9991 13.1493 17.0004 12.3484 17.0004 11.2C17.0004 10.0517 16.9991 9.25083 16.9179 8.64655C16.839 8.05953 16.6946 7.74867 16.4732 7.52726C16.2518 7.30585 15.9409 7.16149 15.3539 7.08257C14.7496 7.00132 13.9487 7.00005 12.8004 7.00005H8.80039C7.65206 7.00005 6.85117 7.00132 6.24689 7.08257ZM10.8004 9.80005C10.0272 9.80005 9.40039 10.4269 9.40039 11.2C9.40039 11.9732 10.0272 12.6 10.8004 12.6C11.5736 12.6 12.2004 11.9732 12.2004 11.2C12.2004 10.4269 11.5736 9.80005 10.8004 9.80005ZM8.20039 11.2C8.20039 9.76411 9.36445 8.60005 10.8004 8.60005C12.2363 8.60005 13.4004 9.76411 13.4004 11.2C13.4004 12.636 12.2363 13.8 10.8004 13.8C9.36445 13.8 8.20039 12.636 8.20039 11.2ZM6.40039 9.00005C6.73176 9.00005 7.00039 9.26868 7.00039 9.60005V12.8C7.00039 13.1314 6.73176 13.4 6.40039 13.4C6.06902 13.4 5.80039 13.1314 5.80039 12.8L5.80039 9.60005C5.80039 9.26868 6.06902 9.00005 6.40039 9.00005ZM15.2004 9.00005C15.5318 9.00005 15.8004 9.26868 15.8004 9.60005V12.8C15.8004 13.1314 15.5318 13.4 15.2004 13.4C14.869 13.4 14.6004 13.1314 14.6004 12.8V9.60005C14.6004 9.26868 14.869 9.00005 15.2004 9.00005Z" fill="#777F89"/>
</svg>
