<svg width="13" height="17" viewBox="0 0 13 17" fill="none" xmlns="http://www.w3.org/2000/svg">
<path fill-rule="evenodd" clip-rule="evenodd" d="M6.2 0C4.10132 0 2.4 1.70132 2.4 3.8C2.4 5.89868 4.10132 7.6 6.2 7.6C8.29868 7.6 10 5.89868 10 3.8C10 1.70132 8.29868 0 6.2 0ZM3.6 3.8C3.6 2.36406 4.76406 1.2 6.2 1.2C7.63594 1.2 8.8 2.36406 8.8 3.8C8.8 5.23594 7.63594 6.4 6.2 6.4C4.76406 6.4 3.6 5.23594 3.6 3.8Z" fill="white"/>
<path fill-rule="evenodd" clip-rule="evenodd" d="M6.2 8.8C4.56853 8.8 3.06201 9.1766 1.94252 9.81631C0.839997 10.4463 0 11.4081 0 12.6C0 13.7919 0.839997 14.7537 1.94252 15.3837C3.06201 16.0234 4.56853 16.4 6.2 16.4C7.83147 16.4 9.33799 16.0234 10.4575 15.3837C11.56 14.7537 12.4 13.7919 12.4 12.6C12.4 11.4081 11.56 10.4463 10.4575 9.81631C9.33799 9.1766 7.83147 8.8 6.2 8.8ZM1.2 12.6C1.2 12.0246 1.61361 11.3864 2.53789 10.8582C3.44519 10.3397 4.73867 10 6.2 10C7.66133 10 8.95481 10.3397 9.86211 10.8582C10.7864 11.3864 11.2 12.0246 11.2 12.6C11.2 13.1754 10.7864 13.8136 9.86211 14.3418C8.95481 14.8603 7.66133 15.2 6.2 15.2C4.73867 15.2 3.44519 14.8603 2.53789 14.3418C1.61361 13.8136 1.2 13.1754 1.2 12.6Z" fill="white"/>
</svg>
