<svg width="69" height="38" viewBox="0 0 69 38" fill="none" xmlns="http://www.w3.org/2000/svg">
<g clip-path="url(#clip0_1_389)">
<path d="M17.096 24.4145L16.8663 24.453C16.0748 25.4982 14.6619 26.2105 13.3597 26.2557C12.7202 26.2774 11.6172 25.9162 11.076 25.5525C10.3423 25.06 9.6962 24.0207 9.64167 23.1252C9.63175 22.9614 9.75155 22.6604 9.66397 22.55C9.58548 22.4505 9.39792 22.5082 9.27646 22.4823C8.05198 22.2239 7.44965 21.0918 6.70686 20.2331C6.64077 20.1562 6.23921 19.7348 6.18964 19.7114C6.10453 19.6712 6.00208 19.667 5.94259 19.7532C5.90789 19.8719 6.10123 19.907 6.05909 20.0759C6.05331 20.0985 5.8641 20.4563 5.84097 20.4856C5.46916 20.9697 4.49007 20.5918 4.61483 19.9463C4.51155 19.7783 3.88195 20.1353 3.75636 20.2155C3.2441 20.5416 2.88221 21.0391 2.92848 21.6729C2.93591 21.7716 3.08299 21.8828 2.89708 21.9388C2.69631 21.999 2.47817 21.8176 2.34763 21.6762C2.11794 21.4279 1.99235 21.1353 1.975 20.795C1.96508 20.5926 2.12454 20.4388 1.85272 20.3368C1.72961 20.29 1.56931 20.3017 1.44208 20.2507C1.34706 20.2122 1.08679 20.0283 0.988465 19.9572C0.82322 19.8385 -0.012931 19.1278 0.000290749 18.9647C0.312608 18.5483 1.01325 17.8359 1.52056 17.7022C1.66433 17.6645 1.88163 17.7172 1.97995 17.5809C2.0601 17.4697 1.96838 17.3451 1.975 17.2038C2.00144 16.6813 2.37821 15.9973 2.96813 16.0517C2.86899 16.5366 2.92517 16.8568 3.19783 17.2615C3.47049 17.6662 4.03481 17.9772 4.50907 18.0943C4.67928 18.0115 4.58591 17.8293 4.66688 17.6662C4.87179 17.2548 5.57492 17.1411 5.85997 17.5349C5.90955 17.6035 6.07066 17.9212 6.05992 17.9864C6.04504 18.0784 5.92442 18.1353 5.94259 18.244C6.02687 18.5366 6.54079 17.943 6.62424 17.8493C7.44056 16.9388 7.9297 15.8652 9.23681 15.5182C9.35579 15.4864 9.61027 15.5441 9.68132 15.4246C9.74164 15.3242 9.62183 14.9948 9.63671 14.8368C9.69042 14.2498 10.1093 13.3518 10.5109 12.9196C11.5065 11.8477 13.0904 11.5625 14.4603 11.9237C15.3865 12.1679 16.2838 12.7908 16.877 13.5441C17.2852 13.8042 16.9274 13.0023 16.8985 12.8844C16.3838 10.805 16.9836 8.17374 18.3775 6.54079C19.7631 4.91705 23.1391 3.26153 22.2806 0.666212C22.2385 0.538285 21.9394 0.0767469 22.0121 -0.00268458C22.6582 0.143637 23.3961 0.462198 23.8926 0.916212C24.257 1.24982 24.7387 1.97223 24.913 2.43377C24.956 2.54748 25.0328 3.01069 25.0965 3.0525C25.1964 3.11855 25.6509 3.03661 25.8326 3.04999C28.1354 3.21638 30.1638 3.67541 32.1459 4.93879C36.0111 7.402 37.8635 11.8961 40.9949 15.0893C41.2717 15.3719 41.7014 15.7925 42.0063 16.0308C42.1087 16.111 42.2244 16.2147 42.3566 16.2197C42.4326 16.2122 43.0581 15.4873 43.2043 15.361C43.5968 15.0216 44.3123 14.7013 44.8047 14.5977C44.9948 14.5584 45.7499 14.5508 45.8293 14.4212C45.8846 14.3301 45.7392 13.9304 45.7252 13.7716C45.5285 11.4806 47.1008 9.69548 49.2598 9.23979C50.6314 8.9505 52.8465 9.09347 53.6215 7.63361C53.957 7.00233 53.9247 6.23979 53.5744 5.61939C53.5802 5.29581 54.1858 5.68294 54.3461 5.67457C57.9601 7.16036 59.6473 10.5968 58.0972 14.3359C58.0287 14.5007 57.6007 15.0926 58.0658 14.9313C58.3988 14.8159 58.802 14.4647 59.2226 14.3042C61.7567 13.3359 63.9941 14.2038 65.7003 16.1754C66.0804 16.6144 67.0826 18.1988 67.6461 18.2239C67.9493 18.2373 67.6461 17.9563 67.5998 17.8485C67.233 16.9756 68.8185 16.3895 68.9813 17.412C69.0755 18.0032 68.8012 18.1252 68.45 18.5023C68.4277 18.6303 68.9069 18.8594 68.8954 18.9906C68.8788 19.1804 68.4194 19.3176 68.4533 19.494C68.4731 19.596 68.7987 19.7783 68.8788 19.8995C69.0903 20.2206 69.0176 20.907 68.6293 21.0642C68.0361 21.3033 67.3387 20.7105 67.6122 20.1186C67.6593 20.0174 67.951 19.7691 67.6428 19.7691C67.0801 19.7691 66.0118 21.4647 65.6185 21.9045C63.828 23.9037 61.3138 24.7649 58.7938 23.4998C58.5922 23.3987 58.0584 22.9396 57.87 23.0525C57.8238 23.2858 58.0402 23.5015 58.1278 23.7147C59.6274 27.3836 57.984 30.7247 54.4841 32.2507C54.3701 32.3 53.7669 32.5232 53.6984 32.5057C53.6603 32.4956 53.6223 32.4672 53.5934 32.4405C53.529 32.3368 53.6562 32.2423 53.6884 32.157C54.0082 31.3109 53.8776 30.5149 53.2456 29.8677C52.2508 28.8485 50.0241 29.0216 48.7095 28.6052C46.81 28.004 45.5417 26.2164 45.7268 24.1838C45.7475 23.9597 45.8987 23.7456 45.8119 23.5517C45.7086 23.417 45.0898 23.4421 44.8832 23.4053C44.5593 23.3468 44.0272 23.1453 43.7273 22.9865C43.2084 22.7114 42.8226 22.2582 42.4442 21.8192C42.2938 21.7089 42.1657 21.8309 42.0492 21.9254C38.641 24.6821 36.8158 29.3485 33.3927 32.1453C31.0809 34.0349 28.7179 34.7398 25.7921 34.9472C25.5484 34.9647 25.3361 34.897 25.1105 34.9262C25.0279 34.9764 24.9725 35.4145 24.9263 35.5341C24.7585 35.9647 24.2876 36.6972 23.9562 37.0191C23.4555 37.5065 22.7276 37.7966 22.0741 37.9982C21.8882 37.9839 22.2426 37.4145 22.2732 37.3226C23.1424 34.6997 19.7697 33.091 18.3783 31.4555C16.9035 29.7214 16.4697 27.3125 16.8993 25.1119L17.096 24.4129L17.096 24.4145ZM58.945 19.3978C58.8045 19.254 58.0518 19.8585 57.932 19.9823C57.6924 20.2281 57.0636 21.1612 56.9273 21.4739C56.8009 21.764 57.0107 21.9413 57.2313 22.1144C57.3859 22.2356 57.5618 22.2875 57.7031 22.3895C57.818 22.4731 57.9006 22.6069 58.0221 22.6938C58.1898 22.8134 59.0078 23.2498 59.1904 23.3092C59.6183 23.4488 59.3589 22.9739 59.3548 22.7632C59.3506 22.5525 59.4589 22.3259 59.6043 22.1762C60.1868 21.5784 61.1816 22.0709 61.8608 22.1537C63.871 22.3978 65.207 21.1445 66.6092 19.9848C66.9983 19.6629 67.6089 19.4823 67.5378 18.8744C67.4982 18.5383 66.8322 18.1963 66.5678 17.9756C65.4458 17.0391 64.3254 15.9764 62.7671 15.8435C61.9128 15.7699 61.3501 16.0542 60.5776 16.0977C60.0199 16.1286 59.354 15.9112 59.354 15.239C59.354 15.0558 59.5787 14.6712 59.2953 14.6712C59.0532 14.6712 58.3492 15.1946 58.0617 15.2665C57.8502 15.5676 57.5255 15.6495 57.2702 15.8451C57.0868 15.9856 56.8199 16.2264 56.9009 16.4697C56.9669 16.6696 57.5701 17.5634 57.7279 17.764C58.0047 18.1144 58.4897 18.56 58.9425 18.6035C58.9714 18.392 58.7442 18.2657 58.7045 18.0717C58.5434 17.2891 59.4201 16.7783 60.0141 17.3309C60.2446 17.545 60.1678 17.8268 60.2413 17.9371C60.3801 18.1445 60.8833 17.637 61.0205 17.5508C61.6468 17.1562 62.7159 16.8 63.2381 17.5383C63.438 17.8209 63.4843 18.0801 63.3496 18.4037C63.272 18.5893 63.0373 18.7548 63.0282 18.9605C63.0175 19.2172 63.2588 19.3694 63.3414 19.5659C63.4876 19.912 63.4414 20.188 63.2183 20.4864C62.7019 21.1762 61.5988 20.8309 60.9932 20.4371C60.8684 20.356 60.3876 19.846 60.2405 20.065C60.2405 20.7582 59.4308 21.1654 58.9144 20.6796C58.7516 20.5266 58.664 20.1854 58.6954 19.9655C58.7268 19.7456 58.9565 19.6135 58.9408 19.3987L58.945 19.3978ZM58.4426 18.9262C58.4104 18.8142 57.9989 18.6177 57.8709 18.4998C57.5147 18.1712 57.1818 17.6938 56.9281 17.2799C56.8372 17.1311 56.7026 16.6704 56.4935 16.6896C56.1787 16.8995 55.9408 17.2164 55.6375 17.4522C55.0955 17.8736 54.6072 18.0375 54.0404 18.3443C53.5455 18.6127 54.2924 18.8117 54.4825 19.0015C54.4825 19.0609 53.8628 19.2849 53.8628 19.4614C53.8628 19.6219 54.5998 19.8752 54.7683 19.9672C55.1195 20.1587 55.559 20.4773 55.8664 20.7373C56.0432 20.887 56.3324 21.3142 56.5679 21.2808C56.7224 21.259 56.8463 20.861 56.9298 20.7231C57.2082 20.2607 57.5147 19.7841 57.9353 19.4413C58.1204 19.29 58.5178 19.1829 58.4434 18.9262L58.4426 18.9262ZM54.3387 14.9664L55.041 14.9664C55.1608 14.9664 55.6516 15.1921 55.7763 15.2674C55.9903 15.3961 56.4357 15.8911 56.6117 15.8895C56.6505 15.8895 56.6786 15.8819 56.7133 15.8652C56.8744 15.79 57.6346 14.4296 57.742 14.1888C57.8733 13.8961 57.9601 13.5809 58.0452 13.2833C58.0849 13.1453 58.2047 13.0366 58.1617 12.8627C57.9741 12.6796 57.8436 12.9388 57.6932 13.0107C57.2223 13.2348 56.5514 12.9689 56.2919 12.5299C55.9036 11.8727 56.0391 10.759 56.1804 10.0165C56.2019 9.90367 56.2919 9.81421 56.2952 9.72223C56.3357 8.39531 55.7169 6.95217 54.5444 6.2724C54.0916 6.00986 54.3436 6.58845 54.3585 6.83595C54.3907 7.36019 54.3395 7.94213 54.2073 8.43795C54.1338 8.71471 53.7752 9.33929 53.5909 9.57006C53.3447 9.87942 53.0018 10.0985 52.7573 10.3895C53.4777 11.0224 54.0503 11.9012 54.2238 12.866C54.2676 13.111 54.3577 13.7155 54.3593 13.9446C54.3602 14.1077 54.1577 14.9112 54.337 14.9672L54.3387 14.9664ZM54.9997 23.0349C54.7915 23.0584 54.551 23.0182 54.3387 23.0349C54.1726 23.0349 54.3577 23.9304 54.3569 24.0525C54.3428 25.1905 53.9049 26.4563 53.12 27.2774C53.044 27.3569 52.7498 27.5074 52.7581 27.6127C53.2067 28.0182 53.6232 28.3911 53.9206 28.9338C54.2461 29.5274 54.3693 30.1202 54.361 30.7908C54.3577 31.0901 54.2899 31.3803 54.2751 31.6671C54.2651 31.8493 54.4312 31.7783 54.5395 31.7239C54.9352 31.5241 55.6623 30.6779 55.8804 30.2799C56.1837 29.7281 56.3142 28.9129 56.2952 28.2783C56.2927 28.1829 56.1994 28.0968 56.1795 27.9848C56.0969 27.5132 55.9664 26.4271 56.0614 25.9906C56.2142 25.2883 56.9727 24.6612 57.6916 24.9915C57.8411 25.06 57.9989 25.2992 58.1617 25.1378C58.2047 24.9647 58.084 24.8543 58.0452 24.7172C57.8188 23.9246 57.4437 23.1202 56.9537 22.4354C56.4894 21.7866 56.4671 22.2147 55.9895 22.5734C55.7334 22.7657 55.3161 22.9982 54.9988 23.0341L54.9997 23.0349ZM52.8597 11.5082C52.8118 11.453 52.5573 11.3301 52.4739 11.2925C51.8344 11.0032 50.9404 11.0048 50.3009 11.2975C49.387 11.7155 49.1954 12.7557 48.0808 12.9806C47.5478 13.0885 46.867 12.8109 46.6943 12.2498C46.6381 12.0667 46.7142 11.9237 46.4894 11.7891C46.3713 11.7866 46.1573 12.6002 46.1416 12.7323C46.1118 12.9873 46.1234 14.2431 46.2622 14.4012C46.4332 14.5968 46.6662 14.3853 46.8819 14.4831C47.2867 14.6671 47.3256 15.2197 46.9786 15.4597C46.7348 15.6286 46.4134 15.6671 46.2019 15.4229C46.0127 15.2038 46.1341 14.8727 45.783 14.8401C45.6962 14.8318 44.9658 14.9413 44.8394 14.9672C44.3222 15.0742 43.7306 15.3744 43.3282 15.7373C43.2572 15.8017 42.7482 16.346 42.7292 16.3869C42.7028 16.4455 42.6945 16.4956 42.7284 16.5533C43.6108 17.1696 44.5494 17.6687 45.5591 18.0375C45.9714 18.188 46.8868 18.5224 47.2851 18.5517C47.6833 18.5809 47.4883 18.1712 47.5107 17.9655C47.5569 17.5492 47.9899 17.2799 48.2857 17.6612C48.4633 17.8895 48.3435 17.9246 48.3749 18.0709C48.4493 18.4221 49.4019 17.907 49.5796 17.7992C49.9671 17.5634 50.3149 17.2139 50.5752 16.8418C50.8156 16.499 50.8569 16.0885 51.3419 16.6587C51.5865 16.9463 51.522 17.1378 51.641 17.4012C51.7765 17.6997 52.2169 17.5759 52.5003 17.6604C52.6168 17.6946 52.9027 17.8569 53.0233 17.9254C53.2456 18.0517 53.3059 18.2615 53.6166 18.1654C54.2957 17.9538 55.1608 17.3978 55.6995 16.9296C55.8656 16.7858 56.2903 16.4572 56.2597 16.2431C56.2357 16.0734 55.6524 15.652 55.4863 15.5592C55.0773 15.3318 54.5188 15.1169 54.1057 15.4446C54.0421 15.5324 54.2247 15.8368 53.9875 16.0751C53.4224 16.6436 52.5755 15.9798 53.0597 15.3869C53.3431 15.0408 53.5116 15.2206 53.738 15.1119C53.9107 15.0299 53.8834 14.2992 53.9751 14.0968L53.9776 13.7323C53.8991 13.565 53.8297 12.6537 53.7694 12.5926C53.586 12.407 53.3951 12.7089 53.2538 12.7406C52.8234 12.8401 52.3375 12.5826 52.483 12.0885C52.5548 11.846 53.0308 11.7072 52.8564 11.5082L52.8597 11.5082ZM52.8597 26.2657C52.8101 26.2097 52.6763 26.1696 52.6019 26.0885C52.2119 25.6612 52.7317 25.0316 53.2679 25.2473C53.4224 25.3092 53.5158 25.5558 53.7215 25.4204C53.8727 25.3209 53.8008 25.1679 53.8272 25.0257C53.9784 24.2089 54.0041 24.0692 53.8405 23.2456C53.8206 23.1461 53.9024 22.9664 53.7397 22.8878C53.5257 22.7849 53.3604 22.958 53.0845 22.6311C52.5813 22.0341 53.3612 21.3769 53.947 21.8836C54.2544 22.1503 54.0231 22.4446 54.1065 22.555C54.8204 23.0015 55.7144 22.3652 56.2134 21.8385C56.3324 21.6528 56.1994 21.5291 56.0746 21.4028C55.3715 20.6905 54.6593 20.29 53.7521 19.907C53.6124 19.8485 53.5818 19.7147 53.3786 19.805C53.2737 19.851 53.0952 20.0257 52.9671 20.1002C52.6631 20.2757 52.454 20.3543 52.1029 20.3961C51.9773 20.4112 51.9087 20.3109 51.741 20.448C51.5733 20.5851 51.6253 20.7783 51.5708 20.9446C51.5055 21.1436 51.1643 21.6018 50.947 21.6135C50.7421 21.6244 50.6809 21.3092 50.5925 21.1813C50.1596 20.5584 49.4754 19.9923 48.7335 19.8017C48.2708 19.6829 48.441 19.9413 48.3939 20.1495C48.2774 20.6595 47.5875 20.6119 47.5107 20.0341C47.4867 19.8543 47.5801 19.7264 47.5222 19.5642L47.3132 19.4396C46.9736 19.5232 46.6282 19.5968 46.2944 19.7013C45.5178 19.9455 44.6106 20.2983 43.895 20.7013C43.7463 20.7849 42.7317 21.4053 42.7143 21.4747C42.697 21.5441 42.7391 21.5993 42.7738 21.6528C42.9986 22.0015 43.6472 22.5433 44.0157 22.7364C44.3371 22.9053 45.5252 23.2013 45.8392 23.1328C46.125 23.0701 46.0052 22.9739 46.0656 22.815C46.1862 22.499 46.3374 22.3686 46.691 22.4104C47.1455 22.4647 47.3842 23.0324 47.0678 23.3702C46.7513 23.708 46.4241 23.3594 46.2581 23.596C46.1184 23.7941 46.1077 24.9513 46.1366 25.2298C46.1507 25.3627 46.3531 26.1411 46.4498 26.1687C46.7249 26.1537 46.639 25.9112 46.6935 25.7498C46.7976 25.4413 46.986 25.2582 47.2727 25.1236C47.6941 24.9262 47.9419 24.9354 48.3774 25.0935C49.1565 25.3769 49.4267 26.188 50.0604 26.5676C50.8098 27.0166 52.0665 27.0676 52.7854 26.5216C52.882 26.448 52.958 26.3778 52.8581 26.2649L52.8597 26.2657ZM47.4189 18.9798C47.2215 18.8794 47.0025 18.8861 46.7984 18.8334C45.5657 18.5182 44.2652 18.0015 43.1671 17.3242C42.8978 17.1579 42.5648 16.7155 42.2963 16.994C41.9426 17.3602 41.6741 18.0458 41.3626 18.4739C41.2222 18.667 41.0635 18.8359 40.8917 19.0007C41.0239 19.1453 41.1767 19.2699 41.2973 19.4262C41.6411 19.8711 41.9096 20.5893 42.2781 20.9839C42.3351 21.0458 42.3896 21.1052 42.4813 21.1077C42.6251 21.111 43.1638 20.6696 43.3431 20.5617C44.4618 19.8853 45.9639 19.3301 47.2239 19.096C47.2611 19.0893 47.4165 19.0349 47.4189 18.9806L47.4189 18.9798ZM33.125 27.8844C33.1936 27.9773 32.9011 28.0742 32.8466 28.0834C32.2095 28.1905 31.494 28.0893 30.9479 27.7256C30.6942 27.5558 30.5314 27.1219 30.2745 27.4455C29.8448 27.9873 29.1954 28.8861 28.5534 29.1737C28.2097 29.3276 28.2717 28.9547 28.1618 28.7055C27.4727 27.1336 26.3829 27.4438 25.0163 27.1645C23.5258 26.8594 22.1187 25.3769 21.9311 23.8485C21.913 23.6972 21.9708 23.1094 21.8907 23.0533C21.2809 22.9915 20.5827 22.6671 20.1316 22.2415C19.9886 22.1069 19.4846 21.4371 19.3805 21.4104C19.2698 21.3811 19.1492 21.5191 19.0781 21.5918C18.3031 22.3794 17.7495 23.642 17.4389 24.657C16.9869 26.1344 17.1381 27.9689 17.5893 29.4137C17.6099 29.4798 17.828 29.892 17.8603 29.8911C18.0214 29.6796 17.952 29.3819 18.0338 29.106C18.3172 28.1528 19.4309 27.2691 20.4232 27.2983C22.1674 27.3493 23.4869 29.2406 24.7189 30.2674C27.072 32.2273 30.0184 33.0132 32.8226 31.4881C34.6998 30.4672 35.4178 29.3527 36.6778 27.739C36.7852 27.6018 37.1736 27.2841 37.2099 27.1445C37.2587 26.9589 36.9249 26.9053 36.8282 26.8343C36.4531 26.5567 36.5481 25.994 36.9786 25.8276C37.4091 25.6612 37.6255 26.3334 37.8998 26.1319C37.9527 26.0926 38.2675 25.5818 38.3559 25.4647C39.1028 24.4697 39.996 23.3242 40.871 22.4497C41.2378 22.0826 41.6766 21.7875 42.0434 21.4196L42.0715 21.2808L40.8512 19.4605C40.519 19.3376 40.6297 19.6846 40.5405 19.8995C40.267 20.56 39.1103 20.2532 39.1152 19.5023C39.1161 19.315 39.3069 19.096 39.3069 19.0015C39.3069 18.9363 39.1698 18.7448 39.1433 18.6386C39.0293 18.1746 39.4639 17.7222 39.9208 17.7239C40.1183 17.7239 40.4504 17.8794 40.538 18.0634C40.6438 18.2849 40.5413 18.9321 40.9916 18.351C41.3783 17.8518 41.594 17.1587 42.0707 16.7222L42.0831 16.6679C42.0699 16.5124 41.0172 15.7047 40.8272 15.5132C39.8812 14.5575 38.9227 13.2866 38.1056 12.2055C37.999 12.0642 37.9536 11.8209 37.7371 11.7966C37.4842 12.0073 37.2876 12.3117 36.9298 12.1411C36.5308 11.9505 36.4671 11.4162 36.8208 11.162C36.9249 11.0876 37.2488 11.0625 37.2083 10.8602C36.5209 10.0592 35.9499 9.15952 35.2327 8.38193C33.6546 6.67039 31.2371 5.37942 28.8897 5.76989C27.3207 6.03076 25.9937 6.6729 24.7602 7.69464C23.3432 8.86855 21.4519 11.5709 19.3401 10.4179C18.8047 10.1252 18.1486 9.40618 18.009 8.79665C17.9941 8.73059 17.9611 7.98059 17.7983 8.11186C17.7809 8.29414 17.6388 8.42206 17.5893 8.59012C17.0026 10.5859 17.0282 12.2966 17.7347 14.2164C17.9834 14.892 18.608 15.9513 19.1178 16.4538C19.3301 16.6629 19.369 16.6278 19.554 16.4313C19.7755 16.1963 19.9465 15.9162 20.1936 15.6988C20.6786 15.2707 21.2916 15.0232 21.9237 14.9204C21.9543 14.6737 21.9022 14.3978 21.932 14.1553C22.084 12.9162 23.0837 11.6068 24.2149 11.1144C25.6426 10.4931 27.3108 11.0859 28.1064 9.40869C28.1659 9.28411 28.294 8.80835 28.3593 8.78494C28.4237 8.76487 28.4774 8.78076 28.5377 8.80334C28.627 8.83678 29.0996 9.21471 29.2012 9.3025C29.668 9.71136 30.0357 10.2172 30.4257 10.6971C30.5472 10.7206 30.7727 10.407 30.8743 10.3276C31.4172 9.90534 32.1947 9.79665 32.8548 9.91203C32.9507 9.92876 33.0548 9.98812 33.125 10.0558C32.7945 10.254 32.469 10.2791 32.1558 10.5375C30.9925 11.4965 31.1809 13.5216 30.8851 14.8953C30.8611 15.0082 30.7876 15.2699 30.7521 15.3878C30.6934 15.5859 30.4075 15.841 30.529 16.0483C30.6612 16.1328 31.1181 15.8334 31.2891 15.8058C33.3043 15.4848 35.0229 16.4053 36.3052 17.9154C36.4655 18.1043 36.9017 18.8142 37.1207 18.8493C37.3628 18.8886 37.2108 18.5567 37.2132 18.4563C37.2174 18.2122 37.7015 17.8351 37.9436 17.8125C38.3402 17.7741 38.679 18.162 38.6616 18.5408C38.6534 18.7273 38.5022 18.9781 38.5022 19.0023C38.5022 19.0249 38.5898 19.0751 38.6104 19.1369C38.722 19.4672 38.679 19.8084 38.3923 20.0257C38.0015 20.3217 37.6131 20.1537 37.3405 19.795C37.1381 19.5274 37.2537 19.4555 37.2562 19.1487C37.0579 18.9472 36.3738 20.0007 36.2639 20.1303C34.9857 21.6328 33.3638 22.4346 31.3693 22.2005C31.1453 22.1746 30.7983 21.9296 30.6603 21.9171C30.6017 21.912 30.5422 21.9505 30.5001 21.9906C30.424 22.1135 30.7 22.4739 30.7512 22.6169C30.9694 23.2273 31.0264 24.1211 31.1016 24.7707C31.2032 25.6487 31.3312 26.5441 31.9286 27.2364C32.2542 27.6135 32.6532 27.7682 33.125 27.8861L33.125 27.8844ZM31.5915 19.111C31.3073 19.0492 31.2321 19.1528 31.0586 19.3343C30.6752 19.7364 30.4166 20.2783 30.0679 20.7147C29.9713 20.8351 29.8035 20.8284 29.868 21.0408C29.906 21.1645 30.6835 21.5784 30.8438 21.6428C30.9041 21.6671 30.9892 21.6503 31.0611 21.6737C31.2932 21.7515 31.4742 21.9547 31.7601 21.713C31.632 21.3761 31.5609 21.2331 31.8047 20.9246C32.2038 20.4179 33.2167 20.5843 33.8067 20.5257C34.3586 20.4714 35.0576 20.2164 35.5343 19.9329C35.9582 19.6804 36.3713 19.3518 36.7192 18.9998C35.9301 18.1946 34.9361 17.6043 33.8067 17.4747C33.2134 17.407 31.8353 17.6094 31.656 16.8084C31.5824 16.4798 32.0269 16.142 31.4097 16.1754C31.3189 16.1804 30.8867 16.3351 30.7826 16.3786C30.6133 16.4488 30.0217 16.7632 29.9209 16.8861C29.8812 16.9346 29.8531 16.9639 29.8597 17.0333C30.0621 17.3025 30.2786 17.5634 30.4744 17.8368C30.5967 18.0074 30.6785 18.1938 30.8132 18.3719C30.9966 18.6144 31.2594 18.994 31.5915 18.8903C31.6056 18.3803 32.255 17.9614 32.6301 18.4145C32.8557 18.6871 32.7193 18.7632 32.7193 19.0007C32.7193 19.2189 32.8457 19.239 32.6797 19.5107C32.3541 20.04 31.5998 19.6754 31.5915 19.1102L31.5915 19.111ZM26.5159 19.0207C27.2455 19.2189 27.999 19.5333 28.6352 19.9488C28.8054 20.06 29.4326 20.606 29.5515 20.6068C29.7292 20.6085 30.0564 19.9689 30.1935 19.7958C30.3224 19.6336 30.4893 19.509 30.605 19.3761C30.7008 19.2665 30.7967 19.1202 30.881 18.9998C30.8884 18.8794 30.3398 18.3744 30.2348 18.2465C30.0646 18.0383 29.8556 17.5943 29.6978 17.4522C29.6474 17.4062 29.6275 17.3853 29.5524 17.3861C29.4276 17.3878 28.8468 17.897 28.6774 18.0099C28.1205 18.3794 27.4479 18.6997 26.8051 18.8744L26.5168 19.0207L26.5159 19.0207ZM28.3436 16.1687C28.6104 16.2197 28.8476 16.2599 29.0905 16.3953C29.2574 16.489 29.3499 16.6746 29.5507 16.6395C29.6606 16.6202 29.8457 16.3167 29.9109 16.2072C30.2076 15.7055 30.4315 15.0843 30.5265 14.5308C30.5488 14.4012 30.7041 14.0826 30.4959 14.0115C30.3009 13.9446 30.1439 14.0985 29.8151 13.9062C28.993 13.4254 29.3912 12.4095 29.4483 11.6846C29.5119 10.8803 29.3483 10.3309 28.9319 9.65785C28.4981 9.35016 28.6931 10.0207 28.6617 10.2607C28.6038 10.703 28.327 11.305 28.061 11.6595L27.6264 12.1436C27.6008 12.3903 27.9313 12.6294 28.061 12.8376C28.4749 13.5032 28.6162 14.7557 28.4485 15.5216C28.4088 15.7022 28.161 15.9062 28.3436 16.1679L28.3436 16.1687ZM30.5984 23.6938C30.5323 23.1436 30.2034 22.2875 29.9109 21.7941C29.8316 21.6604 29.63 21.2858 29.4483 21.3368C29.378 21.3568 29.1971 21.5383 29.0864 21.601C29.0161 21.6403 28.784 21.754 28.717 21.7707C28.4386 21.8393 28.2147 21.6938 28.3023 22.1679C28.327 22.2992 28.4278 22.3819 28.4493 22.4789C28.6022 23.1779 28.4816 24.3326 28.1643 24.9747C28.0552 25.1946 27.6049 25.6361 27.6297 25.8125C27.638 25.8719 28.1155 26.3987 28.2023 26.5333C28.3816 26.8125 28.6113 27.3786 28.6551 27.7055C28.6889 27.9614 28.5055 28.6545 28.9327 28.3426C29.2549 27.7783 29.4714 27.3242 29.4681 26.6503C29.4656 26.1378 29.2904 25.6303 29.2822 25.1461C29.2739 24.662 29.6399 23.9773 30.1762 23.9563C30.3703 23.9488 30.6513 24.1244 30.5992 23.693L30.5984 23.6938ZM25.5699 18.7247C25.7203 18.7707 25.8269 18.7774 25.9805 18.7515C26.1342 18.7256 26.2102 18.6361 26.2978 18.6127C26.6878 18.5099 26.9489 18.4563 27.3372 18.2849C28.0081 17.9881 28.6741 17.591 29.1979 17.0717C29.2194 16.9463 28.7278 16.6629 28.6154 16.6244C28.5501 16.6018 28.1626 16.5115 28.104 16.5099C27.9685 16.5057 27.8957 16.5885 27.7751 16.5985C27.2438 16.6428 27.8206 16.0977 27.8693 15.8978C28.3304 14.0157 26.487 12.5065 24.9667 13.713C24.6734 13.9455 24.1372 14.6018 23.7662 14.6721C23.4704 14.7272 23.0746 14.6863 22.8375 14.4864C22.6566 14.3343 22.6475 14.0659 22.3897 14.1361C22.3302 14.1737 22.3228 14.6754 22.3633 14.7582C22.4285 14.8928 22.8689 14.897 23.0152 15.0074C23.2118 15.1553 23.2019 15.5408 23.0672 15.7206C22.7987 16.0793 22.4054 16.2247 22.0956 15.8242C21.941 15.6244 21.9584 15.3418 21.6238 15.3861C21.033 15.4639 20.2687 16.1177 19.9068 16.5776C19.8292 16.6754 19.6482 16.9003 19.7193 17.0157C19.9374 17.1353 20.1068 17.3251 20.3051 17.4681C20.4811 17.5943 21.3833 18.147 21.5378 18.142C21.6345 18.1386 21.9171 17.9279 22.0427 17.9028C22.1575 17.8794 22.2749 17.9162 22.3864 17.8744C22.5054 17.4363 22.6838 16.9279 23.1705 16.8234L23.2878 16.9179C23.2052 17.3368 23.4035 17.8318 23.7282 18.101C23.8497 18.2013 24.6825 18.6562 24.7412 18.4087C24.6222 18.0257 24.9073 17.6144 25.3204 17.7448C25.7996 17.8953 25.5121 18.6553 25.5707 18.7256L25.5699 18.7247ZM22.388 23.8669C22.5401 23.9714 22.864 23.402 23.1176 23.3376C24.2157 23.0567 24.6106 24.2406 25.4716 24.5726C25.9863 24.7707 26.3457 24.7398 26.8464 24.5191C27.7892 24.1035 28.1329 23.0801 27.8693 22.1043C27.8263 21.9438 27.481 21.5625 27.5661 21.443C27.7404 21.3134 27.9404 21.489 28.1015 21.4848C28.1585 21.4831 28.5179 21.4053 28.5815 21.3836C28.7162 21.3393 29.2475 21.0492 29.1979 20.8869C29.1657 20.7791 28.1015 20.0868 27.9296 19.994C27.3579 19.6854 26.9026 19.5609 26.3069 19.3786C26.2086 19.3485 26.1483 19.2557 25.9954 19.2339C25.8558 19.2139 25.7004 19.2222 25.5699 19.2766C25.5972 19.5968 25.7128 20.0826 25.3369 20.2323C25.1502 20.3067 25.056 20.2891 24.9031 20.1712C24.5586 19.9062 24.8197 19.7114 24.7329 19.5701C24.6164 19.5157 24.4908 19.5023 24.3652 19.5416C24.271 19.5709 23.867 19.7966 23.7753 19.8644C23.5159 20.0558 23.2779 20.4722 23.2606 20.7975C23.2548 20.9104 23.3861 21.1177 23.1895 21.1537C22.797 21.2264 22.4368 20.4497 22.3864 20.1261C22.2765 20.0901 22.1674 20.1169 22.0518 20.0885C21.8931 20.05 21.6849 19.8803 21.5692 19.8627C21.2412 19.8134 20.0134 20.7448 19.7185 20.9848C19.6433 21.1043 19.9077 21.4062 19.9895 21.5057C20.353 21.943 21.0272 22.494 21.5891 22.6052C22.0609 22.6988 21.9435 22.0015 22.4459 21.9438C22.7045 21.9145 23.0069 22.1261 23.1325 22.341C23.1556 22.3803 23.1746 22.6654 23.1697 22.7147C23.1267 23.142 22.4459 23.0734 22.3641 23.2406C22.3244 23.3226 22.3319 23.8251 22.3889 23.8644L22.388 23.8669ZM19.2161 20.514C19.2393 20.54 19.4103 20.642 19.44 20.647C19.5491 20.6645 19.9465 20.2632 20.0738 20.1737C20.2448 20.0542 20.4794 19.9162 20.6629 19.8084C20.7901 19.7339 21.1305 19.6553 21.1305 19.5015C21.1305 19.3769 20.7248 19.1353 20.6496 18.9998C20.7397 18.8259 21.2569 18.5851 21.0818 18.3961C20.7992 18.2573 20.5183 18.1102 20.2555 17.9346C19.9928 17.759 19.7598 17.55 19.5103 17.3468C19.2178 17.341 19.1384 17.6654 18.9765 17.851C18.5543 18.3351 18.0519 18.7172 17.4686 18.9798L18.1841 19.4045C18.4841 19.652 18.7799 19.9196 19.0376 20.213C19.1161 20.3025 19.1599 20.4505 19.2169 20.5132L19.2161 20.514ZM15.7228 18.5517C15.7641 18.5157 15.8368 18.203 15.9426 18.0843C16.1987 17.7966 16.7473 17.8209 16.9258 18.1696C17.0191 18.3518 16.8853 18.6311 17.1613 18.6445C17.3926 18.6553 18.2255 18.0584 18.4188 17.8719C18.508 17.7858 19.0798 17.0918 19.0798 17.0358C19.031 16.8167 18.803 16.7306 18.6848 16.5977C17.9702 15.7925 17.443 14.815 16.7647 13.9839C16.568 13.7431 16.297 13.56 16.1285 13.29C15.7418 13.1378 15.9839 13.5291 15.9822 13.7298C15.9773 14.3058 15.6079 14.8293 15.0717 15.0274C14.3611 15.2891 13.6018 14.5358 13.035 14.2047C12.4261 13.8485 11.9642 13.7247 11.2487 13.7925C10.6695 13.8477 10.1903 14.688 10.1548 15.2356C10.1399 15.4614 10.1655 15.6311 10.2217 15.8451C10.1498 15.948 9.564 15.8577 9.36983 15.9045C8.14865 16.2022 7.43313 17.6729 6.56227 18.4982C6.39455 18.657 6.08636 18.7515 6.10371 19.0416C6.1161 19.2423 6.53501 19.4371 6.68786 19.5826C7.58846 20.4413 8.28498 22.1403 9.7656 22.1152C9.92672 22.1127 10.0672 22.0224 10.2382 22.1152C9.97133 22.7473 10.3506 23.8284 10.981 24.101C11.252 24.2181 11.937 24.2197 12.2336 24.152C13.3878 23.8895 14.547 22.0333 15.6914 23.4313C15.8955 23.6804 15.9855 23.9388 15.9847 24.2665C15.9847 24.397 15.7666 25.0182 16.1681 24.6645C17.0497 23.8869 17.8363 22.3861 18.646 21.4446C18.803 21.2624 19.1913 21.091 19.0153 20.8201C18.6989 20.3318 17.8991 19.6068 17.3563 19.4053C16.8134 19.2038 17.0687 19.6654 16.8903 19.8778C16.5837 20.2423 16.0748 20.1729 15.8484 19.7607C15.7558 19.5926 15.8046 19.3928 15.5468 19.3945C15.5088 19.3945 15.1254 19.5458 15.0618 19.5742C14.6668 19.7532 14.1257 20.147 13.8803 20.5107C13.7208 20.7482 13.7241 21.2565 13.3779 20.9221C13.216 20.7665 13.0185 20.3117 13.0474 20.0893C13.0606 19.9839 13.2234 19.8794 13.168 19.7348C12.7128 19.5525 12.2129 19.4037 11.8882 18.9998C11.8882 18.902 12.2385 18.6654 12.3327 18.6102C12.4881 18.5182 13.0863 18.3109 13.1342 18.2507C13.2573 18.096 13.059 18.0065 13.0491 17.8686C13.0325 17.6311 13.2953 16.9873 13.5679 16.9706C13.7481 16.9597 13.7365 17.2181 13.8026 17.3568C13.9976 17.764 14.6875 18.254 15.0981 18.4288C15.2394 18.489 15.6021 18.6562 15.7236 18.5492L15.7228 18.5517Z" fill="#03683C"/>
</g>
<defs>
<clipPath id="clip0_1_389">
<rect width="38" height="69" fill="white" transform="translate(69 3.01609e-06) rotate(90)"/>
</clipPath>
</defs>
</svg>
