<svg width="69" height="38" viewBox="0 0 69 38" fill="none" xmlns="http://www.w3.org/2000/svg">
<g clip-path="url(#clip0_1_268)">
<path d="M17.0955 24.4148L16.8658 24.4532C16.0743 25.4984 14.6614 26.2108 13.3592 26.2559C12.7197 26.2777 11.6167 25.9165 11.0755 25.5527C10.3418 25.0603 9.69571 24.021 9.64118 23.1255C9.63126 22.9616 9.75106 22.6606 9.66348 22.5502C9.58499 22.4507 9.39743 22.5084 9.27597 22.4825C8.05149 22.2242 7.44917 21.092 6.70638 20.2333C6.64028 20.1564 6.23872 19.735 6.18915 19.7116C6.10405 19.6715 6.0016 19.6673 5.94211 19.7534C5.9074 19.8721 6.10074 19.9073 6.0586 20.0762C6.05282 20.0987 5.86361 20.4566 5.84048 20.4859C5.46867 20.97 4.48958 20.592 4.61434 19.9466C4.51106 19.7785 3.88146 20.1355 3.75588 20.2158C3.24361 20.5419 2.88172 21.0394 2.92799 21.6731C2.93543 21.7718 3.0825 21.883 2.89659 21.939C2.69582 21.9992 2.47768 21.8178 2.34714 21.6765C2.11745 21.4282 1.99186 21.1355 1.97451 20.7952C1.96459 20.5929 2.12405 20.439 1.85223 20.337C1.72912 20.2902 1.56883 20.3019 1.44159 20.2509C1.34657 20.2124 1.0863 20.0285 0.987977 19.9574C0.822732 19.8387 -0.0134193 19.128 -0.000197532 18.965C0.312119 18.5486 1.01276 17.8362 1.52007 17.7024C1.66384 17.6648 1.88114 17.7175 1.97946 17.5812C2.05961 17.47 1.9679 17.3454 1.97451 17.2041C2.00095 16.6815 2.37772 15.9976 2.96764 16.0519C2.8685 16.5369 2.92468 16.8571 3.19734 17.2618C3.47 17.6665 4.03433 17.9775 4.50858 18.0946C4.67879 18.0118 4.58542 17.8295 4.66639 17.6665C4.8713 17.2551 5.57443 17.1414 5.85948 17.5352C5.90906 17.6037 6.07017 17.9215 6.05943 17.9867C6.04456 18.0787 5.92393 18.1355 5.94211 18.2442C6.02638 18.5369 6.5403 17.9432 6.62375 17.8496C7.44008 16.939 7.92921 15.8655 9.23632 15.5185C9.3553 15.4867 9.60978 15.5444 9.68084 15.4248C9.74115 15.3245 9.62135 14.9951 9.63622 14.837C9.68993 14.2501 10.1088 13.3521 10.5104 12.9198C11.506 11.8479 13.0899 11.5628 14.4598 11.924C15.386 12.1681 16.2833 12.791 16.8765 13.5444C17.2847 13.8044 16.9269 13.0026 16.898 12.8847C16.3833 10.8053 16.9831 8.17398 18.377 6.54104C19.7626 4.91729 23.1386 3.26177 22.2801 0.666456C22.238 0.53853 21.9389 0.076991 22.0116 -0.00244044C22.6577 0.143881 23.3956 0.462443 23.8921 0.916456C24.2565 1.25007 24.7382 1.97248 24.9125 2.43401C24.9555 2.54773 25.0323 3.01094 25.096 3.05274C25.1959 3.1188 25.6504 3.03686 25.8321 3.05024C28.1349 3.21662 30.1633 3.67565 32.1454 4.93903C36.0106 7.40224 37.863 11.8964 40.9944 15.0895C41.2712 15.3721 41.7009 15.7927 42.0058 16.031C42.1082 16.1113 42.2239 16.215 42.3561 16.22C42.4321 16.2124 43.0576 15.4875 43.2038 15.3613C43.5963 15.0218 44.3118 14.7016 44.8042 14.5979C44.9943 14.5586 45.7494 14.5511 45.8288 14.4215C45.8841 14.3303 45.7387 13.9307 45.7247 13.7718C45.528 11.4808 47.1003 9.69572 49.2593 9.24004C50.6309 8.95074 52.846 9.09372 53.621 7.63385C53.9565 7.00258 53.9243 6.24004 53.5739 5.61963C53.5797 5.29606 54.1853 5.68318 54.3456 5.67482C57.9596 7.16061 59.6468 10.5971 58.0968 14.3362C58.0282 14.5009 57.6002 15.0929 58.0654 14.9315C58.3983 14.8161 58.8015 14.465 59.2221 14.3044C61.7562 13.3362 63.9936 14.2041 65.6998 16.1757C66.0799 16.6146 67.0821 18.1991 67.6456 18.2242C67.9488 18.2375 67.6456 17.9566 67.5993 17.8487C67.2325 16.9758 68.818 16.3897 68.9808 17.4123C69.075 18.0034 68.8007 18.1255 68.4495 18.5026C68.4272 18.6305 68.9064 18.8596 68.8949 18.9909C68.8783 19.1807 68.419 19.3178 68.4528 19.4942C68.4727 19.5962 68.7982 19.7785 68.8783 19.8997C69.0899 20.2208 69.0171 20.9073 68.6288 21.0645C68.0356 21.3036 67.3382 20.7108 67.6117 20.1188C67.6588 20.0176 67.9505 19.7693 67.6423 19.7693C67.0796 19.7693 66.0113 21.465 65.618 21.9048C63.8275 23.9039 61.3133 24.7651 58.7933 23.5001C58.5917 23.3989 58.0579 22.9399 57.8695 23.0527C57.8233 23.286 58.0397 23.5017 58.1273 23.715C59.6269 27.3839 57.9836 30.725 54.4836 32.2509C54.3696 32.3002 53.7664 32.5235 53.6979 32.5059C53.6599 32.4959 53.6218 32.4675 53.5929 32.4407C53.5285 32.337 53.6557 32.2425 53.6879 32.1573C54.0077 31.3111 53.8772 30.5151 53.2451 29.868C52.2503 28.8487 50.0236 29.0218 48.709 28.6054C46.8095 28.0043 45.5412 26.2166 45.7263 24.184C45.747 23.9599 45.8982 23.7459 45.8114 23.5519C45.7081 23.4173 45.0893 23.4424 44.8827 23.4056C44.5588 23.3471 44.0267 23.1456 43.7268 22.9867C43.2079 22.7116 42.8221 22.2584 42.4437 21.8195C42.2933 21.7091 42.1652 21.8312 42.0487 21.9257C38.6405 24.6823 36.8153 29.3487 33.3922 32.1456C31.0804 34.0352 28.7174 34.74 25.7917 34.9474C25.5479 34.965 25.3356 34.8972 25.11 34.9265C25.0274 34.9767 24.972 35.4148 24.9258 35.5344C24.758 35.965 24.2871 36.6974 23.9558 37.0193C23.4551 37.5068 22.7271 37.7969 22.0736 37.9984C21.8877 37.9842 22.2421 37.4148 22.2727 37.3228C23.1419 34.6999 19.7692 33.0912 18.3778 31.4558C16.903 29.7216 16.4692 27.3128 16.8989 25.1121L17.0955 24.4131L17.0955 24.4148ZM58.9445 19.3981C58.804 19.2543 58.0513 19.8588 57.9315 19.9825C57.6919 20.2283 57.0631 21.1614 56.9268 21.4742C56.8004 21.7643 57.0103 21.9415 57.2309 22.1146C57.3854 22.2359 57.5614 22.2877 57.7026 22.3897C57.8175 22.4733 57.9001 22.6071 58.0216 22.6941C58.1893 22.8136 59.0073 23.2501 59.1899 23.3094C59.6179 23.4491 59.3584 22.9742 59.3543 22.7634C59.3502 22.5527 59.4584 22.3262 59.6038 22.1765C60.1863 21.5787 61.1811 22.0711 61.8603 22.1539C63.8705 22.3981 65.2065 21.1447 66.6087 19.985C66.9978 19.6631 67.6084 19.4825 67.5374 18.8747C67.4977 18.5385 66.8317 18.1966 66.5674 17.9758C65.4453 17.0394 64.3249 15.9767 62.7667 15.8437C61.9123 15.7701 61.3497 16.0544 60.5771 16.0979C60.0194 16.1288 59.3535 15.9114 59.3535 15.2392C59.3535 15.0561 59.5782 14.6715 59.2948 14.6715C59.0527 14.6715 58.3488 15.1949 58.0612 15.2668C57.8497 15.5678 57.525 15.6497 57.2697 15.8454C57.0863 15.9859 56.8194 16.2267 56.9004 16.47C56.9665 16.6698 57.5696 17.5636 57.7274 17.7643C58.0042 18.1146 58.4892 18.5603 58.942 18.6037C58.9709 18.3922 58.7437 18.266 58.704 18.072C58.5429 17.2894 59.4196 16.7785 60.0136 17.3312C60.2441 17.5452 60.1673 17.827 60.2408 17.9374C60.3797 18.1447 60.8828 17.6372 61.02 17.5511C61.6463 17.1564 62.7154 16.8002 63.2376 17.5385C63.4376 17.8211 63.4838 18.0803 63.3492 18.4039C63.2715 18.5895 63.0368 18.7551 63.0277 18.9608C63.017 19.2175 63.2583 19.3696 63.3409 19.5661C63.4871 19.9123 63.4409 20.1882 63.2178 20.4867C62.7014 21.1765 61.5984 20.8312 60.9927 20.4374C60.868 20.3563 60.3871 19.8462 60.24 20.0653C60.24 20.7584 59.4303 21.1656 58.9139 20.6798C58.7511 20.5268 58.6636 20.1857 58.695 19.9658C58.7263 19.7459 58.956 19.6138 58.9403 19.3989L58.9445 19.3981ZM58.4421 18.9265C58.4099 18.8145 57.9984 18.618 57.8704 18.5001C57.5143 18.1715 57.1813 17.6941 56.9276 17.2802C56.8367 17.1313 56.7021 16.6706 56.493 16.6899C56.1782 16.8997 55.9403 17.2166 55.637 17.4524C55.095 17.8738 54.6067 18.0377 54.0399 18.3446C53.545 18.6129 54.2919 18.8119 54.482 19.0017C54.482 19.0611 53.8623 19.2852 53.8623 19.4616C53.8623 19.6221 54.5993 19.8755 54.7678 19.9675C55.119 20.1589 55.5586 20.4775 55.8659 20.7375C56.0427 20.8872 56.3319 21.3145 56.5674 21.281C56.7219 21.2593 56.8458 20.8613 56.9293 20.7233C57.2077 20.2609 57.5143 19.7844 57.9348 19.4415C58.1199 19.2902 58.5173 19.1832 58.443 18.9265L58.4421 18.9265ZM54.3382 14.9666L55.0405 14.9666C55.1603 14.9666 55.6511 15.1924 55.7759 15.2676C55.9898 15.3964 56.4352 15.8914 56.6112 15.8897C56.65 15.8897 56.6781 15.8822 56.7128 15.8655C56.8739 15.7902 57.6341 14.4298 57.7415 14.189C57.8728 13.8964 57.9596 13.5812 58.0447 13.2835C58.0844 13.1456 58.2042 13.0369 58.1612 12.8629C57.9736 12.6798 57.8431 12.939 57.6927 13.0109C57.2218 13.235 56.5509 12.9691 56.2914 12.5302C55.9031 11.873 56.0386 10.7593 56.1799 10.0168C56.2014 9.90392 56.2914 9.81445 56.2947 9.72248C56.3352 8.39556 55.7164 6.95241 54.5439 6.27264C54.0912 6.0101 54.3432 6.5887 54.358 6.83619C54.3902 7.36044 54.339 7.94238 54.2068 8.4382C54.1333 8.71495 53.7747 9.33954 53.5905 9.5703C53.3442 9.87967 53.0013 10.0987 52.7568 10.3897C53.4773 11.0226 54.0498 11.9014 54.2234 12.8663C54.2671 13.1113 54.3572 13.7158 54.3589 13.9449C54.3597 14.1079 54.1573 14.9114 54.3365 14.9675L54.3382 14.9666ZM54.9992 23.0352C54.791 23.0586 54.5505 23.0185 54.3382 23.0352C54.1721 23.0352 54.3572 23.9307 54.3564 24.0527C54.3423 25.1907 53.9044 26.4566 53.1195 27.2777C53.0435 27.3571 52.7493 27.5076 52.7576 27.6129C53.2062 28.0185 53.6227 28.3914 53.9201 28.934C54.2457 29.5277 54.3688 30.1205 54.3605 30.791C54.3572 31.0904 54.2894 31.3805 54.2746 31.6673C54.2647 31.8496 54.4307 31.7785 54.539 31.7242C54.9347 31.5243 55.6618 30.6782 55.88 30.2802C56.1832 29.7283 56.3137 28.9131 56.2947 28.2785C56.2923 28.1832 56.1989 28.0971 56.1791 27.985C56.0964 27.5135 55.9659 26.4273 56.0609 25.9909C56.2138 25.2885 56.9722 24.6614 57.6911 24.9917C57.8406 25.0603 57.9984 25.2994 58.1612 25.138C58.2042 24.965 58.0835 24.8546 58.0447 24.7175C57.8183 23.9248 57.4432 23.1205 56.9532 22.4357C56.4889 21.7869 56.4666 22.215 55.989 22.5737C55.7329 22.766 55.3156 22.9984 54.9984 23.0344L54.9992 23.0352ZM52.8592 11.5084C52.8113 11.4532 52.5568 11.3303 52.4734 11.2927C51.8339 11.0034 50.9399 11.0051 50.3004 11.2977C49.3866 11.7158 49.1949 12.7559 48.0803 12.9808C47.5473 13.0887 46.8665 12.8111 46.6938 12.2501C46.6377 12.067 46.7137 11.924 46.4889 11.7894C46.3708 11.7869 46.1568 12.6004 46.1411 12.7325C46.1113 12.9875 46.1229 14.2434 46.2617 14.4014C46.4327 14.5971 46.6657 14.3855 46.8814 14.4833C47.2863 14.6673 47.3251 15.22 46.9781 15.4599C46.7343 15.6288 46.4129 15.6673 46.2014 15.4231C46.0122 15.2041 46.1337 14.873 45.7825 14.8404C45.6957 14.832 44.9653 14.9415 44.8389 14.9675C44.3217 15.0745 43.7301 15.3747 43.3277 15.7375C43.2567 15.8019 42.7477 16.3462 42.7287 16.3872C42.7023 16.4457 42.694 16.4959 42.7279 16.5536C43.6103 17.1698 44.5489 17.669 45.5586 18.0377C45.9709 18.1882 46.8864 18.5226 47.2846 18.5519C47.6828 18.5812 47.4879 18.1715 47.5102 17.9658C47.5564 17.5494 47.9894 17.2802 48.2852 17.6614C48.4628 17.8897 48.343 17.9248 48.3744 18.0711C48.4488 18.4223 49.4014 17.9073 49.5791 17.7994C49.9666 17.5636 50.3144 17.2141 50.5747 16.842C50.8151 16.4992 50.8564 16.0887 51.3414 16.6589C51.586 16.9466 51.5216 17.138 51.6405 17.4014C51.776 17.6999 52.2164 17.5762 52.4998 17.6606C52.6163 17.6949 52.9022 17.8571 53.0228 17.9257C53.2451 18.0519 53.3054 18.2618 53.6161 18.1656C54.2952 17.9541 55.1603 17.3981 55.699 16.9298C55.8651 16.786 56.2898 16.4574 56.2592 16.2434C56.2352 16.0736 55.6519 15.6522 55.4858 15.5594C55.0769 15.332 54.5183 15.1171 54.1052 15.4449C54.0416 15.5327 54.2242 15.837 53.987 16.0753C53.4219 16.6439 52.575 15.98 53.0592 15.3872C53.3426 15.041 53.5111 15.2208 53.7375 15.1121C53.9102 15.0302 53.8829 14.2994 53.9747 14.0971L53.9771 13.7325C53.8986 13.5653 53.8292 12.6539 53.7689 12.5929C53.5855 12.4073 53.3946 12.7091 53.2533 12.7409C52.8229 12.8404 52.337 12.5828 52.4825 12.0887C52.5543 11.8462 53.0303 11.7074 52.8559 11.5084L52.8592 11.5084ZM52.8592 26.266C52.8097 26.2099 52.6758 26.1698 52.6014 26.0887C52.2115 25.6614 52.7312 25.0318 53.2674 25.2476C53.4219 25.3094 53.5153 25.5561 53.721 25.4206C53.8722 25.3211 53.8003 25.1681 53.8268 25.026C53.978 24.2091 54.0036 24.0695 53.84 23.2459C53.8201 23.1464 53.9019 22.9666 53.7392 22.888C53.5252 22.7852 53.3599 22.9583 53.084 22.6313C52.5808 22.0344 53.3608 21.3772 53.9466 21.8839C54.2539 22.1506 54.0226 22.4449 54.106 22.5553C54.8199 23.0017 55.7139 22.3655 56.2129 21.8387C56.3319 21.6531 56.1989 21.5293 56.0741 21.4031C55.371 20.6907 54.6588 20.2902 53.7516 19.9073C53.6119 19.8487 53.5814 19.715 53.3781 19.8053C53.2732 19.8512 53.0947 20.026 52.9666 20.1004C52.6626 20.276 52.4535 20.3546 52.1024 20.3964C51.9768 20.4114 51.9082 20.3111 51.7405 20.4482C51.5728 20.5854 51.6248 20.7785 51.5703 20.9449C51.505 21.1439 51.1638 21.6021 50.9465 21.6138C50.7416 21.6247 50.6804 21.3094 50.592 21.1815C50.1591 20.5586 49.475 19.9925 48.733 19.8019C48.2703 19.6832 48.4405 19.9415 48.3934 20.1497C48.2769 20.6598 47.587 20.6121 47.5102 20.0344C47.4862 19.8546 47.5796 19.7267 47.5217 19.5645L47.3127 19.4399C46.9731 19.5235 46.6277 19.5971 46.2939 19.7016C45.5173 19.9457 44.6101 20.2986 43.8945 20.7016C43.7458 20.7852 42.7312 21.4056 42.7138 21.475C42.6965 21.5444 42.7386 21.5996 42.7733 21.6531C42.9981 22.0017 43.6467 22.5435 44.0152 22.7367C44.3366 22.9056 45.5247 23.2016 45.8387 23.133C46.1246 23.0703 46.0048 22.9741 46.0651 22.8153C46.1857 22.4992 46.3369 22.3688 46.6905 22.4106C47.145 22.465 47.3837 23.0327 47.0673 23.3705C46.7508 23.7083 46.4237 23.3596 46.2576 23.5962C46.118 23.7944 46.1072 24.9516 46.1361 25.23C46.1502 25.3629 46.3526 26.1414 46.4493 26.169C46.7244 26.1539 46.6385 25.9114 46.693 25.7501C46.7971 25.4415 46.9855 25.2584 47.2722 25.1238C47.6936 24.9265 47.9415 24.9357 48.3769 25.0937C49.156 25.3772 49.4262 26.1882 50.0599 26.5678C50.8093 27.0168 52.066 27.0678 52.7849 26.5218C52.8815 26.4482 52.9576 26.378 52.8576 26.2651L52.8592 26.266ZM47.4185 18.98C47.221 18.8797 47.002 18.8864 46.7979 18.8337C45.5652 18.5185 44.2647 18.0017 43.1666 17.3245C42.8973 17.1581 42.5643 16.7158 42.2958 16.9942C41.9421 17.3604 41.6736 18.0461 41.3621 18.4741C41.2217 18.6673 41.063 18.8362 40.8912 19.0009C41.0234 19.1456 41.1762 19.2701 41.2968 19.4265C41.6406 19.8713 41.9091 20.5895 42.2776 20.9842C42.3346 21.0461 42.3891 21.1054 42.4809 21.1079C42.6246 21.1113 43.1633 20.6698 43.3426 20.5619C44.4613 19.8855 45.9634 19.3303 47.2235 19.0962C47.2606 19.0895 47.416 19.0352 47.4185 18.9808L47.4185 18.98ZM33.1245 27.8847C33.1931 27.9775 32.9006 28.0745 32.8461 28.0837C32.2091 28.1907 31.4935 28.0895 30.9474 27.7258C30.6937 27.5561 30.531 27.1221 30.274 27.4457C29.8444 27.9875 29.1949 28.8864 28.5529 29.174C28.2092 29.3278 28.2712 28.9549 28.1613 28.7058C27.4722 27.1338 26.3824 27.4441 25.0158 27.1648C23.5253 26.8596 22.1182 25.3772 21.9306 23.8487C21.9125 23.6974 21.9703 23.1096 21.8902 23.0536C21.2804 22.9917 20.5822 22.6673 20.1311 22.2417C19.9882 22.1071 19.4842 21.4374 19.3801 21.4106C19.2693 21.3813 19.1487 21.5193 19.0776 21.592C18.3026 22.3797 17.7491 23.6422 17.4384 24.6573C16.9864 26.1347 17.1376 27.9691 17.5888 29.414C17.6094 29.48 17.8275 29.8922 17.8598 29.8914C18.0209 29.6798 17.9515 29.3822 18.0333 29.1063C18.3167 28.1531 19.4305 27.2693 20.4228 27.2986C22.167 27.3496 23.4865 29.2409 24.7184 30.2676C27.0715 32.2275 30.0179 33.0134 32.8221 31.4884C34.6993 30.4675 35.4173 29.3529 36.6773 27.7392C36.7848 27.6021 37.1731 27.2844 37.2094 27.1447C37.2582 26.9591 36.9244 26.9056 36.8277 26.8345C36.4526 26.5569 36.5476 25.9942 36.9781 25.8278C37.4086 25.6614 37.625 26.3337 37.8994 26.1322C37.9522 26.0929 38.267 25.582 38.3554 25.465C39.1024 24.47 39.9955 23.3245 40.8705 22.4499C41.2374 22.0828 41.6761 21.7877 42.0429 21.4198L42.071 21.281L40.8507 19.4608C40.5185 19.3379 40.6292 19.6849 40.54 19.8997C40.2665 20.5603 39.1098 20.2534 39.1148 19.5026C39.1156 19.3153 39.3064 19.0962 39.3064 19.0017C39.3064 18.9365 39.1693 18.7451 39.1428 18.6389C39.0288 18.1748 39.4634 17.7225 39.9203 17.7241C40.1178 17.7241 40.45 17.8797 40.5375 18.0636C40.6433 18.2852 40.5408 18.9323 40.9911 18.3512C41.3778 17.8521 41.5935 17.1589 42.0702 16.7225L42.0826 16.6681C42.0694 16.5126 41.0168 15.7049 40.8267 15.5134C39.8807 14.5578 38.9222 13.2869 38.1051 12.2058C37.9985 12.0645 37.9531 11.8211 37.7366 11.7969C37.4838 12.0076 37.2871 12.3119 36.9294 12.1414C36.5303 11.9507 36.4667 11.4165 36.8203 11.1623C36.9244 11.0879 37.2483 11.0628 37.2078 10.8604C36.5204 10.0594 35.9494 9.15977 35.2323 8.38218C33.6541 6.67064 31.2366 5.37967 28.8892 5.77014C27.3202 6.03101 25.9933 6.67315 24.7597 7.69488C23.3427 8.8688 21.4514 11.5711 19.3396 10.4181C18.8042 10.1255 18.1481 9.40642 18.0085 8.79689C17.9936 8.73084 17.9606 7.98084 17.7978 8.11211C17.7805 8.29438 17.6383 8.42231 17.5888 8.59037C17.0021 10.5862 17.0277 12.2969 17.7342 14.2166C17.9829 14.8922 18.6075 15.9516 19.1173 16.4541C19.3297 16.6631 19.3685 16.628 19.5536 16.4315C19.775 16.1966 19.946 15.9165 20.1931 15.6991C20.6781 15.271 21.2911 15.0235 21.9232 14.9206C21.9538 14.674 21.9017 14.3981 21.9315 14.1556C22.0835 12.9165 23.0833 11.6071 24.2144 11.1146C25.6421 10.4934 27.3103 11.0862 28.106 9.40893C28.1654 9.28435 28.2935 8.8086 28.3588 8.78519C28.4232 8.76512 28.4769 8.78101 28.5373 8.80358C28.6265 8.83702 29.0991 9.21495 29.2007 9.30274C29.6675 9.71161 30.0352 10.2175 30.4252 10.6974C30.5467 10.7208 30.7722 10.4073 30.8739 10.3278C31.4167 9.90559 32.1942 9.79689 32.8543 9.91228C32.9502 9.929 33.0543 9.98836 33.1245 10.0561C32.794 10.2542 32.4685 10.2793 32.1553 10.5377C30.992 11.4967 31.1804 13.5218 30.8846 14.8956C30.8606 15.0084 30.7871 15.2701 30.7516 15.388C30.6929 15.5862 30.407 15.8412 30.5285 16.0486C30.6607 16.133 31.1176 15.8337 31.2886 15.8061C33.3038 15.485 35.0224 16.4056 36.3047 17.9156C36.465 18.1046 36.9013 18.8145 37.1202 18.8496C37.3623 18.8889 37.2103 18.5569 37.2128 18.4566C37.2169 18.2124 37.7011 17.8354 37.9431 17.8128C38.3397 17.7743 38.6785 18.1623 38.6611 18.541C38.6529 18.7275 38.5017 18.9783 38.5017 19.0026C38.5017 19.0252 38.5893 19.0753 38.6099 19.1372C38.7215 19.4675 38.6785 19.8086 38.3918 20.026C38.001 20.322 37.6127 20.1539 37.34 19.7952C37.1376 19.5277 37.2532 19.4558 37.2557 19.1489C37.0574 18.9474 36.3733 20.0009 36.2634 20.1305C34.9852 21.633 33.3633 22.4349 31.3688 22.2007C31.1449 22.1748 30.7978 21.9298 30.6599 21.9173C30.6012 21.9123 30.5417 21.9507 30.4996 21.9909C30.4236 22.1138 30.6995 22.4742 30.7507 22.6171C30.9689 23.2275 31.0259 24.1213 31.1011 24.771C31.2027 25.6489 31.3308 26.5444 31.9281 27.2367C32.2537 27.6138 32.6527 27.7685 33.1245 27.8864L33.1245 27.8847ZM31.591 19.1113C31.3068 19.0494 31.2316 19.1531 31.0581 19.3345C30.6747 19.7367 30.4161 20.2785 30.0674 20.715C29.9708 20.8354 29.803 20.8287 29.8675 21.041C29.9055 21.1648 30.683 21.5787 30.8433 21.643C30.9036 21.6673 30.9887 21.6506 31.0606 21.674C31.2928 21.7517 31.4737 21.9549 31.7596 21.7133C31.6315 21.3763 31.5605 21.2333 31.8042 20.9248C32.2033 20.4181 33.2162 20.5845 33.8062 20.526C34.3581 20.4716 35.0571 20.2166 35.5338 19.9332C35.9577 19.6807 36.3708 19.3521 36.7187 19.0001C35.9296 18.1949 34.9356 17.6046 33.8062 17.475C33.2129 17.4073 31.8348 17.6096 31.6555 16.8086C31.5819 16.48 32.0265 16.1422 31.4093 16.1757C31.3184 16.1807 30.8862 16.3354 30.7821 16.3788C30.6128 16.4491 30.0212 16.7634 29.9204 16.8864C29.8807 16.9349 29.8526 16.9641 29.8592 17.0335C30.0617 17.3027 30.2781 17.5636 30.474 17.837C30.5962 18.0076 30.678 18.194 30.8127 18.3721C30.9961 18.6146 31.2589 18.9942 31.591 18.8905C31.6051 18.3805 32.2545 17.9616 32.6296 18.4148C32.8552 18.6874 32.7188 18.7634 32.7188 19.0009C32.7188 19.2191 32.8453 19.2392 32.6792 19.5109C32.3536 20.0402 31.5993 19.6757 31.591 19.1104L31.591 19.1113ZM26.5154 19.021C27.245 19.2191 27.9985 19.5335 28.6347 19.9491C28.805 20.0603 29.4321 20.6063 29.551 20.6071C29.7287 20.6088 30.0559 19.9691 30.193 19.7961C30.3219 19.6338 30.4888 19.5093 30.6045 19.3763C30.7003 19.2668 30.7962 19.1205 30.8805 19.0001C30.8879 18.8797 30.3393 18.3747 30.2343 18.2467C30.0641 18.0385 29.8551 17.5946 29.6973 17.4524C29.6469 17.4064 29.6271 17.3855 29.5519 17.3864C29.4271 17.388 28.8463 17.8972 28.6769 18.0101C28.12 18.3797 27.4474 18.6999 26.8046 18.8747L26.5163 19.021L26.5154 19.021ZM28.3431 16.169C28.61 16.22 28.8471 16.2601 29.09 16.3956C29.2569 16.4892 29.3494 16.6748 29.5502 16.6397C29.6601 16.6205 29.8452 16.317 29.9105 16.2074C30.2071 15.7058 30.431 15.0845 30.526 14.531C30.5483 14.4014 30.7036 14.0828 30.4954 14.0118C30.3004 13.9449 30.1435 14.0987 29.8146 13.9064C28.9925 13.4257 29.3908 12.4098 29.4478 11.6849C29.5114 10.8805 29.3478 10.3312 28.9314 9.6581C28.4976 9.3504 28.6926 10.021 28.6612 10.2609C28.6033 10.7032 28.3266 11.3053 28.0605 11.6598L27.6259 12.1439C27.6003 12.3905 27.9308 12.6297 28.0605 12.8379C28.4745 13.5034 28.6157 14.7559 28.448 15.5218C28.4084 15.7024 28.1605 15.9064 28.3431 16.1681L28.3431 16.169ZM30.5979 23.6941C30.5318 23.1439 30.2029 22.2877 29.9105 21.7944C29.8311 21.6606 29.6295 21.286 29.4478 21.337C29.3775 21.3571 29.1966 21.5385 29.0859 21.6012C29.0156 21.6405 28.7835 21.7543 28.7165 21.771C28.4381 21.8395 28.2142 21.6941 28.3018 22.1681C28.3266 22.2994 28.4274 22.3822 28.4488 22.4792C28.6017 23.1782 28.4811 24.3328 28.1638 24.975C28.0547 25.1949 27.6044 25.6364 27.6292 25.8128C27.6375 25.8721 28.115 26.3989 28.2018 26.5335C28.3811 26.8128 28.6108 27.3788 28.6546 27.7058C28.6885 27.9616 28.505 28.6548 28.9322 28.3429C29.2544 27.7785 29.4709 27.3245 29.4676 26.6506C29.4651 26.138 29.29 25.6305 29.2817 25.1464C29.2734 24.6623 29.6395 23.9775 30.1757 23.9566C30.3698 23.9491 30.6508 24.1247 30.5987 23.6932L30.5979 23.6941ZM25.5694 18.725C25.7198 18.771 25.8264 18.7777 25.98 18.7517C26.1337 18.7258 26.2097 18.6364 26.2973 18.6129C26.6873 18.5101 26.9484 18.4566 27.3367 18.2852C28.0076 17.9884 28.6736 17.5912 29.1974 17.072C29.2189 16.9466 28.7273 16.6631 28.6149 16.6247C28.5496 16.6021 28.1621 16.5118 28.1035 16.5101C27.968 16.5059 27.8953 16.5887 27.7746 16.5987C27.2434 16.643 27.8201 16.0979 27.8688 15.8981C28.3299 14.016 26.4865 12.5068 24.9662 13.7133C24.6729 13.9457 24.1367 14.6021 23.7657 14.6723C23.4699 14.7275 23.0742 14.6865 22.837 14.4867C22.6561 14.3345 22.647 14.0661 22.3892 14.1364C22.3297 14.174 22.3223 14.6757 22.3628 14.7584C22.428 14.893 22.8684 14.8972 23.0147 15.0076C23.2113 15.1556 23.2014 15.541 23.0667 15.7208C22.7982 16.0795 22.4049 16.225 22.0951 15.8245C21.9406 15.6247 21.9579 15.342 21.6233 15.3864C21.0325 15.4641 20.2683 16.118 19.9064 16.5778C19.8287 16.6757 19.6477 16.9006 19.7188 17.016C19.9369 17.1355 20.1063 17.3253 20.3046 17.4683C20.4806 17.5946 21.3829 18.1472 21.5374 18.1422C21.634 18.1389 21.9166 17.9282 22.0422 17.9031C22.157 17.8797 22.2744 17.9165 22.3859 17.8747C22.5049 17.4365 22.6834 16.9282 23.17 16.8236L23.2873 16.9181C23.2047 17.337 23.403 17.832 23.7277 18.1012C23.8492 18.2016 24.682 18.6564 24.7407 18.4089C24.6217 18.026 24.9068 17.6146 25.3199 17.7451C25.7991 17.8956 25.5116 18.6556 25.5702 18.7258L25.5694 18.725ZM22.3876 23.8671C22.5396 23.9716 22.8635 23.4022 23.1171 23.3379C24.2152 23.0569 24.6101 24.2409 25.4711 24.5728C25.9858 24.771 26.3452 24.74 26.8459 24.5193C27.7887 24.1037 28.1324 23.0803 27.8688 22.1046C27.8259 21.944 27.4805 21.5628 27.5656 21.4432C27.7399 21.3136 27.9399 21.4892 28.101 21.485C28.158 21.4833 28.5174 21.4056 28.581 21.3838C28.7157 21.3395 29.247 21.0494 29.1974 20.8872C29.1652 20.7793 28.101 20.087 27.9291 19.9942C27.3574 19.6857 26.9021 19.5611 26.3064 19.3788C26.2081 19.3487 26.1478 19.2559 25.9949 19.2342C25.8553 19.2141 25.6999 19.2225 25.5694 19.2768C25.5967 19.5971 25.7123 20.0828 25.3364 20.2325C25.1497 20.3069 25.0555 20.2894 24.9026 20.1715C24.5581 19.9064 24.8192 19.7116 24.7324 19.5703C24.6159 19.516 24.4903 19.5026 24.3647 19.5419C24.2706 19.5711 23.8665 19.7969 23.7748 19.8646C23.5154 20.0561 23.2774 20.4725 23.2601 20.7977C23.2543 20.9106 23.3857 21.118 23.189 21.1539C22.7965 21.2267 22.4363 20.4499 22.3859 20.1263C22.276 20.0904 22.167 20.1171 22.0513 20.0887C21.8926 20.0502 21.6844 19.8805 21.5688 19.8629C21.2407 19.8136 20.0129 20.7451 19.718 20.985C19.6428 21.1046 19.9072 21.4064 19.989 21.5059C20.3525 21.9432 21.0267 22.4942 21.5886 22.6054C22.0604 22.6991 21.943 22.0017 22.4454 21.9441C22.704 21.9148 23.0064 22.1263 23.132 22.3412C23.1551 22.3805 23.1741 22.6656 23.1692 22.715C23.1262 23.1422 22.4454 23.0736 22.3636 23.2409C22.3239 23.3228 22.3314 23.8253 22.3884 23.8646L22.3876 23.8671ZM19.2156 20.5143C19.2388 20.5402 19.4098 20.6422 19.4395 20.6472C19.5486 20.6648 19.946 20.2634 20.0733 20.174C20.2443 20.0544 20.4789 19.9165 20.6624 19.8086C20.7896 19.7342 21.13 19.6556 21.13 19.5017C21.13 19.3772 20.7243 19.1355 20.6492 19.0001C20.7392 18.8262 21.2564 18.5854 21.0813 18.3964C20.7987 18.2576 20.5178 18.1104 20.255 17.9349C19.9923 17.7593 19.7593 17.5502 19.5098 17.3471C19.2173 17.3412 19.138 17.6656 18.976 17.8512C18.5538 18.3354 18.0515 18.7175 17.4681 18.98L18.1837 19.4048C18.4836 19.6522 18.7794 19.9198 19.0372 20.2133C19.1157 20.3027 19.1594 20.4507 19.2165 20.5134L19.2156 20.5143ZM15.7223 18.5519C15.7636 18.516 15.8363 18.2032 15.9421 18.0845C16.1982 17.7969 16.7468 17.8211 16.9253 18.1698C17.0187 18.3521 16.8848 18.6313 17.1608 18.6447C17.3921 18.6556 18.225 18.0586 18.4183 17.8721C18.5075 17.786 19.0793 17.092 19.0793 17.036C19.0305 16.817 18.8025 16.7308 18.6844 16.5979C17.9697 15.7927 17.4425 14.8153 16.7642 13.9842C16.5675 13.7434 16.2965 13.5603 16.128 13.2902C15.7413 13.138 15.9834 13.5293 15.9817 13.73C15.9768 14.3061 15.6074 14.8295 15.0712 15.0277C14.3607 15.2894 13.6013 14.536 13.0345 14.2049C12.4256 13.8487 11.9637 13.725 11.2482 13.7927C10.669 13.8479 10.1898 14.6882 10.1543 15.2359C10.1394 15.4616 10.165 15.6313 10.2212 15.8454C10.1493 15.9482 9.56351 15.8579 9.36934 15.9048C8.14816 16.2024 7.43264 17.6731 6.56178 18.4984C6.39406 18.6573 6.08587 18.7517 6.10322 19.0419C6.11562 19.2425 6.53452 19.4374 6.68737 19.5828C7.58798 20.4415 8.28449 22.1405 9.76511 22.1155C9.92623 22.1129 10.0667 22.0226 10.2377 22.1155C9.97084 22.7476 10.3501 23.8287 10.9805 24.1012C11.2515 24.2183 11.9365 24.22 12.2331 24.1522C13.3873 23.8897 14.5466 22.0335 15.6909 23.4315C15.895 23.6807 15.985 23.939 15.9842 24.2668C15.9842 24.3972 15.7661 25.0185 16.1676 24.6648C17.0492 23.8872 17.8358 22.3864 18.6455 21.4449C18.8025 21.2626 19.1908 21.0912 19.0149 20.8203C18.6984 20.332 17.8986 19.6071 17.3558 19.4056C16.8129 19.2041 17.0682 19.6656 16.8898 19.878C16.5832 20.2425 16.0743 20.1731 15.8479 19.7609C15.7553 19.5929 15.8041 19.393 15.5463 19.3947C15.5083 19.3947 15.1249 19.5461 15.0613 19.5745C14.6664 19.7534 14.1252 20.1472 13.8798 20.5109C13.7203 20.7484 13.7236 21.2568 13.3774 20.9223C13.2155 20.7668 13.018 20.3119 13.0469 20.0895C13.0602 19.9842 13.2229 19.8797 13.1676 19.735C12.7123 19.5527 12.2124 19.4039 11.8877 19.0001C11.8877 18.9022 12.238 18.6656 12.3322 18.6104C12.4876 18.5185 13.0858 18.3111 13.1337 18.2509C13.2568 18.0962 13.0585 18.0068 13.0486 17.8688C13.0321 17.6313 13.2948 16.9875 13.5675 16.9708C13.7476 16.9599 13.736 17.2183 13.8021 17.3571C13.9971 17.7643 14.687 18.2543 15.0977 18.429C15.2389 18.4892 15.6017 18.6564 15.7231 18.5494L15.7223 18.5519Z" fill="#03683C"/>
</g>
<defs>
<clipPath id="clip0_1_268">
<rect width="38" height="69" fill="white" transform="translate(69 3.01609e-06) rotate(90)"/>
</clipPath>
</defs>
</svg>
