<svg width="18" height="18" viewBox="0 0 18 18" fill="none" xmlns="http://www.w3.org/2000/svg">
<path fill-rule="evenodd" clip-rule="evenodd" d="M8.2 1.2C4.33401 1.2 1.2 4.33401 1.2 8.2C1.2 12.066 4.33401 15.2 8.2 15.2C12.066 15.2 15.2 12.066 15.2 8.2C15.2 4.33401 12.066 1.2 8.2 1.2ZM0 8.2C0 3.67127 3.67127 0 8.2 0C12.7287 0 16.4 3.67127 16.4 8.2C16.4 10.2484 15.6489 12.1214 14.4071 13.5586L17.0243 16.1757C17.2586 16.4101 17.2586 16.7899 17.0243 17.0243C16.7899 17.2586 16.4101 17.2586 16.1757 17.0243L13.5586 14.4071C12.1214 15.6489 10.2484 16.4 8.2 16.4C3.67127 16.4 0 12.7287 0 8.2Z" fill="white"/>
</svg>
