<svg width="24" height="48" viewBox="0 0 24 48" fill="none" xmlns="http://www.w3.org/2000/svg">
<path d="M15.4211 36.1072L15.4454 36.267C16.1054 36.8176 16.5553 37.8005 16.5839 38.7063C16.5976 39.1512 16.3695 39.9185 16.1398 40.295C15.8287 40.8054 15.1723 41.2549 14.6068 41.2928C14.5033 41.2997 14.3132 41.2164 14.2435 41.2773C14.1806 41.3319 14.2171 41.4624 14.2007 41.5469C14.0375 42.3987 13.3225 42.8177 12.7802 43.3344C12.7316 43.3804 12.4655 43.6598 12.4507 43.6942C12.4254 43.7535 12.4227 43.8247 12.4771 43.8661C12.5521 43.8902 12.5743 43.7558 12.6809 43.7851C12.6952 43.7891 12.9212 43.9207 12.9397 43.9368C13.2454 44.1954 13.0068 44.8766 12.5991 44.7898C12.4929 44.8616 12.7184 45.2996 12.7691 45.387C12.9751 45.7433 13.2893 45.9951 13.6895 45.9629C13.7519 45.9577 13.8221 45.8554 13.8575 45.9847C13.8955 46.1244 13.7809 46.2761 13.6917 46.367C13.5348 46.5267 13.35 46.6141 13.1351 46.6262C13.0073 46.6331 12.9101 46.5221 12.8457 46.7112C12.8161 46.7969 12.8235 46.9084 12.7913 46.9969C12.767 47.063 12.6508 47.2441 12.606 47.3125C12.531 47.4274 12.0821 48.0091 11.9791 47.9999C11.7162 47.7826 11.2663 47.2952 11.1818 46.9423C11.158 46.8423 11.1913 46.6911 11.1052 46.6227C11.035 46.567 10.9563 46.6308 10.867 46.6262C10.537 46.6078 10.105 46.3457 10.1394 45.9353C10.4456 46.0043 10.6479 45.9652 10.9035 45.7755C11.1591 45.5858 11.3555 45.1933 11.4294 44.8633C11.3771 44.7449 11.262 44.8099 11.1591 44.7536C10.8993 44.611 10.8274 44.1219 11.0762 43.9236C11.1195 43.8891 11.3201 43.777 11.3613 43.7845C11.4194 43.7948 11.4553 43.8787 11.524 43.8661C11.7088 43.8075 11.3338 43.45 11.2747 43.3919C10.6996 42.824 10.0216 42.4838 9.80246 41.5745C9.78239 41.4917 9.81883 41.3147 9.74332 41.2652C9.67995 41.2233 9.47189 41.3066 9.37209 41.2963C9.00139 41.2589 8.43425 40.9675 8.16124 40.6882C7.48426 39.9956 7.30419 38.8937 7.53231 37.9407C7.68651 37.2964 8.07991 36.6722 8.5557 36.2595C8.71993 35.9756 8.21351 36.2245 8.13906 36.2446C6.82576 36.6027 5.16394 36.1854 4.13263 35.2157C3.10713 34.2518 2.06156 31.9033 0.422452 32.5005C0.341658 32.5298 0.0501661 32.7379 0 32.6873C0.0924113 32.2378 0.293604 31.7245 0.580343 31.3791C0.791041 31.1256 1.24729 30.7905 1.53878 30.6693C1.6106 30.6394 1.90314 30.5859 1.92955 30.5417C1.97126 30.4721 1.91951 30.156 1.92796 30.0295C2.03305 28.4276 2.32296 27.0166 3.12086 25.6377C4.67654 22.9489 7.51488 21.6602 9.53156 19.4818C9.71005 19.2893 9.97567 18.9904 10.1262 18.7783C10.1769 18.707 10.2423 18.6266 10.2455 18.5346C10.2408 18.4817 9.78292 18.0466 9.70318 17.9449C9.48879 17.6719 9.28654 17.1741 9.22106 16.8315C9.19624 16.6993 9.19149 16.174 9.10964 16.1188C9.05208 16.0803 8.79967 16.1815 8.69933 16.1912C7.25244 16.328 6.12502 15.2342 5.83722 13.7323C5.65451 12.7782 5.74481 11.2372 4.82281 10.6981C4.42412 10.4647 3.94253 10.4872 3.55071 10.7309C3.34634 10.7268 3.59084 10.3055 3.58556 10.194C4.52393 7.67995 6.69427 6.50626 9.05578 7.58454C9.15981 7.63225 9.53368 7.92998 9.43176 7.60638C9.35889 7.37475 9.1371 7.09426 9.03571 6.8017C8.42421 5.03886 8.97234 3.48237 10.2175 2.29545C10.4948 2.03106 11.4954 1.33386 11.5113 0.941858C11.5197 0.730915 11.3423 0.941858 11.2742 0.974046C10.7229 1.22925 10.3527 0.126251 10.9985 0.0130207C11.3719 -0.0525038 11.449 0.138322 11.6871 0.382601C11.7679 0.39812 11.9126 0.0647505 11.9955 0.0727973C12.1154 0.0842928 12.202 0.403868 12.3134 0.380302C12.3778 0.366508 12.4929 0.140046 12.5695 0.0842928C12.7723 -0.0628497 13.2058 -0.0122695 13.3051 0.257875C13.4561 0.670564 13.0817 1.15567 12.7079 0.965424C12.644 0.932662 12.4871 0.729766 12.4871 0.944157C12.4871 1.33558 13.5581 2.07876 13.8358 2.35236C15.0984 3.5979 15.6423 5.34694 14.8434 7.1C14.7795 7.24025 14.4896 7.61156 14.5608 7.7426C14.7082 7.77479 14.8444 7.6242 14.9791 7.56327C17.2962 6.52006 19.4064 7.66329 20.3701 10.098C20.4012 10.1774 20.5422 10.5969 20.5311 10.6446C20.5248 10.6711 20.5069 10.6975 20.49 10.7176C20.4245 10.7625 20.3648 10.674 20.3109 10.6515C19.7765 10.4291 19.2738 10.5199 18.8651 10.9596C18.2214 11.6517 18.3307 13.2007 18.0677 14.1151C17.688 15.4366 16.559 16.3188 15.2753 16.1901C15.1338 16.1757 14.9986 16.0705 14.8761 16.1309C14.7911 16.2027 14.8069 16.6332 14.7837 16.7769C14.7467 17.0022 14.6195 17.3724 14.5191 17.581C14.3454 17.942 14.0592 18.2104 13.782 18.4737C13.7122 18.5783 13.7893 18.6674 13.849 18.7484C15.59 21.1194 18.5372 22.389 20.3036 24.7703C21.497 26.3786 21.9421 28.0224 22.0731 30.0577C22.0842 30.2273 22.0414 30.375 22.0599 30.5319C22.0916 30.5894 22.3683 30.6279 22.4438 30.6601C22.7157 30.7767 23.1783 31.1044 23.3816 31.3348C23.6895 31.6832 23.8727 32.1895 24 32.6442C23.991 32.7735 23.6314 32.5269 23.5733 32.5057C21.9168 31.901 20.9008 34.2472 19.8679 35.2152C18.7727 36.2411 17.2513 36.5429 15.8615 36.244L15.42 36.1072H15.4211ZM12.2527 6.99482C12.1619 7.09253 12.5436 7.61615 12.6218 7.6995C12.777 7.86618 13.3664 8.30359 13.5639 8.39842C13.7471 8.48636 13.8591 8.34037 13.9684 8.18691C14.0449 8.07942 14.0777 7.957 14.1421 7.85871C14.1949 7.77881 14.2794 7.72134 14.3343 7.63685C14.4098 7.52017 14.6855 6.95114 14.723 6.82411C14.8112 6.52638 14.5112 6.70686 14.3781 6.70973C14.2451 6.71261 14.102 6.63731 14.0074 6.53615C13.6299 6.13093 13.9409 5.4389 13.9932 4.96644C14.1474 3.56801 13.3558 2.6386 12.6234 1.6632C12.4201 1.39248 12.306 0.967723 11.9221 1.01715C11.7098 1.04474 11.4939 1.50801 11.3544 1.69194C10.763 2.47249 10.0918 3.25188 10.0079 4.33591C9.96141 4.93023 10.1409 5.32165 10.1684 5.85906C10.1879 6.24704 10.0506 6.71031 9.62609 6.71031C9.51044 6.71031 9.26753 6.55397 9.26753 6.75112C9.26753 6.91953 9.5981 7.40923 9.64351 7.60926C9.83362 7.7564 9.88537 7.98229 10.0089 8.15989C10.0976 8.28749 10.2497 8.47314 10.4034 8.41682C10.5296 8.37083 11.0941 7.95125 11.2208 7.84146C11.4421 7.64891 11.7236 7.31152 11.751 6.99655C11.6174 6.97643 11.5377 7.13449 11.4152 7.16208C10.9209 7.27416 10.5983 6.66433 10.9473 6.25106C11.0825 6.0907 11.2604 6.14415 11.3302 6.093C11.4611 5.99644 11.1406 5.6464 11.0862 5.55098C10.8369 5.1153 10.612 4.37154 11.0783 4.00829C11.2567 3.86919 11.4204 3.837 11.6248 3.93069C11.742 3.98472 11.8466 4.14796 11.9765 4.15428C12.1386 4.16175 12.2347 3.99392 12.3588 3.93644C12.5774 3.8347 12.7517 3.86689 12.9402 4.02208C13.3759 4.38132 13.1578 5.14864 12.9091 5.56995C12.8578 5.65674 12.5357 5.99126 12.6741 6.09357C13.1118 6.09357 13.369 6.65685 13.0622 7.01609C12.9656 7.12932 12.7501 7.19024 12.6112 7.1684C12.4724 7.14656 12.3889 6.98677 12.2532 6.99769L12.2527 6.99482ZM11.9549 7.34428C11.8841 7.3667 11.76 7.65294 11.6855 7.74203C11.478 7.98976 11.1765 8.22139 10.9151 8.39785C10.8211 8.46107 10.5301 8.55476 10.5423 8.70018C10.6748 8.91917 10.875 9.0847 11.0239 9.29565C11.29 9.6727 11.3935 10.0124 11.5873 10.4067C11.7568 10.751 11.8825 10.2314 12.0024 10.0992C12.0399 10.0992 12.1814 10.5303 12.2928 10.5303C12.3942 10.5303 12.5542 10.0176 12.6123 9.90031C12.7332 9.65603 12.9344 9.35025 13.0986 9.13644C13.1932 9.01343 13.463 8.81226 13.4419 8.64845C13.4282 8.54097 13.1768 8.45475 13.0897 8.3967C12.7976 8.203 12.4966 7.98976 12.2801 7.6972C12.1846 7.56845 12.117 7.29198 11.9549 7.34371V7.34428ZM9.45394 10.1992V9.71064C9.45394 9.62729 9.59651 9.28588 9.64404 9.19909C9.72536 9.05022 10.038 8.74041 10.0369 8.61799C10.0369 8.59097 10.0322 8.57143 10.0216 8.54729C9.97408 8.43521 9.11492 7.90641 8.96284 7.83169C8.77802 7.7403 8.57893 7.67995 8.39094 7.62075C8.30381 7.59316 8.23516 7.50982 8.12533 7.53971C8.00968 7.67018 8.17338 7.761 8.21879 7.86561C8.36032 8.19323 8.19239 8.65995 7.91516 8.84043C7.5001 9.11057 6.79672 9.01631 6.3278 8.91802C6.25651 8.90308 6.2 8.84043 6.14192 8.83813C5.30388 8.80996 4.39244 9.24047 3.96312 10.0561C3.79731 10.3711 4.16273 10.1957 4.31904 10.1854C4.65014 10.163 5.01767 10.1986 5.33081 10.2906C5.5056 10.3417 5.90006 10.5912 6.04581 10.7194C6.24119 10.8907 6.37955 11.1292 6.56331 11.2993C6.96306 10.7981 7.51805 10.3998 8.12744 10.2791C8.28216 10.2486 8.66395 10.186 8.80864 10.1848C8.91162 10.1843 9.41908 10.3251 9.45446 10.2003L9.45394 10.1992ZM14.5498 9.73938C14.5645 9.88422 14.5392 10.0515 14.5498 10.1992C14.5498 10.3147 15.1153 10.186 15.1924 10.1865C15.9111 10.1963 16.7106 10.501 17.2292 11.047C17.2793 11.0999 17.3744 11.3045 17.4409 11.2987C17.697 10.9866 17.9325 10.6969 18.2753 10.49C18.6502 10.2636 19.0246 10.1779 19.4481 10.1837C19.6371 10.186 19.8204 10.2331 20.0015 10.2435C20.1166 10.2504 20.0717 10.1348 20.0374 10.0595C19.9112 9.78421 19.3768 9.2784 19.1254 9.12666C18.7769 8.91572 18.2621 8.82491 17.8613 8.83813C17.8011 8.83985 17.7467 8.9048 17.6759 8.91859C17.3781 8.97607 16.6921 9.06689 16.4165 9.00079C15.9729 8.89445 15.5768 8.36681 15.7854 7.86676C15.8287 7.76272 15.9798 7.65294 15.8778 7.53971C15.7685 7.50982 15.6988 7.59374 15.6122 7.62075C15.1116 7.77824 14.6036 8.03919 14.1711 8.38003C13.7614 8.70305 14.0317 8.71857 14.2583 9.05079C14.3797 9.22897 14.5265 9.51924 14.5492 9.73995L14.5498 9.73938ZM7.26986 11.228C7.23501 11.2614 7.15739 11.4384 7.13362 11.4965C6.95091 11.9413 6.95197 12.5632 7.13679 13.0081C7.40082 13.6438 8.05773 13.7772 8.19978 14.5525C8.2679 14.9233 8.09259 15.3969 7.73826 15.517C7.62261 15.5561 7.53231 15.5032 7.44729 15.6596C7.44571 15.7418 7.95952 15.8906 8.04295 15.9015C8.20401 15.9222 8.99716 15.9142 9.09697 15.8176C9.22053 15.6986 9.08693 15.5366 9.14872 15.3865C9.26489 15.1049 9.61394 15.0779 9.7655 15.3193C9.87216 15.4889 9.89646 15.7124 9.74226 15.8596C9.60391 15.9912 9.39479 15.9067 9.3742 16.151C9.36892 16.2113 9.4381 16.7194 9.45446 16.8074C9.52206 17.1672 9.71163 17.5787 9.94081 17.8587C9.98147 17.9081 10.3252 18.2621 10.3511 18.2754C10.3881 18.2938 10.4198 18.2995 10.4562 18.2759C10.8454 17.6621 11.1606 17.0091 11.3935 16.3068C11.4886 16.0199 11.6998 15.3831 11.7183 15.1061C11.7368 14.829 11.478 14.9647 11.3481 14.9491C11.0851 14.917 10.9151 14.6158 11.1559 14.41C11.3001 14.2864 11.3222 14.3698 11.4146 14.3479C11.6364 14.2962 11.3111 13.6335 11.243 13.5099C11.0941 13.2403 10.8734 12.9984 10.6384 12.8173C10.4219 12.65 10.1626 12.6213 10.5227 12.2839C10.7044 12.1138 10.8253 12.1586 10.9917 12.0758C11.1802 11.9816 11.102 11.6752 11.1554 11.4781C11.177 11.397 11.2795 11.1982 11.3228 11.1142C11.4025 10.9596 11.535 10.9177 11.4743 10.7015C11.3407 10.2291 10.9895 9.62729 10.6938 9.25254C10.603 9.13701 10.3955 8.84157 10.2603 8.86284C10.1531 8.87951 9.88695 9.2853 9.82833 9.40083C9.6847 9.68535 9.54899 10.0739 9.75599 10.3613C9.81144 10.4055 10.0037 10.2785 10.1542 10.4435C10.5132 10.8366 10.094 11.4258 9.71955 11.0889C9.50093 10.8918 9.61447 10.7745 9.54582 10.6171C9.49407 10.4969 9.03254 10.5159 8.90475 10.4521L8.67451 10.4504C8.5689 10.505 7.99331 10.5533 7.95476 10.5952C7.83753 10.7228 8.02816 10.8556 8.04823 10.9539C8.11107 11.2533 7.94843 11.5913 7.63634 11.4901C7.4832 11.4401 7.39554 11.1091 7.26986 11.2303V11.228ZM16.5902 11.228C16.5548 11.2625 16.5295 11.3556 16.4783 11.4074C16.2084 11.6787 15.8108 11.3171 15.947 10.9441C15.9861 10.8366 16.1419 10.7717 16.0563 10.6286C15.9935 10.5234 15.8969 10.5734 15.8071 10.555C15.2912 10.4498 15.203 10.432 14.6828 10.5458C14.62 10.5596 14.5065 10.5027 14.4568 10.6159C14.3919 10.7648 14.5012 10.8797 14.2947 11.0717C13.9177 11.4217 13.5026 10.8792 13.8226 10.4716C13.9911 10.2578 14.1769 10.4188 14.2467 10.3607C14.5286 9.8641 14.1268 9.24219 13.7941 8.89503C13.6769 8.81226 13.5987 8.9048 13.519 8.99159C13.0691 9.48073 12.8161 9.97618 12.5743 10.6073C12.5373 10.7044 12.4528 10.7257 12.5098 10.8671C12.5389 10.9401 12.6493 11.0642 12.6963 11.1533C12.8071 11.3648 12.8568 11.5103 12.8832 11.7545C12.8927 11.8419 12.8293 11.8896 12.9159 12.0063C13.0025 12.123 13.1245 12.0868 13.2296 12.1247C13.3553 12.1701 13.6447 12.4075 13.6521 12.5586C13.6589 12.7012 13.4598 12.7437 13.379 12.8052C12.9856 13.1064 12.6281 13.5823 12.5077 14.0985C12.4327 14.4203 12.5959 14.3019 12.7274 14.3347C13.0495 14.4157 13.0194 14.8957 12.6545 14.9491C12.541 14.9658 12.4602 14.9009 12.3578 14.9411L12.2791 15.0865C12.3319 15.3227 12.3784 15.563 12.4444 15.7952C12.5986 16.3355 12.8214 16.9666 13.0759 17.4644C13.1287 17.5678 13.5206 18.2736 13.5644 18.2857C13.6082 18.2978 13.6431 18.2685 13.6769 18.2443C13.8971 18.088 14.2393 17.6368 14.3612 17.3804C14.4679 17.1569 14.6548 16.3303 14.6115 16.1119C14.5719 15.913 14.5112 15.9964 14.4109 15.9544C14.2113 15.8705 14.1289 15.7653 14.1553 15.5193C14.1896 15.2032 14.5482 15.0371 14.7615 15.2572C14.9749 15.4774 14.7546 15.705 14.9041 15.8205C15.0292 15.9176 15.7601 15.9251 15.9359 15.905C16.0199 15.8952 16.5115 15.7544 16.5289 15.6872C16.5194 15.4958 16.3663 15.5555 16.2644 15.5176C16.0695 15.4452 15.9539 15.3141 15.8689 15.1147C15.7442 14.8215 15.75 14.6491 15.8499 14.3462C16.0289 13.8042 16.5411 13.6162 16.7808 13.1754C17.0644 12.6541 17.0966 11.7798 16.7518 11.2798C16.7053 11.2125 16.661 11.1596 16.5897 11.2292L16.5902 11.228ZM11.9886 15.0129C11.9253 15.1503 11.9295 15.3026 11.8962 15.4446C11.6972 16.3022 11.3708 17.2069 10.9431 17.9707C10.838 18.1581 10.5586 18.3897 10.7345 18.5765C10.9658 18.8226 11.3988 19.0094 11.6692 19.226C11.7912 19.3238 11.8978 19.4341 12.0018 19.5537C12.0932 19.4617 12.1719 19.3554 12.2706 19.2715C12.5516 19.0323 13.0052 18.8455 13.2544 18.5892C13.2935 18.5495 13.331 18.5116 13.3326 18.4478C13.3347 18.3478 13.0559 17.973 12.9877 17.8483C12.5605 17.0701 12.2099 16.0251 12.062 15.1486C12.0578 15.1227 12.0235 15.0147 11.9892 15.0129H11.9886ZM17.6125 24.9566C17.6711 24.9089 17.7324 25.1123 17.7382 25.1503C17.8058 25.5934 17.7419 26.0912 17.5122 26.4711C17.405 26.6476 17.1309 26.7608 17.3353 26.9395C17.6775 27.2384 18.2452 27.6902 18.4268 28.1368C18.524 28.3759 18.2885 28.3328 18.1311 28.4092C17.1383 28.8886 17.3342 29.6467 17.1579 30.5974C16.9651 31.6343 16.0289 32.6131 15.0636 32.7436C14.968 32.7563 14.5968 32.716 14.5614 32.7718C14.5223 33.196 14.3174 33.6817 14.0486 33.9955C13.9636 34.0949 13.5406 34.4455 13.5237 34.518C13.5052 34.595 13.5924 34.6789 13.6383 34.7283C14.1358 35.2675 14.9331 35.6526 15.5742 35.8687C16.5073 36.1831 17.6659 36.0779 18.5784 35.7641C18.6201 35.7497 18.8804 35.598 18.8799 35.5755C18.7463 35.4635 18.5583 35.5117 18.384 35.4548C17.782 35.2577 17.2239 34.4829 17.2424 33.7926C17.2746 32.5792 18.4691 31.6613 19.1175 30.8043C20.3553 29.1674 20.8517 27.1177 19.8885 25.1669C19.2437 23.861 18.5398 23.3616 17.5207 22.485C17.434 22.4103 17.2334 22.1402 17.1452 22.1149C17.028 22.081 16.9942 22.3132 16.9493 22.3804C16.774 22.6414 16.4186 22.5753 16.3135 22.2758C16.2084 21.9763 16.633 21.8258 16.5057 21.6349C16.4809 21.5981 16.1582 21.3792 16.0843 21.3177C15.4559 20.7981 14.7325 20.1767 14.1801 19.568C13.9483 19.3128 13.7619 19.0076 13.5295 18.7524L13.4419 18.7329L12.2923 19.5818C12.2147 19.8129 12.4338 19.7359 12.5695 19.7979C12.9867 19.9882 12.7929 20.7929 12.3187 20.7894C12.2004 20.7889 12.062 20.6561 12.0024 20.6561C11.9612 20.6561 11.8403 20.7515 11.7732 20.7699C11.4801 20.8492 11.1944 20.5469 11.1955 20.229C11.1955 20.0917 11.2937 19.8606 11.4099 19.7997C11.5498 19.7261 11.9585 19.7974 11.5915 19.4841C11.2763 19.2151 10.8385 19.0651 10.5629 18.7335L10.5285 18.7248C10.4303 18.734 9.92022 19.4663 9.79929 19.5985C9.19571 20.2566 8.39306 20.9234 7.71027 21.4918C7.62103 21.566 7.46736 21.5976 7.45204 21.7482C7.58512 21.924 7.77733 22.0608 7.66961 22.3097C7.54921 22.5873 7.21178 22.6316 7.05124 22.3856C7.00425 22.3132 6.9884 22.0879 6.86061 22.116C6.35473 22.5942 5.78653 22.9914 5.29543 23.4903C4.21448 24.5881 3.39915 26.2699 3.64576 27.9029C3.81051 28.9944 4.21607 29.9174 4.86136 30.7756C5.60276 31.7613 7.30947 33.077 6.58127 34.5461C6.39644 34.9186 5.94231 35.3749 5.55735 35.4721C5.51563 35.4824 5.04196 35.5054 5.12487 35.6186C5.23998 35.6307 5.32078 35.7296 5.42692 35.7641C6.68741 36.1722 7.76783 36.1543 8.98026 35.6629C9.40694 35.4899 10.076 35.0554 10.3934 34.7007C10.5254 34.553 10.5032 34.526 10.3791 34.3973C10.2307 34.2432 10.0538 34.1242 9.91652 33.9524C9.64615 33.615 9.48985 33.1885 9.42489 32.7488C9.26911 32.7275 9.09485 32.7637 8.94172 32.743C8.15912 32.6373 7.33217 31.9418 7.02114 31.1549C6.62879 30.1617 7.00319 29.0013 5.94389 28.4477C5.86521 28.4064 5.56474 28.3173 5.54996 28.2719C5.53728 28.227 5.54732 28.1897 5.56157 28.1477C5.5827 28.0856 5.82138 27.7569 5.87683 27.6862C6.13505 27.3614 6.45453 27.1056 6.75764 26.8344C6.77243 26.7499 6.5744 26.5929 6.52424 26.5222C6.25756 26.1446 6.18892 25.6038 6.26179 25.1445C6.27235 25.0778 6.30984 25.0054 6.35261 24.9566C6.47777 25.1865 6.49361 25.4129 6.65678 25.6308C7.26247 26.4401 8.54144 26.309 9.40905 26.5148C9.48034 26.5314 9.64563 26.5826 9.72008 26.6073C9.84523 26.6481 10.0063 26.847 10.1373 26.7625C10.1906 26.6705 10.0015 26.3527 9.98411 26.2337C9.78134 24.8318 10.3627 23.6363 11.3164 22.7442C11.4358 22.6327 11.8841 22.3293 11.9063 22.1769C11.9311 22.0085 11.7214 22.1143 11.6581 22.1126C11.5039 22.1097 11.2657 21.7729 11.2515 21.6045C11.2272 21.3286 11.4722 21.0929 11.7114 21.105C11.8292 21.1107 11.9876 21.2159 12.0029 21.2159C12.0172 21.2159 12.0488 21.155 12.0879 21.1406C12.2965 21.063 12.512 21.0929 12.6493 21.2924C12.8362 21.5642 12.73 21.8344 12.5035 22.0241C12.3345 22.1649 12.2891 22.0844 12.0953 22.0827C11.9681 22.2206 12.6334 22.6965 12.7153 22.773C13.6642 23.6622 14.1706 24.7905 14.0228 26.178C14.0064 26.3337 13.8517 26.5751 13.8437 26.6711C13.8406 26.7119 13.8649 26.7533 13.8902 26.7826C13.9678 26.8355 14.1954 26.6435 14.2857 26.6079C14.6712 26.4562 15.2357 26.4165 15.646 26.3642C16.2005 26.2935 16.766 26.2044 17.2033 25.7888C17.4414 25.5624 17.5391 25.2848 17.6136 24.9566H17.6125ZM12.0716 26.0233C12.0325 26.2211 12.098 26.2734 12.2125 26.3941C12.4665 26.6608 12.8087 26.8407 13.0844 27.0832C13.1604 27.1505 13.1562 27.2672 13.2903 27.2223C13.3685 27.1959 13.6299 26.655 13.6705 26.5435C13.6858 26.5016 13.6753 26.4424 13.6901 26.3923C13.7392 26.2308 13.8675 26.105 13.7149 25.9061C13.5021 25.9952 13.4118 26.0446 13.2169 25.8751C12.8969 25.5974 13.002 24.8928 12.965 24.4824C12.9307 24.0984 12.7697 23.6122 12.5906 23.2805C12.4312 22.9857 12.2236 22.6983 12.0013 22.4563C11.4928 23.0052 11.12 23.6967 11.0381 24.4824C10.9954 24.8951 11.1231 25.8538 10.6173 25.9785C10.4097 26.0297 10.1964 25.7204 10.2175 26.1498C10.2207 26.213 10.3184 26.5136 10.3458 26.586C10.3902 26.7039 10.5887 27.1154 10.6664 27.1855C10.697 27.2131 10.7155 27.2327 10.7593 27.2281C10.9293 27.0873 11.0941 26.9367 11.2668 26.8004C11.3745 26.7154 11.4923 26.6585 11.6047 26.5648C11.7579 26.4372 11.9976 26.2544 11.9321 26.0233C11.61 26.0136 11.3455 25.5618 11.6317 25.3008C11.8038 25.1439 11.8519 25.2388 12.0018 25.2388C12.1397 25.2388 12.1523 25.1508 12.324 25.2664C12.6582 25.4928 12.428 26.0176 12.071 26.0233H12.0716ZM12.0145 29.5542C12.1397 29.0467 12.3382 28.5225 12.6007 28.0799C12.6709 27.9615 13.0157 27.5252 13.0163 27.4425C13.0173 27.3189 12.6133 27.0913 12.504 26.9959C12.4016 26.9062 12.3229 26.7901 12.2389 26.7096C12.1698 26.643 12.0774 26.5763 12.0013 26.5177C11.9253 26.5125 11.6063 26.8941 11.5255 26.9671C11.394 27.0855 11.1136 27.2309 11.0239 27.3407C10.9948 27.3758 10.9816 27.3896 10.9822 27.4419C10.9832 27.5287 11.3048 27.9327 11.3761 28.0506C11.6095 28.438 11.8117 28.9058 11.9221 29.353L12.0145 29.5536V29.5542ZM10.2133 28.2828C10.2455 28.0971 10.2709 27.9322 10.3564 27.7632C10.4155 27.6471 10.5328 27.5827 10.5106 27.443C10.4984 27.3666 10.3068 27.2378 10.2376 27.1924C9.92075 26.9861 9.52839 26.8303 9.17882 26.7642C9.09697 26.7487 8.89577 26.6407 8.85089 26.7855C8.80864 26.9211 8.90581 27.0304 8.78435 27.2591C8.48072 27.831 7.83912 27.554 7.38128 27.5143C6.87329 27.4701 6.52635 27.5839 6.10126 27.8735C5.90693 28.1753 6.33044 28.0397 6.48199 28.0615C6.76134 28.1017 7.14154 28.2943 7.36544 28.4794L7.67119 28.7817C7.82697 28.7995 7.978 28.5696 8.10949 28.4794C8.52982 28.1914 9.32087 28.0931 9.80457 28.2098C9.91863 28.2374 10.0475 28.4098 10.2128 28.2828H10.2133ZM14.9659 26.7142C14.6184 26.7602 14.0777 26.989 13.7661 27.1924C13.6816 27.2476 13.445 27.3879 13.4773 27.5143C13.4899 27.5632 13.6045 27.689 13.6441 27.7661C13.6689 27.8149 13.7408 27.9764 13.7513 28.023C13.7946 28.2167 13.7027 28.3725 14.0022 28.3115C14.0851 28.2943 14.1373 28.2242 14.1986 28.2092C14.6401 28.1029 15.3693 28.1868 15.7749 28.4075C15.9138 28.4834 16.1926 28.7966 16.304 28.7794C16.3415 28.7736 16.6742 28.4414 16.7592 28.3811C16.9356 28.2563 17.2931 28.0966 17.4995 28.0661C17.6611 28.0425 18.0989 28.1701 17.9019 27.873C17.5455 27.6488 17.2587 27.4982 16.8331 27.5005C16.5094 27.5022 16.1889 27.6241 15.8831 27.6298C15.5774 27.6356 15.1449 27.381 15.1317 27.0079C15.1269 26.8729 15.2378 26.6774 14.9653 26.7136L14.9659 26.7142ZM11.8276 30.2123C11.8566 30.1077 11.8609 30.0336 11.8445 29.9266C11.8281 29.8197 11.7716 29.7669 11.7568 29.7059C11.6919 29.4346 11.6581 29.253 11.5498 28.9829C11.3624 28.5161 11.1115 28.0529 10.7836 27.6885C10.7044 27.6735 10.5254 28.0155 10.5011 28.0937C10.4868 28.1391 10.4298 28.4087 10.4287 28.4495C10.4261 28.5437 10.4784 28.5943 10.4847 28.6782C10.5127 29.0478 10.1684 28.6466 10.0422 28.6127C8.85353 28.292 7.90037 29.5743 8.66237 30.6319C8.80917 30.8359 9.2237 31.209 9.26806 31.467C9.30291 31.6728 9.27704 31.9481 9.15083 32.1131C9.05472 32.239 8.88521 32.2453 8.92957 32.4246C8.95333 32.466 9.27017 32.4712 9.32245 32.443C9.40747 32.3976 9.41011 32.0913 9.47981 31.9895C9.57328 31.8527 9.81672 31.8596 9.93025 31.9533C10.1568 32.1401 10.2487 32.4137 9.99573 32.6292C9.86952 32.7367 9.69104 32.7247 9.71903 32.9574C9.76814 33.3684 10.1811 33.9001 10.4715 34.1518C10.5333 34.2058 10.6754 34.3317 10.7482 34.2823C10.8237 34.1306 10.9436 34.0127 11.0339 33.8748C11.1136 33.7523 11.4627 33.1247 11.4595 33.0172C11.4574 32.95 11.3243 32.7534 11.3085 32.666C11.2937 32.5861 11.3169 32.5045 11.2905 32.4269C11.0138 32.3442 10.6928 32.22 10.6268 31.8815L10.6864 31.7998C10.951 31.8573 11.2636 31.7194 11.4337 31.4935C11.497 31.409 11.7843 30.8296 11.628 30.7888C11.3861 30.8716 11.1263 30.6733 11.2087 30.3859C11.3037 30.0525 11.7838 30.2525 11.8281 30.2117L11.8276 30.2123ZM15.0752 32.4258C15.1412 32.32 14.7816 32.0947 14.7409 31.9182C14.5635 31.1544 15.3112 30.8796 15.5209 30.2807C15.646 29.9226 15.6265 29.6726 15.4871 29.3243C15.2246 28.6685 14.5783 28.4294 13.962 28.6127C13.8606 28.6426 13.6198 28.8829 13.5443 28.8237C13.4625 28.7024 13.5734 28.5633 13.5707 28.4512C13.5697 28.4115 13.5206 28.1615 13.5068 28.1173C13.4788 28.0236 13.2956 27.654 13.1932 27.6885C13.125 27.7109 12.6878 28.4512 12.6292 28.5707C12.4343 28.9685 12.3557 29.2852 12.2405 29.6996C12.2215 29.768 12.1629 29.81 12.1492 29.9163C12.1365 30.0134 12.1418 30.1215 12.1761 30.2123C12.3784 30.1933 12.6852 30.1129 12.7797 30.3744C12.8267 30.5043 12.8156 30.5698 12.7411 30.6762C12.5737 30.9158 12.4507 30.7342 12.3615 30.7946C12.3271 30.8756 12.3187 30.963 12.3435 31.0503C12.362 31.1159 12.5046 31.3969 12.5473 31.4607C12.6683 31.6412 12.9312 31.8067 13.1367 31.8188C13.2079 31.8228 13.3389 31.7314 13.3616 31.8682C13.4076 32.1413 12.917 32.3919 12.7126 32.4269C12.6899 32.5034 12.7068 32.5792 12.6889 32.6597C12.6646 32.7701 12.5574 32.9149 12.5463 32.9954C12.5151 33.2236 13.1034 34.0777 13.2549 34.2829C13.3305 34.3352 13.5211 34.1512 13.5839 34.0943C13.8601 33.8414 14.2081 33.3724 14.2783 32.9816C14.3375 32.6534 13.8971 32.735 13.8606 32.3855C13.8422 32.2056 13.9758 31.9953 14.1115 31.9079C14.1363 31.8918 14.3164 31.8786 14.3475 31.882C14.6174 31.9119 14.574 32.3855 14.6797 32.4424C14.7314 32.47 15.0488 32.4649 15.0736 32.4252L15.0752 32.4258ZM12.9576 34.6323C12.974 34.6162 13.0384 34.4973 13.0416 34.4766C13.0527 34.4007 12.7992 34.1242 12.7427 34.0357C12.6672 33.9167 12.5801 33.7535 12.512 33.6259C12.465 33.5374 12.4153 33.3006 12.3182 33.3006C12.2395 33.3006 12.0869 33.5828 12.0013 33.6351C11.8915 33.5724 11.7394 33.2126 11.6201 33.3345C11.5324 33.5311 11.4395 33.7265 11.3286 33.9093C11.2177 34.092 11.0857 34.2541 10.9573 34.4277C10.9536 34.6312 11.1585 34.6864 11.2758 34.799C11.5815 35.0927 11.8228 35.4422 11.9886 35.848L12.2569 35.3502C12.4132 35.1416 12.5822 34.9358 12.7675 34.7565C12.824 34.7019 12.9175 34.6714 12.9571 34.6318L12.9576 34.6323ZM11.7183 37.0625C11.6956 37.0337 11.4981 36.9832 11.4231 36.9096C11.2414 36.7314 11.2568 36.3498 11.477 36.2256C11.5921 36.1607 11.7684 36.2538 11.7769 36.0618C11.7838 35.9009 11.4067 35.3215 11.289 35.187C11.2346 35.1249 10.7963 34.7272 10.7609 34.7272C10.6225 34.7611 10.5682 34.9197 10.4842 35.0019C9.97566 35.4991 9.35836 35.8658 8.83346 36.3377C8.68138 36.4745 8.56573 36.663 8.39517 36.7803C8.29906 37.0493 8.5462 36.8809 8.67293 36.882C9.03677 36.8855 9.36733 37.1424 9.49249 37.5154C9.65777 38.0097 9.18198 38.5379 8.97287 38.9322C8.74792 39.3558 8.66976 39.6771 8.71254 40.1749C8.74739 40.5778 9.27809 40.9112 9.62397 40.9359C9.76655 40.9462 9.87375 40.9284 10.0089 40.8893C10.0739 40.9394 10.0169 41.3469 10.0464 41.4819C10.2344 42.3315 11.1633 42.8292 11.6845 43.435C11.7848 43.5517 11.8445 43.7661 12.0277 43.754C12.1545 43.7454 12.2775 43.454 12.3694 43.3477C12.9117 42.7211 13.9847 42.2366 13.9689 41.2066C13.9673 41.0945 13.9103 40.9968 13.9689 40.8778C14.3681 41.0635 15.0509 40.7997 15.223 40.3611C15.297 40.1726 15.298 39.6961 15.2553 39.4898C15.0894 38.6868 13.9171 37.8804 14.8001 37.0843C14.9574 36.9424 15.1206 36.8797 15.3276 36.8803C15.41 36.8803 15.8023 37.032 15.579 36.7527C15.0879 36.1394 14.14 35.5922 13.5454 35.0289C13.4303 34.9197 13.322 34.6496 13.1509 34.772C12.8425 34.9921 12.3847 35.5485 12.2574 35.9262C12.1302 36.3038 12.4217 36.1262 12.5558 36.2503C12.786 36.4636 12.7422 36.8176 12.4819 36.9751C12.3757 37.0395 12.2495 37.0056 12.2506 37.1849C12.2506 37.2114 12.3461 37.4781 12.3641 37.5223C12.4771 37.7971 12.7258 38.1735 12.9555 38.3442C13.1055 38.4552 13.4266 38.4529 13.2153 38.6937C13.1171 38.8064 12.8299 38.9437 12.6894 38.9236C12.6229 38.9144 12.5568 38.8012 12.4655 38.8397C12.3504 39.1564 12.2564 39.5041 12.0013 39.73C11.9395 39.73 11.7901 39.4863 11.7552 39.4208C11.6972 39.3127 11.5662 38.8966 11.5282 38.8633C11.4305 38.7776 11.374 38.9156 11.2868 38.9225C11.1369 38.934 10.7303 38.7512 10.7197 38.5615C10.7128 38.4362 10.876 38.4442 10.9637 38.3983C11.2208 38.2626 11.5303 37.7827 11.6407 37.497C11.6787 37.3987 11.7843 37.1464 11.7167 37.0619L11.7183 37.0625Z" fill="#C6A264"/>
</svg>
