<svg width="40" height="40" viewBox="0 0 40 40" fill="none" xmlns="http://www.w3.org/2000/svg">
<path d="M0 6C0 2.68629 2.68629 0 6 0H34C37.3137 0 40 2.68629 40 6V34C40 37.3137 37.3137 40 34 40H6C2.68629 40 0 37.3137 0 34V6Z" fill="#C6A264"/>
<path d="M25.4544 17.0178C25.7759 16.9374 26.1016 17.1329 26.182 17.4544C26.2624 17.7758 26.0669 18.1016 25.7454 18.182L22.5454 18.982C22.2239 19.0623 21.8982 18.8669 21.8178 18.5454C21.7374 18.2239 21.9329 17.8982 22.2544 17.8178L25.4544 17.0178Z" fill="white"/>
<path d="M25.4544 20.2178C25.7759 20.1374 26.1016 20.3329 26.182 20.6544C26.2624 20.9758 26.0669 21.3016 25.7454 21.382L22.5454 22.182C22.2239 22.2623 21.8982 22.0669 21.8178 21.7454C21.7374 21.4239 21.9329 21.0982 22.2544 21.0178L25.4544 20.2178Z" fill="white"/>
<path d="M13.8178 17.4544C13.8982 17.1329 14.2239 16.9374 14.5454 17.0178L17.7454 17.8178C18.0669 17.8982 18.2624 18.2239 18.182 18.5454C18.1016 18.8669 17.7759 19.0623 17.4544 18.982L14.2544 18.182C13.9329 18.1016 13.7374 17.7758 13.8178 17.4544Z" fill="white"/>
<path d="M13.8178 20.6544C13.8982 20.3329 14.2239 20.1374 14.5454 20.2178L17.7454 21.0178C18.0669 21.0982 18.2624 21.4239 18.182 21.7454C18.1016 22.0669 17.7759 22.2623 17.4544 22.182L14.2544 21.382C13.9329 21.3016 13.7374 20.9758 13.8178 20.6544Z" fill="white"/>
<path fill-rule="evenodd" clip-rule="evenodd" d="M28.5999 14.3464C28.5999 13.1758 27.6676 12.1718 26.4446 12.2144C25.5339 12.2462 24.3436 12.3409 23.4278 12.615C22.6318 12.8534 21.7364 13.3188 21.0384 13.7228C20.384 14.1016 19.5692 14.1204 18.9062 13.7698C18.1098 13.3487 17.062 12.8496 16.153 12.6097C15.3843 12.4069 14.412 12.3094 13.6226 12.2609C12.376 12.1843 11.3999 13.1988 11.3999 14.3981V23.3147C11.3999 24.5437 12.3949 25.5032 13.5743 25.577C14.3413 25.6249 15.2044 25.7172 15.8468 25.8867C16.6409 26.0962 17.6228 26.5621 18.4156 26.9847C19.4022 27.5107 20.5976 27.5107 21.5842 26.9847C22.377 26.5621 23.3589 26.0962 24.153 25.8867C24.7954 25.7172 25.6585 25.6249 26.4255 25.577C27.6049 25.5032 28.5999 24.5437 28.5999 23.3147V14.3464ZM26.4864 13.4137C26.9782 13.3966 27.3999 13.8012 27.3999 14.3464V23.3147C27.3999 23.8633 26.9453 24.3421 26.3506 24.3793C25.5665 24.4283 24.6072 24.5258 23.8468 24.7264C22.9105 24.9735 21.8261 25.496 21.0197 25.9258C20.8851 25.9976 20.7443 26.0541 20.5999 26.0953V15.1535C20.9618 15.0811 21.3136 14.95 21.6395 14.7614C22.3199 14.3676 23.1158 13.9611 23.772 13.7646C24.5313 13.5373 25.5913 13.4449 26.4864 13.4137ZM19.3999 15.1799C19.0359 15.1233 18.6791 15.0072 18.3452 14.8307C17.5638 14.4175 16.6165 13.9731 15.8468 13.77C15.197 13.5985 14.3218 13.5062 13.549 13.4587C13.0418 13.4275 12.5999 13.8404 12.5999 14.3981V23.3147C12.5999 23.8633 13.0545 24.3421 13.6492 24.3793C14.4333 24.4283 15.3926 24.5258 16.153 24.7264C17.0893 24.9735 18.1737 25.496 18.9801 25.9258C19.1147 25.9976 19.2555 26.0541 19.3999 26.0953V15.1799Z" fill="white"/>
</svg>
