<svg width="40" height="40" viewBox="0 0 40 40" fill="none" xmlns="http://www.w3.org/2000/svg">
<path d="M0 6C0 2.68629 2.68629 0 6 0H34C37.3137 0 40 2.68629 40 6V34C40 37.3137 37.3137 40 34 40H6C2.68629 40 0 37.3137 0 34V6Z" fill="#C6A264"/>
<path fill-rule="evenodd" clip-rule="evenodd" d="M17.9714 12.6564C19.2696 12.0478 20.7302 12.0478 22.0284 12.6564L27.3813 15.166C28.2232 15.5607 28.5999 16.4177 28.5999 17.2C28.5999 17.9822 28.2231 18.8393 27.3813 19.2339L26.1999 19.7878V23.7003C26.1999 24.7027 25.6973 25.6706 24.7823 26.1773C24.1809 26.5103 23.3906 26.9113 22.559 27.2303C21.7371 27.5456 20.827 27.8 19.9999 27.8C19.1728 27.8 18.2627 27.5456 17.4408 27.2303C16.6092 26.9113 15.8189 26.5103 15.2175 26.1773C14.3025 25.6706 13.7999 24.7027 13.7999 23.7003V19.7878L12.6185 19.2339L12.5999 19.2251V21.6C12.5999 21.9313 12.3313 22.2 11.9999 22.2C11.6685 22.2 11.3999 21.9313 11.3999 21.6V17.2C11.3999 16.4177 11.7767 15.5606 12.6185 15.166L17.9714 12.6564ZM14.9999 20.3504V23.7003C14.9999 24.3107 15.3029 24.8529 15.7988 25.1275C16.3722 25.445 17.1093 25.8179 17.8707 26.1099C18.6418 26.4058 19.3902 26.6 19.9999 26.6C20.6096 26.6 21.358 26.4058 22.1291 26.1099C22.8905 25.8179 23.6276 25.445 24.201 25.1275C24.6969 24.8529 24.9999 24.3107 24.9999 23.7003V20.3504L22.0284 21.7435C20.7302 22.3521 19.2696 22.3521 17.9715 21.7435L14.9999 20.3504ZM13.1279 18.1474C12.8053 17.9962 12.5999 17.6355 12.5999 17.1999C12.5999 16.7644 12.8053 16.4037 13.1279 16.2525L18.4808 13.7429C19.4562 13.2856 20.5435 13.2856 21.519 13.7429L26.8719 16.2525C27.1945 16.4037 27.3999 16.7644 27.3999 17.2C27.3999 17.6355 27.1945 17.9962 26.8719 18.1474L21.519 20.657C20.5436 21.1143 19.4563 21.1143 18.4808 20.657L13.1279 18.1474Z" fill="white"/>
</svg>
