<svg width="40" height="40" viewBox="0 0 40 40" fill="none" xmlns="http://www.w3.org/2000/svg">
<path d="M0 6C0 2.68629 2.68629 0 6 0H34C37.3137 0 40 2.68629 40 6V34C40 37.3137 37.3137 40 34 40H6C2.68629 40 0 37.3137 0 34V6Z" fill="#C6A264"/>
<path fill-rule="evenodd" clip-rule="evenodd" d="M19.1551 11.3999H20.8453C22.3155 11.3999 23.48 11.3999 24.3914 11.5224C25.3294 11.6485 26.0885 11.9142 26.6872 12.5129C27.2859 13.1116 27.5516 13.8707 27.6777 14.8087C27.8002 15.7201 27.8002 16.8846 27.8002 18.3548V21.645C27.8002 23.1152 27.8002 24.2797 27.6777 25.1911C27.5516 26.1291 27.2859 26.8882 26.6872 27.4869C26.0885 28.0856 25.3294 28.3513 24.3914 28.4774C23.48 28.5999 22.3155 28.5999 20.8453 28.5999H19.1551C17.6849 28.5999 16.5203 28.5999 15.609 28.4774C14.671 28.3513 13.9119 28.0856 13.3132 27.4869C12.7145 26.8882 12.4488 26.1291 12.3227 25.1911C12.2002 24.2797 12.2002 23.1152 12.2002 21.645V18.3548C12.2002 16.8846 12.2002 15.7201 12.3227 14.8087C12.4488 13.8707 12.7145 13.1116 13.3132 12.5129C13.9119 11.9142 14.671 11.6485 15.609 11.5224C16.5203 11.3999 17.6849 11.3999 19.1551 11.3999ZM15.7689 12.7117C14.964 12.8199 14.5003 13.0229 14.1617 13.3614C13.8232 13.7 13.6202 14.1637 13.512 14.9686C13.4015 15.7907 13.4002 16.8744 13.4002 18.3999V21.5999C13.4002 23.1254 13.4015 24.2091 13.512 25.0312C13.6202 25.8361 13.8232 26.2998 14.1617 26.6384C14.5003 26.9769 14.964 27.1799 15.7689 27.2881C16.591 27.3986 17.6747 27.3999 19.2002 27.3999H20.8002C22.3257 27.3999 23.4094 27.3986 24.2315 27.2881C25.0364 27.1799 25.5001 26.9769 25.8387 26.6384C26.1772 26.2998 26.3802 25.8361 26.4884 25.0312C26.5989 24.2091 26.6002 23.1254 26.6002 21.5999V18.3999C26.6002 16.8744 26.5989 15.7907 26.4884 14.9686C26.3802 14.1637 26.1772 13.7 25.8387 13.3614C25.5001 13.0229 25.0364 12.8199 24.2315 12.7117C23.4094 12.6012 22.3257 12.5999 20.8002 12.5999H19.2002C17.6747 12.5999 16.591 12.6012 15.7689 12.7117ZM16.2002 16.7999C16.2002 16.4685 16.4688 16.1999 16.8002 16.1999H23.2002C23.5316 16.1999 23.8002 16.4685 23.8002 16.7999C23.8002 17.1313 23.5316 17.3999 23.2002 17.3999H16.8002C16.4688 17.3999 16.2002 17.1313 16.2002 16.7999ZM16.2002 19.9999C16.2002 19.6685 16.4688 19.3999 16.8002 19.3999H23.2002C23.5316 19.3999 23.8002 19.6685 23.8002 19.9999C23.8002 20.3313 23.5316 20.5999 23.2002 20.5999H16.8002C16.4688 20.5999 16.2002 20.3313 16.2002 19.9999ZM16.2002 23.1999C16.2002 22.8685 16.4688 22.5999 16.8002 22.5999H20.8002C21.1316 22.5999 21.4002 22.8685 21.4002 23.1999C21.4002 23.5313 21.1316 23.7999 20.8002 23.7999H16.8002C16.4688 23.7999 16.2002 23.5313 16.2002 23.1999Z" fill="white"/>
</svg>
