<svg width="40" height="40" viewBox="0 0 40 40" fill="none" xmlns="http://www.w3.org/2000/svg">
<path d="M0 6C0 2.68629 2.68629 0 6 0H34C37.3137 0 40 2.68629 40 6V34C40 37.3137 37.3137 40 34 40H6C2.68629 40 0 37.3137 0 34V6Z" fill="#C6A264"/>
<path fill-rule="evenodd" clip-rule="evenodd" d="M19.4334 13.0464C19.1184 13.4577 18.7629 14.0923 18.2464 15.0187L17.9843 15.489C17.9685 15.5174 17.9529 15.5455 17.9374 15.5733C17.6968 16.0062 17.4938 16.3717 17.1666 16.62C16.8358 16.8711 16.4327 16.9617 15.9641 17.067C15.934 17.0738 15.9036 17.0806 15.8729 17.0875L15.3639 17.2027C14.3596 17.43 13.6764 17.5863 13.2085 17.7707C12.7518 17.9507 12.6554 18.0981 12.6187 18.2163C12.5799 18.3409 12.5788 18.5317 12.8518 18.9653C13.1288 19.4055 13.5963 19.9545 14.2799 20.7539L14.627 21.1597C14.6471 21.1833 14.6671 21.2066 14.6869 21.2297C15.0093 21.6058 15.2781 21.9194 15.4014 22.3159C15.524 22.7101 15.4834 23.1242 15.4341 23.6264C15.4311 23.6572 15.4281 23.6883 15.425 23.7198L15.3725 24.2613C15.2693 25.327 15.1996 26.0608 15.2232 26.5895C15.2467 27.1171 15.3581 27.2629 15.4467 27.3302C15.5255 27.39 15.6712 27.4562 16.1458 27.3202C16.6281 27.182 17.2691 26.8888 18.2094 26.4558L18.6861 26.2364C18.7154 26.2229 18.7445 26.2094 18.7733 26.1961C19.2092 25.9946 19.5873 25.8198 19.9998 25.8198C20.4124 25.8198 20.7905 25.9946 21.2263 26.1961C21.2551 26.2094 21.2842 26.2229 21.3136 26.2364L21.7902 26.4558C22.7306 26.8888 23.3716 27.182 23.8538 27.3202C24.3284 27.4562 24.4741 27.39 24.5529 27.3302C24.6415 27.2629 24.753 27.1171 24.7765 26.5895C24.8 26.0608 24.7304 25.327 24.6271 24.2613L24.5746 23.7198C24.5716 23.6883 24.5685 23.6572 24.5655 23.6264C24.5162 23.1242 24.4756 22.7101 24.5982 22.3159C24.7215 21.9194 24.9903 21.6058 25.3127 21.2297C25.3325 21.2066 25.3525 21.1833 25.3727 21.1597L25.7197 20.7539C26.4034 19.9545 26.8708 19.4055 27.1479 18.9653C27.4209 18.5317 27.4197 18.3409 27.3809 18.2163C27.3442 18.0981 27.2478 17.9507 26.7912 17.7707C26.3232 17.5863 25.64 17.43 24.6358 17.2027L24.1267 17.0875C24.096 17.0806 24.0657 17.0738 24.0355 17.067C23.567 16.9617 23.1638 16.8711 22.8331 16.62C22.5059 16.3717 22.3028 16.0062 22.0622 15.5733C22.0468 15.5455 22.0312 15.5174 22.0154 15.489L21.7532 15.0187C21.2368 14.0923 20.8812 13.4577 20.5663 13.0464C20.2516 12.6354 20.0908 12.5999 19.9998 12.5999C19.9088 12.5999 19.7481 12.6354 19.4334 13.0464ZM18.4807 12.3168C18.862 11.8188 19.3333 11.3999 19.9998 11.3999C20.6663 11.3999 21.1376 11.8188 21.519 12.3168C21.8937 12.8061 22.291 13.5189 22.7766 14.3901L23.0635 14.9047C23.3775 15.4681 23.4579 15.5878 23.5587 15.6643C23.6556 15.7379 23.7808 15.7789 24.3915 15.9171L24.9515 16.0438C25.892 16.2566 26.6669 16.4319 27.2311 16.6543C27.8169 16.8851 28.3295 17.2253 28.5268 17.8599C28.7221 18.488 28.5026 19.0658 28.1634 19.6046C27.8338 20.1282 27.3074 20.7438 26.6643 21.4957L26.2847 21.9396C25.8711 22.4233 25.7847 22.5416 25.7441 22.6722C25.7027 22.8054 25.7065 22.9593 25.769 23.6041L25.8263 24.1946C25.9236 25.1994 26.0031 26.0188 25.9753 26.6429C25.947 27.278 25.8027 27.888 25.2785 28.286C24.7445 28.6914 24.1231 28.6457 23.5233 28.4738C22.9417 28.3072 22.2166 27.9733 21.3362 27.5679L20.8117 27.3264C20.2378 27.0621 20.115 27.0198 19.9998 27.0198C19.8847 27.0198 19.7618 27.0621 19.1879 27.3264L18.6634 27.5679C17.783 27.9733 17.0579 28.3072 16.4763 28.4738C15.8765 28.6457 15.2552 28.6914 14.7211 28.286C14.1969 27.888 14.0527 27.278 14.0244 26.6429C13.9966 26.0188 14.076 25.1994 14.1734 24.1946L14.2306 23.6041C14.2931 22.9593 14.297 22.8054 14.2556 22.6722C14.215 22.5416 14.1286 22.4233 13.715 21.9396L13.3354 21.4958C12.6923 20.7438 12.1658 20.1282 11.8362 19.6046C11.497 19.0658 11.2775 18.488 11.4728 17.8599C11.6702 17.2253 12.1827 16.8851 12.7685 16.6543C13.3328 16.4319 14.1076 16.2566 15.0481 16.0438L15.099 16.0323L15.6081 15.9171C16.2189 15.7789 16.344 15.7379 16.441 15.6643C16.5417 15.5878 16.6221 15.4681 16.9361 14.9047L17.223 14.3901C17.7086 13.5189 18.1059 12.8061 18.4807 12.3168Z" fill="white"/>
</svg>
