<?xml version="1.0" encoding="UTF-8"?>
<svg id="Layer_2" data-name="Layer 2" xmlns="http://www.w3.org/2000/svg" viewBox="0 0 70 70">
  <defs>
    <style>
      .cls-1 {
        fill: #03683c;
      }
    </style>
  </defs>
  <g id="Layer_1-2" data-name="Layer 1">
    <g id="jHtZ6Y">
      <g>
        <path class="cls-1" d="M14.63,57.54C-2.76,41.55,3.87,12.45,26.37,5.94c23.41-6.78,45.47,15.53,37.21,39.15-7.07,20.23-33.23,26.93-48.95,12.45ZM26.16,12.64c-11.66.24-11.24,18.25.77,17.57,11.15-.63,10.47-17.8-.77-17.57ZM41.79,19.68c-8.11,8.52,4.86,20.23,12.66,12.11s-4.4-20.78-12.66-12.11ZM37.81,37.9c2.92-3.26-.96-8.54-5.13-5.92-4.83,3.03,1.14,10.37,5.13,5.92ZM20.44,35.77c-6.57.9-9.62,9.04-5.34,14.22,3.7,4.49,11.19,4.15,14.2-.92,3.97-6.69-1.36-14.34-8.85-13.31ZM42.99,39.81c-11.45.92-10.17,18.66,1.62,17.55,11.15-1.05,9.81-18.47-1.62-17.55Z"/>
        <path class="cls-1" d="M67.85,30.49l-2.06-7.59c-1.64-3.95-3.86-7.39-6.63-10.62l-3.57-3.46c5.03,1.52,10.37,1.81,13.12,7.07s.33,9.27-.87,14.6Z"/>
        <path class="cls-1" d="M40.19,68.06l6.92-2.09c5.57-2.27,10.32-6.03,14.18-10.63-1.49,4.59-1.64,9.65-5.9,12.66-5.12,3.62-9.82,1.48-15.21.05Z"/>
        <path class="cls-1" d="M29.64,1.88l-6.92,2.09c-5.23,2.07-9.94,5.48-13.61,9.76C10.2,7.6,11.74,2.16,18.29.35c4.2-1.16,7.25.91,11.34,1.53Z"/>
        <path class="cls-1" d="M13.95,61.12c-4.75-1.38-9.72-1.82-12.49-6.56-2.94-5.03-.67-8.84.23-13.96l2.43,7.5c2.18,5.15,5.67,9.39,9.83,13.01Z"/>
      </g>
    </g>
  </g>
</svg>