<?xml version="1.0" encoding="UTF-8"?>
<svg id="Layer_2" data-name="Layer 2" xmlns="http://www.w3.org/2000/svg" viewBox="0 0 70 70">
  <defs>
    <style>
      .cls-1 {
        fill: #fff;
      }
    </style>
  </defs>
  <g id="Layer_1-2" data-name="Layer 1">
    <g id="YOJMJ6">
      <path class="cls-1" d="M1.34,1c2.61-2.45,5.82.2,8.09,1.74.81.55,4.85,3.77,5.3,3.76,20.02-14.35,48.7-3.72,54.29,20.39,7.55,32.56-30.32,56.19-56.14,35.12C-5.48,47.02,1.63,24.22.23,3.5c.01-.84.51-1.94,1.11-2.5ZM54.01,32.01c1.56-1.63,3.16-3.19,3.37-5.59.55-6.36-6.51-9.88-11.35-5.89-5.09,5.27-10.54,10.24-15.48,15.68-3.13-2.12-5.99-7.47-10.06-7.85-5.53-.51-8.89,4.16-7.42,8.85.3.95.8,1.82,1.43,2.59,5.53,6.74,12.12,17.24,20.26,11.37,6.19-6.59,13-12.63,19.24-19.16Z"/>
    </g>
  </g>
</svg>