<svg width="35" height="33" viewBox="0 0 35 33" fill="none" xmlns="http://www.w3.org/2000/svg">
<g clip-path="url(#clip0_1_538)">
<path d="M0 6.48911C0.0611856 6.20144 0.116892 5.91376 0.182644 5.62792C0.9534 2.33709 3.76611 0.0320328 7.13315 0.0201227C14.048 -0.00247581 20.9626 -0.00247581 27.8769 0.0201227C31.9937 0.0393621 35.1826 3.48503 34.9927 7.60866C34.8201 11.3347 31.6786 14.4047 27.9682 14.4368C25.2459 14.4606 22.5236 14.4432 19.8004 14.4441H19.5483V14.0657C19.5483 12.2948 19.5584 10.523 19.5483 8.75202C19.5426 7.66711 19.1535 6.6194 18.4503 5.79512C17.7471 4.97084 16.7754 4.4234 15.7078 4.2501C14.6403 4.07681 13.546 4.28888 12.6196 4.84862C11.6932 5.40837 10.9947 6.27952 10.6481 7.30724C10.4916 7.79541 10.4088 8.30432 10.4025 8.81707C10.3732 10.5578 10.3915 12.2911 10.3915 14.0282V14.3836C10.3486 14.4111 10.3294 14.4322 10.3121 14.4322C8.95776 14.4157 7.59432 14.4917 6.25098 14.3607C3.26384 14.0703 0.680348 11.593 0.139722 8.62651C0.0913218 8.39655 0.0456609 8.16293 0 7.92931V6.48911ZM24.9993 8.15377C24.5811 7.72959 24.1775 7.31457 23.7665 6.90688C23.2944 6.43597 22.6706 6.40299 22.2469 6.81526C21.8232 7.22753 21.8405 7.87068 22.3264 8.36174C22.9437 8.98656 23.5638 9.60863 24.1866 10.228C24.7272 10.7676 25.2943 10.7776 25.8304 10.2389C27.1442 8.92762 28.4577 7.61202 29.7709 6.29214C30.2467 5.8139 30.2695 5.19825 29.8403 4.76857C29.4111 4.33889 28.7883 4.37737 28.3207 4.84369C27.3089 5.85147 26.3007 6.86107 25.2961 7.87251C25.2048 7.95954 25.1135 8.04292 24.9993 8.15377Z" fill="white"/>
<path d="M17.4986 16.6531C18.3451 16.7447 19.1698 16.8263 19.9944 16.9142C21.42 17.0681 22.8519 17.1836 24.2701 17.3897C25.6399 17.5894 26.7276 18.7273 26.7641 20.129C26.8317 22.6869 26.7833 25.2467 26.7833 27.8559H26.4107C21.6729 27.8559 16.9345 27.8534 12.1955 27.8485C12.0075 27.8478 11.8246 27.7872 11.6732 27.6754C10.047 26.3317 8.42821 24.9788 6.81668 23.6168C6.05414 22.9755 5.77104 22.129 6.00848 21.1551C6.24592 20.1812 6.88974 19.5701 7.86323 19.3539C8.67234 19.1707 9.39104 19.4061 10.0202 19.9421C10.7152 20.5339 11.4175 21.1157 12.1207 21.7011C12.2056 21.7726 12.2951 21.8395 12.443 21.9576V21.5408C12.443 17.3124 12.443 13.0844 12.443 8.8566C12.443 7.65826 13.1663 6.67339 14.2567 6.35824C14.6353 6.24581 15.0349 6.2241 15.4234 6.29485C15.8119 6.36559 16.1784 6.52682 16.4935 6.76556C16.8086 7.00429 17.0634 7.31388 17.2375 7.66942C17.4116 8.02496 17.5001 8.41653 17.4959 8.81262C17.5096 11.2807 17.4959 13.7489 17.5004 16.217L17.4986 16.6531Z" fill="white"/>
<path d="M26.7898 29.9409C26.7898 30.6647 26.8089 31.361 26.7825 32.0554C26.7642 32.5373 26.3916 32.902 25.9158 32.9716C25.7802 32.9899 25.6435 32.9982 25.5067 32.9963C21.5792 32.9963 17.6524 32.9963 13.7262 32.9963C13.3527 32.9963 12.9782 32.9734 12.7317 32.6564C12.5983 32.4851 12.4696 32.2579 12.4577 32.0499C12.4239 31.3564 12.4449 30.6601 12.4449 29.9373L26.7898 29.9409Z" fill="white"/>
</g>
<defs>
<clipPath id="clip0_1_538">
<rect width="35" height="33" fill="white"/>
</clipPath>
</defs>
</svg>
