<svg width="86" height="85" viewBox="0 0 86 85" fill="none" xmlns="http://www.w3.org/2000/svg">
<rect width="86" height="84.5902" rx="42.2951" fill="#EBF0F0"/>
<path d="M54.75 55.625H32.25V53C32.25 49.25 39.75 47.1875 43.5 47.1875C47.25 47.1875 54.75 49.25 54.75 53M43.5 33.125C44.9918 33.125 46.4226 33.7176 47.4775 34.7725C48.5324 35.8274 49.125 37.2582 49.125 38.75C49.125 40.2418 48.5324 41.6726 47.4775 42.7275C46.4226 43.7824 44.9918 44.375 43.5 44.375C42.0082 44.375 40.5774 43.7824 39.5225 42.7275C38.4676 41.6726 37.875 40.2418 37.875 38.75C37.875 37.2582 38.4676 35.8274 39.5225 34.7725C40.5774 33.7176 42.0082 33.125 43.5 33.125ZM43.5 25.625C43.9973 25.625 44.4742 25.8225 44.8258 26.1742C45.1775 26.5258 45.375 27.0027 45.375 27.5C45.375 27.9973 45.1775 28.4742 44.8258 28.8258C44.4742 29.1775 43.9973 29.375 43.5 29.375C43.0027 29.375 42.5258 29.1775 42.1742 28.8258C41.8225 28.4742 41.625 27.9973 41.625 27.5C41.625 27.0027 41.8225 26.5258 42.1742 26.1742C42.5258 25.8225 43.0027 25.625 43.5 25.625ZM56.625 25.625H48.7875C48 23.45 45.9375 21.875 43.5 21.875C41.0625 21.875 39 23.45 38.2125 25.625H30.375C29.3804 25.625 28.4266 26.0201 27.7233 26.7233C27.0201 27.4266 26.625 28.3804 26.625 29.375V55.625C26.625 56.6196 27.0201 57.5734 27.7233 58.2766C28.4266 58.9799 29.3804 59.375 30.375 59.375H56.625C57.6196 59.375 58.5734 58.9799 59.2766 58.2766C59.9799 57.5734 60.375 56.6196 60.375 55.625V29.375C60.375 28.3804 59.9799 27.4266 59.2766 26.7233C58.5734 26.0201 57.6196 25.625 56.625 25.625Z" fill="#AFB9BE"/>
</svg>
