<svg width="86" height="85" viewBox="0 0 86 85" fill="none" xmlns="http://www.w3.org/2000/svg">
<rect width="86" height="84.5902" rx="5" fill="#EBF0F0"/>
<path d="M68.0002 17V66.1796H48.3619C49.1432 63.6851 49.8807 61.1432 50.1608 58.5317C51.1843 49.0064 46.4594 42.4333 44.1455 33.7939C42.9251 29.2389 43.8902 26.9994 46.307 23.2283C47.6536 21.1275 49.0914 19.0756 50.4781 17L68.0002 17ZM62.5262 22.3906H48.8135C49.4204 28.4335 52.8482 33.6538 54.5413 39.3949C56.6918 46.6872 56.0616 52.5757 52.3223 59.1596C52.0735 59.5971 51.5534 60.2732 51.3834 60.6806C51.3593 60.738 51.3411 60.7804 51.3528 60.8451H62.5262V22.3906Z" fill="#AFB9BE"/>
<path d="M36.3967 17L36.059 19.4736L35.9992 21.254C36.1502 27.6654 39.9792 33.0754 41.73 39.0616C43.2064 44.1116 43.3348 48.992 41.6855 54.0212C40.2411 58.4253 37.5355 62.2597 35.1275 66.1796H18V17.0833L18.0846 17H36.3967ZM34.1397 22.3906H23.474V60.8451H36.9329C37.0788 60.5512 37.1218 60.1453 37.1773 59.8076C38.5086 51.7681 35.4214 45.3143 32.6859 38.0751C30.8841 33.3067 29.6199 30.0881 32.3233 25.2981C32.842 24.3792 33.5977 23.4668 34.0712 22.573C34.104 22.5113 34.1594 22.4753 34.139 22.3898L34.1397 22.3906Z" fill="#AFB9BE"/>
</svg>
