<svg width="225" height="44" viewBox="0 0 225 44" fill="none" xmlns="http://www.w3.org/2000/svg">
<mask id="path-1-inside-1_1_530" fill="white">
<path d="M219 0C222.314 0 225 2.68629 225 6V15.0176C224.848 15.0067 224.695 15 224.541 15C220.737 15 217.653 18.3579 217.653 22.5C217.653 26.6421 220.737 30 224.541 30C224.695 30 224.848 29.9923 225 29.9814V38C225 41.3137 222.314 44 219 44H6C2.68629 44 9.66414e-08 41.3137 0 38V29.9814C3.58984 29.7241 6.42871 26.4741 6.42871 22.5C6.42871 18.5259 3.58987 15.2749 0 15.0176V6C0 2.68629 2.68629 7.85187e-08 6 0H219Z"/>
</mask>
<path d="M219 0C222.314 0 225 2.68629 225 6V15.0176C224.848 15.0067 224.695 15 224.541 15C220.737 15 217.653 18.3579 217.653 22.5C217.653 26.6421 220.737 30 224.541 30C224.695 30 224.848 29.9923 225 29.9814V38C225 41.3137 222.314 44 219 44H6C2.68629 44 9.66414e-08 41.3137 0 38V29.9814C3.58984 29.7241 6.42871 26.4741 6.42871 22.5C6.42871 18.5259 3.58987 15.2749 0 15.0176V6C0 2.68629 2.68629 7.85187e-08 6 0H219Z" fill="#F7F7F7"/>
<path d="M225 6H225.5H225ZM225 15.0176L224.964 15.5163L225.5 15.5547V15.0176H225ZM224.541 15L224.541 14.5H224.541V15ZM224.541 30V30.5H224.541L224.541 30ZM225 29.9814H225.5V29.4443L224.964 29.4827L225 29.9814ZM219 44V44.5V44ZM0 38H-0.5H0ZM0 29.9814L-0.0357559 29.4827L-0.5 29.516V29.9814H0ZM0 15.0176H-0.5V15.483L-0.0357504 15.5163L0 15.0176ZM6 0V-0.5V0ZM219 0V-0.5H217.995V0V0.5H219V0ZM215.986 0V-0.5H213.976V0V0.5H215.986V0ZM211.967 0V-0.5H209.958V0V0.5H211.967V0ZM207.948 0V-0.5H205.939V0V0.5H207.948V0ZM203.929 0V-0.5H201.92V0V0.5H203.929V0ZM199.91 0V-0.5H197.901V0V0.5H199.91V0ZM195.892 0V-0.5H193.882V0V0.5H195.892V0ZM191.873 0V-0.5H189.863V0V0.5H191.873V0ZM187.854 0V-0.5H185.844V0V0.5H187.854V0ZM183.835 0V-0.5H181.825V0V0.5H183.835V0ZM179.816 0V-0.5H177.807V0V0.5H179.816V0ZM175.797 0V-0.5H173.788V0V0.5H175.797V0ZM171.778 0V-0.5H169.769V0V0.5H171.778V0ZM167.759 0V-0.5H165.75V0V0.5H167.759V0ZM163.741 0V-0.5H161.731V0V0.5H163.741V0ZM159.722 0V-0.5H157.712V0V0.5H159.722V0ZM155.703 0V-0.5H153.693V0V0.5H155.703V0ZM151.684 0V-0.5H149.675V0V0.5H151.684V0ZM147.665 0V-0.5H145.656V0V0.5H147.665V0ZM143.646 0V-0.5H141.637V0V0.5H143.646V0ZM139.627 0V-0.5H137.618V0V0.5H139.627V0ZM135.608 0V-0.5H133.599V0V0.5H135.608V0ZM131.59 0V-0.5H129.58V0V0.5H131.59V0ZM127.571 0V-0.5H125.561V0V0.5H127.571V0ZM123.552 0V-0.5H121.542V0V0.5H123.552V0ZM119.533 0V-0.5H117.524V0V0.5H119.533V0ZM115.514 0V-0.5H113.505V0V0.5H115.514V0ZM111.495 0V-0.5H109.486V0V0.5H111.495V0ZM107.476 0V-0.5H105.467V0V0.5H107.476V0ZM103.457 0V-0.5H101.448V0V0.5H103.457V0ZM99.4386 0V-0.5H97.4291V0V0.5H99.4386V0ZM95.4197 0V-0.5H93.4103V0V0.5H95.4197V0ZM91.4008 0V-0.5H89.3914V0V0.5H91.4008V0ZM87.382 0V-0.5H85.3725V0V0.5H87.382V0ZM83.3631 0V-0.5H81.3537V0V0.5H83.3631V0ZM79.3442 0V-0.5H77.3348V0V0.5H79.3442V0ZM75.3254 0V-0.5H73.316V0V0.5H75.3254V0ZM71.3065 0V-0.5H69.2971V0V0.5H71.3065V0ZM67.2877 0V-0.5H65.2782V0V0.5H67.2877V0ZM63.2688 0V-0.5H61.2594V0V0.5H63.2688V0ZM59.25 0V-0.5H57.2405V0V0.5H59.25V0ZM55.2311 0V-0.5H53.2217V0V0.5H55.2311V0ZM51.2122 0V-0.5H49.2028V0V0.5H51.2122V0ZM47.1934 0V-0.5H45.1839V0V0.5H47.1934V0ZM43.1745 0V-0.5H41.1651V0V0.5H43.1745V0ZM39.1557 0V-0.5H37.1462V0V0.5H39.1557V0ZM35.1368 0V-0.5H33.1274V0V0.5H35.1368V0ZM31.1179 0V-0.5H29.1085V0V0.5H31.1179V0ZM27.0991 0V-0.5H25.0896V0V0.5H27.0991V0ZM23.0802 0V-0.5H21.0708V0V0.5H23.0802V0ZM19.0614 0V-0.5H17.0519V0V0.5H19.0614V0ZM15.0425 0V-0.5H13.0331V0V0.5H15.0425V0ZM11.0236 0V-0.5H9.01421V0V0.5H11.0236V0ZM7.00477 0V-0.5H6V0V0.5H7.00477V0ZM6 0V-0.5C5.56653 -0.5 5.1425 -0.4575 4.73199 -0.37629L4.82903 0.114204L4.92606 0.604698C5.273 0.536064 5.63204 0.5 6 0.5V0ZM2.66631 1.01061L2.38815 0.595124C1.67953 1.06953 1.06953 1.67953 0.595123 2.38815L1.01061 2.66631L1.42609 2.94447C1.82778 2.34447 2.34447 1.82778 2.94447 1.42609L2.66631 1.01061ZM0.114204 4.82903L-0.37629 4.73199C-0.4575 5.1425 -0.5 5.56653 -0.5 6H0H0.5C0.5 5.63204 0.536064 5.273 0.604698 4.92606L0.114204 4.82903ZM0 6H-0.5V7.1272H0H0.5V6H0ZM0 9.38159H-0.5V11.636H0H0.5V9.38159H0ZM0 13.8904H-0.5V15.0176H0H0.5V13.8904H0ZM0 15.0176L-0.0357504 15.5163C0.244305 15.5364 0.519314 15.5762 0.788179 15.6345L0.894169 15.1459L1.00016 14.6573C0.685361 14.589 0.363413 14.5423 0.0357504 14.5189L0 15.0176ZM2.58399 15.7709L2.34744 16.2114C2.83656 16.474 3.29161 16.8038 3.70223 17.1905L4.04502 16.8265L4.38781 16.4625C3.91535 16.0175 3.38924 15.6358 2.82054 15.3304L2.58399 15.7709ZM5.19465 18.2156L4.77362 18.4853C5.07259 18.9521 5.32111 19.461 5.51007 20.0027L5.98217 19.838L6.45427 19.6733C6.23967 19.0581 5.95694 18.4787 5.61569 17.9459L5.19465 18.2156ZM6.37935 21.5975L5.88235 21.6523C5.91295 21.93 5.92871 22.2129 5.92871 22.5H6.42871H6.92871C6.92871 22.1762 6.91093 21.8568 6.87634 21.5428L6.37935 21.5975ZM6.42871 22.5H5.92871C5.92871 22.7871 5.91295 23.07 5.88236 23.3477L6.37935 23.4024L6.87635 23.4572C6.91094 23.1432 6.92871 22.8237 6.92871 22.5H6.42871ZM5.98218 25.1618L5.51008 24.9971C5.32111 25.5388 5.07259 26.0476 4.77361 26.5143L5.19462 26.784L5.61564 27.0538C5.95691 26.5211 6.23966 25.9417 6.45427 25.3265L5.98218 25.1618ZM4.04493 28.173L3.70217 27.809C3.29156 28.1956 2.8365 28.5252 2.34737 28.7878L2.58387 29.2283L2.82038 29.6689C3.38908 29.3636 3.91521 28.9819 4.38768 28.537L4.04493 28.173ZM0.894112 29.8532L0.788141 29.3645C0.519287 29.4228 0.244288 29.4626 -0.0357559 29.4827L0 29.9814L0.0357559 30.4802C0.36339 30.4567 0.68531 30.4101 1.00008 30.3418L0.894112 29.8532ZM0 29.9814H-0.5V30.9838H0H0.5V29.9814H0ZM0 32.9884H-0.5V34.993H0H0.5V32.9884H0ZM0 36.9977H-0.5V38H0H0.5V36.9977H0ZM0 38H-0.5C-0.5 38.4335 -0.4575 38.8575 -0.37629 39.268L0.114204 39.171L0.604698 39.0739C0.536064 38.727 0.5 38.368 0.5 38H0ZM1.01061 41.3337L0.595124 41.6119C1.06953 42.3205 1.67953 42.9305 2.38815 43.4049L2.66631 42.9894L2.94447 42.5739C2.34447 42.1722 1.82778 41.6555 1.42609 41.0555L1.01061 41.3337ZM4.82903 43.8858L4.73199 44.3763C5.1425 44.4575 5.56653 44.5 6 44.5V44V43.5C5.63204 43.5 5.273 43.4639 4.92606 43.3953L4.82903 43.8858ZM6 44V44.5H7.00472V44V43.5H6V44ZM9.01415 44V44.5H11.0236V44V43.5H9.01415V44ZM13.033 44V44.5H15.0425V44V43.5H13.033V44ZM17.0519 44V44.5H19.0613V44V43.5H17.0519V44ZM21.0708 44V44.5H23.0802V44V43.5H21.0708V44ZM25.0896 44V44.5H27.0991V44V43.5H25.0896V44ZM29.1085 44V44.5H31.1179V44V43.5H29.1085V44ZM33.1274 44V44.5H35.1368V44V43.5H33.1274V44ZM37.1462 44V44.5H39.1557V44V43.5H37.1462V44ZM41.1651 44V44.5H43.1745V44V43.5H41.1651V44ZM45.184 44V44.5H47.1934V44V43.5H45.184V44ZM49.2028 44V44.5H51.2123V44V43.5H49.2028V44ZM53.2217 44V44.5H55.2311V44V43.5H53.2217V44ZM57.2406 44V44.5H59.25V44V43.5H57.2406V44ZM61.2594 44V44.5H63.2689V44V43.5H61.2594V44ZM65.2783 44V44.5H67.2877V44V43.5H65.2783V44ZM69.2972 44V44.5H71.3066V44V43.5H69.2972V44ZM73.316 44V44.5H75.3255V44V43.5H73.316V44ZM77.3349 44V44.5H79.3444V44V43.5H77.3349V44ZM81.3538 44V44.5H83.3632V44V43.5H81.3538V44ZM85.3727 44V44.5H87.3821V44V43.5H85.3727V44ZM89.3915 44V44.5H91.401V44V43.5H89.3915V44ZM93.4104 44V44.5H95.4199V44V43.5H93.4104V44ZM97.4293 44V44.5H99.4387V44V43.5H97.4293V44ZM101.448 44V44.5H103.458V44V43.5H101.448V44ZM105.467 44V44.5H107.476V44V43.5H105.467V44ZM109.486 44V44.5H111.495V44V43.5H109.486V44ZM113.505 44V44.5H115.514V44V43.5H113.505V44ZM117.524 44V44.5H119.533V44V43.5H117.524V44ZM121.543 44V44.5H123.552V44V43.5H121.543V44ZM125.561 44V44.5H127.571V44V43.5H125.561V44ZM129.58 44V44.5H131.59V44V43.5H129.58V44ZM133.599 44V44.5H135.609V44V43.5H133.599V44ZM137.618 44V44.5H139.627V44V43.5H137.618V44ZM141.637 44V44.5H143.646V44V43.5H141.637V44ZM145.656 44V44.5H147.665V44V43.5H145.656V44ZM149.675 44V44.5H151.684V44V43.5H149.675V44ZM153.693 44V44.5H155.703V44V43.5H153.693V44ZM157.712 44V44.5H159.722V44V43.5H157.712V44ZM161.731 44V44.5H163.741V44V43.5H161.731V44ZM165.75 44V44.5H167.759V44V43.5H165.75V44ZM169.769 44V44.5H171.778V44V43.5H169.769V44ZM173.788 44V44.5H175.797V44V43.5H173.788V44ZM177.807 44V44.5H179.816V44V43.5H177.807V44ZM181.825 44V44.5H183.835V44V43.5H181.825V44ZM185.844 44V44.5H187.854V44V43.5H185.844V44ZM189.863 44V44.5H191.873V44V43.5H189.863V44ZM193.882 44V44.5H195.891V44V43.5H193.882V44ZM197.901 44V44.5H199.91V44V43.5H197.901V44ZM201.92 44V44.5H203.929V44V43.5H201.92V44ZM205.939 44V44.5H207.948V44V43.5H205.939V44ZM209.958 44V44.5H211.967V44V43.5H209.958V44ZM213.976 44V44.5H215.986V44V43.5H213.976V44ZM217.995 44V44.5H219V44V43.5H217.995V44ZM219 44V44.5C219.433 44.5 219.857 44.4575 220.268 44.3763L220.171 43.8858L220.074 43.3953C219.727 43.4639 219.368 43.5 219 43.5V44ZM222.334 42.9894L222.612 43.4049C223.32 42.9305 223.93 42.3205 224.405 41.6119L223.989 41.3337L223.574 41.0555C223.172 41.6555 222.656 42.1722 222.056 42.5739L222.334 42.9894ZM224.886 39.171L225.376 39.268C225.458 38.8575 225.5 38.4335 225.5 38H225H224.5C224.5 38.368 224.464 38.727 224.395 39.0739L224.886 39.171ZM225 38H225.5V36.9977H225H224.5V38H225ZM225 34.993H225.5V32.9884H225H224.5V34.993H225ZM225 30.9838H225.5V29.9814H225H224.5V30.9838H225ZM225 29.9814L224.964 29.4827C224.928 29.4853 224.892 29.4877 224.856 29.4898L224.885 29.989L224.915 30.4881C224.956 30.4857 224.996 30.483 225.036 30.4802L225 29.9814ZM224.656 29.9986L224.644 29.4988C224.61 29.4996 224.575 29.5 224.541 29.5L224.541 30L224.541 30.5C224.584 30.5 224.626 30.4995 224.667 30.4985L224.656 29.9986ZM224.541 30V29.5C224.247 29.5 223.958 29.4783 223.675 29.4363L223.602 29.9309L223.528 30.4254C223.86 30.4746 224.198 30.5 224.541 30.5V30ZM221.805 29.3852L222.019 28.933C221.495 28.6859 221.006 28.3636 220.564 27.9776L220.235 28.3543L219.906 28.7309C220.416 29.1757 220.982 29.5496 221.592 29.8374L221.805 29.3852ZM218.993 26.9447L219.407 26.6644C219.083 26.1862 218.813 25.6607 218.608 25.0989L218.138 25.2704L217.669 25.4419C217.902 26.0802 218.209 26.6787 218.578 27.2249L218.993 26.9447ZM217.707 23.4406L218.204 23.3836C218.17 23.0944 218.153 22.7995 218.153 22.5H217.653H217.153C217.153 22.8377 217.173 23.1707 217.21 23.4977L217.707 23.4406ZM217.653 22.5H218.153C218.153 22.2005 218.17 21.9056 218.204 21.6164L217.707 21.5594L217.21 21.5023C217.173 21.8293 217.153 22.1623 217.153 22.5H217.653ZM218.138 19.7296L218.608 19.9011C218.813 19.3393 219.083 18.8138 219.407 18.3356L218.993 18.0553L218.578 17.7751C218.209 18.3213 217.902 18.9198 217.669 19.5581L218.138 19.7296ZM220.235 16.6457L220.564 17.0224C221.006 16.6364 221.495 16.3141 222.019 16.067L221.805 15.6148L221.592 15.1626C220.982 15.4504 220.416 15.8243 219.906 16.2691L220.235 16.6457ZM223.602 15.0691L223.675 15.5637C223.958 15.5217 224.247 15.5 224.541 15.5V15V14.5C224.198 14.5 223.86 14.5254 223.528 14.5746L223.602 15.0691ZM224.541 15L224.541 15.5C224.576 15.5 224.611 15.5004 224.646 15.5011L224.656 15.0012L224.666 14.5013C224.625 14.5005 224.583 14.5 224.541 14.5L224.541 15ZM224.885 15.0102L224.857 15.5094C224.893 15.5114 224.928 15.5137 224.964 15.5163L225 15.0176L225.036 14.5189C224.995 14.516 224.955 14.5133 224.914 14.511L224.885 15.0102ZM225 15.0176H225.5V13.8904H225H224.5V15.0176H225ZM225 11.636H225.5V9.38159H225H224.5V11.636H225ZM225 7.1272H225.5V6H225H224.5V7.1272H225ZM225 6H225.5C225.5 5.56653 225.458 5.1425 225.376 4.73199L224.886 4.82903L224.395 4.92606C224.464 5.273 224.5 5.63204 224.5 6H225ZM223.989 2.66631L224.405 2.38815C223.93 1.67953 223.32 1.06953 222.612 0.595123L222.334 1.01061L222.056 1.42609C222.656 1.82778 223.172 2.34447 223.574 2.94447L223.989 2.66631ZM220.171 0.114204L220.268 -0.37629C219.857 -0.4575 219.433 -0.5 219 -0.5V0V0.5C219.368 0.5 219.727 0.536064 220.074 0.604698L220.171 0.114204ZM225 6H226H225ZM225 15.0176L224.928 16.015L226 16.0918V15.0176H225ZM224.541 15L224.541 14H224.541V15ZM224.541 30V31H224.541L224.541 30ZM225 29.9814H226V28.9072L224.928 28.984L225 29.9814ZM219 44V45V44ZM0 38H-1H0ZM0 29.9814L-0.0715118 28.984L-1 29.0506V29.9814H0ZM0 15.0176H-1V15.9485L-0.0715009 16.015L0 15.0176ZM6 0V-1V0ZM219 0V-1H217.995V0V1H219V0ZM215.986 0V-1H213.976V0V1H215.986V0ZM211.967 0V-1H209.958V0V1H211.967V0ZM207.948 0V-1H205.939V0V1H207.948V0ZM203.929 0V-1H201.92V0V1H203.929V0ZM199.91 0V-1H197.901V0V1H199.91V0ZM195.892 0V-1H193.882V0V1H195.892V0ZM191.873 0V-1H189.863V0V1H191.873V0ZM187.854 0V-1H185.844V0V1H187.854V0ZM183.835 0V-1H181.825V0V1H183.835V0ZM179.816 0V-1H177.807V0V1H179.816V0ZM175.797 0V-1H173.788V0V1H175.797V0ZM171.778 0V-1H169.769V0V1H171.778V0ZM167.759 0V-1H165.75V0V1H167.759V0ZM163.741 0V-1H161.731V0V1H163.741V0ZM159.722 0V-1H157.712V0V1H159.722V0ZM155.703 0V-1H153.693V0V1H155.703V0ZM151.684 0V-1H149.675V0V1H151.684V0ZM147.665 0V-1H145.656V0V1H147.665V0ZM143.646 0V-1H141.637V0V1H143.646V0ZM139.627 0V-1H137.618V0V1H139.627V0ZM135.608 0V-1H133.599V0V1H135.608V0ZM131.59 0V-1H129.58V0V1H131.59V0ZM127.571 0V-1H125.561V0V1H127.571V0ZM123.552 0V-1H121.542V0V1H123.552V0ZM119.533 0V-1H117.524V0V1H119.533V0ZM115.514 0V-1H113.505V0V1H115.514V0ZM111.495 0V-1H109.486V0V1H111.495V0ZM107.476 0V-1H105.467V0V1H107.476V0ZM103.457 0V-1H101.448V0V1H103.457V0ZM99.4386 0V-1H97.4291V0V1H99.4386V0ZM95.4197 0V-1H93.4103V0V1H95.4197V0ZM91.4008 0V-1H89.3914V0V1H91.4008V0ZM87.382 0V-1H85.3725V0V1H87.382V0ZM83.3631 0V-1H81.3537V0V1H83.3631V0ZM79.3442 0V-1H77.3348V0V1H79.3442V0ZM75.3254 0V-1H73.316V0V1H75.3254V0ZM71.3065 0V-1H69.2971V0V1H71.3065V0ZM67.2877 0V-1H65.2782V0V1H67.2877V0ZM63.2688 0V-1H61.2594V0V1H63.2688V0ZM59.25 0V-1H57.2405V0V1H59.25V0ZM55.2311 0V-1H53.2217V0V1H55.2311V0ZM51.2122 0V-1H49.2028V0V1H51.2122V0ZM47.1934 0V-1H45.1839V0V1H47.1934V0ZM43.1745 0V-1H41.1651V0V1H43.1745V0ZM39.1557 0V-1H37.1462V0V1H39.1557V0ZM35.1368 0V-1H33.1274V0V1H35.1368V0ZM31.1179 0V-1H29.1085V0V1H31.1179V0ZM27.0991 0V-1H25.0896V0V1H27.0991V0ZM23.0802 0V-1H21.0708V0V1H23.0802V0ZM19.0614 0V-1H17.0519V0V1H19.0614V0ZM15.0425 0V-1H13.0331V0V1H15.0425V0ZM11.0236 0V-1H9.01421V0V1H11.0236V0ZM7.00477 0V-1H6V0V1H7.00477V0ZM6 0V-1C5.53378 -1 5.07725 -0.954282 4.63496 -0.866784L4.82903 0.114204L5.0231 1.09519C5.33825 1.03285 5.66479 1 6 1V0ZM2.66631 1.01061L2.10999 0.179639C1.34706 0.690407 0.690407 1.34706 0.179639 2.10999L1.01061 2.66631L1.84158 3.22263C2.20691 2.67694 2.67694 2.20691 3.22263 1.84158L2.66631 1.01061ZM0.114204 4.82903L-0.866784 4.63496C-0.954282 5.07725 -1 5.53378 -1 6H0H1C1 5.66479 1.03285 5.33825 1.09519 5.0231L0.114204 4.82903ZM0 6H-1V7.1272H0H1V6H0ZM0 9.38159H-1V11.636H0H1V9.38159H0ZM0 13.8904H-1V15.0176H0H1V13.8904H0ZM0 15.0176L-0.0715009 16.015C0.18475 16.0334 0.43629 16.0698 0.682188 16.1232L0.894169 15.1459L1.10615 14.1686C0.768385 14.0954 0.422968 14.0453 0.0715009 14.0201L0 15.0176ZM2.58399 15.7709L2.11089 16.6519C2.56022 16.8932 2.97974 17.1969 3.35943 17.5545L4.04502 16.8265L4.73061 16.0985C4.22723 15.6244 3.66558 15.2166 3.05709 14.8899L2.58399 15.7709ZM5.19465 18.2156L4.35259 18.755C4.63041 19.1887 4.86182 19.6624 5.03797 20.1674L5.98217 19.838L6.92637 19.5087C6.69896 18.8567 6.39911 18.242 6.03672 17.6763L5.19465 18.2156ZM6.37935 21.5975L5.38536 21.707C5.41395 21.9666 5.42871 22.2312 5.42871 22.5H6.42871H7.42871C7.42871 22.1579 7.40993 21.8202 7.37334 21.488L6.37935 21.5975ZM6.42871 22.5H5.42871C5.42871 22.7688 5.41395 23.0334 5.38536 23.2929L6.37935 23.4024L7.37334 23.5119C7.40993 23.1798 7.42871 22.8421 7.42871 22.5H6.42871ZM5.98218 25.1618L5.03799 24.8324C4.86184 25.3373 4.63043 25.8109 4.3526 26.2446L5.19462 26.784L6.03665 27.3235C6.39907 26.7578 6.69894 26.1431 6.92637 25.4912L5.98218 25.1618ZM4.04493 28.173L3.35942 27.4449C2.97973 27.8024 2.56021 28.1061 2.11087 28.3473L2.58387 29.2283L3.05688 30.1094C3.66537 29.7827 4.22703 29.375 4.73043 28.9011L4.04493 28.173ZM0.894112 29.8532L0.682171 28.8759C0.436275 28.9292 0.184738 28.9656 -0.0715118 28.984L0 29.9814L0.0715118 30.9789C0.42294 30.9537 0.768321 30.9037 1.10605 30.8304L0.894112 29.8532ZM0 29.9814H-1V30.9838H0H1V29.9814H0ZM0 32.9884H-1V34.993H0H1V32.9884H0ZM0 36.9977H-1V38H0H1V36.9977H0ZM0 38H-1C-1 38.4662 -0.954282 38.9227 -0.866784 39.365L0.114204 39.171L1.09519 38.9769C1.03285 38.6618 1 38.3352 1 38H0ZM1.01061 41.3337L0.179639 41.89C0.690407 42.6529 1.34706 43.3096 2.10999 43.8204L2.66631 42.9894L3.22263 42.1584C2.67694 41.7931 2.20691 41.3231 1.84158 40.7774L1.01061 41.3337ZM4.82903 43.8858L4.63496 44.8668C5.07725 44.9543 5.53378 45 6 45V44V43C5.66479 43 5.33825 42.9672 5.0231 42.9048L4.82903 43.8858ZM6 44V45H7.00472V44V43H6V44ZM9.01415 44V45H11.0236V44V43H9.01415V44ZM13.033 44V45H15.0425V44V43H13.033V44ZM17.0519 44V45H19.0613V44V43H17.0519V44ZM21.0708 44V45H23.0802V44V43H21.0708V44ZM25.0896 44V45H27.0991V44V43H25.0896V44ZM29.1085 44V45H31.1179V44V43H29.1085V44ZM33.1274 44V45H35.1368V44V43H33.1274V44ZM37.1462 44V45H39.1557V44V43H37.1462V44ZM41.1651 44V45H43.1745V44V43H41.1651V44ZM45.184 44V45H47.1934V44V43H45.184V44ZM49.2028 44V45H51.2123V44V43H49.2028V44ZM53.2217 44V45H55.2311V44V43H53.2217V44ZM57.2406 44V45H59.25V44V43H57.2406V44ZM61.2594 44V45H63.2689V44V43H61.2594V44ZM65.2783 44V45H67.2877V44V43H65.2783V44ZM69.2972 44V45H71.3066V44V43H69.2972V44ZM73.316 44V45H75.3255V44V43H73.316V44ZM77.3349 44V45H79.3444V44V43H77.3349V44ZM81.3538 44V45H83.3632V44V43H81.3538V44ZM85.3727 44V45H87.3821V44V43H85.3727V44ZM89.3915 44V45H91.401V44V43H89.3915V44ZM93.4104 44V45H95.4199V44V43H93.4104V44ZM97.4293 44V45H99.4387V44V43H97.4293V44ZM101.448 44V45H103.458V44V43H101.448V44ZM105.467 44V45H107.476V44V43H105.467V44ZM109.486 44V45H111.495V44V43H109.486V44ZM113.505 44V45H115.514V44V43H113.505V44ZM117.524 44V45H119.533V44V43H117.524V44ZM121.543 44V45H123.552V44V43H121.543V44ZM125.561 44V45H127.571V44V43H125.561V44ZM129.58 44V45H131.59V44V43H129.58V44ZM133.599 44V45H135.609V44V43H133.599V44ZM137.618 44V45H139.627V44V43H137.618V44ZM141.637 44V45H143.646V44V43H141.637V44ZM145.656 44V45H147.665V44V43H145.656V44ZM149.675 44V45H151.684V44V43H149.675V44ZM153.693 44V45H155.703V44V43H153.693V44ZM157.712 44V45H159.722V44V43H157.712V44ZM161.731 44V45H163.741V44V43H161.731V44ZM165.75 44V45H167.759V44V43H165.75V44ZM169.769 44V45H171.778V44V43H169.769V44ZM173.788 44V45H175.797V44V43H173.788V44ZM177.807 44V45H179.816V44V43H177.807V44ZM181.825 44V45H183.835V44V43H181.825V44ZM185.844 44V45H187.854V44V43H185.844V44ZM189.863 44V45H191.873V44V43H189.863V44ZM193.882 44V45H195.891V44V43H193.882V44ZM197.901 44V45H199.91V44V43H197.901V44ZM201.92 44V45H203.929V44V43H201.92V44ZM205.939 44V45H207.948V44V43H205.939V44ZM209.958 44V45H211.967V44V43H209.958V44ZM213.976 44V45H215.986V44V43H213.976V44ZM217.995 44V45H219V44V43H217.995V44ZM219 44V45C219.466 45 219.923 44.9543 220.365 44.8668L220.171 43.8858L219.977 42.9048C219.662 42.9672 219.335 43 219 43V44ZM222.334 42.9894L222.89 43.8204C223.653 43.3096 224.31 42.6529 224.82 41.89L223.989 41.3337L223.158 40.7774C222.793 41.3231 222.323 41.7931 221.777 42.1584L222.334 42.9894ZM224.886 39.171L225.867 39.365C225.954 38.9227 226 38.4662 226 38H225H224C224 38.3352 223.967 38.6618 223.905 38.9769L224.886 39.171ZM225 38H226V36.9977H225H224V38H225ZM225 34.993H226V32.9884H225H224V34.993H225ZM225 30.9838H226V29.9814H225H224V30.9838H225ZM225 29.9814L224.928 28.984C224.894 28.9865 224.86 28.9887 224.827 28.9907L224.885 29.989L224.944 30.9872C224.987 30.9847 225.03 30.9819 225.072 30.9789L225 29.9814ZM224.656 29.9986L224.633 28.9989C224.602 28.9996 224.571 29 224.541 29L224.541 30L224.541 31C224.588 31 224.634 30.9994 224.679 30.9984L224.656 29.9986ZM224.541 30V29C224.272 29 224.007 28.9801 223.749 28.9417L223.602 29.9309L223.455 30.92C223.81 30.9728 224.173 31 224.541 31V30ZM221.805 29.3852L222.232 28.4808C221.752 28.2541 221.301 27.9576 220.893 27.601L220.235 28.3543L219.578 29.1075C220.121 29.5817 220.725 29.9814 221.379 30.2896L221.805 29.3852ZM218.993 26.9447L219.821 26.3842C219.52 25.9399 219.269 25.451 219.078 24.9273L218.138 25.2704L217.199 25.6135C217.446 26.2899 217.772 26.9249 218.164 27.5051L218.993 26.9447ZM217.707 23.4406L218.7 23.3265C218.669 23.0562 218.653 22.7804 218.653 22.5H217.653H216.653C216.653 22.8568 216.674 23.2088 216.714 23.5548L217.707 23.4406ZM217.653 22.5H218.653C218.653 22.2196 218.669 21.9438 218.7 21.6735L217.707 21.5594L216.714 21.4452C216.674 21.7912 216.653 22.1432 216.653 22.5H217.653ZM218.138 19.7296L219.078 20.0727C219.269 19.549 219.52 19.0601 219.821 18.6158L218.993 18.0553L218.164 17.4949C217.772 18.0751 217.446 18.7101 217.199 19.3865L218.138 19.7296ZM220.235 16.6457L220.893 17.399C221.301 17.0424 221.752 16.7459 222.232 16.5192L221.805 15.6148L221.379 14.7104C220.725 15.0186 220.121 15.4183 219.578 15.8925L220.235 16.6457ZM223.602 15.0691L223.749 16.0583C224.007 16.0199 224.272 16 224.541 16V15V14C224.173 14 223.81 14.0272 223.455 14.08L223.602 15.0691ZM224.541 15L224.541 16C224.572 16 224.604 16.0003 224.635 16.001L224.656 15.0012L224.677 14.0014C224.632 14.0005 224.587 14 224.541 14L224.541 15ZM224.885 15.0102L224.829 16.0086C224.862 16.0105 224.895 16.0126 224.928 16.015L225 15.0176L225.072 14.0201C225.029 14.0171 224.985 14.0143 224.942 14.0118L224.885 15.0102ZM225 15.0176H226V13.8904H225H224V15.0176H225ZM225 11.636H226V9.38159H225H224V11.636H225ZM225 7.1272H226V6H225H224V7.1272H225ZM225 6H226C226 5.53378 225.954 5.07725 225.867 4.63496L224.886 4.82903L223.905 5.0231C223.967 5.33825 224 5.66479 224 6H225ZM223.989 2.66631L224.82 2.10999C224.31 1.34706 223.653 0.690407 222.89 0.179639L222.334 1.01061L221.777 1.84158C222.323 2.20691 222.793 2.67694 223.158 3.22263L223.989 2.66631ZM220.171 0.114204L220.365 -0.866784C219.923 -0.954282 219.466 -1 219 -1V0V1C219.335 1 219.662 1.03285 219.977 1.09519L220.171 0.114204Z" fill="#D5D5D5" mask="url(#path-1-inside-1_1_530)"/>
</svg>
