<svg width="170" height="75" viewBox="0 0 170 75" fill="none" xmlns="http://www.w3.org/2000/svg">
<g clip-path="url(#clip0_245_2057)">
<path fill-rule="evenodd" clip-rule="evenodd" d="M76.1775 54.3335C78.458 56.1589 80.5618 56.9159 77.9451 59.851C77.7041 60.1226 76.4219 61.3533 76.1863 61.4936C76.0534 61.5726 75.9868 61.6374 75.8074 61.6196C75.6185 61.6016 73.048 59.5994 72.78 59.3422C72.6685 59.2361 72.4382 59.1067 72.4724 58.9233L76.1775 54.3335ZM71.9568 58.5903H-0.000244141V57.8354H71.9568V58.5903ZM170 58.5903H79.8972V57.8354H170V58.5903ZM146.688 40.8374C146.85 40.8319 147.028 40.7946 147.134 40.9614C147.376 41.3444 146.296 44.9211 146.039 45.5405C144.873 48.3335 142.082 51.4429 138.714 50.7544C138.241 50.6573 137.625 50.1238 137.088 49.9887C135.892 49.6884 134.47 50.6053 133.58 51.3481C133.301 51.5809 132.16 53.0093 131.818 52.6713L131.816 52.6733C131.494 52.3532 132.624 50.4934 132.848 50.1157C133.949 48.2631 136.91 44.5297 139.19 44.3588C140.242 44.28 140.684 45.1051 141.593 45.2329C144.168 45.5926 146.37 43.2635 146.688 40.8374ZM105.687 34.685C106.232 34.6419 105.711 36.0674 105.608 36.3735C102.54 45.6448 88.6372 48.7184 80.1716 50.3676C69.1703 52.5114 53.3925 53.7683 42.4685 51.353C37.8697 50.335 36.3725 49.1465 36.8005 44.1772C36.8222 43.918 36.9954 42.7299 37.24 42.7299C38.7975 44.1524 41.1733 44.6417 43.2019 45.0805C57.6023 48.1973 74.8336 46.8518 89.0974 43.4204C93.7897 42.2909 100.911 40.5482 104.089 36.7426C104.465 36.293 105.257 34.7193 105.687 34.685ZM135.594 23.5903C135.772 23.7279 135.272 26.203 135.219 26.6743C134.551 32.5248 133.459 39.0216 126.755 40.7553C126.325 40.8667 125.444 40.8758 125.136 41.0268C125.005 41.0916 123.762 42.5889 123.361 42.9038C121.108 44.6735 117.874 45.0569 115.685 42.978C115.16 45.8572 113.72 49.2291 111.589 51.2866C110.2 52.6246 108.069 52.9541 106.668 51.4204C105.229 49.8431 106.732 48.1842 107.178 46.5044C108.407 41.8933 107.153 36.9656 108.658 32.4965C109.253 30.7323 110.151 29.0738 110.912 27.3833L111.273 27.3667C111.201 28.2965 110.841 29.1838 110.679 30.1118C109.604 36.2768 111.264 41.6722 107.971 47.5512C107.75 47.9469 107.11 48.654 106.989 48.9633C106.869 49.2724 107.428 49.1524 107.542 49.1362C110.027 48.8052 112.302 46.8947 113.48 44.7456C115.471 41.1145 114.759 35.3435 115.32 31.2251C115.655 28.7791 117.08 26.4063 117.575 23.9712C118.064 23.9442 117.975 24.5678 117.957 24.9204C117.77 28.6037 115.626 35.4785 119.297 37.9262C119.599 38.1278 120.807 38.7331 121.012 38.2944C121.257 37.7711 121.396 36.8829 121.636 36.2768C122.102 35.0989 122.76 33.8847 123.517 32.8686C124.584 31.4406 126.697 29.0307 128.263 31.3579C129.45 33.1221 128.742 35.3879 128.034 37.1899C129.546 36.8751 131.456 35.8267 132.05 34.3413C132.79 32.4889 132.31 30.3758 132.947 28.4389C133.461 26.8706 134.541 25.5592 135.041 23.9819L135.594 23.5932V23.5903ZM20.3269 14.437C21.0666 13.7612 24.154 14.5709 24.9812 15.06C27.0329 16.2741 24.4059 19.7879 23.2458 20.8149C21.2244 22.6062 15.7889 26.0393 15.2761 28.7172C14.7707 31.3628 18.5356 30.7713 19.6345 32.8647C21.8754 37.1344 17.5733 45.44 14.5554 48.645C9.76067 53.7401 0.759158 53.972 0.127686 45.4331C-0.302153 39.6132 1.55774 34.7643 4.21948 29.7573C4.55932 29.1154 6.37297 25.7154 6.86987 25.6059C6.99756 25.5735 7.14202 25.7067 7.17261 25.811C7.35605 26.4387 5.0877 30.3204 4.67944 31.2251C2.9259 35.1172 -0.0337351 43.7075 5.5105 45.8442C9.51934 47.3891 15.2947 44.7639 17.4421 41.2065C20.0949 36.8128 14.4208 37.8498 13.0828 35.1323C12.2916 33.5262 12.9298 30.8453 13.4783 29.1889C14.5969 25.8113 16.9059 22.9621 19.4041 20.5053C19.082 20.1277 17.9796 19.8219 18.0408 19.2788C18.0894 18.8488 18.5968 17.7109 18.7947 17.2505C19.0339 16.6983 19.9618 14.7715 20.3269 14.437ZM32.7019 22.8403C32.9627 22.8331 32.9052 23.9425 32.8962 24.1655C32.7523 27.7589 30.5098 34.5541 34.614 36.6655C36.2884 37.5269 37.8896 37.2982 39.4812 36.4116C40.5566 35.8126 41.7273 34.3361 42.907 34.2876C43.4987 34.2642 43.8676 34.5485 44.2957 34.5503C45.4845 34.5553 47.3543 32.4184 47.8992 31.4077V31.4047C49.2966 32.09 49.9858 31.2547 50.5164 30.0551C50.6801 29.686 50.9804 28.4331 51.1638 28.309C51.2823 28.2283 51.3738 28.3591 51.3992 28.4526C51.5107 28.8519 51.212 30.1708 51.1023 30.6421C50.7012 32.3631 49.8346 34.325 48.1873 35.1577C47.8366 35.3357 47.4357 35.3829 47.0886 35.5717C45.7901 36.2785 44.3944 38.3288 42.783 38.3325C41.7578 38.3343 41.3512 37.7891 40.2361 38.4204C39.425 38.8808 38.9035 39.9689 38.3064 40.6469C36.3316 42.8825 33.0136 44.0961 30.8123 41.4721C30.6684 41.4649 30.1289 43.8755 30.0261 44.2094C29.242 46.747 27.0587 52.6604 23.658 52.1411C23.1077 52.0566 22.1237 51.5785 21.7458 51.1577C20.3718 49.6254 21.7063 47.9525 22.1433 46.2817C23.2566 42.0264 22.6707 37.5641 23.2048 33.2387C23.534 30.5735 24.9206 28.4496 26.0896 26.1098C26.7759 26.1301 26.2166 27.1494 26.1267 27.5971C24.893 33.8432 26.1751 40.5766 23.5027 46.5044L22.0554 48.8989C24.2171 48.8808 26.1774 47.5817 27.4705 45.938C30.713 41.8175 29.6893 34.2747 30.531 29.2299C30.7792 27.7426 31.8479 24.7859 32.4216 23.313C32.4917 23.135 32.5296 22.9572 32.7019 22.8403ZM154.625 23.3383C154.801 23.3533 154.846 23.907 154.86 24.0454C155.119 26.8348 154.216 31.0338 153.995 33.976C153.811 36.4093 153.225 40.5732 154.752 42.5337C155.007 42.861 155.947 43.9126 156.33 43.6176C156.55 43.4465 157.406 41.612 157.672 41.1753C158.562 39.713 160.371 36.9279 161.931 36.2407C164.458 35.1274 166.944 37.3812 169.493 37.187L169.495 37.188C169.513 37.5027 169.417 37.8002 169.331 38.0952C168.996 39.2531 168.437 39.3271 167.734 40.1489C165.383 42.8952 164.218 46.0032 161.04 48.3178C158.472 50.1882 154.135 50.9628 152.254 47.7993C150.204 44.3495 151.934 34.9822 152.353 30.8276C152.468 29.6909 152.321 28.525 152.751 27.4477C153.278 26.1277 154.348 24.8292 154.625 23.3383ZM133.466 41.0405C133.734 40.7938 134.881 40.0951 135.073 40.6684C135.231 41.2672 134.886 41.6862 134.699 42.2094C132.859 41.7041 132.909 43.8503 132.172 44.9096C131.531 45.8284 130.08 46.3188 129.498 45.1049C129.005 44.0817 129.539 43.2203 129.8 42.2241C130.116 42.3895 129.771 42.9687 129.8 43.2817C129.852 43.85 130.303 44.2425 130.87 44.2407C132.436 44.2335 132.464 41.9559 133.466 41.0405ZM166.09 40.145C164.755 39.4113 162.837 38.588 161.27 38.854H161.272C159.873 39.0913 158.545 41.3442 157.88 42.5151C157.676 42.8747 157.242 43.5654 157.121 43.9018C157.079 44.0169 156.939 44.0658 157.14 44.1772C157.547 44.402 159.212 44.409 159.732 44.3676C162.358 44.159 164.64 42.2061 166.09 40.145ZM58.3445 21.4497C58.0765 23.3543 57.7966 25.2648 57.5916 27.1801C57.142 31.3815 57.1437 38.6451 53.8777 41.7241C53.6942 41.8967 53.5969 42.0241 53.3074 41.9702C53.2895 40.9038 53.7156 39.8945 53.8972 38.8462C54.5302 35.1738 54.3904 31.5535 54.822 27.935C55.1368 25.2932 56.6798 23.8004 57.9099 21.5776L58.3445 21.4497ZM143.156 20.9985C142.226 24.7734 142.27 28.7442 141.77 32.5893C141.367 35.6881 140.652 39.1039 138.182 41.2153C138.005 41.0895 137.991 41.0012 137.998 40.7944C138.03 39.9581 138.553 38.5337 138.71 37.5913C139.319 33.9189 139.028 29.8311 139.661 26.3296C140.024 24.3207 141.769 22.3907 142.844 20.6948L143.156 20.9985ZM126.958 34.4243C126.402 33.8075 125.521 33.6523 124.726 33.8159H124.724C123.527 34.0623 122.118 35.8053 123.37 36.8755C125.141 38.3916 128.977 36.6652 126.958 34.4243ZM114.363 17.0483C116.435 18.9223 118.761 19.2879 116.369 22.3217C116.162 22.5841 114.359 24.4104 114.211 24.4546C114.065 24.4959 113.93 24.4942 113.799 24.4096L110.664 22.063H110.662L110.711 21.7055L114.363 17.0483ZM121.417 16.8217C122.249 17.5752 124.548 18.7535 124.5 19.9907C124.444 21.3898 122.261 23.3196 121.171 24.0913L120.807 23.9516L117.711 21.4028L121.417 16.8217ZM148.909 16.0434C149.689 16.7106 151.978 18.025 151.984 19.1167C151.993 20.586 149.751 22.5218 148.641 23.3383L145.177 20.6372L148.909 16.0415V16.0434ZM132.14 16.0376C134.138 17.5931 136.539 18.3725 134.334 21.1313C134.053 21.482 132.211 23.342 131.9 23.3169L128.728 20.9477L128.536 20.6313L132.14 16.0376ZM164.162 15.7954C164.306 15.7576 164.421 15.7988 164.523 15.9028C165.045 16.6275 166.82 17.4496 167.132 18.2085C167.837 19.9296 165.13 22.0917 163.995 23.0737L160.423 20.3794L164.16 15.7954H164.162Z" fill="white"/>
</g>
<defs>
<clipPath id="clip0_245_2057">
<rect width="170" height="75" fill="white"/>
</clipPath>
</defs>
</svg>
