<?xml version="1.0" encoding="UTF-8"?>
<svg id="Layer_2" data-name="Layer 2" xmlns="http://www.w3.org/2000/svg" viewBox="0 0 70 70">
  <defs>
    <style>
      .cls-1 {
        fill: #fff;
      }
    </style>
  </defs>
  <g id="Layer_1-2" data-name="Layer 1">
    <g id="ldx63l.tif">
      <g>
        <path class="cls-1" d="M41.44.61c.41.43-1.05.12-1.14.11C21.94.2,18.39,16.76,22.28,31.53c2.17,8.24,8.73,17.58.51,24.59-6.29,5.36-14.37,3.02-18.23-3.86C-9.5,27.19,10.88-3.16,39.31.27c.3.04,2.05.27,2.13.35Z"/>
        <path class="cls-1" d="M16.22,64.57c-.02-.24.23-.1.35-.05.97.38,1.87.99,2.82,1.4,8.09,3.5,16.29,3.55,24.42.12,15.53-6.55,19.39-26.82,9.38-39.83-3.15-4.1-6.51-6.25-10.19-9.6s-4.41-8.32-.6-11.71c3.76-3.35,7.55-1.82,11.22.49,15.83,9.97,20.92,30.14,12.02,46.63-.69,1.28-1.7,2.17-1.63,3.68.19,4,1.33,8.38,1.57,12.44.03.53-.03.76-.63.63-3.54-.86-7.03-2-10.57-2.83-.55-.13-1.36-.43-1.9-.41-.67.02-2.05.93-2.75,1.24-7.36,3.24-14.63,4.1-22.53,2.33-3.94-.88-7.51-2.51-10.98-4.53Z"/>
      </g>
    </g>
  </g>
</svg>